<svg width="71" height="71" viewBox="0 0 71 71" fill="none" xmlns="http://www.w3.org/2000/svg">
<circle cx="35.7266" cy="35.5988" r="28.6318" transform="rotate(-15 35.7266 35.5988)" fill="white"/>
<path d="M61.9896 31.6484C60.5877 22.775 55.009 14.8349 46.8784 10.8496C46.0975 10.4482 45.2655 10.0976 44.4557 9.76728C44.2056 9.66905 43.1134 9.29473 42.8939 9.21005C42.717 9.15416 42.1351 8.98987 41.9377 8.93228C40.7196 8.56474 39.3194 8.28359 38.0553 8.0922C37.4582 7.9838 36.6909 7.93129 36.0818 7.86863C35.9151 7.8483 35.5884 7.82628 35.4217 7.82628C34.3702 7.76531 33.1572 7.78733 32.1194 7.83475C31.5052 7.90081 30.7566 7.94823 30.151 8.03969C29.8821 8.09558 28.7644 8.25479 28.5262 8.31069C28.0668 8.41231 27.3846 8.58507 26.9252 8.68838C25.047 9.21852 23.1466 9.92818 21.4265 10.8462L20.2713 11.4745C19.8681 11.7252 18.9817 12.274 18.6057 12.5314C18.3437 12.7296 17.8027 13.1056 17.5407 13.3021C17.4029 13.3935 17.1443 13.5951 17.0201 13.7035C16.9299 13.7628 15.9398 14.6028 15.8785 14.6418C15.4855 15.0093 14.953 15.5056 14.5583 15.8748C14.1449 16.3237 13.6089 16.8538 13.2125 17.3128L12.3721 18.3206C9.77926 21.5471 7.87547 25.3495 6.98738 29.3924C5.7267 35.1341 6.40553 41.2772 8.75676 46.6632C8.96773 47.2391 9.34032 47.881 9.60062 48.4348C10.0617 49.3325 10.7065 50.4097 11.2849 51.2362C11.7613 51.9493 12.3176 52.6624 12.857 53.3263C13.022 53.5245 13.7961 54.373 13.9424 54.5492C21.4299 62.4351 33.7867 65.328 44.027 61.5832C50.7081 59.1544 56.2799 54.0055 59.5601 47.7319C61.2257 44.5647 62.2958 41.0909 62.6599 37.5273C62.5578 39.3193 62.2975 41.1095 61.8416 42.8557C57.1731 59.9995 39.4453 68.9898 22.8114 62.3301C17.8708 60.3823 13.4422 57.0423 10.3186 52.7352C6.60288 47.5693 4.59191 41.2196 4.66167 34.8699C4.68208 34.3753 4.7093 33.6351 4.73142 33.1389C4.80628 32.4936 4.86583 31.7077 4.9645 31.0725C5.05808 30.5797 5.218 29.4906 5.349 29.0265C5.43067 28.6878 5.5991 28.0154 5.68076 27.6783C5.87471 27.0127 6.09759 26.3539 6.31536 25.695C7.91971 21.3642 10.5432 17.4093 13.9526 14.281C14.1159 14.1235 14.56 13.7323 14.7199 13.5815C15.067 13.2699 15.9721 12.5687 16.3328 12.2723C16.9674 11.8387 17.6717 11.2916 18.3335 10.9021C28.8699 3.96122 43.7037 5.53638 52.9436 13.8932C57.9932 18.4493 61.2835 24.9176 61.9913 31.6484H61.9896Z" fill="#292D33"/>
<path d="M44.6599 36.0339H22.6599M22.6599 36.0339L30.1948 28.5339M22.6599 36.0339L30.1948 43.5339" stroke="#292D33" stroke-width="2" stroke-linejoin="round"/>
</svg>
