<svg width="71" height="71" viewBox="0 0 71 71" fill="none" xmlns="http://www.w3.org/2000/svg">
<circle cx="35.7266" cy="35.5939" r="28.6318" transform="rotate(-15 35.7266 35.5939)" fill="white"/>
<path d="M9.33023 31.6484C10.7321 22.775 16.3108 14.8349 24.4414 10.8496C25.2223 10.4482 26.0543 10.0976 26.8641 9.76728C27.1142 9.66905 28.2065 9.29473 28.4259 9.21005C28.6029 9.15416 29.1847 8.98987 29.3821 8.93228C30.6002 8.56474 32.0004 8.28359 33.2645 8.0922C33.8617 7.9838 34.629 7.93129 35.238 7.86863C35.4048 7.8483 35.7314 7.82628 35.8982 7.82628C36.9496 7.76531 38.1626 7.78733 39.2004 7.83475C39.8146 7.90081 40.5632 7.94823 41.1689 8.03969C41.4377 8.09558 42.5555 8.25479 42.7936 8.31069C43.253 8.41231 43.9352 8.58507 44.3946 8.68838C46.2729 9.21852 48.1732 9.92818 49.8933 10.8462L51.0485 11.4745C51.4517 11.7252 52.3381 12.274 52.7141 12.5314C52.9761 12.7296 53.5171 13.1056 53.7791 13.3021C53.9169 13.3935 54.1755 13.5951 54.2997 13.7035C54.3899 13.7628 55.3801 14.6028 55.4413 14.6418C55.8343 15.0093 56.3668 15.5056 56.7615 15.8748C57.175 16.3237 57.7109 16.8538 58.1073 17.3128L58.9477 18.3206C61.5406 21.5471 63.4443 25.3495 64.3324 29.3924C65.5931 35.1341 64.9143 41.2772 62.5631 46.6632C62.3521 47.2391 61.9795 47.881 61.7192 48.4348C61.2581 49.3325 60.6133 50.4097 60.0349 51.2362C59.5585 51.9493 59.0022 52.6624 58.4629 53.3263C58.2978 53.5245 57.5237 54.373 57.3774 54.5492C49.8899 62.4351 37.5331 65.328 27.2928 61.5832C20.6117 59.1544 15.0399 54.0055 11.7597 47.7319C10.0941 44.5647 9.02399 41.0909 8.65991 37.5273C8.76199 39.3193 9.02229 41.1095 9.47825 42.8557C14.1467 59.9995 31.8745 68.9898 48.5084 62.3301C53.4491 60.3823 57.8776 57.0423 61.0012 52.7352C64.7169 47.5693 66.7279 41.2196 66.6582 34.8699C66.6377 34.3753 66.6105 33.6351 66.5884 33.1389C66.5135 32.4936 66.454 31.7077 66.3553 31.0725C66.2617 30.5797 66.1018 29.4906 65.9708 29.0265C65.8892 28.6878 65.7207 28.0154 65.6391 27.6783C65.4451 27.0127 65.2222 26.3539 65.0045 25.695C63.4001 21.3642 60.7767 17.4093 57.3672 14.281C57.2039 14.1235 56.7598 13.7323 56.5999 13.5815C56.2528 13.2699 55.3477 12.5687 54.9871 12.2723C54.3525 11.8387 53.6481 11.2916 52.9863 10.9021C42.45 3.96122 27.6161 5.53638 18.3762 13.8932C13.3267 18.4493 10.0363 24.9176 9.32853 31.6484H9.33023Z" fill="#292D33"/>
<path d="M26.6599 36.0339H48.6599M48.6599 36.0339L41.125 28.5339M48.6599 36.0339L41.125 43.5339" stroke="#292D33" stroke-width="2" stroke-linejoin="round"/>
</svg>
