<svg  xmlns="http://www.w3.org/2000/svg" viewBox="0 0 113 45" fill="none">
  <path d="M28.2279 13.2186C27.8213 13.1301 27.4201 13.0547 27.025 12.9546C25.2433 12.5039 23.672 11.6356 22.2443 10.5005C19.8611 8.60647 17.9819 6.30363 16.6589 3.55656C16.3249 2.86274 16.0459 2.14618 15.825 1.40794C15.7231 1.06663 15.7249 1.06699 16.0567 0.984286C17.6537 0.587358 19.2734 0.410023 20.9199 0.407494C23.53 0.403522 26.0371 0.89905 28.4539 1.86988C34.559 4.32188 39.1492 9.7521 40.5567 16.1734C41.0429 18.3913 41.1922 20.631 40.8947 22.8804C40.063 29.1658 36.9761 34.0561 31.6723 37.5306C29.4725 38.9717 27.0481 39.8862 24.4608 40.3513C21.9576 40.8014 19.4465 40.81 16.9586 40.2784C10.698 38.941 6.04129 35.4358 3.00427 29.808C1.73156 27.4499 1.03574 24.9087 0.800428 22.2429C0.637769 20.3984 0.748738 18.5662 1.08418 16.7466C1.09719 16.6754 1.10912 16.6039 1.18033 16.5288C1.39612 16.8921 1.60685 17.2504 1.82048 17.6069C2.96993 19.5247 4.32108 21.289 5.89454 22.8782C7.64402 24.6447 9.64906 26.0731 11.8236 27.2675C14.4468 28.7082 17.2047 29.8344 20.0473 30.7604C20.3375 30.855 20.3144 30.8951 20.4254 30.5791C21.6233 27.174 23.029 23.8541 24.5909 20.6024C25.7205 18.2505 26.9104 15.9278 28.0725 13.5914C28.1303 13.4754 28.2059 13.3653 28.2279 13.2176V13.2186Z" fill="white"/>
  <path d="M26.1776 14.0683C25.9636 14.5491 25.7457 15.0424 25.5248 15.5343C24.4426 17.9473 23.3589 20.3596 22.2767 22.7726C21.3568 24.823 20.4379 26.8741 19.518 28.9244C19.3951 29.1986 19.3919 29.2029 19.0991 29.1115C15.5687 28.0089 12.2674 26.4443 9.31498 24.197C6.90185 22.3601 4.94778 20.1075 3.36709 17.5258C2.79526 16.5918 2.28017 15.6279 1.82654 14.6307C1.72966 14.4179 1.72641 14.233 1.80376 14.0127C2.89936 10.8918 4.6333 8.18303 7.03776 5.90836C9.20257 3.86052 11.7003 2.36201 14.5295 1.41935C14.6318 1.3854 14.7355 1.35543 14.8302 1.32617C14.905 1.38432 14.9169 1.458 14.926 1.52843C15.1042 2.89835 15.6298 4.14584 16.2948 5.3388C17.3586 7.24615 18.7333 8.91259 20.3028 10.423C21.4609 11.5376 22.7083 12.533 24.1545 13.2579C24.7155 13.5389 25.2996 13.7595 25.9026 13.9311C25.9936 13.9571 26.0938 13.9621 26.1769 14.0691L26.1776 14.0683ZM7.76466 19.137C7.77008 19.2558 7.81708 19.3577 7.93383 19.4252C8.13155 19.5397 8.32493 19.6618 8.52301 19.7756C8.7905 19.9291 8.8993 19.9009 9.04822 19.6419C9.09015 19.5693 9.1216 19.4906 9.15738 19.4148C9.60704 18.4577 10.0509 17.4977 10.5067 16.5434C11.9067 13.6143 13.4469 10.7578 15.0041 7.91034C15.0673 7.79477 15.1306 7.67739 15.179 7.55531C15.2448 7.38809 15.2043 7.2494 15.0366 7.16019C14.8244 7.04714 14.613 6.93265 14.4015 6.81744C14.262 6.74123 14.142 6.78132 14.0455 6.88967C13.9826 6.96046 13.9348 7.04642 13.8871 7.12913C12.6896 9.21417 11.5148 11.3115 10.4236 13.4543C9.53981 15.1894 8.68856 16.9404 7.89226 18.7173C7.83334 18.8488 7.76792 18.9785 7.76466 19.1367V19.137ZM9.88031 21.2036C9.87453 21.3272 9.9273 21.4142 10.031 21.4734C10.24 21.593 10.4449 21.7205 10.6582 21.831C10.8414 21.926 10.947 21.8982 11.0536 21.7248C11.1353 21.5923 11.1953 21.4464 11.26 21.3041C12.7764 17.9755 14.395 14.6968 16.0725 11.4466C16.2601 11.0832 16.4474 10.7195 16.6292 10.353C16.8425 9.92316 16.824 9.8697 16.4188 9.6465C16.2923 9.57679 16.1687 9.50203 16.04 9.4363C15.8192 9.32361 15.7183 9.34781 15.5838 9.54717C15.5304 9.62663 15.4902 9.71512 15.4458 9.80036C14.8414 10.9641 14.2356 12.127 13.6341 13.2922C12.3534 15.7723 11.1545 18.2919 9.99381 20.8302C9.93923 20.9497 9.87344 21.0675 9.88067 21.2033L9.88031 21.2036ZM12.7026 23.6141C12.9202 23.5993 12.9777 23.4137 13.0525 23.254C14.5978 19.9439 16.2309 16.6774 17.8889 13.4226C18.0635 13.0798 18.2381 12.737 18.4004 12.3885C18.5229 12.1252 18.4824 12.0302 18.2276 11.9013C18.0989 11.8363 17.9688 11.7742 17.8387 11.7113C17.4837 11.5394 17.3912 11.5643 17.2122 11.9082C16.9017 12.5052 16.6006 13.1069 16.292 13.705C14.7698 16.6518 13.3001 19.6239 11.9041 22.6324C11.6945 23.0843 11.7133 23.1399 12.1398 23.3584C12.2255 23.4021 12.3108 23.4469 12.3972 23.4888C12.4937 23.5357 12.5819 23.6033 12.7023 23.6141H12.7026ZM14.001 24.4925C13.9941 24.6214 14.031 24.7142 14.142 24.772C14.3444 24.8779 14.5446 24.9884 14.7467 25.0949C14.8743 25.1625 14.9856 25.126 15.0637 25.0158C15.1259 24.9284 15.1725 24.8295 15.2173 24.7312C15.5763 23.9439 15.928 23.1529 16.2909 22.3673C17.5311 19.6831 18.7991 17.0119 20.0812 14.3472C20.1697 14.163 20.2619 13.9795 20.3328 13.7888C20.4058 13.5923 20.3678 13.5067 20.1817 13.4085C20.0009 13.3131 19.8119 13.2337 19.6294 13.1423C19.4558 13.0556 19.3272 13.113 19.227 13.2597C19.1866 13.3185 19.1584 13.3864 19.1273 13.4511C17.4125 17.0148 15.7237 20.5907 14.0982 24.1963C14.0538 24.2946 14.001 24.391 14.001 24.4918V24.4925ZM16.3997 25.7985C16.3794 25.9816 16.4163 26.0849 16.5453 26.1459C16.7087 26.2229 16.8681 26.3074 17.0315 26.3843C17.3102 26.5154 17.4053 26.4869 17.5462 26.2099C17.6659 25.9744 17.7685 25.7299 17.8824 25.4911C19.4519 22.2034 21.056 18.9326 22.6617 15.6622C22.7358 15.5112 22.8164 15.362 22.8753 15.2049C22.9563 14.9904 22.9125 14.8979 22.7047 14.8076C22.5724 14.7502 22.4358 14.7029 22.3009 14.6513C21.9058 14.4996 21.8169 14.5335 21.6257 14.9218C21.4399 15.2992 21.2592 15.6795 21.0745 16.0577C19.5491 19.1796 18.0158 22.298 16.5482 25.4478C16.4875 25.5778 16.4109 25.7024 16.3989 25.7981L16.3997 25.7985ZM8.63724 14.043C8.79737 14.0279 8.85628 13.9058 8.92026 13.7891C9.26727 13.1564 9.61102 12.5218 9.96272 11.8912C11.2705 9.54681 12.7153 7.28551 14.1369 5.00977C14.1944 4.91803 14.2547 4.82774 14.3054 4.73203C14.4297 4.49618 14.4073 4.42395 14.1759 4.30548C14.069 4.25058 13.9576 4.20399 13.8481 4.15415C13.504 3.99776 13.4508 4.01221 13.2332 4.33582C13.0789 4.56553 12.9296 4.79884 12.7756 5.02855C11.1671 7.42818 9.62548 9.86898 8.22951 12.3997C8.08998 12.6525 7.94684 12.9035 7.81997 13.1629C7.70647 13.3951 7.74081 13.4977 7.95841 13.6479C8.11673 13.7574 8.28264 13.856 8.44349 13.9618C8.50458 14.0019 8.56603 14.0376 8.63724 14.043Z" fill="#FEDC00"/>
  <path d="M64.3771 33.4749C65.5454 32.2992 67.3769 32.1967 68.4808 33.5142C68.6207 33.4037 68.7562 33.2867 68.9015 33.1834C69.7723 32.5669 70.7392 32.4188 71.7571 32.6684C72.7728 32.9172 73.396 33.7399 73.409 34.8549C73.4296 36.5997 73.4162 38.3453 73.4133 40.0901C73.4126 40.4224 73.3204 40.5047 72.9731 40.5083C72.6116 40.5123 72.2505 40.5101 71.889 40.509C71.4419 40.5076 71.3844 40.4531 71.3841 40.0142C71.383 38.5461 71.3852 37.0775 71.3819 35.6094C71.3816 35.4299 71.3729 35.2471 71.3393 35.0712C71.267 34.6909 71.0111 34.4645 70.625 34.4125C69.9465 34.3207 69.2645 34.7447 69.0035 35.4227C68.8538 35.8109 68.822 36.2187 68.8209 36.629C68.8181 37.724 68.8199 38.8195 68.8199 39.9146C68.8199 39.9987 68.8242 40.0832 68.8184 40.1674C68.8021 40.3945 68.7132 40.4946 68.4804 40.4996C68.0228 40.5094 67.5649 40.5105 67.1076 40.4993C66.8835 40.4939 66.7924 40.3866 66.7798 40.1547C66.7711 39.9987 66.7776 39.842 66.7776 39.6856C66.7776 38.2412 66.7566 36.7966 66.7877 35.3529C66.8007 34.7469 66.3558 34.2517 65.6213 34.4265C65.0368 34.5656 64.534 35.1045 64.4082 35.7708C64.3522 36.0673 64.3345 36.3668 64.3352 36.6687C64.3377 37.788 64.3373 38.9072 64.3355 40.0265C64.3348 40.4426 64.2741 40.5007 63.8497 40.5029C63.4763 40.5047 63.1029 40.5069 62.7296 40.5022C62.388 40.4978 62.3038 40.4155 62.3016 40.0724C62.2972 39.3262 62.3001 38.58 62.3001 37.8338C62.3001 36.3054 62.2994 34.7769 62.3005 33.2484C62.3005 32.8088 62.3685 32.7395 62.7957 32.7366C63.1449 32.7341 63.4944 32.7344 63.8436 32.7366C64.2867 32.7391 64.3381 32.7915 64.3435 33.2347C64.3442 33.2946 64.346 33.3549 64.3486 33.4149C64.3489 33.4246 64.3572 33.4344 64.3764 33.4759L64.3771 33.4749Z" fill="white"/>
  <path d="M46.8961 40.6955C45.9924 40.7013 45.1202 40.5511 44.2917 40.1845C42.8697 39.5549 41.9071 38.4971 41.4127 37.0282C40.9594 35.6821 40.9153 34.306 41.28 32.9375C41.7929 31.0136 43.0136 29.7061 44.9127 29.1077C46.8733 28.4901 48.7648 28.6645 50.5093 29.8315C50.6889 29.9517 50.8621 30.0843 51.0236 30.2277C51.1881 30.3736 51.208 30.4942 51.0775 30.6712C50.7706 31.0876 50.454 31.4976 50.1276 31.8988C49.9891 32.0686 49.8821 32.0642 49.6905 31.9252C49.5055 31.7908 49.332 31.6402 49.1447 31.5095C47.8558 30.6091 46.206 30.569 44.934 31.4058C44.2751 31.8392 43.8247 32.4388 43.5894 33.1857C43.242 34.2869 43.2355 35.3982 43.6574 36.4778C44.1815 37.8188 45.2095 38.5216 46.6308 38.648C47.6389 38.738 48.5339 38.4418 49.3056 37.7841C49.4704 37.6436 49.6277 37.493 49.7986 37.3608C49.9974 37.207 50.1398 37.2211 50.2956 37.4193C50.5863 37.7881 50.8696 38.1626 51.1458 38.5422C51.3092 38.7669 51.2958 38.9016 51.0992 39.0786C50.155 39.9284 49.0855 40.5189 47.7972 40.6417C47.4979 40.6702 47.1965 40.6782 46.8957 40.6959L46.8961 40.6955Z" fill="white"/>
  <path d="M85.6317 8.55879C85.859 7.81658 86.0864 7.07401 86.3138 6.3318C86.5006 5.7225 86.6868 5.1132 86.8758 4.50463C86.9716 4.19619 87.041 4.14057 87.3635 4.13696C87.8211 4.1319 88.279 4.13045 88.7367 4.13732C89.054 4.14201 89.1151 4.23628 89.0092 4.54327C88.1981 6.89559 87.3862 9.24754 86.5726 11.5988C86.4746 11.8819 86.4287 11.9116 86.1262 11.9155C85.8493 11.9191 85.572 11.9177 85.2948 11.9159C84.9279 11.9134 84.8936 11.8906 84.7703 11.5507C84.4584 10.6922 84.1482 9.833 83.8366 8.97414C83.6523 8.46561 83.4661 7.9578 83.2822 7.44927C83.2536 7.37017 83.2359 7.28674 83.1495 7.21378C83.0194 7.56845 82.8907 7.91518 82.7649 8.26263C82.372 9.34759 81.9805 10.4333 81.5873 11.5182C81.4499 11.8967 81.4217 11.9152 81.0115 11.9162C80.7584 11.917 80.5054 11.9199 80.2524 11.9155C79.9202 11.9097 79.8681 11.8725 79.7582 11.5547C79.2898 10.2032 78.8235 8.85098 78.3565 7.49875C78.0308 6.55573 77.7059 5.61234 77.3802 4.66932C77.3527 4.58987 77.3173 4.51258 77.2967 4.43131C77.2526 4.25542 77.3198 4.13334 77.4962 4.12937C78.038 4.11745 78.5806 4.11384 79.1221 4.13009C79.3494 4.13696 79.4228 4.32838 79.4814 4.52485C79.8005 5.59645 80.1266 6.66588 80.4508 7.73604C80.5336 8.00908 80.6185 8.28177 80.7096 8.57757C80.8445 8.514 80.8416 8.39229 80.873 8.30452C81.3136 7.07076 81.7488 5.83447 82.1858 4.59926C82.346 4.14671 82.3781 4.12468 82.8592 4.12395C83.1003 4.12395 83.3411 4.12251 83.5822 4.12395C83.9516 4.12684 84.0029 4.16007 84.1291 4.51799C84.4732 5.49244 84.813 6.46832 85.1553 7.44349C85.2858 7.81477 85.418 8.1857 85.5496 8.55662L85.631 8.55879H85.6317Z" fill="white"/>
  <path d="M77.4586 33.439C77.5884 33.4422 77.6278 33.3548 77.6864 33.3017C79.0335 32.0799 81.9173 32.2792 82.8856 34.4055C83.49 35.7324 83.5489 37.1128 82.9995 38.4715C82.4436 39.8465 81.3411 40.51 79.8996 40.6552C79.0646 40.7393 78.2708 40.6039 77.5595 40.1366C77.45 40.2254 77.4926 40.328 77.4922 40.4143C77.4886 41.5448 77.4778 42.676 77.4966 43.8061C77.5035 44.2095 77.3426 44.3323 76.9905 44.324C76.6294 44.3153 76.2683 44.3272 75.9072 44.3204C75.5537 44.3135 75.4634 44.2171 75.4634 43.8649C75.463 40.3168 75.4634 36.7683 75.4634 33.2201C75.4634 32.8033 75.5262 32.7397 75.9401 32.7358C76.2532 32.7329 76.5662 32.7314 76.8792 32.7365C77.189 32.7415 77.2446 32.7871 77.3426 33.0829C77.3827 33.2046 77.4221 33.3266 77.459 33.4386L77.4586 33.439ZM77.4904 36.7914C77.4904 36.9835 77.4912 37.176 77.4904 37.3682C77.4883 37.777 77.648 38.1122 77.9441 38.3899C78.3402 38.7616 78.8315 38.8443 79.3462 38.8544C80.1168 38.8692 80.6619 38.5113 80.9692 37.8182C81.322 37.0218 81.3104 36.203 80.9952 35.3991C80.7949 34.8884 80.4111 34.5575 79.8635 34.434C78.6269 34.1548 77.4969 35.0538 77.4908 36.3229C77.4901 36.4793 77.4908 36.6353 77.4908 36.7917L77.4904 36.7914Z" fill="white"/>
  <path d="M51.3356 8.78858C51.5489 9.6749 52.2386 10.2401 53.1654 10.3178C54.0358 10.3907 54.7764 10.1141 55.3826 9.48384C55.4325 9.43183 55.4769 9.37404 55.5297 9.32492C55.6544 9.20971 55.7907 9.19635 55.9161 9.31553C56.2215 9.60591 56.5266 9.89666 56.8201 10.199C56.9759 10.3593 56.9709 10.4677 56.806 10.6345C56.1337 11.3157 55.3728 11.8455 54.3998 12.0005C53.5431 12.137 52.6937 12.1309 51.8692 11.8307C50.591 11.3652 49.7434 10.4861 49.4188 9.15553C49.1278 7.96294 49.2164 6.80177 49.9212 5.75943C50.8787 4.34363 52.2494 3.79863 53.9223 3.99763C56.0166 4.24684 57.1183 5.85333 57.2391 7.60033C57.2582 7.8759 57.2546 8.154 57.2474 8.43066C57.2409 8.68095 57.144 8.77052 56.8939 8.78714C56.81 8.79255 56.7254 8.78822 56.6408 8.78822C55.0143 8.78822 53.388 8.78822 51.7614 8.78822C51.6299 8.78822 51.4983 8.78822 51.3353 8.78822L51.3356 8.78858ZM51.3407 7.02498H55.1606C54.9756 6.29288 54.2931 5.75185 53.5229 5.70525C52.4811 5.64241 51.6751 6.12241 51.3407 7.02498Z" fill="white"/>
  <path d="M91.4963 37.4419C91.6763 38.0692 92.0555 38.5171 92.6617 38.7641C93.621 39.1549 94.7813 38.8945 95.5234 38.1317C95.9026 37.7416 95.9065 37.7416 96.2879 38.1158C96.5026 38.3264 96.7195 38.5351 96.9327 38.7475C97.1543 38.9682 97.1536 39.0595 96.9374 39.2867C95.7753 40.5071 94.3407 40.8871 92.717 40.6097C91.4584 40.3944 90.4708 39.7454 89.8921 38.5868C88.9581 36.717 89.3731 33.984 91.8534 32.8943C93.2169 32.2955 95.1991 32.4638 96.3417 33.6943C97.056 34.4636 97.3712 35.3882 97.4218 36.4176C97.4319 36.6216 97.4294 36.8268 97.4218 37.0312C97.4113 37.3035 97.3224 37.3855 97.044 37.3981C96.9718 37.4014 96.8995 37.3989 96.8272 37.3989C95.1771 37.3989 93.527 37.3981 91.8773 37.4003C91.7605 37.4003 91.6391 37.3714 91.497 37.4422L91.4963 37.4419ZM95.3322 35.6515C95.1605 34.8689 94.4115 34.308 93.57 34.3007C92.5818 34.2928 91.7291 34.8468 91.5353 35.6313C91.5679 35.6382 91.6 35.6508 91.6322 35.6508C92.8565 35.6519 94.0808 35.6515 95.3322 35.6515Z" fill="white"/>
  <path d="M106.797 37.4147C106.98 38.0605 107.345 38.5206 107.941 38.7471C108.98 39.1418 109.952 38.9735 110.745 38.1945C111.311 37.639 111.305 37.8369 111.698 38.2194C111.862 38.3787 112.028 38.5358 112.19 38.6976C112.487 38.9948 112.479 39.0458 112.194 39.3394C111.091 40.4753 109.732 40.8502 108.202 40.6411C106.915 40.4652 105.872 39.8537 105.251 38.6828C104.112 36.536 104.873 33.6083 107.532 32.7639C108.72 32.3868 109.899 32.4829 110.975 33.1514C112.029 33.8062 112.544 34.8143 112.692 36.0206C112.73 36.3297 112.726 36.645 112.727 36.9575C112.727 37.3284 112.654 37.3977 112.281 37.3984C111.065 37.4006 109.849 37.3992 108.632 37.3992C108.139 37.3992 107.645 37.3985 107.152 37.3999C107.047 37.3999 106.942 37.4086 106.797 37.4154V37.4147ZM110.657 35.6345C110.626 35.4311 110.537 35.2776 110.437 35.1303C109.607 33.9012 107.619 34.0544 106.904 35.4026C106.867 35.4727 106.799 35.542 106.862 35.6345H110.657Z" fill="white"/>
  <path d="M45.7624 5.01854C46.306 3.80933 46.8186 2.66983 47.3308 1.53034C47.454 1.25621 47.586 0.985327 47.698 0.706863C47.8061 0.438151 47.9897 0.312824 48.2804 0.31752C48.7499 0.325104 49.2202 0.31463 49.6897 0.321131C50.0472 0.326188 50.1213 0.438874 49.9745 0.77368C49.6127 1.59968 49.2404 2.42099 48.8728 3.24446C47.6662 5.94495 46.4597 8.64543 45.2531 11.3459C45.2137 11.4337 45.1736 11.5211 45.1324 11.6078C45.0348 11.8129 44.8783 11.9126 44.6448 11.9093C44.151 11.9025 43.6569 11.9108 43.1631 11.9061C42.7955 11.9025 42.7294 11.7999 42.8833 11.464C43.44 10.2508 43.9963 9.03766 44.5649 7.83026C44.6661 7.61501 44.6737 7.44995 44.5555 7.23072C43.4306 5.14567 42.3198 3.05268 41.2047 0.962212C41.1595 0.877337 41.1057 0.795712 41.0713 0.706502C40.9817 0.472463 41.0681 0.325827 41.3211 0.310657C41.5853 0.294766 41.851 0.305962 42.116 0.305601C42.3809 0.305601 42.6469 0.319687 42.9108 0.301989C43.2419 0.279958 43.4389 0.40709 43.5882 0.713003C44.2269 2.02009 44.8884 3.31669 45.5423 4.61619C45.5997 4.73068 45.6648 4.84156 45.7617 5.01854H45.7624Z" fill="white"/>
  <path d="M60.677 36.5652C60.6676 37.1362 60.6192 37.6133 60.4677 38.0749C60.0763 39.27 59.2706 40.0596 58.0799 40.4384C56.9673 40.7924 55.8472 40.7754 54.7537 40.3543C53.6664 39.9353 52.9366 39.1602 52.5958 38.0403C52.3308 37.1691 52.311 36.286 52.551 35.4077C52.8799 34.2032 53.6332 33.3512 54.792 32.8935C55.9845 32.4229 57.1976 32.4269 58.3778 32.9354C59.7336 33.5198 60.4555 34.5936 60.642 36.0412C60.668 36.2434 60.6698 36.4486 60.677 36.5649V36.5652ZM58.5473 36.6245C58.5567 36.3818 58.5195 36.1434 58.4605 35.9101C58.2303 34.9963 57.477 34.3949 56.5553 34.3809C55.6382 34.3668 54.8792 34.9515 54.624 35.8711C54.479 36.3933 54.4826 36.917 54.6348 37.4367C54.8622 38.2147 55.3736 38.6821 56.1757 38.8236C57.2605 39.0151 58.1855 38.4296 58.4569 37.3739C58.5198 37.1294 58.5574 36.8787 58.5469 36.6245H58.5473Z" fill="white"/>
  <path d="M72.5215 12.0833C71.7144 12.0801 71.0291 11.9649 70.3907 11.6521C69.0952 11.0179 68.4507 9.93976 68.3123 8.53588C68.2603 8.00785 68.274 7.47693 68.4056 6.95864C68.7659 5.53563 69.6515 4.59766 71.0562 4.17365C72.1796 3.8345 73.2962 3.88579 74.3647 4.38601C75.7021 5.01229 76.3983 6.10231 76.5475 7.55133C76.6043 8.10356 76.5801 8.65796 76.442 9.19936C76.0516 10.7293 75.0438 11.6178 73.5318 11.9739C73.1671 12.0598 72.793 12.071 72.5215 12.0833ZM72.4001 10.2594C73.4068 10.2684 74.1366 9.70933 74.3683 8.74211C74.4763 8.29101 74.4782 7.83665 74.3741 7.38302C74.1536 6.42303 73.406 5.82023 72.4023 5.79278C71.5326 5.7693 70.7637 6.37643 70.5154 7.28984C70.377 7.79981 70.3773 8.31232 70.5208 8.82193C70.7782 9.73714 71.452 10.2507 72.4005 10.2594H72.4001Z" fill="white"/>
  <path d="M76.5844 22.4282C76.7315 23.2889 77.5166 23.7443 78.1528 23.8227C79.0225 23.9296 79.77 23.6833 80.3773 23.04C80.6512 22.75 80.7112 22.7482 80.9874 23.0169C81.2032 23.2268 81.4193 23.4363 81.6301 23.6512C81.8459 23.8715 81.8517 23.956 81.6492 24.1637C80.8526 24.9828 79.903 25.4617 78.7395 25.4892C77.9916 25.5069 77.2752 25.4007 76.6039 25.0604C75.6088 24.5559 74.9788 23.7577 74.737 22.6706C74.4829 21.5289 74.6036 20.4364 75.3059 19.4684C76.2396 18.1812 77.5361 17.7258 79.0781 17.9435C81.0268 18.2188 82.0385 19.7946 82.1043 21.491C82.1123 21.6954 82.1144 21.9005 82.1022 22.1046C82.0899 22.3058 82.0089 22.3816 81.8105 22.4011C81.715 22.4105 81.6178 22.4044 81.5216 22.4044C80.0039 22.4044 78.4864 22.4037 76.9686 22.4058C76.8411 22.4058 76.7088 22.3838 76.5844 22.4279V22.4282ZM80.1784 20.7712C80.109 20.488 79.9847 20.2876 79.8228 20.1091C78.969 19.1697 77.3507 19.3554 76.6943 20.4692C76.6426 20.557 76.5577 20.6422 76.6047 20.7712H80.1788H80.1784Z" fill="white"/>
  <path d="M56.274 22.4047C56.4449 23.0429 56.8028 23.4474 57.3569 23.6785C58.2436 24.0476 59.3251 23.8147 60.0245 23.1115C60.2819 22.8526 60.5442 22.8556 60.8114 23.1205C61.0081 23.3152 61.213 23.5015 61.4031 23.7024C61.5662 23.8743 61.5669 23.9678 61.4057 24.1354C60.6441 24.9274 59.739 25.427 58.6191 25.4837C58.001 25.5151 57.3891 25.4768 56.8042 25.2615C55.3989 24.7447 54.6026 23.7359 54.3864 22.2559C54.1287 20.4915 55.045 18.8388 56.6651 18.1659C57.8655 17.6672 59.8749 17.7546 60.9867 19.1404C61.5506 19.8429 61.8094 20.6523 61.8344 21.5436C61.8394 21.7239 61.843 21.9048 61.8326 22.0847C61.8192 22.3165 61.7512 22.3826 61.5257 22.4021C61.4302 22.4104 61.3334 22.4047 61.2369 22.4047C59.7202 22.4047 58.2038 22.4047 56.6871 22.4047C56.5675 22.4047 56.4475 22.4047 56.2732 22.4047H56.274ZM59.8608 20.7606C59.7068 20.0383 59.02 19.5265 58.2096 19.5142C57.294 19.5001 56.4916 20.0238 56.3188 20.7606H59.8608Z" fill="white"/>
  <path d="M45.9015 19.8917C45.9015 18.2787 45.9015 16.6657 45.9015 15.0527C45.9015 14.9685 45.8949 14.8833 45.9036 14.8002C45.9239 14.6059 46.0059 14.5127 46.2004 14.5087C46.6699 14.4993 47.1402 14.499 47.6097 14.508C47.8284 14.5124 47.9025 14.5983 47.9195 14.8212C47.9267 14.9169 47.9213 15.0137 47.9213 15.1101C47.9213 17.7582 47.921 20.4067 47.9217 23.0548C47.9217 23.4723 47.8722 23.4463 48.3048 23.4463C49.8226 23.4463 51.3408 23.4463 52.8585 23.4463C52.9547 23.4463 53.0519 23.4434 53.1474 23.4532C53.2981 23.4687 53.4015 23.5576 53.4047 23.7078C53.4141 24.1531 53.4145 24.5984 53.4072 25.0438C53.4044 25.2096 53.2984 25.3067 53.1325 25.3244C53.049 25.3334 52.9641 25.3284 52.8799 25.3284C50.7353 25.3284 48.5911 25.3284 46.4465 25.3284C46.3623 25.3284 46.277 25.3345 46.1939 25.3255C46.0135 25.306 45.9105 25.2056 45.9033 25.0196C45.9 24.9354 45.9018 24.8509 45.9018 24.7668C45.9018 23.1418 45.9018 21.5166 45.9018 19.8917H45.9015Z" fill="white"/>
  <path d="M99.8782 36.7612C99.8782 36.1118 99.88 35.4621 99.8775 34.8127C99.8764 34.5433 99.872 34.5411 99.5941 34.5382C99.3172 34.5353 99.0403 34.5418 98.7634 34.536C98.471 34.5299 98.3918 34.4577 98.3857 34.1785C98.3781 33.8177 98.3781 33.4565 98.3857 33.096C98.3911 32.8418 98.4804 32.7482 98.7341 32.7388C99.0349 32.728 99.3363 32.7266 99.6367 32.7388C99.8272 32.7468 99.8854 32.6807 99.8822 32.4907C99.8713 31.8775 99.8782 31.2638 99.8782 30.6502C99.8782 30.566 99.8728 30.4812 99.88 30.3977C99.8988 30.1749 99.97 30.0817 100.189 30.0752C100.658 30.0611 101.128 30.0608 101.597 30.073C101.849 30.0795 101.927 30.1749 101.93 30.4443C101.936 31.0096 101.932 31.5752 101.932 32.1404C101.932 32.2487 101.931 32.3571 101.932 32.4651C101.937 32.7295 101.937 32.7323 102.217 32.7342C102.626 32.7367 103.036 32.7349 103.445 32.7345C103.505 32.7345 103.566 32.7277 103.625 32.7323C103.839 32.749 103.936 32.8317 103.942 33.0444C103.953 33.441 103.953 33.8386 103.942 34.2352C103.936 34.4671 103.828 34.5584 103.56 34.5646C103.151 34.574 102.741 34.5671 102.332 34.5675C102.248 34.5675 102.164 34.5693 102.079 34.5685C101.974 34.5675 101.929 34.6191 101.932 34.7238C101.935 34.8922 101.932 35.0605 101.932 35.2291C101.932 36.0349 101.932 36.841 101.932 37.6468C101.932 37.8036 101.938 37.9585 101.97 38.1131C102.075 38.6317 102.388 38.8744 102.92 38.8333C103.112 38.8185 103.302 38.7769 103.493 38.761C103.723 38.7419 103.772 38.7834 103.776 39.0164C103.783 39.4371 103.773 39.8583 103.78 40.2794C103.782 40.4571 103.701 40.5517 103.534 40.5741C102.803 40.6716 102.072 40.7298 101.348 40.5348C100.459 40.2953 99.9458 39.6983 99.8984 38.7813C99.8634 38.1095 99.8916 37.4348 99.8916 36.7612C99.8872 36.7612 99.8829 36.7612 99.8782 36.7612Z" fill="white"/>
  <path d="M93.9416 25.4946C92.6851 25.4682 91.6615 24.9738 90.8955 23.969C90.619 23.6064 90.6631 23.4124 91.0571 23.1932C91.3199 23.0469 91.5812 22.8978 91.8501 22.7634C92.1064 22.6352 92.2268 22.6673 92.4115 22.8956C92.5478 23.0643 92.6815 23.2344 92.842 23.3814C93.2176 23.7256 93.6596 23.8762 94.1671 23.8365C94.4885 23.8115 94.7082 23.6595 94.7765 23.4153C94.859 23.1199 94.7614 22.8425 94.4968 22.658C94.247 22.4839 93.9596 22.3921 93.6723 22.3015C93.2714 22.1754 92.8626 22.0707 92.4838 21.8804C92.2568 21.7662 92.0399 21.6387 91.8472 21.4726C90.9291 20.6809 90.944 19.311 91.8787 18.5373C92.3298 18.1639 92.859 17.9725 93.433 17.9226C94.4964 17.8305 95.4604 18.1039 96.3045 18.7678C96.6124 19.0101 96.6265 19.117 96.3898 19.4182C96.2116 19.6454 96.0312 19.8712 95.8421 20.0897C95.6704 20.2876 95.5288 20.3042 95.305 20.1619C95.1528 20.0651 95.0115 19.9517 94.8593 19.8549C94.5058 19.6303 94.1209 19.5028 93.6987 19.5165C93.3336 19.5284 93.095 19.687 93.0538 19.9289C93.0141 20.1619 93.1576 20.3501 93.5035 20.5065C93.7894 20.6358 94.0916 20.7163 94.3938 20.7976C94.7888 20.9041 95.1774 21.0276 95.5476 21.2071C96.3008 21.573 96.7509 22.1285 96.7834 23.0007C96.8188 23.951 96.4375 24.6538 95.6151 25.1154C95.0983 25.4054 94.5308 25.4986 93.9416 25.4946Z" fill="white"/>
  <path d="M61.0642 5.01818C61.0642 6.46179 61.0638 7.9054 61.0649 9.349C61.0649 9.48119 61.062 9.61482 61.0815 9.74485C61.1444 10.1656 61.4347 10.3762 61.8518 10.2989C62.0162 10.2685 62.1728 10.196 62.3369 10.162C62.5313 10.1215 62.6159 10.1783 62.6221 10.3765C62.6351 10.7969 62.6289 11.2184 62.626 11.6392C62.625 11.7703 62.566 11.8765 62.4319 11.9122C61.6508 12.1206 60.8675 12.2127 60.1019 11.8617C59.3692 11.5258 59.0436 10.9169 58.9962 10.1367C58.9904 10.0406 58.994 9.94421 58.994 9.84814C58.994 6.76842 58.994 3.68907 58.994 0.609354C58.994 0.525201 58.9894 0.440686 58.9951 0.356894C59.0128 0.096128 59.0935 0.0090855 59.3468 0.00547378C59.8041 -0.000666154 60.2617 -0.00102733 60.7193 0.00547378C60.9593 0.00872433 61.0407 0.0917939 61.062 0.326917C61.0696 0.410348 61.0645 0.495223 61.0645 0.579377C61.0645 2.0591 61.0645 3.53882 61.0645 5.01818H61.0642Z" fill="white"/>
  <path d="M66.0426 21.4476C66.0426 21.881 66.0397 22.3144 66.0441 22.7475C66.0455 22.8912 66.0498 23.0386 66.0806 23.178C66.1641 23.5554 66.4059 23.7515 66.7952 23.7707C67.0128 23.7815 67.2268 23.7468 67.4415 23.7147C67.7017 23.6757 67.7502 23.7147 67.7541 23.9635C67.7606 24.3485 67.7487 24.7339 67.7585 25.1189C67.7639 25.3223 67.6634 25.3963 67.482 25.4194C66.8823 25.4956 66.2833 25.5361 65.6833 25.4234C64.6878 25.2363 64.12 24.575 64.1117 23.563C64.1023 22.3953 64.1099 21.2276 64.1088 20.06C64.1088 19.7356 64.1066 19.7349 63.7715 19.7331C63.5547 19.732 63.3378 19.7367 63.1209 19.7317C62.8317 19.7252 62.7486 19.6511 62.7417 19.3745C62.7334 19.0498 62.733 18.7244 62.7417 18.3997C62.7486 18.1403 62.8339 18.0591 63.0938 18.0519C63.3465 18.045 63.5998 18.0519 63.8529 18.0497C64.129 18.0472 64.1326 18.0457 64.1337 17.7795C64.1363 17.2259 64.1344 16.6722 64.1344 16.1185C64.1344 16.0343 64.1287 15.9491 64.1377 15.866C64.1608 15.6501 64.24 15.5587 64.4583 15.5522C64.8798 15.5403 65.3016 15.5395 65.7231 15.5522C65.9707 15.5594 66.0455 15.6544 66.0477 15.9289C66.0527 16.5306 66.0495 17.1327 66.0491 17.7344C66.0491 18.0761 66.0336 18.0504 66.3574 18.0504C66.7431 18.0504 67.1284 18.0472 67.5141 18.0515C67.8376 18.0551 67.9161 18.1324 67.9222 18.4567C67.928 18.7576 67.9284 19.0588 67.9222 19.3593C67.9157 19.68 67.8366 19.7559 67.5076 19.7595C67.0862 19.7638 66.6643 19.7667 66.2429 19.7577C66.0824 19.7541 66.0372 19.8133 66.0394 19.9664C66.0466 20.4598 66.0419 20.9535 66.0419 21.4469L66.0426 21.4476Z" fill="white"/>
  <path d="M85.0527 33.9341C85.0527 32.3579 85.0527 30.7821 85.0527 29.206C85.0527 29.1218 85.0487 29.0373 85.0541 28.9535C85.0689 28.722 85.1579 28.6162 85.3812 28.6115C85.8385 28.6017 86.2965 28.6025 86.7537 28.6119C86.9608 28.6162 87.0595 28.7224 87.0809 28.9225C87.0884 28.9936 87.0805 29.0666 87.0805 29.1388C87.0805 32.0383 87.0801 34.9378 87.0812 37.8373C87.0812 37.9933 87.0834 38.1508 87.1011 38.3054C87.155 38.7836 87.4604 39.0035 87.9321 38.9031C88.0604 38.8757 88.1819 38.8161 88.3095 38.7825C88.5538 38.7182 88.6677 38.7828 88.6767 39.0255C88.6923 39.434 88.6818 39.8436 88.6811 40.2524C88.6811 40.3904 88.6088 40.4818 88.4783 40.5165C87.7083 40.7212 86.9327 40.809 86.1794 40.4764C85.4647 40.1607 85.0979 39.5857 85.0552 38.8063C85.0498 38.7102 85.0534 38.6138 85.0534 38.5177C85.0534 36.99 85.0534 35.4618 85.0534 33.9341H85.0527Z" fill="white"/>
  <path d="M63.8657 5.30499C63.8657 3.74183 63.8657 2.17868 63.8657 0.615167C63.8657 0.507176 63.8595 0.397741 63.8722 0.290834C63.8961 0.0889387 63.9716 0.00948077 64.1729 0.00586905C64.654 -0.00207674 65.1359 -0.00171557 65.617 0.00550788C65.8151 0.00839726 65.9004 0.0947174 65.9213 0.285778C65.9318 0.380766 65.9246 0.477921 65.9246 0.573993C65.9246 3.48396 65.9246 6.39392 65.9257 9.30389C65.9257 9.45991 65.9213 9.61919 65.9499 9.77088C66.0251 10.1743 66.3045 10.3686 66.709 10.3004C66.8738 10.2726 67.031 10.2032 67.1948 10.166C67.3939 10.1209 67.4767 10.1736 67.4818 10.3715C67.4926 10.7919 67.485 11.213 67.4858 11.6342C67.4858 11.7696 67.429 11.8747 67.2981 11.9097C66.4928 12.125 65.6849 12.22 64.9042 11.8306C64.2861 11.5226 63.9477 11.0068 63.8877 10.3173C63.87 10.114 63.8664 9.90921 63.8664 9.70515C63.8646 8.23807 63.8653 6.77099 63.8653 5.3039L63.8657 5.30499Z" fill="white"/>
  <path d="M71.9968 21.4435C71.9968 21.8766 71.9943 22.31 71.9983 22.743C71.9994 22.8745 72.0062 23.0088 72.033 23.1371C72.1241 23.5719 72.3731 23.7752 72.821 23.7698C73.0245 23.7673 73.2273 23.7272 73.4308 23.7084C73.661 23.6871 73.716 23.7287 73.7203 23.9562C73.7275 24.3412 73.7163 24.7266 73.7246 25.1112C73.7286 25.2875 73.6588 25.3875 73.4875 25.4106C72.8047 25.502 72.1205 25.5609 71.4442 25.3731C70.5235 25.1174 70.0702 24.4925 70.0644 23.4661C70.0583 22.3829 70.063 21.3001 70.063 20.217C70.063 20.1567 70.0637 20.0967 70.063 20.0364C70.059 19.7381 70.059 19.7366 69.7746 19.7337C69.5457 19.7312 69.3169 19.7363 69.0881 19.7323C68.7744 19.7269 68.6952 19.6561 68.6887 19.3578C68.6818 19.045 68.6811 18.7318 68.6887 18.4191C68.6959 18.1373 68.7787 18.0575 69.0585 18.0518C69.3234 18.046 69.5888 18.0406 69.853 18.0536C70.0413 18.0629 70.1028 17.999 70.0995 17.8087C70.0887 17.2073 70.0941 16.6053 70.0963 16.0035C70.0977 15.6034 70.1512 15.5514 70.5593 15.5477C70.8965 15.5449 71.2338 15.543 71.571 15.5481C71.9289 15.5535 71.9936 15.6178 71.9954 15.971C71.9986 16.5847 72.0026 17.1987 71.9925 17.8123C71.9896 17.9979 72.0417 18.0651 72.234 18.0593C72.6431 18.0467 73.0527 18.0521 73.4622 18.0568C73.7962 18.0604 73.871 18.1334 73.8761 18.4555C73.8811 18.7683 73.8822 19.0815 73.8757 19.3942C73.8696 19.6759 73.7922 19.7543 73.5041 19.759C73.0827 19.7662 72.6608 19.7677 72.2397 19.7579C72.0579 19.7536 71.9856 19.8024 71.9914 19.9996C72.0055 20.4806 71.9968 20.9621 71.9968 21.4435Z" fill="white"/>
  <path d="M85.5771 18.7223C85.7028 18.7118 85.7368 18.6392 85.7892 18.5948C86.6477 17.8696 87.6262 17.7236 88.6668 18.065C89.6786 18.3969 90.0842 19.328 90.0719 20.2006C90.0686 20.4234 89.9866 20.5094 89.7646 20.5151C89.3554 20.5253 88.9459 20.5151 88.5367 20.5191C88.3715 20.5206 88.3105 20.4267 88.2664 20.2858C88.0842 19.7036 87.7896 19.5266 87.1888 19.623C86.8162 19.683 86.5082 19.8571 86.2671 20.1435C85.8261 20.6676 85.581 21.2696 85.5785 21.9595C85.5749 22.9216 85.5785 23.8842 85.5771 24.8463C85.5763 25.2649 85.5145 25.3256 85.0978 25.3278C84.7728 25.3296 84.4475 25.3296 84.1225 25.3278C83.7199 25.3252 83.6505 25.2534 83.6472 24.8369C83.6454 24.5964 83.6468 24.3558 83.6468 24.1153C83.6468 22.299 83.6468 20.4826 83.6468 18.6663C83.6468 18.5702 83.6403 18.4731 83.6497 18.3777C83.6707 18.1636 83.7567 18.0653 83.966 18.0603C84.3991 18.0498 84.8328 18.0494 85.2658 18.0606C85.4748 18.066 85.5586 18.1664 85.5756 18.3817C85.5839 18.4886 85.5771 18.597 85.5771 18.7226V18.7223Z" fill="white"/>
</svg>