<svg xmlns="http://www.w3.org/2000/svg" width="253" height="253" viewBox="0 0 253 253" fill="none">
  <path d="M126.733 0.195902C176.208 -0.402367 223.681 31.134 242.68 76.8114C277.942 159.664 216.891 252.215 126.733 252.197C36.5654 252.224 -24.495 159.673 10.7761 76.8114C29.7849 31.1431 77.2572 -0.393299 126.733 0.204981L126.733 0.195902ZM126.733 0.195902C77.4656 -0.320789 30.1928 31.551 12.3624 77.4641C-20.2255 158.186 39.7652 246.894 126.733 246.767C213.718 246.912 273.718 158.195 241.112 77.4641C223.264 31.56 176 -0.320778 126.733 0.204981L126.733 0.195902Z" fill="#292D33"/>
  <path d="M28.1483 182.521C72.8302 182.902 119.738 183.813 164.42 184.852C170.117 184.766 178.249 186.526 180.833 180.047C181.566 178.245 181.819 176.103 181.998 173.907L184.027 146.792C184.279 142.898 184.871 137.176 184.859 133.367C184.859 129.19 184.181 125 181.529 121.727C175.888 115.149 165.961 114.873 157.656 114.399C144.08 113.777 116.791 112.418 103.227 111.722C90.6426 111.058 75.0252 110.449 62.3734 109.84C57.7862 109.501 53.4025 108.671 48.8708 108.665C45.7263 108.708 42.3908 108.923 40.0355 111.021C36.2375 115.082 36.6568 121.173 36.145 126.421C35.1277 141.784 33.2287 165.49 32.0881 180.675C32.532 165.515 33.7528 141.649 34.3385 126.316C34.6653 119.727 34.3262 110.27 41.7557 107.416C46.3429 105.767 51.1212 106.204 55.7886 106.579C58.0637 106.788 60.3388 107.077 62.509 107.182C85.0936 107.766 108.073 108.64 130.602 109.612L157.841 110.806C166.954 111.236 178.003 111.772 184.403 119.413C190.618 127.19 188.096 138.006 187.627 147.082L185.482 174.208C185.266 176.51 185.001 178.94 184.008 181.358C180.746 189.565 171.418 188.323 164.327 188.095C119.652 186.544 72.7809 184.742 28.1483 182.539V182.521Z" fill="#292D33"/>
  <path d="M181.819 186.316C187.787 180.914 193.978 175.801 200.248 170.793C206.007 166.295 207.357 164.191 207.782 156.839C209.373 138.891 211.396 120.938 214.725 103.206C214.632 121.24 213.214 139.254 211.377 157.177C210.878 165.157 208.64 168.689 201.968 173.094C195.377 177.665 188.706 182.138 181.819 186.316Z" fill="#292D33"/>
  <path d="M186.842 117.381C194.099 112.779 201.455 108.324 208.779 103.857C213.391 101.181 212.251 98.4061 207.281 97.6063C204.1 97.1018 197.768 96.1481 194.586 95.699C167.014 91.829 139.219 89.6387 111.382 89.2264C98.7114 89.2264 85.665 88.322 73.4695 92.2843C63.4381 95.9943 53.7212 100.609 43.7391 104.497C51.3782 100.541 59.0667 96.7326 66.7799 92.918C74.5485 88.9003 83.2913 86.9254 91.9786 86.4085C126.475 84.6796 161.033 87.0423 195.036 92.8626L201.393 94.007C205.228 95.0099 212.405 94.9238 213.687 99.489C214.372 102.227 211.801 104.362 209.692 105.42C202.096 109.456 194.518 113.486 186.848 117.381H186.842Z" fill="#292D33"/>
  <path d="M44.8988 163.506L44.1774 171.566C65.7939 170.914 90.9002 172.052 113.67 172.015C125.6 172.015 154.196 172.704 165.744 172.434C168.247 172.206 170.393 171.252 171.756 169.173C173.766 166.373 172.816 162.11 169.82 160.448C167.625 159.255 164.733 159.507 162.137 159.384L157.778 159.273C123.066 158.406 87.9469 157.237 53.2285 155.631C50.5033 155.477 47.2787 155.409 45.6078 157.907C44.8186 159.052 44.5227 160.498 44.4733 161.925C44.4117 163.365 44.5843 164.811 44.8001 166.244C43.7705 162.048 43.5423 156.265 48.8139 155.028C51.5021 154.234 67.5758 154.8 70.6894 154.64C101.197 154.751 131.71 155.139 162.217 155.772C165.343 155.883 168.58 155.612 171.602 157.255C180.665 162.891 176.324 175.424 166.114 176.039C164.523 176.193 163.001 176.162 161.552 176.144C145.651 175.922 129.484 175.535 113.608 175.03C90.2713 174.279 66.9469 173.233 43.6472 171.763L43.6841 171.498L44.9049 163.5L44.8988 163.506Z" fill="#292D33"/>
  <path d="M159.272 164.572C152.212 177.025 145.146 189.472 138.087 201.924C135.343 206.76 132.334 211.855 127.137 214.568C122.241 217.121 116.279 217.103 110.631 216.992C81.8073 216.414 53.0017 215.239 24.2393 213.461C22.1614 213.331 19.8 213.061 18.6224 211.504C17.6421 210.206 17.8825 208.391 18.7457 207.025C19.6089 205.659 20.9838 204.632 22.3094 203.61C37.933 191.625 50.7328 176.625 59.6112 159.908C59.6914 160.536 59.7653 161.157 59.8455 161.785" fill="white"/>
  <path d="M58.8728 192.797C58.5241 195.3 58.1282 197.795 57.7243 200.288L57.2873 199.899C59.7051 199.023 62.1284 198.157 64.559 197.312C66.8838 196.501 70.5959 195.229 72.9186 194.452L72.7457 195.57C72.5218 197.299 74.8359 198.546 76.3822 198.245C78.362 197.905 79.9 196.382 81.3502 195.003L82.2602 194.119L82.592 195.331C83.4597 198.458 87.4736 199.478 89.7607 197.189L90.3542 196.597L90.7899 197.288C92.0463 199.308 95.4449 199.686 97.1399 197.973L97.8196 197.298C97.9342 197.918 98.3294 200.172 98.45 200.83L97.8783 200.531C99.4757 199.904 101.18 199.609 102.866 199.587C104.559 199.576 106.238 199.866 107.799 200.449C104.44 199.603 100.84 199.996 97.7511 201.503C97.672 201.248 97.1033 198.747 97.0123 198.418L97.8574 198.657C95.7164 201 91.44 200.656 89.6822 198.012L90.7076 198.112C87.6806 201.273 82.3738 199.939 81.1549 195.741L82.393 196.071C80.7957 197.653 78.9948 199.326 76.6156 199.703C74.0816 200.116 70.9794 198.15 71.3927 195.358L72.2823 196.114L68.5959 197.259C65.026 198.343 61.0668 199.527 57.4936 200.543L56.9302 200.702C57.5555 198.063 58.1881 195.423 58.8691 192.798L58.8728 192.797Z" fill="#292D33"/>
  <path d="M76.7824 181.447C75.9475 182.036 76.3961 183.333 77.1274 183.793C79.0075 184.693 80.567 182.899 82.3176 182.297C83.3084 181.894 84.5703 181.99 85.4671 182.6C87.0994 183.6 88.0072 185.592 89.7573 186.134C91.2734 186.576 93.204 185.785 93.8217 184.317L94.7543 182.141L95.1533 184.49C95.4205 186.087 96.8751 187.506 98.4878 187.692C100.085 187.899 101.843 186.891 102.484 185.423L102.893 184.49L103.653 185.156C105.629 186.892 109.137 186.69 110.918 184.746L111.767 183.818C112.131 185.354 112.537 186.953 112.885 188.487L112.095 188.063C114.919 187.145 118.984 185.855 121.791 185.001L122.178 184.885C122.22 185.15 122.325 186.38 122.36 186.668L122.075 186.439C123.628 186.397 125.984 186.348 127.53 186.338C125.898 186.557 123.538 186.812 121.874 187.002L121.83 186.746L121.576 185.356L122.004 185.617C119.038 186.795 114.91 188.308 111.887 189.442C111.499 188.09 111.13 186.719 110.763 185.359L111.906 185.639C109.633 188.236 105.294 188.529 102.676 186.287L103.845 186.02C102.414 189.357 97.8435 190.307 95.2993 187.671C94.4973 186.889 93.9323 185.844 93.7695 184.708L95.1011 184.881C94.1044 186.99 91.5721 188.011 89.3904 187.305C87.4279 186.679 86.4505 184.515 84.9449 183.398C84.2382 182.877 83.4033 182.773 82.5587 183.039C81.2502 183.416 79.9159 184.444 78.4291 184.472C77.9133 184.474 77.3776 184.377 76.9421 184.045C76.1657 183.446 75.8204 182.007 76.7787 181.448L76.7824 181.447Z" fill="#292D33"/>
  <path d="M159.271 164.572C152.785 177.24 145.207 191.182 138.401 203.783C135.965 208.237 133.024 212.76 128.468 215.448C123.912 218.18 118.48 218.605 113.375 218.629C88.6197 218.469 63.9266 217.534 39.2211 216.088L24.4175 215.098C22.4507 214.956 19.9844 214.765 18.2273 213.338C16.0693 211.714 15.9707 208.404 17.4072 206.293C18.7822 204.115 21.3902 202.565 23.2892 201.039C30.0713 195.803 36.3972 189.989 42.1436 183.627C48.7901 176.318 54.6535 168.27 59.6538 159.681L59.6723 159.902L59.8388 161.785L59.5305 159.915L59.6661 159.939C51.0651 177.739 37.8523 193.391 22.1671 205.561C20.1201 207.013 17.8512 210.397 21.3409 211.418C22.2719 211.701 23.4063 211.787 24.6148 211.849C38.9868 212.55 54.709 213.369 69.0008 213.892C83.7736 214.507 98.6141 215.024 113.381 215.417C118.054 215.448 122.937 215.264 127.031 212.981C131.156 210.698 133.887 206.607 136.317 202.589C143.592 190.253 151.768 176.693 159.265 164.572H159.271Z" fill="#292D33"/>
  <path d="M91.4555 87.2192C92.6085 79.2023 95.3706 72.699 104.607 72.6621C114.435 72.4775 124.226 72.619 134.047 72.7113C154.788 73.1605 176.504 73.505 197.121 75.1662C202.621 75.8984 204.563 81.2573 202.035 85.8841C200.599 88.4251 198.268 90.1602 195.956 91.7967C198.798 89.1204 202.183 85.8595 201.684 81.6449C201.154 76.932 196.511 77.0858 192.75 77.1904C173.6 77.3135 153.173 76.889 133.961 76.1937C125.57 75.8553 117.172 75.4985 108.787 75.0001C105.975 74.8586 103.213 74.514 100.679 75.0309C95.0007 76.1322 92.9846 82.291 91.4617 87.213L91.4555 87.2192Z" fill="#292D33"/>
  <path d="M167.371 125.592C167.038 125.807 166.699 125.973 166.366 126.127L166.878 125.622C167.174 126.336 167.377 127.05 167.544 127.763L166.483 126.478C167.371 126.367 168.524 126.404 168.968 125.727C168.968 125.702 168.962 125.875 169.03 125.887C169.085 125.893 169.03 125.696 168.851 125.536C168.727 125.419 168.549 125.29 168.395 125.21C167.494 124.902 166.483 125.142 165.108 125.216C166.335 122.257 170.337 121.168 172.254 124.343C173.333 126.225 171.983 128.674 170.109 129.277C168.641 129.806 167.316 129.486 166.082 128.957L164.8 128.409L165.028 127.671C165.287 126.779 165.688 125.838 166.132 124.982C166.551 125.167 166.958 125.333 167.371 125.579V125.592Z" fill="#292D33"/>
  <path d="M155.545 124.998C154.762 124.776 154.282 125.422 154.349 125.705C154.577 126.438 155.453 126.351 156.063 126.118C156.187 126.068 156.31 125.995 156.359 125.939C156.427 125.89 156.415 125.884 156.402 125.951C156.402 125.995 156.427 126.136 156.476 126.161C156.532 126.185 156.532 126.105 156.476 126.007C155.767 124.906 154.164 125.871 153.147 126.499C153.061 122.814 157.882 121.355 159.713 124.813C160.996 127.52 158.08 130.135 155.465 129.735C153.011 129.631 150.847 126.597 152.962 124.542C153.788 123.86 155.213 123.97 155.539 125.004L155.545 124.998Z" fill="#292D33"/>
  <path d="M108.73 87.6743C112.559 74.52 116.394 61.3719 120.223 48.2176C120.747 46.4087 121.357 44.4768 122.855 43.3324C124.594 41.9973 127.005 42.1142 129.194 42.2926C148.356 43.8554 167.525 45.4243 186.688 46.9871C189.512 47.2209 192.785 47.7192 194.185 50.1741C195.529 52.5306 194.456 55.4715 193.365 57.951C188.679 68.6381 183.987 79.3314 179.301 90.0185" fill="white"/>
  <path d="M108.73 87.6765C112.047 73.6055 115.506 59.6144 119.47 45.7218C120.093 43.8268 121.591 41.8026 123.62 41.1443C126.283 40.1598 129.175 40.7136 131.875 40.8366L136.95 41.1873C147.067 41.9195 167.414 43.5745 177.513 44.4974L187.68 45.4696C190.362 45.7341 193.975 46.6324 195.467 49.4195C197.792 54.0032 194.32 58.5685 192.65 62.6169C188.408 71.5136 183.784 81.3147 179.301 90.033C181.644 83.6712 184.141 77.3709 186.626 71.0706L190.43 61.6509C191.312 59.2453 193.507 55.0984 193.365 52.6189C193.217 49.5426 190.06 48.9396 187.341 48.6874L177.223 47.986C167.106 47.2538 146.759 45.5865 136.66 44.6697L131.598 44.1898L129.064 43.9499C127.035 43.7899 124.73 43.4823 123.281 45.0635C122.461 45.9679 121.967 47.4753 121.468 49.0934C117.417 62.0139 113.249 74.9037 108.724 87.6888L108.73 87.6765Z" fill="#292D33"/>
</svg>