<svg width="238" height="243" viewBox="0 0 238 243" fill="none" xmlns="http://www.w3.org/2000/svg">
<path d="M235.338 28.7264C184.986 23.6888 133.217 41.1217 94.5234 74.2958C65.307 99.4727 44.939 133.478 31.0813 169.387C26.4757 181.351 22.3946 193.502 18.7961 205.782L21.9867 206.781C25.9063 194.67 30.0207 182.643 34.7871 170.878C48.7257 135.726 68.5373 102.179 97.052 77.2918C134.736 43.8215 185.744 26.3726 235.338 28.7264Z" fill="white"/>
<path d="M50.5207 183.888C38.8197 186.477 27.3986 195.698 18.1057 208.478L21.3188 209.504C17.9467 192.43 14.2444 175.544 9.34576 159.638C11.2285 179.127 14.583 197.885 18.2357 216.385C27.7207 202.483 38.797 191.696 50.5106 183.887L50.5207 183.888Z" fill="white"/>
</svg>
