<svg width="255" height="259" viewBox="0 0 255 259" fill="none" xmlns="http://www.w3.org/2000/svg">
<path d="M26.2176 27.8139C75.0648 28.5829 122.772 51.0583 156.189 87.175C181.407 114.569 197.158 149.444 206.453 185.422C209.539 197.408 212.102 209.514 214.187 221.691L211.016 222.293C208.604 210.243 205.996 198.253 202.734 186.44C193.276 151.179 178.008 116.804 153.431 89.7669C121.015 53.4784 74.0392 31.0722 26.2176 27.8139Z" fill="white"/>
<path d="M186.197 197.165C197.131 200.949 207.058 211.062 214.548 224.351L211.353 224.978C216.485 208.98 221.914 193.198 228.381 178.489C224.408 196.969 219.105 214.584 213.544 231.92C205.994 217.533 196.572 205.957 186.207 197.165L186.197 197.165Z" fill="white"/>
</svg>
