<svg width="384" height="522" viewBox="0 0 384 522" fill="none" xmlns="http://www.w3.org/2000/svg">
<path d="M7.56635 3.51253C32.0665 2.43542 87.6069 4.40071 119.747 3.91601C158.897 3.31283 198.048 2.70965 237.198 2.10647C271.318 2.10647 305.468 1.00782 339.599 0.53389C371.149 0.0922763 383.389 22.033 382.699 54.2492C381.199 124.25 379.699 194.252 378.199 264.253C376.719 333.554 379.119 402.93 379.129 472.35C379.129 483.67 378.839 495.949 372.309 504.825C363.559 516.727 347.429 517.761 333.329 517.804C294.798 517.901 256.278 517.998 217.748 518.095C160.407 518.235 103.067 518.386 45.7267 518.526C34.6566 518.558 22.5765 518.213 14.0764 510.566C3.27633 500.85 2.57631 483.563 2.74631 468.408C4.35632 322.988 5.95634 177.556 7.56635 32.1362" fill="white"/>
<path d="M22.9676 4.50978C56.7517 2.8839 90.5558 5.56498 124.31 4.61745C182.97 3.23922 269.085 2.11941 327.005 0.71965C334.413 0.71965 345.291 -0.152515 352.56 1.81792C365.998 4.72513 376.276 14.8573 380.425 28.9088C383.195 37.738 383.895 47.1488 383.695 56.3764C382.875 99.8015 381.065 191.055 380.165 233.727C377.996 306.482 379.805 379.205 380.515 451.982C380.455 459.595 380.745 471.676 380.555 479.342C380.335 488.688 379.315 498.702 373.916 506.552C362.668 522.466 341.702 520.948 325.225 521.098C236.83 520.84 122.03 522.164 33.6557 521.12C5.26067 518.966 0.111562 496.635 0.781445 470.072C2.27118 361.256 5.28071 142.247 7.14038 33.4634C6.63047 142.3 4.80075 361.299 3.85092 470.104C3.81092 479.116 4.02092 488.215 6.51049 496.581C9.52996 507.531 17.4286 514.713 27.8567 516.587C33.9757 517.879 40.1746 517.857 46.4535 517.847C129.839 517.513 241.919 517.201 325.215 516.878C340.772 516.533 360.189 518.503 370.697 503.989C375.506 496.969 376.386 487.838 376.606 479.224C376.686 471.654 376.656 459.789 376.606 452.004C376.016 379.238 374.326 306.407 376.616 233.641C377.696 191.098 379.555 99.5 380.685 56.3011C380.815 51.8003 380.705 47.3318 380.245 42.8956C378.606 24.3541 369.767 8.56909 351.97 4.61745C345.051 2.74392 334.213 3.40073 327.025 3.43304C269.365 4.57438 182.67 5.00508 124.3 5.7588C90.4958 6.41562 56.7417 3.35767 22.9476 4.52055L22.9676 4.50978Z" fill="#292D33"/>
</svg>
