<svg width="244" height="255" viewBox="0 0 244 255" fill="none" xmlns="http://www.w3.org/2000/svg">
<path d="M18.545 183.076C22.0712 190.782 25.5311 198.52 28.9843 206.251L31.5818 212.05C33.7486 216.704 36.1775 223.843 40.9459 225.587C44.3046 226.838 48.066 225.793 51.4842 224.815L63.4503 221.237C71.3921 218.891 91.7382 212.885 99.427 210.636C106.555 208.381 115.719 206.809 120.956 201.784C126.714 196.163 122.211 188.544 118.451 182.063L112.151 170.923L99.6152 148.625L101.864 149.76C78.4802 152.116 55.6816 157.881 34.4123 166.644C27.3078 169.58 20.3656 172.871 13.5854 176.45L13.4849 176.306C19.9666 172.267 26.7314 168.619 33.6906 165.316C40.6583 162.007 47.8221 159.029 55.1925 156.495C70.3663 151.257 86.2417 147.455 102.514 145.506L103.298 146.83L116.379 168.864L122.886 179.898C127.98 188.012 132.807 197.777 125.097 205.608C118.651 211.862 109.733 213.328 101.471 216.021C93.8896 218.288 73.3737 224.346 65.5134 226.662C60.9878 227.845 51.5681 231.114 46.8522 231.572C34.842 232.941 30.1879 223.094 26.5545 213.801C22.4665 204.118 18.2491 194.271 14.2409 184.572L18.545 183.076Z" fill="#FEDC00"/>
<path d="M22.6011 179.579C37.9049 182.114 53.7447 185.757 68.9247 189.397L66.3264 190.267C75.5419 179.275 84.9169 168.385 95.0121 158.139L95.1547 158.252C91.3862 164.368 87.3666 170.299 83.2672 176.179C78.8955 182.479 74.3677 188.648 69.8093 194.812C62.3145 193.286 52.329 191.323 44.9315 189.621C37.2192 187.888 29.5303 186.084 21.8841 183.969L22.5994 179.594L22.6011 179.579Z" fill="#FEDC00"/>
<path d="M170.905 103.503C168.04 108.389 165.137 113.259 162.235 118.121L160.061 121.773C158.343 124.741 155.415 128.877 156.065 131.839C156.511 133.935 158.287 135.254 159.915 136.441L165.695 140.531C169.517 143.257 179.304 150.244 182.992 152.893C186.5 155.277 190.318 158.9 194.651 159.236C199.466 159.566 201.966 154.258 204.116 149.777L207.864 142.151L215.391 126.92L215.534 128.449C206.657 118.508 196.192 110.273 184.665 104.014C180.81 101.927 176.822 100.065 172.738 98.3994L172.78 98.292C177.007 99.6245 181.122 101.253 185.121 103.118C189.126 104.985 193.022 107.082 196.755 109.463C204.45 114.354 211.626 120.177 217.966 126.964L217.532 127.888L210.321 143.262L206.696 150.941C204.13 156.732 200.617 163.092 194.012 162.779C188.642 162.394 184.96 158.841 180.853 156.111C177.191 153.52 167.32 146.476 163.541 143.775C161.444 142.156 156.658 139.127 154.876 137.115C150.234 132.076 153.846 125.763 157.503 120.159C161.215 114.178 164.97 108.069 168.717 102.119L170.905 103.503Z" fill="#FEDC00"/>
<path d="M174.056 103.929C177.74 112.148 181.023 121.083 184.09 129.709L182.787 128.86C191.533 128.548 200.279 128.354 208.924 128.767L208.912 128.882C204.49 129.69 200.082 130.303 195.675 130.858C190.96 131.462 186.261 131.938 181.556 132.398C179.9 128.253 177.657 122.761 176.124 118.588C174.505 114.254 172.931 109.902 171.532 105.439L174.048 103.935L174.056 103.929Z" fill="#FEDC00"/>
<path d="M142.123 28.4994C139.299 30.6661 136.451 32.8117 133.606 34.9539L131.472 36.5635C129.772 37.8859 127.034 39.5806 126.968 41.5526C126.912 42.944 127.907 44.2321 128.824 45.3996L132.099 49.4697C134.261 52.174 139.796 59.103 141.879 61.7238C143.883 64.1346 145.887 67.3803 148.817 68.7798C152.079 70.3076 154.725 67.786 156.986 65.6674L160.895 62.0864L168.731 54.9464L168.564 55.911C164.169 47.4454 158.384 39.5747 151.522 32.6058C149.227 30.2789 146.801 28.0519 144.274 25.917L144.321 25.8637C147.004 27.8363 149.559 29.9577 151.993 32.1898C154.43 34.4244 156.752 36.7687 158.913 39.2393C163.369 44.3229 167.306 49.8269 170.499 55.6836L170.039 56.1226L162.396 63.4367L158.563 67.0833C155.788 69.8801 152.261 72.7596 147.76 70.7473C144.124 69.0325 142.203 65.8668 139.845 63.0812C137.769 60.5024 132.187 53.5159 130.05 50.8386C128.885 49.2804 126.111 46.1265 125.232 44.4174C122.906 40.0869 126.493 37.2629 129.989 34.8809C133.587 32.2862 137.238 29.6252 140.855 27.0585L142.123 28.4994Z" fill="#FEDC00"/>
<path d="M144.221 29.6265C145.334 35.6169 146.045 41.9298 146.662 47.9961L145.911 47.1226C151.996 49.3477 158.06 51.6435 163.95 54.279L163.921 54.3448C160.732 53.6138 157.586 52.7688 154.451 51.8884C151.094 50.9528 147.772 49.9445 144.447 48.9242C144.025 45.959 143.433 42.0161 143.101 39.0679C142.737 35.9986 142.407 32.9304 142.218 29.8436L144.214 29.6275L144.221 29.6265Z" fill="#FEDC00"/>
<path d="M189.381 27.4189C191.329 28.5086 193.268 29.6193 195.205 30.7294L196.659 31.5607C197.844 32.2116 199.464 33.3879 200.782 32.8447C201.714 32.4672 202.385 31.4758 202.992 30.5683L205.091 27.3556C206.488 25.2299 210.069 19.7853 211.425 17.7327C212.657 15.7901 214.442 13.6012 214.835 11.3908C215.253 8.93851 213.102 8.06308 211.288 7.30443L208.205 5.96821L202.051 3.2786L202.72 3.09512C197.914 8.29548 193.755 14.1721 190.389 20.4414C189.266 22.5376 188.233 24.684 187.279 26.8651L187.235 26.8518C188.053 24.6231 188.993 22.4288 190.028 20.2763C191.064 18.1206 192.194 16.0029 193.437 13.9474C195.992 9.71031 198.92 5.66759 202.218 1.97668L202.592 2.1284L208.826 4.64825L211.938 5.91864C214.295 6.79164 216.844 8.1013 216.33 11.4559C215.856 14.1925 214.11 16.3076 212.694 18.5777C211.364 20.6133 207.754 26.1039 206.37 28.2063C205.55 29.3818 203.967 32.0161 202.995 33.061C200.551 35.7689 198.028 34.4057 195.815 32.9682C193.442 31.5304 191.015 30.0804 188.657 28.623L189.381 27.4189Z" fill="#FEDC00"/>
<path d="M189.745 25.7969C193.51 23.341 197.56 21.0362 201.465 18.8619L201.023 19.5812C201.389 15.1922 201.806 10.7952 202.479 6.40436L202.528 6.40239C202.624 8.57389 202.637 10.7525 202.625 12.9352C202.616 15.2697 202.553 17.6049 202.482 19.9448C200.596 21.0815 198.093 22.6118 196.201 23.6882C194.235 24.8197 192.263 25.9303 190.254 26.96L189.747 25.8006L189.745 25.7969Z" fill="#FEDC00"/>
<path d="M202.377 64.6354C203.069 67.1582 203.737 69.6913 204.402 72.2216L204.904 74.1197C205.335 75.6439 205.689 77.9744 207.205 78.5778C208.272 79.0099 209.63 78.702 210.866 78.4133L215.203 77.3523C218.079 76.6572 225.448 74.8783 228.232 74.2129C230.824 73.5408 234.067 73.1061 236.196 71.522C238.544 69.7494 237.512 67.2465 236.657 65.1181L235.245 61.4611L232.443 54.1416L233.137 54.5274C224.972 55.1 216.779 56.7811 208.91 59.4451C206.28 60.3378 203.683 61.3467 201.122 62.4502L201.097 62.4029C203.587 61.1481 206.147 60.022 208.751 59.0093C211.359 57.9948 214.011 57.089 216.704 56.3287C222.251 54.7562 227.942 53.6544 233.644 53.1554L233.825 53.5904L236.831 60.8289L238.321 64.4533C239.523 67.1213 240.523 70.3214 237.359 72.7935C234.733 74.7655 231.581 75.1677 228.572 75.9725C225.824 76.6447 218.393 78.4393 215.546 79.1251C213.918 79.4712 210.473 80.4529 208.828 80.5631C204.623 80.9086 203.688 77.6835 203.065 74.6459C202.313 71.4783 201.527 68.2568 200.803 65.0846L202.377 64.6354Z" fill="#FEDC00"/>
<path d="M204.001 63.5372C209.072 64.4819 214.252 65.7895 219.207 67.0909L218.259 67.3515C222.15 63.8684 226.089 60.4195 230.231 57.1847L230.273 57.2226C228.573 59.1715 226.8 61.0587 225.003 62.9288C223.085 64.9325 221.121 66.8927 219.148 68.8509C216.684 68.2963 213.395 67.5797 210.976 66.9689C208.451 66.3452 205.938 65.699 203.461 64.9523L203.999 63.5419L204.001 63.5372Z" fill="#FEDC00"/>
</svg>
