<svg width="260" height="265" viewBox="0 0 260 265" fill="none" xmlns="http://www.w3.org/2000/svg">
<path d="M252.374 126.198C252.972 175.674 221.436 223.146 175.758 242.146C92.9062 277.408 0.354801 216.356 0.372931 126.198C0.345736 36.0306 92.8971 -25.0298 175.758 10.2413C221.427 29.2501 252.963 76.7224 252.365 126.198H252.374ZM252.374 126.198C252.89 76.9309 221.019 29.658 175.106 11.8276C94.3837 -20.7603 5.67583 39.2304 5.80273 126.198C5.6577 213.184 94.3747 273.183 175.106 240.577C221.01 222.729 252.89 175.465 252.365 126.198H252.374Z" fill="#292D33"/>
<path d="M82.3151 191.852C77.4888 161.111 78.5761 128.269 74.8968 97.4317C73.8386 88.5794 72.7844 79.7247 71.7263 70.8723C71.2907 67.2277 70.9982 63.1071 73.4656 60.4835C75.7046 58.1024 79.43 57.8107 82.8129 57.6696C109.441 56.5476 136.068 55.4288 162.696 54.31C165.941 54.173 169.551 54.1542 172.094 56.265C174.699 58.4281 175.249 62.0462 175.607 65.3035C179.847 103.882 184.088 142.461 188.329 181.037C188.684 184.274 189.007 187.715 187.54 190.55C184.901 195.647 177.957 196.522 172.015 196.803C148.317 197.925 118.717 201.228 95.0197 202.35C92.0149 202.491 88.7092 202.546 86.2529 200.713C83.5455 198.687 82.8239 195.089 82.3191 191.85" fill="white"/>
<path d="M82.3362 191.839C76.5591 157.241 77.8022 122.293 72.6498 87.6531L70.785 72.7862C70.344 69.0662 69.5196 64.6724 71.4474 61.1281C73.4701 57.3092 78.2944 56.5388 82.3404 56.4055C105.946 55.326 138.558 53.8525 162.146 52.8567C164.831 52.7536 167.614 52.6167 170.334 53.6071C173.321 54.6281 175.405 57.3008 176.207 60.1647C181.697 101.13 185.191 142.162 189.715 183.242C189.803 184.521 189.832 185.833 189.686 187.157C188.443 198.026 175.845 197.598 167.145 197.995C144.639 199.143 121.44 201.45 98.9023 202.445C92.1539 202.681 85.1686 203.901 83.0345 195.533C82.7109 194.313 82.5132 193.075 82.3362 191.839C82.7648 194.272 83.249 196.826 84.7226 198.925C87.0241 202.313 91.4324 202.341 95.0474 202.074C108.946 201.213 122.8 199.871 136.648 198.596C147.971 197.56 159.353 196.546 170.74 195.88C174.408 195.679 178.24 195.427 181.567 194.143C186.531 192.244 187.927 188.48 187.386 183.299C183.504 151.92 177.584 92.2013 173.292 60.8951C172.271 57.3226 169.75 55.9102 166.089 55.7712C164.087 55.684 160.71 55.8807 158.625 55.9594C136.597 56.8782 104.629 58.1285 82.5919 58.9676C75.1986 59.1558 72.0906 61.3035 72.765 68.9536C73.855 79.202 75.439 92.2299 76.4622 102.412C79.279 132.226 78.2265 162.081 82.3388 191.843L82.3362 191.839Z" fill="#292D33"/>
<path d="M96.9135 87.2083C95.4447 86.3295 96.2643 84.2744 97.474 83.5688C98.7663 82.7634 100.503 83.1097 101.874 83.5596C103.849 84.1733 106.589 86.0015 108.41 84.5225C108.953 84.0253 109.444 82.9635 110.011 82.265C111.455 80.3073 114.166 79.9218 116.444 79.8007C118.125 79.731 119.605 79.2496 121.301 79.0103C130.126 78.2378 138.922 79.0623 147.72 78.8228C150.352 78.7178 153.054 78.3131 155.218 76.7866C152.444 79.9175 147.842 80.3862 143.865 80.8306C136.528 81.5877 129.063 81.4243 121.778 81.9595C120.146 82.2065 118.382 82.6609 116.674 82.6771C114.532 82.7577 112.605 82.7851 111.502 84.6268C111.114 85.139 110.679 85.7931 109.965 86.3499C107.935 87.9644 105.116 87.0677 103.08 85.8839C101.469 85.0271 99.7343 83.7321 97.8836 84.3058C96.8058 84.6887 95.8493 86.2381 96.9109 87.2043L96.9135 87.2083Z" fill="#292D33"/>
<path d="M101.084 99.683C109.694 97.472 118.346 95.6297 127.278 94.8167C127.401 94.8071 127.663 94.7884 127.746 94.7699C127.755 94.7721 127.695 94.7822 127.675 94.7946C127.643 94.8146 127.564 94.8476 127.524 94.879C127.4 94.9426 127.187 95.2265 127.2 95.2328L127.198 95.2425L127.222 95.1904C127.347 94.9509 127.528 94.741 127.747 94.5804C128.264 94.206 128.912 94.1493 129.532 94.1302C131.527 94.0865 134.099 94.2819 136.076 94.3563C139.204 94.4233 142.427 94.3321 145.471 93.97C147.556 93.7029 149.583 93.2158 151.451 92.3334C151.653 92.2401 151.883 92.2583 152.065 92.3605C153.133 92.9716 154.384 93.2816 155.621 93.2936C156.92 93.3196 158.217 93.0166 159.35 92.3781C158.394 93.3447 157.082 93.9359 155.72 94.1836C154.3 94.4252 152.801 94.303 151.425 93.7679L152.149 93.742C148.423 96.197 143.771 96.8122 139.407 97.1333C136.103 97.4535 132.655 97.0499 129.385 97.1235L129.293 97.1333C129.272 97.1353 129.293 97.1333 129.29 97.1325C129.364 97.1085 129.5 97.0479 129.572 96.9828C129.697 96.8925 129.818 96.7571 129.881 96.6325L129.854 96.6839C129.709 97.0003 129.289 97.3866 128.948 97.5092C128.554 97.6812 128.165 97.7185 127.762 97.7496C118.919 98.3318 110.012 99.5943 101.085 99.6765L101.084 99.683Z" fill="#292D33"/>
<path d="M16.6258 217.727C25.7749 201.64 32.0464 183.918 35.0485 165.657C35.7531 161.379 36.3073 156.976 38.2992 153.125C40.2878 149.274 44.0995 146.018 48.4307 146.085C48.067 147.889 47.7073 149.692 47.3435 151.496C47.9571 146.841 50.2137 142.418 53.6214 139.188C55.1774 137.714 57.1194 136.432 59.2623 136.452C61.4053 136.472 63.6058 138.284 63.3545 140.416C64.5211 135.156 66.5605 130.09 69.3674 125.49C70.6201 123.436 72.4074 121.261 74.8107 121.267C77.4676 121.274 79.38 124.135 79.4063 126.792C79.4326 129.45 78.1354 131.919 76.9629 134.307C72.4135 143.578 69.2992 153.554 67.7655 163.764C72.6064 152.472 77.4448 141.177 82.2857 129.885C83.1708 127.818 84.1282 125.658 85.9187 124.301C87.706 122.944 90.5976 122.759 91.9926 124.522C87.9995 145.973 81.9385 167.037 73.9183 187.331C75.5198 181.35 77.6151 175.37 81.3742 170.453C85.1333 165.536 90.8005 161.771 96.9802 161.562C89.8635 175.59 91.0827 193.564 80.8751 205.527C75.3715 211.979 67.3675 215.608 60.2558 220.223C53.1441 224.837 46.2983 231.479 45.6586 239.937C37.3524 230.244 26.8638 222.436 15.1946 217.268C15.9887 218.571 16.7867 219.872 17.5808 221.175" fill="#FEDC00"/>
<path d="M84.6733 128.211C86.3424 128.34 87.7985 128.385 89.4712 128.38C88.3251 129.757 85.7923 129.662 84.6733 128.211Z" fill="#292D33"/>
<path d="M72.4145 125.449C74.2361 126.422 76.1325 126.727 78.1427 126.377C76.7272 128.17 73.2786 127.606 72.4145 125.449Z" fill="#292D33"/>
<path d="M45.4958 240.078C44.8791 231.316 51.5576 224.427 58.3862 219.94C65.1883 215.46 73.1233 212.312 78.7611 206.443C84.2821 200.62 86.7944 192.783 89.1602 185.17C91.256 178.347 94.3481 168.616 96.564 161.731L97.5657 163.388C94.4813 162.542 91.4249 163.543 88.872 165.072C82.0628 169.343 77.5352 176.499 75.8508 184.245C75.5206 185.832 75.3164 187.45 75.2007 189.09C74.9143 184.081 75.9345 179.108 78.0316 174.662C81.0655 168.361 87.3209 160.988 95.1746 160.636C96.1381 160.617 97.1205 160.715 98.0913 160.939C98.851 161.111 99.332 161.905 99.093 162.596C97.0816 169.462 94.2083 179.452 92.1366 186.193C89.724 194.12 86.9715 202.393 80.9203 208.426C73.5439 215.87 62.6459 218.556 54.4767 224.963C49.7378 228.675 45.7003 233.815 45.4911 240.084L45.4958 240.078Z" fill="#292D33"/>
<path d="M55.0456 171.352C57.0486 161.967 59.2623 152.416 61.4821 143.081C61.7563 141.852 62.0389 140.44 61.4517 139.312C60.5245 137.626 58.1665 137.744 56.6635 138.388C52.7425 140.321 51.5731 144.786 50.1819 148.592C48.5298 153.353 46.0231 160.694 44.3494 165.384C43.6794 167.118 40.9454 166.134 41.4484 164.334C41.445 164.333 44.3569 155.107 44.3548 155.099C45.072 152.801 46.5406 148.179 47.2818 145.887L48.1372 147.728C46.7479 146.994 44.6083 147.418 43.3205 148.402C41.0401 150.127 39.9627 152.809 38.7199 155.347C38.1997 156.458 37.679 157.711 37.2131 158.856C32.0263 172.187 30.9413 186.816 25.8132 200.213C23.3446 206.719 19.8863 212.968 14.8704 217.878C21.615 209.889 24.8457 199.778 27.0278 189.66C29.4164 178.555 30.7314 167.145 34.9202 156.496C35.9246 153.976 36.965 151.632 38.4144 149.264C39.4245 147.7 40.7425 146.148 42.713 145.194C43.6792 144.74 44.7444 144.436 45.8953 144.383C47.3853 144.311 50.8433 144.774 50.2677 146.927C48.6543 152.079 46.0327 160.138 44.3634 165.333L41.4651 164.27C42.2111 162.183 43.7371 158.002 44.5133 155.926C45.6548 152.967 47.9862 146.215 49.245 143.388C50.8406 139.816 53.7462 135.872 58.2951 135.783C60.2119 135.688 62.5238 136.673 63.337 138.545C64.1493 140.281 63.7549 142.026 63.3198 143.618C60.6703 152.832 57.9101 162.215 55.0463 171.348L55.0456 171.352Z" fill="#292D33"/>
<path d="M69.561 162.901C66.6511 158.894 70.4744 150.706 71.6611 146.559C73.3364 141.279 75.1123 136.034 76.9347 130.808C77.6635 128.627 78.4712 126.885 78.0774 124.829C77.7389 123.273 76.4407 121.872 74.7368 122.392C70.994 123.276 67.1475 133.975 65.6824 137.568C62.9301 144.431 60.3341 151.268 57.8838 158.255C58.7741 152.733 60.1151 147.311 61.7006 141.978C63.5112 136.197 65.1207 130.257 68.0857 124.948C68.8595 123.634 69.5342 122.434 70.6894 121.276C72.3063 119.587 75.2771 118.608 77.7134 119.845C79.842 120.899 81.0532 123.126 81.2501 125.283C81.4509 127.665 80.5302 129.852 79.7434 131.913C77.758 137.075 75.7288 142.222 73.6009 147.324C72.5313 149.903 71.299 152.329 70.3251 154.914C69.4649 157.419 68.2946 160.208 69.5541 162.9L69.561 162.901Z" fill="#292D33"/>
<path d="M81.4011 169.141C83.7565 156.48 86.7916 144.02 90.0057 131.601C90.3456 130.245 90.6225 129.019 90.5125 127.677C90.2658 124.965 87.758 123.048 85.5754 125.304C84.4021 126.523 83.8588 128.432 83.1576 130.055C81.6816 133.697 80.185 137.333 78.6487 140.952C75.5663 148.185 72.418 155.388 68.9567 162.465C71.1845 154.883 73.7254 147.426 76.3355 140C77.6454 136.29 78.9924 132.593 80.362 128.908C81.1329 126.927 81.6756 124.899 83.2371 123.211C86.4816 119.786 91.6185 121.204 93.2285 125.772C94.0249 127.984 93.5512 130.448 92.9635 132.502C89.4573 144.835 85.763 157.1 81.4039 169.145L81.4011 169.141Z" fill="#292D33"/>
<path d="M94.0613 161.611C93.2008 162.791 92.0889 163.812 91.7407 165.214C91.4843 166.133 91.6399 167.243 92.5138 167.864C92.7925 168.08 93.1481 168.199 93.5566 168.164C93.2455 168.416 92.7368 168.455 92.3027 168.303C90.8799 167.848 90.3592 166.13 90.7344 164.926C91.1625 163.291 92.568 162.241 94.0613 161.611Z" fill="#292D33"/>
<path d="M77.337 144.116C78.6812 143.544 80.2883 143.874 81.5103 144.675C81.9173 144.949 82.2886 145.285 82.5624 145.718C82.0639 145.634 81.6249 145.509 81.1917 145.389C79.9144 145.003 78.5835 144.646 77.337 144.116Z" fill="#292D33"/>
<path d="M76.3146 146.685C78.1508 145.696 80.7885 146.351 82.0165 148.113C80.0633 147.589 78.2815 147.137 76.3146 146.685Z" fill="#292D33"/>
<path d="M65.5778 137.724C67.1712 137.132 69.1974 137.785 70.1909 139.219C68.541 139 67.0594 138.513 65.5778 137.724Z" fill="#292D33"/>
<path d="M64.5808 139.381C66.2757 139.125 68.0554 139.592 69.4368 140.671C67.7405 140.933 65.9634 140.453 64.5808 139.381Z" fill="#292D33"/>
<path d="M91.8603 178.573C90.0121 177.791 88.6472 176.488 86.8303 175.653C88.6985 175.021 91.1233 176.907 91.8603 178.573Z" fill="#292D33"/>
<path d="M234.164 215.465C226.828 199.868 223.679 182.477 225.124 165.574C225.423 162.074 226.018 158.511 225.547 154.995C225.347 153.524 225.75 152.074 225.628 150.582C225.5 149.052 225.08 147.533 224.383 146.143C223.619 144.621 222.526 143.256 221.212 142.151C220.028 141.154 218.576 140.611 217.502 139.54C214.762 136.81 211.455 134.592 208.397 132.232C207.294 131.384 206.189 130.531 205.225 129.533C204.207 128.478 203.357 127.268 202.716 125.962C202.238 124.989 202.119 123.819 201.476 122.973C199.797 120.758 196.867 118.687 194.345 117.555C189.774 115.502 184.422 116.007 179.854 117.814C175.755 119.434 171.983 122.002 168.579 124.725C166.794 126.153 167.645 127.828 167.223 129.99C166.828 132.005 165.976 133.909 165.008 135.697C163.311 138.828 161.217 141.823 160.406 145.302C159.369 149.756 160.554 154.448 161.778 158.921C164.94 170.485 168.608 182.393 176.639 191.496C181.827 197.374 188.57 201.755 193.83 207.571C199.09 213.388 202.824 221.612 200.113 228.735C210.387 222.175 222.023 217.642 234.166 215.473L234.164 215.465ZM180.213 148.87C179.565 150.374 178.913 151.886 177.972 153.224C177.779 153.5 177.561 153.775 177.263 153.935C176.961 154.095 176.554 154.111 176.287 153.887C176.121 153.746 176.034 153.542 175.95 153.346C175.419 152.075 174.891 150.808 174.361 149.537C173.961 148.579 173.556 147.607 173.427 146.585C173.182 144.649 173.971 142.714 175.224 141.249C176.48 139.786 178.164 138.741 179.914 137.888L179.852 137.799C181.253 137.985 182.65 138.171 184.051 138.358C183.166 141.994 181.685 145.443 180.209 148.869L180.213 148.87Z" fill="#FEDC00"/>
<path d="M234.14 215.339C221.545 198.734 222.679 177.046 224.017 157.81C224.263 153.294 224.997 148.29 222.059 144.444C220.892 142.972 219.274 141.767 217.813 140.512C213.972 137.298 210.089 133.979 206.358 130.642C206.29 130.596 206.273 130.493 206.331 130.435C206.377 130.384 206.459 130.378 206.513 130.418C207.012 130.767 207.507 131.119 208.005 131.475C207.458 131.204 206.915 130.93 206.373 130.653L206.529 130.428C209.891 132.676 213.202 134.98 216.494 137.314C222.903 141.905 226.525 143.58 227.028 152.043C227.143 154.102 227.032 156.1 226.959 158.048C226.045 177.268 224.284 197.559 234.14 215.339Z" fill="#292D33"/>
<path d="M185.823 126.196C186.14 127.314 186.78 128.16 187.475 128.998C188.557 130.262 190.738 132.781 191.825 134.04L192.916 135.282L194.012 136.515C194.486 137.047 194.522 137.8 194.146 138.343C192.542 140.63 192.943 144.055 194.907 146.149C195.498 146.878 194.512 147.423 194.069 147.882C193.252 148.626 192.412 149.347 191.512 149.996C191.648 149.648 191.792 149.308 191.943 148.97C192.394 147.969 192.9 147.001 193.432 146.046L193.584 147.252C190.068 144.983 189.212 139.79 191.615 136.582L191.725 138.442C189.575 136.012 184.819 129.35 185.823 126.196Z" fill="#292D33"/>
<path d="M178.225 127.783C179.977 128.743 181.681 130.216 183.63 130.093C184.912 129.998 186.075 129.107 186.255 127.786C186.331 127.321 186.302 126.811 186.112 126.275C186.595 126.596 186.936 127.153 187.081 127.757C187.6 129.761 185.788 131.662 183.804 131.753C181.278 131.928 179.226 129.877 178.224 127.786L178.225 127.783Z" fill="#292D33"/>
<path d="M213.147 150.726C214.231 149.292 214.589 147.462 214.416 145.693C214.067 142.075 211.729 139.147 209.647 136.204C207.487 133.185 205.367 130.141 203.27 127.085C202.323 125.765 201.068 123.802 200.144 122.521C198.238 119.764 195.952 117.354 192.475 117.761C187.989 118.233 183.524 119.512 178.978 119.892C176.884 120.207 175.603 122.109 173.787 123.155C172.981 123.678 171.949 124.02 171.084 124.329C170.489 124.564 169.881 124.765 169.665 125.276C169.421 127.038 170.953 128.851 172.578 129.795C174.099 130.743 175.891 130.818 177.648 130.94C178.068 130.964 178.489 130.935 178.825 130.78C179.61 130.44 179.524 129.387 179.06 128.742C178.812 128.369 178.477 128.038 178.148 127.708C178.94 128.235 179.79 128.905 179.865 129.944C179.991 131.138 178.69 131.748 177.684 131.77C175.744 131.912 173.76 131.963 171.922 131.099C170.02 130.221 168.386 128.633 167.753 126.583C167.318 125.329 167.573 123.896 168.727 123.045C169.507 122.415 170.529 122.087 171.386 121.684C173.114 120.964 174.751 118.647 176.847 117.668C177.674 117.225 178.95 117.104 179.894 116.966C182.133 116.617 184.315 116.153 186.567 115.688C189.475 115.176 192.363 114.295 195.412 115.02C200.537 116.382 202.82 121.698 205.485 125.695C207.447 128.838 209.388 131.994 211.291 135.172C212.704 137.556 214.297 140.079 214.948 142.839C215.625 145.561 215.247 148.79 213.14 150.725L213.147 150.726Z" fill="#292D33"/>
<path d="M166.907 133.751C164.676 135.602 163.739 138.356 162.483 140.866C161.275 143.261 159.979 145.823 160.013 148.552C160.06 150.725 160.89 152.867 161.487 155.004L162.461 158.319C163.103 160.556 164.706 166.124 165.302 168.282C166.172 171.457 167.172 174.711 169.006 177.44C171.56 181.239 174.331 184.92 177.279 188.443C180.226 191.982 183.358 195.373 186.653 198.606C189.957 202.009 193.864 204.736 196.57 208.761C197.931 210.854 198.717 213.157 199.304 215.411C200.434 219.923 201.167 224.498 201.359 229.08C200.489 224.562 199.371 220.111 197.864 215.796C197.126 213.651 196.239 211.581 194.925 209.848C192.168 206.286 188.079 203.661 184.805 200.497C179.139 195.306 174 189.553 169.5 183.361C168.459 181.929 167.44 180.478 166.471 178.99C164.444 175.864 163.43 172.39 162.581 168.908C162.044 166.754 160.674 161.077 160.137 158.855L159.343 155.499C158.826 153.195 158.14 150.884 158.262 148.467C158.438 144.847 160.733 141.816 162.468 138.923C163.628 136.995 164.914 134.946 166.903 133.753L166.907 133.751Z" fill="#292D33"/>
<path d="M174.242 164.641C170.729 165.746 169.044 169.132 170.268 172.604C167.332 169.456 169.964 164.195 174.242 164.641Z" fill="#292D33"/>
<path d="M164.555 145.682C163.161 146.546 162.001 147.354 160.702 148.348C160.735 146.55 162.806 145.123 164.555 145.682Z" fill="#292D33"/>
<path d="M170.867 147.411C171.797 146.785 173.055 146.846 173.948 147.569C173.017 148.199 171.762 148.128 170.867 147.411Z" fill="#292D33"/>
<path d="M174.761 142.972C175.003 144.966 174.809 147.021 175.7 148.805C176.028 149.449 176.522 150.1 176.938 150.758L177.621 151.854C178.497 153.308 179.221 154.608 180.243 155.39C181.223 156.162 182.82 156.52 184.532 155.954C183.656 157.563 181.264 158.339 179.165 157.471C178.134 157.062 177.289 156.344 176.632 155.611C175.431 154.23 174.59 152.644 173.736 151.052C172.257 148.417 173.081 145.202 174.757 142.971L174.761 142.972Z" fill="#292D33"/>
<path d="M185.914 138.147C187.707 138.488 189.604 138.19 191.171 137.318" stroke="#292D33" stroke-linejoin="round"/>
<path d="M178.25 155.205C178.427 152.119 179.254 149.243 180.263 146.387C181.283 143.581 182.539 140.879 184.114 138.325L184.838 139.705C183.79 139.242 182.751 138.736 181.752 138.16C181.417 137.965 181.081 137.756 180.752 137.536C182.287 137.451 183.831 137.576 185.354 137.752C185.888 137.814 186.267 138.326 186.149 138.824C185.789 140.39 185.328 141.927 184.789 143.426C183.214 147.655 181.27 151.747 178.25 155.205Z" fill="#292D33"/>
<path d="M167.247 124.583C165.427 123.36 163.604 122.134 161.783 120.912C162.891 125.3 164.734 129.549 167.212 133.425C168.902 136.072 170.878 138.538 172.862 140.989C182.316 152.683 191.999 164.206 201.901 175.547C202.973 176.775 204.108 178.045 205.617 178.682C207.125 179.319 209.113 179.09 209.904 177.754C210.907 176.062 209.542 173.907 208.24 172.308C199.105 161.063 189.966 149.818 180.832 138.57C179.272 136.651 177.716 134.732 176.155 132.816" fill="white"/>
<path d="M167.227 124.576C165.633 123.623 163.168 122.131 161.589 121.158L162.071 120.843C164.001 127.442 167.678 133.425 172.257 138.683C182.181 150.467 192.372 162.373 202.468 173.993C203.786 175.462 204.805 176.913 206.504 177.468C208.895 177.943 209.283 176.416 208.119 174.551C197.454 160.657 186.39 147.013 176.132 132.809C187.476 145.408 198.388 158.333 209.201 171.349C210.846 173.245 212.593 176.121 211.162 178.527C210.142 180.268 207.803 180.8 205.875 180.294C204.118 179.833 202.794 178.686 201.647 177.47C193.656 168.471 186.005 159.224 178.481 149.859C173.53 143.32 167.212 136.489 164 128.961C162.872 126.375 162.014 123.693 161.451 120.964C161.403 120.791 161.509 120.611 161.692 120.588C161.781 120.576 161.867 120.599 161.937 120.647C162.824 121.296 163.707 121.945 164.589 122.603L167.227 124.576Z" fill="#292D33"/>
</svg>
