<svg width="82" height="60" viewBox="0 0 82 60" fill="none" xmlns="http://www.w3.org/2000/svg">
  <path d="M8.93662 29.1708C10.6691 21.6452 12.4037 14.1203 14.1362 6.59474C14.4767 5.11391 14.8885 3.51816 16.0742 2.57505C17.7087 1.27739 20.0632 1.75836 22.0674 2.30219C28.0452 3.92893 34.0257 5.5541 40.0035 7.18084C40.8791 7.42001 41.833 7.71196 42.321 8.48108C42.8045 9.24216 42.6819 10.2293 42.541 11.1253C41.5157 17.6181 40.4751 24.1591 38.229 30.3384C35.9828 36.5177 32.4218 42.3811 27.1814 46.3201C23.1992 49.3149 18.4122 51.0741 13.5431 52.0549C11.5806 52.4491 9.47937 52.713 7.63965 51.9338C5.79994 51.1546 4.40348 48.9903 5.12596 47.1097C5.74631 45.4926 7.54165 44.7469 9.08536 43.9815C12.9045 42.0834 16.1353 39.0167 18.287 35.3178C18.5953 34.7893 19.7513 33.1749 19.6044 32.529C19.4188 31.7159 17.5614 31.5749 16.8172 31.3664C14.1916 30.6356 11.5665 29.9027 8.93872 29.1713L8.93662 29.1708Z" fill="#FEDC00"/>
  <path d="M7.09603 29.1699C7.44034 27.6242 11.4665 8.61164 11.7177 7.55668C12.1045 5.91109 12.3097 4.17819 13.4349 2.79633C15.2486 0.619799 18.3919 1.29396 20.7358 1.94926C23.7303 2.73345 31.78 4.86992 34.8731 5.68963C35.6146 5.89967 37.6808 6.4306 38.4061 6.63401C39.2764 6.8763 40.2129 7.16586 40.8396 7.94716C41.7648 9.12874 41.3816 10.6595 41.1889 11.9845C40.6909 15.2223 40.161 18.4698 39.4731 21.6931C36.7032 35.2266 30.2632 47.4359 16.2299 51.4906C13.8349 52.1869 11.4301 52.8352 8.92534 52.9568C7.21088 53.0222 5.30332 52.6224 4.0536 51.3402C1.75774 48.9917 2.3117 46.0665 5.17359 44.5616C6.63757 43.7657 8.09846 43.1917 9.45684 42.2517C12.1441 40.4818 14.4358 38.1108 16.1302 35.3617C16.6484 34.4873 17.3168 33.7168 17.5667 32.7592C17.647 32.1901 16.8923 32.0129 16.4644 31.8687C13.7515 31.2531 9.80319 29.9498 7.09814 29.1704L7.09603 29.1699ZM7.09603 29.1699C8.67697 29.5776 12.6653 30.6054 14.1857 31.0037C15.1672 31.3189 16.1881 31.3607 17.158 31.7274C17.5863 31.8785 18.0683 32.2916 17.9613 32.8172C17.7456 33.8658 17.0373 34.7347 16.5506 35.6175C14.4879 39.2198 11.4012 42.2365 7.74248 44.1754C6.39356 44.9203 4.78862 45.4852 3.9507 46.7873C2.92519 48.4026 4.08739 50.4656 5.61162 51.2784C8.34416 52.7625 12.9914 51.2135 15.8913 50.3912C25.7357 47.4109 31.9625 40.2696 35.5283 30.7636C37.8519 24.6822 38.9248 18.2136 39.9689 11.7939C40.0924 10.9797 40.2733 10.1785 40.201 9.52303C40.0785 7.97038 38.0902 7.84654 36.9164 7.45023L34.5665 6.80015C31.4464 5.93003 23.4954 3.71098 20.4842 2.86323C17.3056 1.9252 14.1291 1.38302 12.9994 5.34668C12.1881 8.41652 7.96222 25.7354 7.09393 29.1693L7.09603 29.1699Z" fill="#292D33"/>
  <path d="M45.7544 29.3661C47.4869 21.8405 49.2215 14.3156 50.954 6.79005C51.2945 5.30922 51.7063 3.71348 52.892 2.77036C54.5265 1.4727 56.881 1.95367 58.8852 2.49751C64.863 4.12424 70.8435 5.74942 76.8213 7.37615C77.6969 7.61532 78.6508 7.90727 79.1388 8.6764C79.6222 9.43747 79.4997 10.4247 79.3588 11.3206C78.3334 17.8134 77.2929 24.3544 75.0467 30.5337C72.8006 36.713 69.2396 42.5764 63.9992 46.5154C60.017 49.5102 55.23 51.2695 50.3609 52.2502C48.3983 52.6444 46.2971 52.9083 44.4574 52.1291C42.6177 51.3499 41.2213 49.1856 41.9437 47.305C42.5641 45.6879 44.3594 44.9423 45.9031 44.1769C49.7222 42.2787 52.953 39.212 55.1047 35.5131C55.4131 34.9846 56.5691 33.3702 56.4222 32.7243C56.2366 31.9112 54.3792 31.7702 53.635 31.5617C51.0093 30.8309 48.3843 30.098 45.7565 29.3666L45.7544 29.3661Z" fill="#FEDC00"/>
  <path d="M43.9138 29.3652C44.2581 27.8195 48.2843 8.80695 48.5354 7.75199C48.9223 6.1064 49.1274 4.37351 50.2526 2.99164C52.0663 0.815112 55.2097 1.48927 57.5536 2.14458C60.548 2.92877 68.5978 5.06523 71.6909 5.88494C72.4324 6.09498 74.4986 6.62591 75.2238 6.82933C76.0941 7.07161 77.0307 7.36117 77.6574 8.14248C78.5825 9.32405 78.1994 10.8548 78.0066 12.1798C77.5086 15.4177 76.9787 18.6651 76.2908 21.8884C73.5209 35.4219 67.0809 47.6313 53.0477 51.6859C50.6526 52.3822 48.2479 53.0305 45.7431 53.1522C44.0286 53.2175 42.1211 52.8177 40.8713 51.5356C38.5755 49.187 39.1294 46.2618 41.9913 44.7569C43.4553 43.961 44.9162 43.387 46.2746 42.447C48.9618 40.6772 51.2535 38.3061 52.9479 35.557C53.4661 34.6826 54.1346 33.9121 54.3844 32.9545C54.4648 32.3854 53.71 32.2082 53.2821 32.064C50.5693 31.4484 46.6209 30.1451 43.9159 29.3657L43.9138 29.3652ZM43.9138 29.3652C45.4947 29.7729 49.4831 30.8007 51.0034 31.199C51.9849 31.5142 53.0058 31.556 53.9758 31.9227C54.404 32.0738 54.886 32.4869 54.779 33.0126C54.5634 34.0611 53.8551 34.93 53.3684 35.8128C51.3057 39.4151 48.219 42.4318 44.5602 44.3707C43.2113 45.1156 41.6064 45.6806 40.7684 46.9826C39.7429 48.598 40.9051 50.6609 42.4294 51.4737C45.1619 52.9578 49.8092 51.4088 52.709 50.5865C62.5534 47.6062 68.7803 40.4649 72.346 30.9589C74.6696 24.8776 75.7426 18.4089 76.7867 11.9892C76.9102 11.175 77.0911 10.3738 77.0188 9.71834C76.8962 8.1657 74.9079 8.04186 73.7341 7.64554L71.3843 6.99547C68.2641 6.12534 60.3132 3.90629 57.3019 3.05854C54.1233 2.12051 50.9468 1.57833 49.8172 5.54199C49.0059 8.61183 44.78 25.9307 43.9117 29.3646L43.9138 29.3652Z" fill="#292D33"/>
</svg>
