<svg width="461" height="294" viewBox="0 0 461 294" fill="none" xmlns="http://www.w3.org/2000/svg">
<path d="M295.803 80.5927C321.11 72.1076 344.508 59.2568 371.413 54.5905H381.939C407.675 59.2659 432.242 65.0989 456.819 74.4499C457.987 74.4499 459.156 76.7831 459.156 76.7831C426.399 146.861 390.128 208.763 344.499 275.341C342.162 278.841 339.816 282.35 336.31 284.683C330.458 288.183 324.606 289.358 318.763 288.183C282.492 277.674 249.736 262.49 214.642 250.806C209.959 249.64 205.285 251.973 200.601 253.139C191.243 257.815 180.708 258.981 170.182 262.481C163.161 265.981 154.972 269.49 147.952 271.823C130.405 276.499 114.027 282.332 97.6484 288.174C95.3113 288.174 91.7965 289.34 90.6279 288.174C68.3977 268.314 44.999 255.473 22.7688 235.613V232.113C26.2745 225.105 32.1265 219.263 36.8099 212.254C61.3772 171.377 90.6279 137.501 122.216 102.466C124.553 98.9666 128.068 95.4577 130.405 91.9579C135.088 88.4581 138.594 82.6161 145.615 84.9492C158.487 90.7913 170.182 100.133 180.617 109.028" fill="white"/>
<path opacity="0.15" d="M202.423 251.07L90.6826 290.006L218.724 96.4581L353.417 62.3083L202.423 251.07Z" fill="#292D33"/>
<path d="M295.803 80.5927C321.055 71.6063 344.755 58.2178 371.413 53.3692L381.939 53.2233C388.412 54.2532 394.866 55.4654 401.312 56.7322C419.488 60.2138 442.02 66.548 456.819 72.618C457.732 72.6362 458.289 73.0099 458.69 73.2833C459.421 73.8119 459.795 74.3861 460.261 75.0423C460.726 75.7258 461.274 76.6919 460.827 77.5213C433.274 136.607 401.029 193.452 365.132 247.871C359.17 256.949 353.099 265.963 346.992 274.922C344.691 278.285 342.381 282.085 339.122 284.838C335.726 287.609 331.508 289.304 327.172 290.097C324.232 290.589 321.174 290.552 318.261 289.933C300.459 284.774 283.095 278.349 265.867 271.732C248.64 265.115 231.513 258.334 214.067 252.538C212.844 252.055 209.986 252.374 207.969 252.893C205.768 253.449 203.513 254.288 201.048 254.907L201.423 254.771C191.682 259.61 180.845 260.832 170.766 264.213C166.274 266.482 158.87 269.818 153.192 271.905C150.462 273.035 146.747 274.074 143.862 274.84C128.442 279.151 113.378 284.501 98.2693 289.896C97.192 290.142 96.2882 290.015 95.0192 290.288C93.3941 290.534 90.7466 290.908 89.3041 289.44C88.4551 288.73 86.9031 287.326 86.0723 286.624C65.4763 268.888 41.8859 255.217 21.5637 236.98C21.162 236.625 20.9612 236.123 20.9521 235.622V232.122C20.9521 231.831 21.0251 231.548 21.1438 231.311C25.0512 223.692 30.7479 218.087 35.2396 211.342C48.669 188.995 64.1434 167.914 80.5581 147.681C93.5585 131.85 107.517 116.803 121.394 101.746C123.54 98.7205 127.292 94.7559 129.638 91.4657C131.957 89.6429 134.075 87.4374 136.732 85.5963C139.315 83.7462 142.912 83.1902 145.898 84.3568C152.389 87.41 158.423 91.2744 164.138 95.5124C169.862 99.7504 175.285 104.353 180.617 109.047C175.139 104.526 169.57 100.106 163.736 96.0774C157.903 92.0582 151.804 88.4126 145.341 85.5781C143.031 84.8216 139.799 85.1406 137.635 86.9087C135.326 88.531 133.408 90.8187 130.962 92.7144L131.172 92.4865C128.625 96.3509 125.438 99.5681 123.065 103.205C109.964 117.942 95.9869 134.694 83.443 150.032C66.9735 170.056 51.7091 191.1 38.3162 213.302C33.8611 220.019 27.8722 226.071 24.403 232.952L24.5947 232.141V235.64L23.983 234.282C44.8529 253.003 69.6393 267.184 90.6827 285.831L91.7965 286.806L91.8695 286.87C91.8695 286.861 91.8513 286.852 91.833 286.852C91.8147 286.852 91.8239 286.834 91.8056 286.843C91.8239 286.843 91.8604 286.843 91.8878 286.861C92.536 287.016 93.5037 286.816 94.4988 286.706C95.4483 286.579 96.4434 286.406 97.6484 286.387L97.0368 286.497C113.634 280.563 130.405 274.648 147.486 270.101C155.036 267.558 162.44 264.295 169.616 260.795C174.774 259.082 180.014 257.897 185.118 256.594C190.221 255.29 195.224 253.832 199.798 251.553C203.313 250.597 207.092 249.038 210.954 248.746C212.342 248.655 213.821 248.737 215.226 249.12C250.238 260.777 283.862 276.243 319.284 286.469C323.319 287.326 329.463 286.56 333.708 284.081C338.182 281.994 340.911 277.437 343.979 272.917C350.096 263.949 356.148 254.962 362.092 245.903C397.888 191.629 430.042 134.958 457.513 76.0448L457.531 77.6307C457.357 77.3117 457.074 76.8377 456.828 76.5552C456.709 76.4003 456.581 76.3 456.527 76.2545C456.472 76.1998 456.49 76.2818 456.828 76.3C444.521 71.9344 432.105 67.7511 419.388 64.6159C407.392 61.3166 393.241 58.2816 381.948 55.9849L371.422 55.8391L371.632 55.8208C345.239 59.9768 321.137 72.618 295.812 80.6292L295.803 80.5927Z" fill="#292D33"/>
<path d="M212.755 243.723C233.363 212.695 256.742 181.46 278.849 151.543C297.424 127.113 316.41 102.718 337.925 80.7572L343.013 75.7963C346.362 72.4566 349.898 69.3037 353.359 66.0706C327.457 93.5948 302.853 122.28 280.31 152.628C257.849 182.253 235.96 214.608 212.755 243.714L212.755 243.723Z" fill="#292D33"/>
<path d="M76.1121 220.101C72.4056 219.417 68.9364 223.455 69.5389 227.173C70.1415 230.892 73.9028 233.572 77.6732 233.726C81.2702 233.881 85.0042 231.885 86.4558 228.595C87.9165 225.305 86.6566 220.921 83.4704 219.253C80.2843 217.586 75.6648 219.381 74.8066 222.872" fill="#FEDC00"/>
<path d="M76.1121 220.101C71.94 220.101 68.9638 225.597 71.1914 229.06C74.4688 234.683 83.9726 233.745 85.8897 227.474C87.0948 223.719 84.1551 218.761 79.8734 219.636C77.9015 219.682 75.7378 220.757 74.7975 222.89C75.0257 220.429 77.1985 218.46 79.5722 217.832C83.5709 216.993 87.3322 220.329 87.8343 224.202C88.6103 228.012 86.2001 231.94 82.804 233.517C77.2716 236.588 68.7081 233.079 68.5529 226.289C68.3977 222.462 72.3599 218.862 76.0939 220.11L76.1121 220.101Z" fill="#292D33"/>
<path d="M280.849 228.276C277.142 227.593 273.673 231.63 274.276 235.349C274.878 239.067 278.64 241.747 282.41 241.902C286.007 242.057 289.741 240.061 291.192 236.771C292.653 233.48 291.393 229.097 288.207 227.429C285.012 225.761 280.402 227.556 279.543 231.047" fill="#FEDC00"/>
<path d="M280.849 228.276C276.677 228.276 273.7 233.772 275.928 237.235C279.206 242.859 288.709 241.92 290.626 235.649C291.832 231.895 288.892 226.936 284.61 227.811C282.638 227.857 280.475 228.932 279.534 231.065C279.762 228.604 281.935 226.636 284.309 226.007C288.308 225.168 292.069 228.504 292.571 232.378C293.347 236.187 290.937 240.115 287.541 241.692C282.008 244.764 273.445 241.255 273.29 234.465C273.134 230.637 277.097 227.037 280.831 228.285L280.849 228.276Z" fill="#292D33"/>
<path d="M208.151 175.871C206.855 174.531 204.755 174.048 203.002 174.677C201.249 175.306 199.935 177.01 199.779 178.869C199.56 181.494 201.614 183.946 204.116 184.793C206.617 185.641 209.402 185.14 211.83 184.091C214.505 182.934 216.952 181.038 218.221 178.423C219.481 175.807 219.344 172.416 217.418 170.238C215.491 168.06 211.712 167.622 209.639 169.664" fill="#FEDC00"/>
<path d="M208.151 175.871C204.655 173.237 199.506 176.627 200.921 180.619C203.623 186.88 212.643 184.11 216.13 179.936C218.741 177.174 219.024 171.715 215.4 169.819C213.875 168.734 211.502 168.361 209.639 169.655C211.136 167.677 213.976 167.322 216.24 168.197C219.755 169.956 220.704 174.567 219.38 178.012C218.12 181.412 215.007 183.8 211.766 185.103C209.612 185.96 207.165 186.434 204.737 185.905C201.067 185.222 197.771 181.202 199.177 177.384C200.501 173.218 205.869 172.626 208.151 175.871Z" fill="#292D33"/>
<path d="M376.306 99.8051C372.6 97.7909 367.505 100.908 366.876 105.073C366.246 109.238 369.34 113.376 373.303 114.834C377.265 116.292 381.775 115.472 385.554 113.585C388.832 111.945 391.918 109.165 392.319 105.529C392.73 101.81 390.037 98.2101 386.568 96.8065C383.099 95.403 379.091 95.9043 375.631 97.3443C372.171 98.7843 369.167 101.09 366.2 103.369" fill="#FEDC00"/>
<path d="M376.306 99.805C373.138 98.5564 369.66 100.589 368.382 103.478C366.127 107.78 369.907 112.984 374.206 114.169C380.679 116.283 393.141 111.097 391.196 103.022C390.329 100.051 387.627 97.7453 384.578 97.1438C377.922 95.8769 371.751 100.024 366.2 103.369C368.683 100.99 371.276 98.684 374.38 96.8977C377.593 95.3939 381.318 94.5918 384.961 95.3665C393.479 97.3078 396.354 106.95 389.024 112.446C384.733 115.709 378.972 117.441 373.668 115.91C369.204 114.588 365.479 110.195 365.917 105.392C366.136 100.662 372.326 97.1529 376.297 99.7959L376.306 99.805Z" fill="#292D33"/>
<path d="M124.562 127.594C139.48 137.173 157.163 148.674 171.962 158.436L171.259 158.326C216.295 144.646 270.122 128.879 315.367 115.9C315.632 115.818 315.906 115.837 316.143 115.928L340.975 125.142C364.712 134.056 391.79 144.127 415.298 153.295C383.08 142.349 347.457 129.726 315.294 118.252C274.394 131.13 215.765 147.389 171.734 159.939C171.487 160.012 171.223 159.967 171.031 159.83L159.373 151.837C149.047 144.664 134.851 134.848 124.571 127.603L124.562 127.594Z" fill="#292D33"/>
<path d="M71.3283 188.32C89.5415 200.779 107.636 213.411 125.685 226.107L124.927 225.961C167.05 215.662 215.427 203.45 257.815 194.163C290.937 207.551 327.491 222.361 360.302 236.215C335.616 227.028 307.406 216.136 282.684 206.576L256.884 196.505L257.642 196.56L224.611 204.525C208.151 208.472 174.957 216.31 158.478 220.156C147.45 222.753 136.403 225.241 125.365 227.775C125.092 227.839 124.809 227.775 124.608 227.629C106.778 214.623 88.9937 201.563 71.3374 188.33L71.3283 188.32Z" fill="#292D33"/>
<path d="M93.9943 277.316C128.763 223.397 165.529 169.822 203.389 118.021C168.639 171.949 131.845 225.506 93.9943 277.316Z" fill="#292D33"/>
<path d="M269.455 24.4139C264.845 15.2634 256.683 7.95396 247.079 4.36304C237.475 0.772113 226.51 0.936165 217.016 4.81874L220.558 4.02582C207.339 8.0451 193.946 14.8077 187.208 26.8564C181.904 36.335 181.493 47.9372 183.812 58.5459C186.131 69.1546 190.97 79.0251 195.763 88.7771C204.591 106.732 213.419 124.686 222.247 142.641C223.982 146.177 226.657 150.269 230.582 149.941C232.664 149.768 234.389 148.328 235.914 146.906C258.107 126.208 269.063 95.9042 273.29 65.8735C275.253 51.9109 275.782 37.0186 269.437 24.423L269.455 24.4139ZM247.207 46.5609C246.75 51.8744 244.267 56.8962 240.789 60.9429C237.037 65.3085 231.596 68.7809 225.853 68.2797C219.974 67.7693 215.08 63.112 212.743 57.6983C210.251 51.92 210.233 45.1118 212.707 39.3244C215.181 33.537 220.102 28.8342 226.008 26.6286L227.259 28.7066C232.216 26.7197 238.224 28.2327 242.067 31.9421C245.911 35.6515 247.645 41.2384 247.189 46.5518L247.207 46.5609Z" fill="#FEDC00"/>
<path d="M269.455 24.4139C262.672 10.6517 247.116 2.54937 232.034 3.57014C227.14 3.83445 222.238 4.60003 217.71 6.50486L216.623 3.04153L220.165 2.24861C222.448 1.80202 223.288 5.05573 221.097 5.77573C202.007 11.4447 184.999 22.7552 184.351 44.3736C183.757 57.4067 188.687 69.8564 194.265 81.5041C201.222 95.9863 215.573 124.732 222.722 139.433C224.402 142.595 226.51 148.51 230.737 148.091C232.892 147.763 235.275 144.91 237.566 142.723C249.024 131.093 257.249 116.584 262.791 101.282C265.028 95.1387 266.881 88.8409 268.369 82.4611C269.008 79.6266 269.811 75.6347 270.295 72.8185C273.454 56.9874 277.005 39.5796 269.455 24.423V24.4139ZM269.455 24.4139C278.11 42.25 276.275 64.4518 271.929 83.2813C268.862 96.3144 264.388 109.065 258.025 120.895C253.187 129.726 247.262 138.084 240.168 145.266C237.411 147.79 235.457 150.771 231.358 151.673C224.958 152.63 221.681 145.776 219.435 141.037L217.244 136.58L199.706 100.926C193.964 88.8865 187.373 77.2661 183.447 64.3971C179.494 51.4825 179.074 36.3168 186.514 24.4959C193.964 12.6477 207.147 6.24966 220.019 2.29418L220.951 5.8213L217.408 6.61422C215.245 7.08815 214.286 3.9985 216.322 3.1509C221.288 1.16404 226.62 -0.102808 231.979 0.0065604C247.901 0.115929 262.48 10.4603 269.455 24.4048V24.4139Z" fill="#292D33"/>
<path d="M247.216 46.561C246.613 52.1296 245.564 58.2451 241.775 62.6472C237.676 67.0493 231.997 70.6311 225.716 70.1025C212.853 68.6534 206.627 53.3783 209.895 41.9766C211.912 34.2024 217.901 27.7496 225.388 24.9334C226.218 24.6235 227.15 24.9607 227.588 25.699L228.838 27.777L226.593 27.0296C232.362 24.7329 238.954 26.5101 243.391 30.6297C247.326 35.0226 247.59 41.1381 247.207 46.5701L247.216 46.561ZM247.216 46.561C247.782 41.3751 244.66 36.2895 240.798 33.291C237.603 30.0373 232.198 28.6884 227.953 30.4018C227.113 30.739 226.164 30.4018 225.707 29.6545L224.456 27.5765L226.657 28.342C216.852 31.8783 210.799 42.888 213.172 53.0319C216.359 66.7485 229.277 71.3602 238.99 60.15C242.66 56.3312 246.842 52.1843 247.207 46.5519L247.216 46.561Z" fill="#292D33"/>
<path d="M194.767 25.8266C197.753 23.1927 201.158 21.2605 204.764 19.6291C208.288 17.9156 211.858 16.2842 215.455 14.7531C219.061 13.2128 222.703 11.7637 226.374 10.4148C230.044 8.93833 233.814 7.85376 237.776 7.4892C234.344 9.44871 230.747 10.8796 227.013 12.1191C223.361 13.468 219.755 14.8989 216.176 16.43C212.597 17.9521 209.064 19.5653 205.568 21.2696C202.08 23.0924 198.574 24.7329 194.767 25.8357V25.8266Z" fill="#292D33"/>
<path d="M206.964 86.2707C209.064 84.8307 211.21 83.4818 213.364 82.1421L220.165 78.8519L233.768 72.2534C238.251 70.0842 249.836 64.4609 254.173 62.3555C256.565 61.5079 258.947 60.6421 261.376 59.8765C259.267 61.3074 257.121 62.6472 254.976 63.9961C250.694 66.0741 239.009 71.743 234.572 73.8939L220.969 80.4924L214.167 83.8008C211.785 84.6575 209.393 85.5143 206.964 86.2707Z" fill="#292D33"/>
<path d="M211.41 100.133C214.843 97.9914 218.504 96.4693 222.293 95.1204C225.999 93.6804 229.687 92.1857 233.348 90.6363C237.009 89.087 240.652 87.4829 244.267 85.8241L249.672 83.2996C251.589 82.6889 253.497 82.06 255.442 81.5041C253.817 82.7163 252.137 83.8282 250.457 84.9401L245.025 87.4829C241.391 89.1508 237.74 90.7639 234.051 92.3133C230.363 93.8627 226.666 95.3756 222.941 96.8156L217.335 98.9483C215.363 99.3858 213.401 99.8142 211.392 100.124L211.41 100.133Z" fill="#292D33"/>
<path d="M220.768 115.527C221.745 114.615 222.767 113.813 223.781 113.002L227.213 111.307L234.07 107.898L240.926 104.49L244.349 102.785C245.618 102.466 246.878 102.138 248.184 101.901C247.207 102.794 246.184 103.606 245.162 104.417L241.738 106.121L234.882 109.53L228.026 112.938L224.602 114.652C223.343 114.98 222.074 115.308 220.768 115.536V115.527Z" fill="#292D33"/>
<path d="M224.411 127.995C226.191 127.375 227.862 127.284 229.697 127.402C234.015 127.384 238.333 126.637 242.414 125.224C243.318 125.197 244.231 125.133 245.189 125.133C243.911 126.564 242.286 127.357 240.424 127.749C236.936 128.706 233.321 129.198 229.706 129.225C227.816 129.344 226.027 129.052 224.411 127.995Z" fill="#292D33"/>
<path d="M188.231 41.9948C192.786 38.3219 197.789 35.3507 202.993 32.6985C208.124 29.9643 213.309 27.3304 218.55 24.8058C223.79 22.2812 229.076 19.8569 234.407 17.5328C239.721 15.0994 245.171 13.0669 250.877 11.7545C248.302 13.149 245.719 14.4705 243.144 15.8285C229.751 21.3334 216.642 27.5035 203.869 34.3117C198.784 37.1553 193.672 39.8348 188.249 41.9948H188.231Z" fill="#292D33"/>
<path d="M246.915 35.1229C248.01 33.6555 249.407 32.7623 251.069 32.0788L255.624 29.855L260.18 27.6312L262.462 26.5192C263.348 26.4008 264.224 26.2641 265.146 26.2276C264.544 26.9294 263.905 27.54 263.266 28.1598L260.983 29.2717L256.428 31.4955L251.872 33.7193C250.311 34.6125 248.75 35.1685 246.915 35.1229Z" fill="#292D33"/>
<path d="M189.746 63.0209C190.915 61.5079 192.385 60.5874 194.119 59.8765L198.885 57.5525L203.659 55.2284L206.042 54.0618C206.955 53.9251 207.868 53.7793 208.827 53.7155C208.197 54.4355 207.512 55.0643 206.846 55.7023L204.463 56.8689L199.688 59.193L194.913 61.5171C193.288 62.4376 191.654 63.03 189.746 63.03V63.0209Z" fill="#292D33"/>
<path d="M248.047 51.282C249.215 49.7691 250.694 48.8486 252.42 48.1286L257.194 45.7954L261.969 43.4622L264.361 42.2956C265.283 42.1589 266.196 42.004 267.155 41.9493C266.516 42.6693 265.84 43.2982 265.164 43.9361L262.773 45.1027L257.998 47.4359L253.223 49.7691C251.598 50.6896 249.955 51.2911 248.047 51.282Z" fill="#292D33"/>
<path d="M198.091 75.6894C199.195 74.2129 200.61 73.3106 202.281 72.6271L206.873 70.385L211.465 68.143L213.757 67.022C214.642 66.8944 215.528 66.7668 216.45 66.7212C215.847 67.423 215.199 68.0427 214.551 68.6625L212.259 69.7835L207.667 72.0255L203.075 74.2676C201.505 75.1608 199.926 75.7258 198.081 75.6894H198.091Z" fill="#292D33"/>
<path d="M85.7528 224.886C87.2044 223.765 88.6377 222.616 90.0984 221.514C91.55 220.402 93.0107 219.281 94.4805 218.196C94.9279 217.868 95.5487 217.959 95.8773 218.406C96.206 218.852 96.1147 219.472 95.6674 219.8C95.6308 219.828 95.5852 219.855 95.5395 219.882C93.9236 220.739 92.2895 221.577 90.6644 222.416C89.0394 223.264 87.387 224.066 85.7528 224.895V224.886Z" fill="#292D33"/>
<path d="M98.8809 214.915C99.6478 214.423 100.451 213.985 101.209 213.484L103.519 212.017L108.147 209.091C108.786 208.69 109.635 208.872 110.037 209.51C110.439 210.148 110.256 210.996 109.617 211.397L104.989 214.323L102.679 215.79C101.903 216.264 101.163 216.802 100.387 217.285C99.73 217.695 98.8627 217.494 98.4518 216.838C98.041 216.191 98.2419 215.334 98.8809 214.915Z" fill="#292D33"/>
<path d="M112.785 206.166L122.042 200.314C122.681 199.913 123.53 200.096 123.932 200.734C124.334 201.372 124.151 202.219 123.512 202.62L114.255 208.471C113.616 208.873 112.767 208.69 112.365 208.052C111.963 207.414 112.146 206.567 112.785 206.166Z" fill="#292D33"/>
<path d="M126.662 197.389L135.919 191.538C136.558 191.137 137.407 191.319 137.809 191.957C138.211 192.595 138.028 193.442 137.389 193.843L128.132 199.695C127.493 200.096 126.644 199.913 126.242 199.275C125.84 198.637 126.023 197.79 126.662 197.389Z" fill="#292D33"/>
<path d="M140.548 188.603L149.805 182.752C150.444 182.351 151.293 182.533 151.695 183.171C152.096 183.809 151.914 184.657 151.275 185.058L142.018 190.909C141.378 191.31 140.529 191.127 140.128 190.49C139.726 189.852 139.909 189.004 140.548 188.603Z" fill="#292D33"/>
<path d="M154.424 179.826L156.78 178.341C156.999 178.204 157.255 178.131 157.492 178.131L165.663 178.012C166.42 178.003 167.041 178.605 167.05 179.361C167.06 180.118 166.457 180.738 165.699 180.747L157.528 180.865L158.241 180.656L155.885 182.141C155.246 182.542 154.397 182.36 153.995 181.722C153.594 181.084 153.776 180.236 154.415 179.835L154.424 179.826Z" fill="#292D33"/>
<path d="M171.14 177.921L176.618 177.839C178.444 177.803 180.27 177.794 182.096 177.748C182.863 177.73 183.493 178.322 183.52 179.088C183.538 179.853 182.945 180.482 182.178 180.51C182.169 180.51 182.151 180.51 182.141 180.51C180.315 180.51 178.49 180.555 176.664 180.573L171.186 180.656C170.428 180.665 169.808 180.063 169.798 179.307C169.789 178.55 170.392 177.93 171.15 177.921H171.14Z" fill="#292D33"/>
<path d="M187.573 177.967C191.225 178.195 194.886 178.45 198.538 178.76C198.602 178.76 198.657 178.824 198.647 178.887C198.647 178.942 198.593 178.988 198.538 178.997C194.895 179.416 191.243 179.781 187.601 180.118C187.007 180.172 186.478 179.735 186.423 179.143C186.368 178.55 186.807 178.022 187.4 177.967C187.455 177.967 187.519 177.967 187.564 177.967H187.573Z" fill="#292D33"/>
<path d="M221.088 180.145C221.873 181.822 222.621 183.499 223.352 185.194L224.42 187.737C224.748 188.594 225.196 189.414 225.397 190.298C225.57 191.055 225.095 191.802 224.347 191.975C223.635 192.139 222.932 191.729 222.703 191.055C222.411 190.189 222.366 189.259 222.201 188.357L221.791 185.632C221.535 183.809 221.288 181.986 221.088 180.145Z" fill="#292D33"/>
<path d="M226.848 195.566L229.815 206.093C230.016 206.822 229.596 207.578 228.866 207.779C228.135 207.979 227.378 207.56 227.177 206.831L224.21 196.304C224.009 195.575 224.429 194.819 225.159 194.618C225.89 194.418 226.647 194.837 226.848 195.566Z" fill="#292D33"/>
<path d="M231.303 211.361L232.938 217.148L232.079 216.228L236.726 217.868C237.438 218.123 237.813 218.898 237.566 219.609C237.311 220.32 236.535 220.693 235.822 220.447L231.176 218.807C230.747 218.652 230.436 218.296 230.317 217.886L228.683 212.099C228.482 211.37 228.902 210.613 229.633 210.413C230.363 210.212 231.121 210.632 231.322 211.361H231.303Z" fill="#292D33"/>
<path d="M241.884 219.691L252.219 223.327C252.931 223.583 253.305 224.357 253.059 225.068C252.803 225.779 252.027 226.153 251.315 225.907L240.981 222.27C240.268 222.015 239.894 221.24 240.141 220.529C240.396 219.818 241.172 219.445 241.884 219.691Z" fill="#292D33"/>
<path d="M257.377 225.15L259.961 226.062C260.39 226.217 260.819 226.371 261.257 226.499C261.695 226.618 262.124 226.782 262.535 227C264.179 227.83 265.831 228.623 267.465 229.47C267.785 229.634 267.903 230.026 267.739 230.345C267.602 230.609 267.31 230.737 267.036 230.682C265.228 230.327 263.439 229.908 261.641 229.516C261.184 229.434 260.755 229.288 260.335 229.106C259.915 228.932 259.477 228.787 259.048 228.641L256.464 227.729C255.752 227.474 255.378 226.7 255.624 225.989C255.88 225.278 256.656 224.904 257.368 225.15H257.377Z" fill="#292D33"/>
<path d="M288.207 227.438C290.17 224.348 292.169 221.277 294.196 218.233C294.479 217.804 295.054 217.686 295.483 217.968C295.912 218.251 296.031 218.825 295.748 219.253C295.721 219.29 295.693 219.326 295.666 219.363C293.21 222.079 290.727 224.767 288.216 227.429L288.207 227.438Z" fill="#292D33"/>
<path d="M297.245 213.667C297.738 212.892 298.286 212.172 298.87 211.47C299.455 210.768 300.012 210.048 300.568 209.328L303.928 205.008C304.394 204.416 305.252 204.306 305.845 204.771C306.439 205.236 306.548 206.093 306.083 206.685L302.723 211.005C302.166 211.725 301.6 212.445 301.061 213.174C300.523 213.913 299.957 214.623 299.327 215.289C298.825 215.827 297.985 215.854 297.446 215.353C296.971 214.906 296.889 214.195 297.236 213.667H297.245Z" fill="#292D33"/>
<path d="M307.288 200.688L314.007 192.048C314.473 191.456 315.331 191.346 315.924 191.811C316.518 192.276 316.627 193.133 316.161 193.725L309.442 202.365C308.977 202.958 308.118 203.067 307.525 202.602C306.932 202.137 306.822 201.281 307.288 200.688Z" fill="#292D33"/>
<path d="M317.376 187.728L324.095 179.088C324.561 178.496 325.419 178.386 326.012 178.851C326.606 179.316 326.715 180.172 326.25 180.765L319.53 189.405C319.065 189.997 318.206 190.107 317.613 189.642C317.02 189.177 316.91 188.32 317.376 187.728Z" fill="#292D33"/>
<path d="M327.455 174.777L334.174 166.137C334.639 165.545 335.498 165.435 336.091 165.9C336.684 166.365 336.794 167.221 336.328 167.814L329.609 176.454C329.144 177.046 328.285 177.156 327.692 176.691C327.099 176.226 326.989 175.369 327.455 174.777Z" fill="#292D33"/>
<path d="M337.533 161.817L344.253 153.177C344.718 152.584 345.577 152.475 346.17 152.94C346.763 153.405 346.873 154.261 346.407 154.854L339.688 163.494C339.222 164.086 338.364 164.196 337.771 163.731C337.177 163.266 337.068 162.409 337.533 161.817Z" fill="#292D33"/>
<path d="M347.612 148.866L354.332 140.226C354.797 139.633 355.655 139.524 356.249 139.989C356.842 140.454 356.952 141.31 356.486 141.903L349.767 150.543C349.301 151.135 348.443 151.245 347.85 150.78C347.256 150.315 347.147 149.458 347.612 148.866Z" fill="#292D33"/>
<path d="M357.7 135.906L359.38 133.746C359.955 133.035 360.467 132.278 361.042 131.567C361.617 130.866 362.265 130.209 362.868 129.517L364.712 127.484C365.086 127.074 365.725 127.038 366.136 127.411C366.51 127.749 366.574 128.305 366.3 128.715L364.785 131.002C364.274 131.759 363.79 132.543 363.251 133.272C362.703 134.001 362.101 134.684 361.544 135.414L359.864 137.574C359.399 138.166 358.54 138.275 357.947 137.811C357.354 137.346 357.244 136.489 357.71 135.897L357.7 135.906Z" fill="#292D33"/>
<path d="M368.391 123.429C369.961 121.679 371.568 119.965 373.175 118.243C371.906 120.22 370.637 122.207 369.331 124.149C369.149 124.422 368.784 124.495 368.51 124.313C368.236 124.13 368.163 123.766 368.345 123.492C368.364 123.474 368.382 123.447 368.4 123.429H368.391Z" fill="#292D33"/>
<path d="M0 288.128C5.69677 273.518 15.1823 260.267 27.1875 250.159C17.0081 262.026 7.94261 274.667 0 288.128Z" fill="#292D33"/>
<path d="M11.987 287.016C19.1992 278.431 27.297 269.244 34.911 261.023C29.059 271.048 21.1894 279.944 11.987 287.016Z" fill="#292D33"/>
<path d="M30.2276 288.638C34.1989 280.8 39.284 273.536 45.3094 267.138C41.3472 274.976 36.2439 282.231 30.2276 288.638Z" fill="#292D33"/>
<path d="M44.6703 288.884C48.4682 283.206 53.2977 278.248 58.894 274.329C55.1053 280.007 50.2575 284.956 44.6703 288.884Z" fill="#292D33"/>
<path d="M59.4965 293.068C62.2628 288.265 66.1154 284.109 70.7166 281.01C67.9595 285.822 64.0978 289.96 59.4965 293.068Z" fill="#292D33"/>
<path d="M73.6563 292.612C75.19 289.522 77.8558 287.071 81.0785 285.831C79.5539 288.921 76.8698 291.364 73.6563 292.612Z" fill="#292D33"/>
<path d="M110.557 293.533C112.986 290.197 116.428 287.645 120.344 286.333C117.925 289.677 114.465 292.211 110.557 293.533Z" fill="#292D33"/>
<path d="M127.1 292.74C130.149 288.329 134.23 284.656 138.95 282.113C135.91 286.533 131.82 290.188 127.1 292.74Z" fill="#292D33"/>
<path d="M141.187 293.013C145.797 286.898 151.403 281.539 157.748 277.237C153.146 283.361 147.523 288.702 141.187 293.013Z" fill="#292D33"/>
<path d="M161.883 289.213C167.662 281.429 174.436 274.402 182.014 268.36C176.244 276.152 169.461 283.17 161.883 289.213Z" fill="#292D33"/>
<path d="M182.224 287.053C187.893 278.276 194.612 270.173 202.217 263.001C196.557 271.787 189.819 279.871 182.224 287.053Z" fill="#292D33"/>
<path d="M200.674 286.87C205.513 278.649 211.419 271.067 218.239 264.386C213.41 272.616 207.485 280.181 200.674 286.87Z" fill="#292D33"/>
<path d="M218.157 285.941C221.38 279.998 225.707 274.667 230.883 270.31C227.67 276.262 223.324 281.575 218.157 285.941Z" fill="#292D33"/>
<path d="M235.795 286.688C237.292 282.669 240.935 279.998 244.176 277.456C245.253 276.617 246.303 275.779 247.38 274.831C246.449 277.538 244.231 279.588 242.14 281.411C240.296 282.96 237.63 285.102 235.786 286.688H235.795Z" fill="#292D33"/>
<path d="M253.141 288.903C254.857 284.82 257.742 281.256 261.403 278.759C259.696 282.851 256.793 286.396 253.141 288.903Z" fill="#292D33"/>
<path d="M266.023 291.792C267.292 288.11 269.766 284.902 273.025 282.751C271.765 286.433 269.273 289.641 266.023 291.792Z" fill="#292D33"/>
<path d="M276.43 293.123C276.366 293.095 276.001 293.159 276.038 293.013C276.403 291.409 277.224 290.033 278.265 288.875C279.315 287.718 280.538 286.752 282.072 286.269C281.78 287.043 281.378 287.691 280.977 288.319C279.671 290.188 278.274 291.755 276.293 293.059L276.248 292.858L276.439 293.113L276.43 293.123Z" fill="#292D33"/>
<path d="M288.655 292.849C289.248 290.543 291.11 288.72 293.438 288.192C292.845 290.507 290.983 292.311 288.655 292.849Z" fill="#292D33"/>
<path d="M304.786 294.007C305.014 292.093 306.548 290.598 308.484 290.461C308.265 292.384 306.713 293.861 304.786 294.007Z" fill="#292D33"/>
</svg>
