<svg width="700" height="500" viewBox="0 0 700 500" fill="none" xmlns="http://www.w3.org/2000/svg">
<path d="M119.401 354.359C120.79 351.909 123.92 351.359 126.607 351.605C129.284 351.85 132.028 352.638 134.629 351.883C137.23 351.129 139.763 347.718 138.434 345.225C138.466 344.821 138.867 344.493 139.237 344.58C139.606 344.656 139.864 345.125 139.742 345.507L141.699 345.919C138.909 344.047 136.186 340.634 138.086 337.932C139.775 335.516 143.447 336.552 145.961 335.16C148.996 333.483 149.314 329.084 149.24 325.448C148.938 311.832 148.647 298.226 148.345 284.609C157.554 290.165 167.521 295.904 178.067 294.865C186.534 294.029 194.02 288.917 201.135 283.952C208.992 278.469 217.03 272.785 222.968 265.126C189.707 252.836 156.517 240.408 123.448 227.555C120.285 219.357 121.644 210.074 123.04 201.343C124.159 194.354 125.288 187.376 126.407 180.387C126.869 177.508 127.481 174.354 129.647 172.578C130.83 171.605 132.231 171.228 133.71 171.171C135.519 171.104 137.445 171.538 139.212 171.992C144.143 173.277 149.083 174.563 154.014 175.849L154.236 172.831C183.633 182.129 213.202 190.886 242.67 199.907C254.106 203.41 265.542 206.913 276.968 210.406C283.223 207.966 289.015 204.154 293.852 199.275C297.053 196.047 299.503 193.092 303.142 190.344C307.292 187.215 311.432 184.098 315.582 180.969C317.687 179.384 319.922 177.746 322.482 177.449C324.591 177.213 326.696 177.913 328.712 178.612C331.605 179.613 334.306 181.23 337.28 181.976C341.043 182.927 342.028 181.592 344.827 179.074C349.722 174.663 354.855 170.54 360.177 166.736C363.535 164.327 366.981 162.056 370.488 159.903C373.704 157.929 376.294 155.113 379.023 152.457C379.845 151.663 384.586 145.955 385.444 146.16C391.444 147.557 397.433 148.953 403.432 150.34C406.317 151.011 409.264 151.225 412.107 152.12C412.996 152.4 415.212 152.866 415.657 153.92C416.31 155.507 413.437 159.023 412.661 160.465C411.765 162.109 410.869 163.774 410.252 165.557C409.331 168.21 409.7 170.848 407.574 172.656C404.555 175.226 401.119 177.39 397.931 179.726C395.776 181.3 393.621 182.885 391.744 184.833C390.279 186.357 388.992 188.254 387.268 189.48C386.406 190.093 385.077 190.204 384.315 190.849C383.302 191.695 382.604 193.637 381.93 194.803C380.239 197.74 378.558 200.667 376.866 203.604L389.8 209.781C392.881 211.25 392.726 212.514 392.822 215.586C392.927 219.094 394.024 221.99 392.541 225.448C391.784 227.21 390.549 228.682 389.333 230.122L383.87 236.593C382.404 238.33 380.928 240.077 379.461 241.814C398.052 247.505 416.643 253.196 435.224 258.887C448.646 265.322 462.715 269.888 476.896 274.072C492.633 278.72 507.98 283.579 523.14 290.106C524.975 290.9 526.388 290.088 527.133 288.731C528.481 288.8 529.84 288.806 531.19 288.727C526.941 291.6 522.511 294.684 520.193 299.425C518.6 302.703 518.175 306.453 517.769 310.108C516.647 320.338 515.234 330.589 514.401 340.853C513.61 350.617 510.44 360.552 508.311 370.109C508.316 368.971 490.094 363.409 488.169 362.7C447.485 347.742 406.792 332.774 366.108 317.816C366.114 316.54 345.517 310.246 343.352 309.45C335.431 306.536 327.52 303.632 319.599 300.718L295.845 291.987C290.358 289.965 279.375 283.254 273.774 284.559C270.774 285.258 266.505 290.427 264.038 292.436C260.72 295.142 257.401 297.849 254.082 300.556L234.169 316.808C220.622 327.867 207.066 338.927 193.52 349.987C194.231 363.712 194.942 377.436 195.643 391.161C182.265 386.119 168.887 381.067 155.509 376.025C158.183 367.597 158.043 358.19 155.111 349.866C154.741 350.088 154.38 350.309 154.009 350.531C153.264 351.952 152.289 353.202 150.849 353.568C150.219 353.725 149.589 353.69 148.96 353.56L147.498 354.436C147.669 354.033 147.761 353.64 147.793 353.236C146.875 352.935 145.947 352.548 145.009 352.406C141.144 351.805 137.823 355.117 135.162 358.157C136.512 360.267 136.019 363.358 134.313 365.168C132.606 366.978 129.976 367.562 127.63 367.053C125.284 366.543 123.192 365.046 121.511 363.221C119.343 360.863 117.75 357.168 119.351 354.348L119.401 354.359Z" fill="white"/>
<path d="M212.863 404.362C215.225 410.632 217.586 416.892 219.937 423.162C214.636 419.791 209.697 415.795 205.23 411.259C203.847 409.861 202.504 408.388 201.553 406.631C200.601 404.873 200.07 402.787 200.448 400.791C204.269 399.936 212.897 396.412 212.863 404.372L212.863 404.362Z" fill="white"/>
<path d="M260.782 132.661C266.208 139.742 269.649 148.302 272.33 156.976C275.139 166.033 277.217 175.405 281.137 183.978C285.058 192.551 291.189 200.485 299.568 203.879L298.01 208.283C292.161 206.909 287.363 202.541 283.196 197.964C273.817 187.667 266.225 175.539 260.906 162.369C257.831 154.756 255.516 146.807 252.371 139.226C249.226 131.645 245.151 124.304 239.218 118.933C247.737 120.075 255.357 125.581 260.782 132.661Z" fill="white"/>
<path d="M161.386 288.95C161.032 250.1 160.72 210.826 168.884 172.959C171.851 159.229 176.006 145.567 183.389 133.865C190.773 122.173 201.736 112.547 214.658 109.446C227.581 106.355 242.391 110.744 250.316 122.012L247.616 120.332C231.619 113.238 211.594 118.169 200.154 132.023C193.204 140.433 189.5 151.279 186.507 162.023C175.234 202.428 174.149 243.662 173.082 285.428C172.974 289.573 172.867 293.707 172.759 297.852C168.681 293.402 163.259 290.361 157.488 289.305C158.787 289.194 160.087 289.072 161.386 288.96L161.386 288.95Z" fill="white"/>
<path d="M409.774 176.935C412.671 170.134 414.061 162.732 415.8 155.49C419.127 141.666 423.85 128.209 429.84 115.438C431.877 111.089 434.38 105.158 438.557 102.678C444.357 99.2269 440.819 106.546 439.816 109.666C435.776 122.18 431.746 134.684 427.706 147.198C423.302 160.858 418.716 174.847 410.085 185.992C407.824 188.905 405.315 191.583 402.637 194.048C397.059 199.158 390.727 203.319 383.929 206.319C381.514 205.756 379.088 205.193 376.672 204.63C391.003 201.736 403.758 191.066 409.784 176.935L409.774 176.935Z" fill="white"/>
<path d="M466.628 80.7136C472.473 78.6234 478.739 78.2143 484.904 78.2087C503.07 78.1797 522.179 81.8961 536.094 94.3165C549.075 105.893 555.943 123.779 558.155 141.644C560.367 159.51 558.411 177.634 556.447 195.546C553.796 219.725 551.007 238.834 548.356 263.014L549.025 263.017C547.756 267.72 544.122 271.817 539.68 273.106C542.163 253.06 544.657 233.015 547.14 212.969C549.416 194.644 551.693 176.107 549.713 157.743C547.079 133.36 536.151 109.293 517.296 95.1293C498.452 80.9767 471.324 78.576 452.31 92.5036C455.302 86.7662 460.764 82.8037 466.608 80.7135L466.628 80.7136Z" fill="white"/>
<path d="M90.8461 166.131C90.8875 163.431 91.0888 160.743 91.2402 158.055C94.0171 160.596 99.1859 162.255 102.219 163.341C106.19 164.772 110.322 165.704 114.497 166.104C112.72 165.671 110.944 165.185 109.188 164.657C105.835 163.644 102.532 162.45 99.2908 161.086C96.8471 160.066 93.5726 159.404 91.2714 157.768C91.3251 156.897 91.3487 156.036 91.3824 155.164C96.4559 151.041 101.899 146.951 108.217 146.244C113.565 145.65 118.843 147.565 123.911 149.457C127.721 150.876 131.532 152.296 135.333 153.725C137.967 154.714 144.237 155.751 145.936 158.022C143.978 160.277 139.036 161.67 136.323 163.008C133.049 164.621 129.755 166.19 126.382 167.526C124.99 168.083 123.602 167.992 122.194 167.742C122.254 167.784 122.314 167.827 122.373 167.87C124.792 170.006 124.576 173.948 124.202 177.263C122.343 193.804 122.012 210.532 123.18 227.139C122.471 226.976 121.752 227.026 121.091 227.258C118.399 225.981 115.767 224.556 112.964 223.535C110.849 222.76 108.962 222.21 107.16 220.747C105.657 219.529 104.483 218.259 102.768 217.359C101.233 216.555 99.7625 216.899 98.6797 217.777C98.3606 217.606 98.0416 217.445 97.7326 217.273C97.2544 207.536 93.3362 198.495 92.7179 188.81C92.7289 181.54 92.0604 174.267 90.7419 167.129C90.8132 166.811 90.8646 166.471 90.8662 166.11L90.8461 166.131Z" fill="#FEDC00"/>
<path d="M125.628 175.656C125.702 174.752 125.776 173.849 125.849 172.946C132.569 169.457 139.288 165.957 146.008 162.467C147.109 161.898 148.431 161.319 149.507 161.951C150.514 162.539 150.808 163.901 151.003 165.103C151.528 168.4 152.064 171.687 152.589 174.984C152.44 174.909 152.29 174.834 152.13 174.769C149.517 173.748 146.799 173.822 144.102 173.63C138.001 170.373 129.178 167.986 125.638 175.656L125.628 175.656Z" fill="#FEDC00"/>
<path d="M507.744 367.18C509.315 359.598 511.236 352.113 512.707 344.509C513.432 340.728 520.324 299.061 519.246 298.908C520.554 299.105 521.862 299.301 523.17 299.498L521.373 296.95C533.784 289.595 542.083 276.504 549.911 263.889C550.715 262.585 563.383 265.35 565.121 265.633C570.403 266.474 575.654 267.57 580.844 268.9C591.464 271.623 601.87 275.345 611.872 280.011C616.399 282.124 621.466 284.197 625.591 287.127C627.583 288.538 628.316 289.976 628.469 291.646L629.617 289.493L628.488 291.997C628.571 293.634 628.163 295.503 627.843 297.786C626.141 310.3 624.449 322.813 622.748 335.326C621.644 343.463 620.53 351.632 618.268 359.498C613.593 375.73 604.21 389.953 598.317 405.722L596.053 402.524C595.868 403.671 595.683 404.808 595.498 405.955C579.269 399.54 563.049 393.126 546.82 386.722C538.899 383.596 530.979 380.458 523.059 377.332C519.597 375.967 516.126 374.592 512.664 373.227C508.515 371.594 506.754 372.033 507.754 367.19L507.744 367.18Z" fill="#FEDC00"/>
<path d="M507.744 367.186C510.26 355.92 513.016 344.697 514.743 333.257C516.56 321.999 518.826 310.784 519.894 299.406C519.895 298.98 519.838 298.449 519.329 298.34L519.174 299.477L523.088 300.142C523.627 300.251 523.99 299.54 523.662 299.113L521.904 296.534L521.7 297.575C534.27 290.379 542.758 277.65 550.644 265.419L550.925 264.984L551.066 264.761C551.127 264.655 551.006 264.889 550.935 264.942C550.875 264.994 550.815 265.037 550.755 265.09C550.725 265.111 550.695 265.121 550.665 265.132L550.685 265.132C555.931 265.101 561.319 266.888 566.531 267.729C580.748 270.447 594.668 274.906 607.941 280.947C611.969 282.994 618.373 285.551 622.13 287.926C623.824 289.081 625.829 289.887 626.02 291.96C626.259 294.449 629.484 295.1 630.592 292.947L631.75 290.794L627.384 288.363L626.244 290.867C625.089 299.407 623.375 312.431 622.219 321.173C620.098 335.725 619.305 350.677 614.51 364.569C609.694 378.568 602.166 391.173 597.15 405.245L599.29 404.936L596.975 401.78C596.4 400.863 595.009 401.282 594.885 402.323L594.39 405.765L595.873 404.857C573.607 396.472 549.125 387.482 527.099 378.843L515.677 374.384C513.344 373.353 510.838 372.715 508.545 371.6C507.07 370.722 507.448 368.673 507.734 367.197L507.744 367.186ZM507.744 367.186C507.438 368.673 507.06 370.722 508.535 371.622C510.828 372.758 513.313 373.406 515.647 374.458L527.039 379.013C542.21 385.104 557.352 391.322 572.443 397.636L595.104 407.075C595.733 407.344 596.454 406.922 596.587 406.21L596.587 406.168L597.201 402.748L595.11 403.292L597.315 406.532C597.851 407.353 599.15 407.188 599.454 406.222C603.04 397.15 607.773 388.614 612.147 379.747C615.443 373.087 618.53 366.138 620.629 358.887C623.948 346.796 625.16 334.291 627.012 321.916C627.682 317.072 629.444 304.474 630.093 299.779C630.375 296.964 631.013 294.915 630.956 291.875L630.721 293.15C630.721 293.139 631.851 290.635 631.851 290.625C632.436 289.32 631.913 287.755 630.687 287.134C629.51 286.544 628.109 287.027 627.485 288.215L626.336 290.378L630.918 291.407C630.685 287.559 627.438 285.047 624.537 283.441C622.086 281.974 619.593 280.794 617.12 279.668C601.244 272.16 584.331 266.636 567.076 264.139C561.653 263.425 556.523 262.011 550.978 262.061C550.188 262.069 549.148 262.362 548.715 263.125C548.665 263.221 548.373 263.687 548.312 263.793C543.723 271.469 539.004 279.176 533.181 285.836C529.596 289.913 525.554 293.541 521.026 296.371C520.685 296.582 520.603 297.07 520.841 297.39L522.689 299.906L523.263 298.878L519.328 298.362L519.174 299.498C519.034 299.519 518.835 299.316 518.825 299.263C518.815 299.252 518.805 299.231 518.805 299.22C518.805 299.178 518.805 299.252 518.805 299.252C518.701 304.885 517.678 310.482 516.985 316.07C515.297 327.499 513.85 339.004 511.443 350.292C510.23 355.941 508.888 361.547 507.734 367.207L507.744 367.186Z" fill="#292D33"/>
<path d="M351.847 276.325C402.438 294.694 459.909 316.398 510.594 333.982L509.099 330.723C504.668 343.373 502.672 356.97 503.144 370.459L506.811 368.083C503.702 366.115 500.385 363.677 496.552 362.874C489.271 362.099 480.417 360.095 474.2 358.081C470.33 356.417 466.492 354.339 462.334 352.514C435.381 341.76 404.015 330.222 376.649 320.359C348.016 310.055 307.26 295.756 278.217 285.503C294.295 292.289 310.475 298.778 326.684 305.181C368.64 321.717 418.56 340.488 460.514 357.332C464.404 359.039 468.342 361.224 472.541 363.016C480.104 365.483 487.9 367.248 495.8 368.09C497.678 368.363 501.823 370.953 504.384 372.643C505.988 373.692 508.193 372.245 508.051 370.268C507.526 357.437 509.45 344.51 513.538 332.432C513.983 331.105 513.3 329.635 512.033 329.215C498.703 324.78 485.403 320.248 472.093 315.696C433.36 302.585 390.786 287.885 351.847 276.336L351.847 276.325Z" fill="#292D33"/>
<path d="M177.13 216.918C185.826 220.803 194.756 223.944 203.726 226.99C212.716 230.026 221.676 232.902 231.001 234.642C222.608 229.94 213.628 226.82 204.568 224.028C195.517 221.248 186.405 218.775 177.13 216.918Z" fill="#292D33"/>
<path d="M156.101 239.505C145.708 232.871 132.685 231.37 123.228 223.071L123.991 224.424C123.41 220.138 122.939 215.885 122.897 211.686C122.854 207.488 123.262 203.344 124.158 199.299L119.539 199.917C119.638 200.108 119.767 200.396 119.648 200.108C119.599 199.959 119.58 199.821 119.58 199.81C119.58 199.789 119.58 199.853 119.579 199.917L124.192 198.459L124.251 198.587L124.193 198.246L120.793 201.155C124.473 202.903 128.142 202.398 130.727 205.406L133.163 201.261C129.629 200.502 125.722 200.453 123.657 197.383L121.024 201.007C122.141 201.363 122.949 201.642 123.348 201.984L124.564 197.855C124.334 197.939 123.735 197.766 123.616 197.649L121.134 200.848C133.349 204.418 146.054 208.022 158.422 210.775C149.536 206.836 140.498 203.301 131.42 199.893L122.332 196.527C121.244 196.129 120.062 196.741 119.688 197.887C118.612 201.879 126.922 204.954 127.003 200.033C126.92 198.471 125.255 197.613 124.188 197.077C123.54 196.777 122.951 196.572 122.442 196.379C121.255 195.938 119.963 196.602 119.548 197.865C119.305 198.619 119.422 199.395 119.809 200.013C122.287 204.552 127.988 205.596 132.192 206.38C133.509 206.672 134.812 205.774 135.088 204.372C135.241 203.597 135.054 202.831 134.627 202.245C131.987 198.173 126.353 197.682 122.672 196.252C120.428 195.308 118.6 197.638 119.429 199.959C120.173 203.682 124.942 203.043 124.488 199.226C124.52 198.843 124.026 197.587 123.916 197.48C123.382 196.181 121.956 195.58 120.724 196.148C119.934 196.517 119.441 197.259 119.297 198.098C117.291 207.039 118.11 216.502 119.921 225.31C120.019 225.821 120.297 226.247 120.665 226.525C131.092 234.605 144.31 234.958 156.071 239.483L156.101 239.505Z" fill="#292D33"/>
<path d="M217.704 262.555C204.496 255.261 190.36 249.918 175.765 246.774C188.963 254.079 203.119 259.39 217.704 262.555Z" fill="#292D33"/>
<path d="M381.787 242.386C393.816 247.21 405.675 252.319 417.998 256.336C424.155 258.308 430.353 259.96 436.278 262.313C444.885 265.995 454.885 268.886 463.877 271.507C485.381 278.253 506.945 284.892 528.723 290.596C522.678 288.296 516.582 286.197 510.516 283.993C492.736 277.901 473.351 270.942 455.438 265.711C449.37 263.952 443.134 261.843 437.239 259.479C428.021 256.081 418.646 254.298 409.437 251.166C400.557 248.259 390.698 245.06 381.797 242.386L381.787 242.386Z" fill="#292D33"/>
<path d="M182.252 180.402C195.776 186.294 210.303 191.192 224.333 195.642C238.413 199.942 253.114 204.108 267.47 207.07C253.774 201.645 239.195 197.023 225.175 192.584C211.105 188.283 196.506 183.863 182.252 180.402Z" fill="#292D33"/>
<path d="M546.516 387.569C562.796 393.824 579.107 399.995 595.367 406.335C595.586 406.421 595.837 406.273 595.868 406.029C596.578 405.947 596.469 405.723 596.519 405.521L596.622 404.905C596.765 404.236 597.114 401.974 597.257 401.241C601.384 377.822 605.872 351.461 609.65 327.882C609.804 326.958 609.168 326.083 608.289 325.995C600.727 325.473 593.516 322.531 586.576 319.004C579.627 315.488 572.87 311.283 565.57 307.893C551.011 301.156 535.176 298.293 519.576 296.431L518.926 301.37C518.087 301.313 517.191 300.459 517.045 299.587C516.469 308.215 514.766 318.507 513.508 327.642C512.798 332.486 512.068 337.33 511.308 342.152C510.17 349.024 508.398 356.743 506.96 363.656C506.305 367.225 504.536 371.947 509.007 373.443C510.623 374.035 512.349 374.552 513.935 375.207C518.075 376.756 541.847 385.795 546.526 387.559L546.516 387.569ZM547.113 385.871C542.355 383.916 519.095 374.337 514.845 372.597C513.938 372.199 512.481 371.63 511.554 371.286C510.745 371.017 509.558 370.618 509.051 370.138C508.961 370.031 508.902 369.872 508.904 369.415C509.001 367.789 509.538 366.048 509.884 364.391L511.583 357.267C514.002 347.818 515.752 338.025 517.392 328.35C518.931 318.876 520.81 309.445 521.69 299.851C521.723 299.15 521.687 298.278 521.27 297.596C520.953 297.021 520.185 296.497 519.576 296.431L518.926 301.37C534.122 304.081 549.572 305.933 563.823 312.264C578.125 318.5 591.921 328.625 608.075 329.214C608.095 329.214 606.655 327.327 606.655 327.327C603.065 349.132 599.291 374.189 596.051 395.964C595.66 398.407 595.053 402.73 594.672 405.163C594.662 405.375 594.481 405.544 595.129 405.877L595.63 405.571C579.431 399.082 563.292 392.423 547.113 385.86L547.113 385.871Z" fill="#292D33"/>
<path d="M598.308 405.724C606.873 386.501 619.708 368.827 622.947 347.307C624.724 338.228 626.309 324.991 627.788 315.74C627.952 314.763 630.24 298.255 630.291 297.99C631.6 291.023 631.436 287.377 625.017 283.629C621.13 281.158 615.265 278.794 611.117 276.842C606.45 274.75 601.711 272.838 596.892 271.18C586.646 267.693 576.145 265.076 565.48 263.638C564.222 263.431 561.246 262.929 559.958 262.711C556.713 262.304 553.369 261.461 549.979 262.01C549.499 262.114 548.858 262.515 548.586 262.982C548.083 263.809 546.412 266.693 545.889 267.573C539.257 278.673 532.045 289.77 521.373 296.952C523.597 295.739 525.781 294.399 527.836 292.845C534.021 288.163 539.152 282.095 543.786 275.737C546.258 272.325 548.782 268.51 551.106 264.98L551.176 264.874L551.206 264.821C551.236 264.779 551.156 264.906 551.136 264.938C551.045 265.107 550.885 265.171 550.775 265.255C550.665 265.297 550.745 265.276 550.735 265.287C550.815 265.287 551.064 265.256 551.324 265.268C556.349 265.587 561.708 267.13 566.74 268.001C581.336 270.827 595.586 275.384 609.198 281.617C614.343 284.083 619.471 286.093 623.984 289.184C625.02 289.9 625.906 290.659 626.011 291.924C626.087 292.743 625.942 293.922 625.747 295.218C625.573 296.205 625.334 298.213 625.19 299.212C624.118 307.072 622.131 322.954 621.159 330.836C619.825 341.289 618.881 351.797 615.841 361.828C611.3 376.965 603.128 390.609 598.318 405.724L598.308 405.724Z" fill="#292D33"/>
<path d="M629.618 289.494C624.837 295.267 621.372 301.81 618.226 308.62C615.039 315.419 613.501 322.247 608.919 328.265C616.035 325.702 619.647 317.48 622.732 310.914C625.759 304.039 628.387 297.067 629.618 289.494Z" fill="#292D33"/>
<path d="M184.647 361.807C170.71 340.288 156.762 318.77 142.825 297.251C143.967 299.01 132.381 304.817 131.39 305.397C127.213 307.845 129.905 311.492 132.12 314.647C138.863 324.263 145.697 333.805 152.471 343.399C156.464 349.049 160.456 354.71 164.449 360.361C174.798 375.019 185.197 389.741 197.472 402.623C198.427 403.626 199.522 404.672 200.861 404.741C202.789 404.835 204.186 402.927 205.461 401.37C206.737 399.813 208.861 398.388 210.455 399.542C208.568 396.877 206.671 394.223 204.784 391.557C202.003 387.645 199.221 383.732 196.501 379.756C192.449 373.851 188.558 367.829 184.657 361.807" fill="#FEDC00"/>
<path d="M184.647 361.804C173.077 342.719 155.916 315.617 143.858 296.498L141.793 298.009C141.554 297.668 141.656 297.307 141.676 297.296C138.756 300.238 134.762 301.869 131.216 303.884C124.347 307.458 129.616 313.613 132.625 317.909C147.793 339.05 166.48 366.871 182.42 387.154C186.346 392.113 190.492 396.882 194.819 401.46C196.611 403.147 198.278 405.833 201.026 405.823C202.974 405.789 204.35 404.285 205.475 402.919C206.399 401.605 208.557 399.308 209.962 400.313C210.35 400.612 210.9 400.519 211.182 400.106C211.413 399.756 211.395 399.299 211.157 398.979L197.706 380.566C193.932 375.214 188.5 367.262 184.666 361.814C192.297 374.283 201.371 388.181 209.773 400.11L210.958 398.776C210.091 398.124 208.903 398.045 208.022 398.36C205.601 399.061 204.371 401.565 202.546 403.077C200 405.022 198.206 401.506 196.405 399.819C192.228 395.199 188.282 390.336 184.426 385.388C167.416 362.836 151.56 339.013 134.941 316.091C133.721 314.034 129.313 309.594 131.011 307.529C132.486 306.111 134.757 305.334 136.501 304.204C138.925 302.737 141.489 301.419 143.486 299.228C144.039 298.443 144.492 297.68 143.868 296.508L141.803 298.019C154.372 316.949 171.955 343.415 184.656 361.814L184.647 361.804Z" fill="#292D33"/>
<path d="M202.045 405.927C204.557 412.102 210.337 415.762 214.965 419.991L219.834 424.018C220.62 424.713 221.804 423.687 221.338 422.728C219.666 418.958 217.973 415.199 216.18 411.493C214.388 407.787 212.555 404.091 210.542 400.49C211.824 404.449 213.266 408.334 214.789 412.178C216.291 416.032 217.903 419.833 219.536 423.624L221.04 422.334C218.133 419.983 214.06 416.713 211.122 414.511C207.785 411.967 204.368 409.583 202.036 405.916L202.045 405.927Z" fill="#292D33"/>
<path d="M210.541 407.804C211.009 408.072 210.686 408.847 210.147 408.728C209.279 408.341 209.194 407.257 209.756 406.664C210.871 405.244 212.281 407.334 211.317 408.477C211.006 408.901 210.145 409.227 209.747 408.736C209.449 408.331 209.812 407.61 210.29 407.867C210.421 407.836 210.551 407.72 210.622 407.571C210.894 406.818 210.258 405.996 209.479 405.951C208.73 405.905 207.979 406.412 207.626 407.059C206.63 408.574 207.76 410.832 209.197 411.242C210.464 411.758 212.275 411.043 212.731 409.568C213.005 408.761 212.86 407.591 211.983 407.024C211.345 406.66 210.364 407.017 210.531 407.804L210.541 407.804Z" fill="#292D33"/>
<path d="M211.37 409.943C212.72 414.445 215.411 418.453 218.996 421.253C217.656 416.741 214.955 412.754 211.37 409.943Z" fill="#292D33"/>
<path d="M132.549 303.241C130.504 304.72 128.249 306.273 125.782 306.05C122.696 305.771 120.49 302.871 118.673 300.195C113.599 292.733 108.585 285.23 103.641 277.673C98.5682 269.924 93.5554 262.133 88.6028 254.289C86.1315 250.368 83.6703 246.435 81.239 242.492C80.0184 240.521 78.8078 238.549 77.5872 236.567C76.5354 234.851 75.3319 233.539 74.781 231.528C74.6628 231.113 74.5748 230.677 74.6864 230.263C74.7981 229.849 75.1192 229.52 75.4698 229.309C75.8505 229.088 76.3001 229.09 76.6706 228.911C77.0411 228.731 77.3323 228.382 77.6332 228.117C79.4688 226.467 81.3144 224.806 83.1499 223.156C84.5241 221.918 86.429 220.396 88.3755 220.851C89.2639 221.056 89.6011 221.674 90.0776 222.388C90.6832 223.305 91.379 224.169 92.0146 225.065C93.3753 226.994 94.746 228.924 96.1067 230.853C98.8381 234.713 101.569 238.561 104.301 242.42C105.801 244.542 107.3 246.663 108.81 248.785C108.805 250.007 111.929 253.188 112.654 254.211L116.766 260.021C119.507 263.891 122.248 267.761 124.99 271.631C127.731 275.501 130.472 279.371 133.214 283.241C134.584 285.181 135.955 287.11 137.326 289.051C138.458 290.66 140.358 292.539 140.97 294.466C142.182 298.286 134.994 301.476 132.549 303.252L132.549 303.241Z" fill="#FEDC00"/>
<path d="M132.549 303.244C125.702 308.7 121.938 305.484 117.9 298.718C114.466 293.368 111.052 287.996 107.707 282.583C99.4011 269.187 91.3676 255.091 83.2819 241.537C82.5181 240.237 80.3951 236.636 79.6511 235.368C78.7686 233.78 77.5652 232.468 77.1126 230.808C77.0239 230.521 77.1139 230.5 77.0522 230.925C76.9403 231.392 76.7297 231.55 76.6896 231.582L76.6696 231.603L76.5794 231.656C76.5294 231.677 76.5093 231.687 76.5294 231.677C76.9591 231.658 77.91 231.258 78.3411 230.919C78.8324 230.528 79.0331 230.327 79.4143 229.978L79.8556 229.587L83.3561 226.466C84.5792 225.504 86.3769 223.344 87.8454 223.424C87.7655 223.413 87.5964 223.242 87.6859 223.338C87.8648 223.584 88.6991 224.756 88.9673 225.108C95.0369 233.446 101.187 241.72 107.427 249.92L107.072 248.792C107.081 249.047 107.129 249.355 107.188 249.568C108.127 252.176 110.458 253.738 111.968 255.859C112.037 255.998 117.552 263.121 117.86 263.548C123.962 271.503 130.082 279.521 136.033 287.614C137.552 290.012 139.972 291.882 140.929 294.628C141.721 298.734 135.106 301.3 132.559 303.266L132.549 303.244ZM132.549 303.244C135.156 301.289 141.831 298.703 141.069 294.565C140.666 293.118 139.732 291.956 138.887 290.804C135.509 286.272 132.323 281.242 129.156 276.541C124.231 269.144 118.921 260.959 114.026 253.487C112.616 251.377 110.646 249.583 110.214 247.657C104.069 238.341 97.8534 229.047 91.4475 219.921C88.9635 216.637 84.2595 218.467 81.9014 220.805C80.778 221.81 77.7989 224.508 76.6454 225.555C76.3044 225.862 75.863 226.254 75.5319 226.582C75.5319 226.582 75.7822 226.455 75.7422 226.476C74.1218 226.873 72.8192 227.718 72.291 229.746C71.8461 233.326 74.1249 235.514 75.7227 238.072C76.5168 239.308 78.7701 242.804 79.604 244.094C88.2902 257.427 97.4775 270.391 106.645 283.354C110.35 288.504 113.985 293.706 117.61 298.919C121.889 305.442 125.641 308.816 132.539 303.234L132.549 303.244Z" fill="#292D33"/>
<path d="M77.6096 240.568C77.9154 236.797 73.0484 234.682 70.3611 236.892C64.9485 240.865 67.552 248.933 71.8631 252.576C77.9962 257.714 84.4026 262.046 89.8028 268.021C100.566 279.28 107.725 294.68 105.496 311.176C106.274 309.256 106.882 307.239 107.281 305.147C110.932 285.436 98.801 266.752 84.1085 256.04C81.0511 253.646 77.3629 251.579 74.3448 249.355C71.7454 247.356 69.311 244.157 70.3251 240.665C70.7516 239.051 72.0267 237.622 73.626 237.48C75.3652 237.338 77.2884 238.569 77.5996 240.568L77.6096 240.568Z" fill="white"/>
<path d="M122.012 226.796C115.882 223.337 109.661 220.101 103.389 217.013C101.794 216.241 100.398 215.502 99.8024 214.553C99.147 213.605 98.9037 212.084 98.8012 210.34C98.5868 206.715 98.3028 203.015 98.0186 199.368C96.8519 184.727 95.3754 170.117 93.549 155.548L90.3916 157.863C96.015 160.692 101.891 162.939 107.919 164.516C113.908 166.104 120.059 167.044 126.213 167.166C123.229 166.41 120.275 165.6 117.361 164.673C111.553 162.874 105.897 160.618 100.403 157.99C97.6608 156.682 94.9992 155.225 92.3677 153.715C91.3211 153.115 90.0103 153.535 89.446 154.649C89.2243 155.094 89.1524 155.561 89.2004 156.029C90.2771 170.68 91.7036 185.301 93.4401 199.869C93.8842 203.517 94.3184 207.143 94.8424 210.812C95.1432 212.907 95.5932 215.173 97.0145 216.933C98.4159 218.703 100.391 219.371 102.227 220.037C108.752 222.457 115.337 224.738 122.002 226.786L122.012 226.796Z" fill="#292D33"/>
<path d="M91.7526 154.952C106.295 146.841 109.858 145.527 125.511 151.365C132.735 153.734 139.95 155.806 147.509 156.911C143.135 154.108 138.598 151.804 134.011 149.658C116.6 141.517 105.595 137.708 91.7426 154.952L91.7526 154.952Z" fill="#292D33"/>
<path d="M154.299 177.044C154.435 173.261 154.321 169.519 154.087 165.798C154.001 164.884 154.005 163.853 153.85 162.906C153.68 160.589 151.731 158.295 149.372 158.508C147.683 158.575 146.161 159.451 144.849 160.041C138.462 163.021 132.222 166.332 126.152 169.995C125.461 170.332 124.968 171.042 124.965 171.828C124.849 177.854 124.913 183.923 125.597 189.921C127.261 184.135 128.305 178.177 129.19 172.218L128.003 174.052C134.45 171.21 140.738 168.005 146.879 164.482C147.9 163.933 148.762 163.278 149.623 163.016C149.753 162.984 149.733 162.963 149.743 162.921C149.743 162.889 149.803 162.868 149.922 163.028C150.458 163.827 150.652 165.38 150.967 166.38C151.911 169.966 152.975 173.531 154.289 177.055L154.299 177.044Z" fill="#292D33"/>
<path d="M125.781 355.466C128.203 356.954 130.222 359.163 130.95 361.961C131.323 363.451 131.156 365.119 129.814 365.772C127.552 366.655 125.641 365.031 123.931 363.036C122.638 361.575 121.425 360.145 120.822 358.623C119.407 355.28 121.93 351.9 125.137 354.241C126.542 355.236 127.383 357.163 128.004 359.111C128.177 355.976 126.576 351.898 123.101 351.395C118.887 350.718 116.766 356.172 118.18 359.696C119.544 363.145 121.573 365.269 124.142 367.448C126.024 368.934 128.799 369.541 131.033 368.232C134.699 366.111 133.393 360.749 131.014 358.475C129.562 356.917 127.718 355.825 125.791 355.456L125.781 355.466Z" fill="#292D33"/>
<path d="M122.458 352.181C125.162 350.758 127.657 351.47 129.426 353.688L131.315 355.918C133.671 358.68 135.997 361.666 135.87 365.46L136.614 364.581C134.671 365.466 132.769 366.393 130.945 367.565C133.074 367.478 135.144 367.147 137.224 366.752C137.654 366.669 137.895 366.287 137.967 365.862C139.166 361.233 136.357 356.694 133.382 353.779C131.83 352.295 130.388 350.599 128.212 350.005C125.947 349.422 123.565 350.39 122.458 352.181Z" fill="#292D33"/>
<path d="M141.79 345.536C140.618 346.211 139.84 345.879 138.67 346.129C135.34 346.88 132.834 348.697 131.081 351.995C134.491 353.817 138.333 352.568 140.703 349.687C141.517 348.702 142.554 346.9 141.79 345.526L141.79 345.536Z" fill="#292D33"/>
<path d="M145.404 351.166C141.397 349.002 136.597 352.297 136.846 357.081C141.01 357.716 144.247 355.455 145.404 351.166Z" fill="#292D33"/>
<path d="M156.887 350.763C154.305 351.709 151.942 352.921 149.666 354.601C148.905 355.172 148.232 355.818 147.462 356.144C147.352 356.196 147.322 356.164 147.292 356.175C147.342 356.143 147.422 356.154 147.491 356.186C147.711 356.262 147.651 356.368 147.632 356.102C147.322 353.645 149.216 352.452 149.398 349.509C149.455 343.175 142.628 341.434 138.28 344.232L139.897 344.633C138.963 343.417 137.968 342.254 136.994 341.081C136.607 340.569 135.898 340.492 135.426 340.925C134.302 342.185 135.945 343.51 137.066 342.899C139.962 341.072 141.704 337.849 143.605 335.008C142.251 336.118 140.977 337.303 139.673 338.414C138.731 339.186 137.226 340.519 136.436 340.781C136.506 340.781 136.835 340.836 136.984 341.081L135.28 342.498C136.123 343.787 136.937 345.098 137.811 346.356C138.189 346.9 138.877 347.052 139.428 346.756C142.292 345.291 146.256 345.903 146.491 349.337C146.293 351.313 144.282 354.345 145.24 356.846C145.466 357.73 146.152 358.551 147.051 358.64C148.69 358.711 149.865 357.142 150.869 356.084C152.686 354.253 154.781 352.466 156.887 350.774L156.887 350.763Z" fill="#292D33"/>
<path d="M150.672 304.013C150.502 299.24 150.205 293.999 149.875 289.215C149.762 287.577 149.67 285.93 149.537 284.292L147.762 285.762C162.29 292.871 177 299.534 191.851 305.847L190.283 303.236C189.621 315.531 189.729 327.881 190.756 340.141C191.623 352.41 193.879 364.472 196.226 376.482C195.998 364.279 194.781 352.115 194.693 339.913C194.485 327.774 194.617 315.647 195.268 303.534C195.333 302.365 194.668 301.331 193.7 300.923C182.559 296.209 171.358 291.676 160.055 287.398C156.264 285.915 152.433 284.56 148.622 283.151C147.735 282.797 146.772 283.675 146.957 284.664C147.22 286.281 147.543 287.897 147.826 289.514C148.705 294.237 149.642 299.364 150.672 304.024L150.672 304.013Z" fill="#292D33"/>
<path d="M180.61 385.473C179.047 384.116 176.92 383.661 175.446 382.613C174.679 382.046 173.662 381.404 172.755 381.007C169.842 379.953 167.357 379.167 164.616 377.699C162.182 376.605 159.797 375.85 157.705 374.353C157.258 373.895 157.212 372.991 157.146 371.938C157.057 369.387 157.638 366.69 157.15 364.063C156.685 360.511 156.092 356.724 155.277 353.245C154.985 356.273 154.95 359.621 154.917 362.671L154.944 365.732C154.791 368.963 153.516 372.593 155.021 375.766C156.878 378.506 160.872 379.288 163.544 380.554C166.126 381.883 169.301 382.555 172.107 383.077C173.075 383.304 173.813 383.573 174.76 384.034C176.805 384.84 178.724 384.753 180.6 385.462L180.61 385.473Z" fill="#292D33"/>
<path d="M295.968 249.188C279.663 260.343 264.273 272.787 249.1 285.573C241.549 291.981 234.087 298.518 226.784 305.258C219.472 311.944 212.319 318.652 203.695 323.462C213.119 320.728 221.439 314.577 229.208 308.499C252.488 290.083 275.103 270.697 295.958 249.178L295.968 249.188Z" fill="#292D33"/>
<path d="M297.637 262.969C281.472 274.252 266.112 286.579 250.771 299.024C235.51 311.586 220.368 324.212 205.971 337.936C222.722 327.623 238.47 315.712 253.82 303.235C269.092 290.652 283.966 277.525 297.647 262.969L297.637 262.969Z" fill="#292D33"/>
<path d="M262.317 239.262C247.293 247.627 233.093 257.355 219.081 267.435C205.139 277.633 191.455 288.15 178.665 299.999C193.698 291.646 207.898 281.917 221.9 271.826C235.833 261.618 249.526 251.101 262.317 239.262Z" fill="#292D33"/>
<path d="M289.219 276.027C294.643 276.529 299.186 279.514 303.77 282.392C312.103 287.328 321.86 293.087 331.725 289.994C338.61 287.547 343.233 281.466 348.33 276.471C361.699 262.466 375.307 248.653 387.541 233.496C389.23 231.165 390.74 228.641 391.76 225.893C391.892 225.553 391.644 225.148 391.294 225.158C389.975 225.131 388.646 225.114 387.327 225.109C387.217 225.108 387.127 225.204 387.127 225.321L387.076 227.882L387.566 225.376L387.325 225.587C388.613 225.837 389.901 226.076 391.199 226.294L390.763 225.474C388.075 230.299 384.082 233.97 380.089 237.737C366.075 250.878 352.437 264.68 339.148 278.653C333.386 284.974 327.937 287.905 319.603 285.765C314.593 284.5 309.565 282.449 304.829 280.175C299.983 277.891 294.638 275.381 289.209 276.027L289.219 276.027Z" fill="#292D33"/>
<path d="M236.085 256.56C235.104 254.452 235.079 253.272 235.596 251.68C236.627 248.91 238.692 247.292 240.263 244.387C234.975 242.568 228.765 248.398 231.589 254.139C232.52 255.918 234.394 257.031 236.075 256.55L236.085 256.56Z" fill="#292D33"/>
<path d="M382.158 209.302C383.203 212.591 387.254 211.609 389.719 212.396C392.982 213.366 392.562 215.936 389.856 217.838C376.25 228.834 362.793 240.043 349.406 251.337L336.098 262.653C332.007 265.931 327.617 269.239 322.393 268.749C319.097 268.352 315.788 266.478 315.063 263.031C314.576 260.181 315.369 256.826 314.064 253.621C312.128 248.436 306.502 246.149 302.231 244.77L303.93 247.232C303.861 244.49 300.716 244.073 298.83 243.342C296.406 242.534 290.677 240.948 288.152 240.235C281.137 237.984 266.948 233.555 259.902 231.41C255.092 230.008 250.436 227.639 245.271 227.394C242.923 227.448 243.938 230.811 243.751 232.383C243.91 234.945 243.384 236.484 243.113 239.108C242.939 240.064 243.493 241.289 243.33 242.149C243.3 242.244 243.3 242.234 243.31 242.245C243.009 242.36 242.511 242.029 241.932 241.813L238.94 240.536L232.936 238.002L233.162 239.002C235.635 235.463 238.994 232.554 242.889 230.711C238.836 232.107 235.088 234.684 232.216 238.19C231.955 238.508 232.062 239.04 232.441 239.19L238.234 242.223L241.135 243.723C242.51 244.579 244.466 245.098 245.354 243.061C245.94 241.682 245.375 240.616 245.54 239.31C245.644 238.396 245.998 237.335 246.233 236.082C246.614 233.639 246.543 231.428 246.723 229.069L245.118 230.571C249.652 231.069 253.968 233.564 258.817 235.168L272.805 240.106L286.843 244.938C290.575 246.123 296.663 247.818 300.074 249.225C299.476 248.84 299.07 247.934 299.114 247.212L300.812 249.674C303.426 250.546 305.929 251.567 307.682 253.062C311.137 255.84 309.321 259.925 310.212 264.137C311.307 269.892 316.917 273.477 321.921 273.902C328.313 274.62 334.375 270.607 339.009 266.535L352.128 254.825C365.601 242.393 379.521 230.4 392.466 217.36C394.295 214.828 392.909 211.931 389.943 211.493C387.437 210.877 383.554 212.444 382.178 209.292L382.158 209.302Z" fill="#292D33"/>
<path d="M356.518 216.454C348.526 220.809 341.567 226.636 334.826 232.836C328.788 238.135 320.263 245.624 314.415 250.987L314.594 251.243C320.918 246.615 329.961 239.702 336.286 234.861C343.643 229.504 350.702 223.826 356.697 216.709L356.518 216.454Z" fill="#292D33"/>
<path d="M316.914 178.028C306.593 184.893 292.051 194.96 281.67 201.994C269.955 210.107 258.239 218.263 247.497 227.9C260.382 221.843 272.534 214.518 284.379 206.459C296.124 198.304 307.523 189.233 316.914 178.028Z" fill="#292D33"/>
<path d="M378.859 198.105C380.384 198.983 382.283 196.355 380.99 195.042C371.707 190.55 362.119 187.171 352.409 184.25C342.679 181.402 332.887 178.969 322.78 177.959C331.852 182.802 341.359 186.254 351.028 189.335C360.658 192.32 370.419 194.849 380.475 196.284L380.117 195.995C380.783 196.785 379.877 198.248 378.849 198.105L378.859 198.105Z" fill="#292D33"/>
<path d="M370.568 190.481C373.544 188.463 376.391 186.254 379.357 184.247C385.32 180.117 391.787 177.317 397.799 173.176C403.822 169.057 409.269 164.074 414.576 159.048C418.848 155.484 416.349 151.041 411.626 150.32C403.44 148.435 395.215 146.636 386.989 144.932C386.36 144.802 385.739 144.959 385.248 145.308C381.46 148.023 377.701 150.792 373.992 153.624C366.594 159.332 359.334 165.222 352.313 171.441C348.793 174.53 345.342 177.714 341.961 180.984C348.625 176.559 358.265 169.883 364.96 165.267C371.514 160.65 381.164 154.176 387.868 149.581L386.068 149.945C394.433 151.905 402.848 153.779 411.254 155.547C411.533 155.58 412.042 155.785 412.182 155.891C412.002 155.721 411.835 155.04 412.007 154.722C409.79 156.795 406.337 160.426 403.678 162.913C398.511 167.971 393.037 172.199 387.055 176.181C381.013 180.162 375.646 185.241 370.568 190.481Z" fill="#292D33"/>
<path d="M406.904 172.819C397.728 178.413 389.454 185.627 382.245 193.844C391.213 187.898 399.397 180.727 406.904 172.819Z" fill="#292D33"/>
<path d="M516.652 309.675C467.295 290.1 416.379 273.015 365.37 259.013C414.716 278.61 465.653 295.652 516.652 309.675Z" fill="#292D33"/>
<path d="M161.259 192.253C152.324 188.144 143.087 184.417 133.38 183.111C142.093 187.846 151.705 190.299 161.259 192.253Z" fill="#292D33"/>
<path d="M252.569 221.907C241.109 216.863 228.837 212.644 216.973 208.725C205.069 204.954 192.675 201.192 180.516 198.547C191.955 203.634 204.237 207.863 216.101 211.772C228.005 215.542 240.399 219.305 252.569 221.907Z" fill="#292D33"/>
<path d="M521.903 294.546C512.744 291.329 503.646 287.984 494.598 284.47C491.385 283.298 488.347 283.402 485.266 282.007C449.081 268.897 411.585 256.312 374.476 246.61C380.541 248.889 386.667 250.977 392.743 253.203C423.173 263.855 456.298 275.273 486.911 285.118C489.237 285.733 491.795 285.723 493.97 286.444C497.043 287.457 500.126 288.448 503.22 289.396C509.427 291.229 515.624 293.063 521.903 294.546Z" fill="#292D33"/>
<path d="M162.123 179.305C153.876 175.401 145.308 171.867 136.28 170.755C144.304 175.286 153.248 177.545 162.123 179.305Z" fill="#292D33"/>
<path d="M263.876 211.035C264.851 212.113 265.805 213.201 266.8 214.257L267.102 213.695C239.411 202.704 211.154 193.273 182.388 186.019C203.025 194.684 224.188 201.725 245.483 208.299C252.598 210.424 259.723 212.484 266.92 214.332C267.229 214.461 267.501 213.994 267.222 213.77C266.127 212.841 265.001 211.954 263.886 211.046L263.876 211.035Z" fill="#292D33"/>
<path d="M515.682 295.803C515.341 296.131 515.09 296.364 514.83 296.565C514.928 297.001 514.896 297.458 514.804 297.894C514.712 298.329 514.541 298.743 514.289 299.114C514.448 299.423 514.586 299.753 514.744 300.189C515.163 300.34 515.523 300.373 515.913 300.353C516.587 299.357 516.921 298.136 516.877 296.925C516.96 296.043 516.441 295.934 515.682 295.814L515.682 295.803Z" fill="#292D33"/>
<path d="M510.479 292.829C510.029 292.944 509.688 293.092 509.358 293.239C509.286 293.674 509.032 294.747 508.94 295.193C508.848 295.618 508.604 296.733 508.512 297.147C508.761 297.435 508.999 297.723 509.338 298.043C509.778 297.928 510.108 297.781 510.448 297.633C510.54 297.219 510.785 296.104 510.876 295.679C510.978 295.223 511.193 294.161 511.314 293.726C511.076 293.438 510.837 293.15 510.479 292.829Z" fill="#292D33"/>
<path d="M504.111 293.585C503.671 293.615 503.351 293.677 503.031 293.75C502.98 294.048 502.787 294.759 502.716 295.067C502.645 295.353 502.462 296.097 502.391 296.373C502.649 296.597 502.898 296.821 503.247 297.078C503.667 297.037 503.987 296.975 504.317 296.912C504.388 296.636 504.571 295.893 504.642 295.606C504.723 295.299 504.886 294.587 504.977 294.301C504.728 294.076 504.48 293.852 504.111 293.585Z" fill="#292D33"/>
<path d="M498.041 290.062C497.601 290.209 497.291 290.367 496.97 290.536C496.949 290.94 496.815 291.927 496.773 292.352C496.731 292.745 496.607 293.776 496.565 294.158C496.844 294.404 497.113 294.639 497.481 294.896C497.902 294.749 498.222 294.58 498.542 294.422C498.594 294.039 498.708 293.009 498.75 292.616C498.802 292.191 498.906 291.214 498.968 290.81C498.699 290.575 498.43 290.329 498.041 290.073L498.041 290.062Z" fill="#292D33"/>
<path d="M491.608 287.142C491.177 287.363 490.877 287.585 490.566 287.818C490.564 288.307 490.489 289.497 490.477 289.996C490.455 290.475 490.39 291.707 490.368 292.175C490.656 292.431 490.945 292.687 491.334 292.955C491.744 292.733 492.055 292.511 492.366 292.279C492.388 291.822 492.443 290.579 492.465 290.1C492.497 289.59 492.532 288.411 492.584 287.922C492.295 287.666 492.017 287.409 491.608 287.142Z" fill="#292D33"/>
<path d="M485.075 284.608C484.634 284.787 484.304 284.987 483.983 285.188C483.941 285.677 483.766 286.866 483.714 287.376C483.652 287.854 483.487 289.097 483.435 289.554C483.704 289.842 483.962 290.13 484.331 290.429C484.761 290.24 485.082 290.05 485.412 289.849C485.474 289.393 485.629 288.139 485.691 287.672C485.763 287.162 485.898 285.983 485.98 285.494C485.712 285.206 485.453 284.918 485.075 284.619L485.075 284.608Z" fill="#292D33"/>
<path d="M476.153 281.861C475.732 282.103 475.431 282.357 475.121 282.6C475.118 283.121 475.073 284.386 475.061 284.917C475.059 285.427 475.003 286.745 474.991 287.234C475.29 287.501 475.578 287.768 475.967 288.035C476.378 287.793 476.678 287.539 476.989 287.296C477.001 286.807 477.037 285.478 477.059 284.979C477.081 284.437 477.097 283.183 477.139 282.662C476.85 282.395 476.562 282.128 476.153 281.861Z" fill="#292D33"/>
<path d="M470.241 281.281C469.95 281.673 469.719 281.948 469.478 282.202C469.625 282.702 469.613 283.245 469.511 283.765C469.409 284.285 469.207 284.773 468.905 285.197C469.044 285.527 469.142 285.878 469.26 286.357C469.689 286.508 470.079 286.52 470.489 286.501C470.971 285.822 471.314 285.027 471.468 284.198C471.641 283.37 471.595 282.509 471.428 281.669C471.069 281.476 470.7 281.315 470.241 281.292L470.241 281.281Z" fill="#292D33"/>
<path d="M461.434 277.543C461.003 277.754 460.692 277.976 460.382 278.198C460.38 278.687 460.275 279.877 460.252 280.376C460.22 280.854 460.135 282.087 460.113 282.555C460.402 282.822 460.681 283.078 461.059 283.356C461.47 283.145 461.78 282.923 462.101 282.701C462.133 282.244 462.208 281.001 462.24 280.523C462.272 280.013 462.337 278.833 462.389 278.345C462.111 278.078 461.832 277.822 461.434 277.543Z" fill="#292D33"/>
<path d="M456.154 276.159C455.733 276.359 455.442 276.56 455.142 276.76C455.16 277.164 455.136 278.153 455.144 278.567C455.142 278.961 455.138 279.992 455.136 280.374C455.435 280.577 455.734 280.781 456.133 280.984C456.534 280.784 456.834 280.583 457.135 280.383C457.136 280 457.141 278.969 457.142 278.576C457.144 278.151 457.138 277.173 457.15 276.769C456.851 276.566 456.562 276.363 456.144 276.159L456.154 276.159Z" fill="#292D33"/>
<path d="M445.749 272.261C445.328 272.472 445.028 272.683 444.727 272.894C444.745 273.33 444.72 274.404 444.719 274.85C444.717 275.275 444.692 276.391 444.69 276.806C444.989 277.03 445.288 277.244 445.677 277.469C446.077 277.258 446.378 277.047 446.689 276.835C446.69 276.421 446.705 275.305 446.717 274.88C446.719 274.423 446.723 273.36 446.755 272.924C446.456 272.7 446.167 272.486 445.759 272.261L445.749 272.261Z" fill="#292D33"/>
<path d="M439.645 269.521C439.224 269.764 438.933 270.017 438.633 270.261C438.65 270.76 438.625 271.993 438.633 272.503C438.631 272.992 438.625 274.268 438.623 274.746C438.922 274.992 439.221 275.248 439.619 275.494C440.02 275.251 440.321 274.998 440.622 274.754C440.624 274.287 440.629 273.001 440.631 272.512C440.634 271.991 440.629 270.769 440.641 270.269C440.342 270.023 440.053 269.767 439.635 269.521L439.645 269.521Z" fill="#292D33"/>
<path d="M431.226 268.668C430.786 268.783 430.475 268.92 430.155 269.057C430.134 269.407 430 270.278 429.959 270.639C429.917 270.99 429.793 271.893 429.752 272.222C430.031 272.447 430.3 272.66 430.678 272.896C431.099 272.781 431.409 272.644 431.739 272.507C431.781 272.178 431.894 271.264 431.946 270.924C431.997 270.552 432.091 269.692 432.162 269.341C431.893 269.128 431.625 268.903 431.226 268.668Z" fill="#292D33"/>
<path d="M421.023 264.256C420.602 264.499 420.311 264.731 420.011 264.974C420.029 265.453 420.004 266.643 420.011 267.143C420.009 267.621 420.004 268.854 420.002 269.311C420.301 269.556 420.6 269.792 420.998 270.038C421.399 269.795 421.7 269.562 422.001 269.319C422.002 268.862 422.008 267.619 422.01 267.151C422.012 266.652 422.007 265.472 422.019 264.983C421.72 264.737 421.432 264.502 421.013 264.256L421.023 264.256Z" fill="#292D33"/>
<path d="M415.168 261.839C414.728 262.06 414.417 262.303 414.096 262.536C414.074 263.067 413.949 264.363 413.906 264.916C413.864 265.436 413.748 266.786 413.706 267.296C413.985 267.584 414.263 267.882 414.632 268.182C415.052 267.95 415.363 267.717 415.694 267.485C415.736 266.985 415.842 265.625 415.894 265.105C415.946 264.552 416.032 263.256 416.104 262.725C415.825 262.437 415.557 262.138 415.168 261.839Z" fill="#292D33"/>
<path d="M406.704 259.4C406.294 259.664 406.003 259.929 405.712 260.193C405.74 260.714 405.744 261.979 405.762 262.521C405.77 263.031 405.794 264.349 405.802 264.849C406.111 265.105 406.409 265.351 406.818 265.608C407.219 265.344 407.51 265.079 407.8 264.815C407.803 264.326 407.768 262.997 407.76 262.487C407.763 261.945 407.718 260.691 407.73 260.159C407.432 259.903 407.133 259.657 406.704 259.4Z" fill="#292D33"/>
<path d="M399.969 257.539C399.549 257.771 399.258 258.004 398.957 258.236C398.975 258.704 398.95 259.862 398.948 260.351C398.946 260.819 398.941 262.02 398.939 262.466C399.238 262.701 399.537 262.937 399.935 263.172C400.336 262.94 400.637 262.707 400.938 262.475C400.939 262.028 400.945 260.817 400.947 260.36C400.949 259.871 400.943 258.723 400.966 258.245C400.667 258.01 400.378 257.775 399.959 257.539L399.969 257.539Z" fill="#292D33"/>
<path d="M389.293 253.68C388.902 253.965 388.631 254.23 388.36 254.494C388.428 254.962 388.523 256.11 388.581 256.6C388.629 257.057 388.744 258.258 388.792 258.705C389.121 258.908 389.43 259.101 389.858 259.294C390.229 259.019 390.5 258.744 390.781 258.48C390.743 258.033 390.618 256.832 390.57 256.374C390.522 255.885 390.397 254.747 390.369 254.269C390.051 254.066 389.732 253.862 389.293 253.68Z" fill="#292D33"/>
<path d="M382.726 251.845C382.375 252.173 382.124 252.448 381.873 252.702C382.001 253.308 382.038 253.925 382.055 254.542C382.063 255.158 382.02 255.785 381.928 256.39C382.196 256.647 382.445 256.913 382.793 257.223C383.234 257.087 383.564 256.918 383.895 256.718C383.998 255.985 384.051 255.241 384.044 254.508C384.047 253.764 383.95 253.03 383.843 252.296C383.505 252.114 383.176 251.942 382.716 251.834L382.726 251.845Z" fill="#292D33"/>
<path d="M375.559 250.382C375.148 250.635 374.857 250.889 374.557 251.143C374.584 251.632 374.589 252.854 374.597 253.365C374.605 253.854 374.62 255.108 374.628 255.586C374.936 255.832 375.235 256.067 375.634 256.313C376.034 256.06 376.325 255.806 376.626 255.552C376.628 255.084 376.603 253.82 376.596 253.331C376.598 252.81 376.563 251.609 376.575 251.109C376.276 250.863 375.978 250.628 375.559 250.382Z" fill="#292D33"/>
<path d="M260.578 213.671C260.168 213.818 259.877 213.966 259.587 214.113C259.616 214.379 259.623 215.049 259.632 215.325C259.64 215.591 259.658 216.282 259.666 216.537C259.976 216.666 260.275 216.784 260.674 216.903C261.074 216.756 261.365 216.608 261.655 216.46C261.656 216.205 261.619 215.514 261.62 215.249C261.622 214.962 261.574 214.313 261.596 214.037C261.296 213.908 260.997 213.79 260.578 213.671Z" fill="#292D33"/>
<path d="M257.629 211.43L256.677 212.064C256.773 213.032 256.609 214.02 256.295 214.932L257.031 215.818C257.69 215.799 258.3 215.855 258.363 215.058C258.657 214.039 258.732 212.966 258.696 211.903C258.387 211.71 258.068 211.539 257.629 211.42L257.629 211.43Z" fill="#292D33"/>
<path d="M252.768 210.651C252.347 210.82 252.057 210.978 251.756 211.136C251.775 211.455 251.772 212.252 251.77 212.581C251.769 212.9 251.765 213.719 251.774 214.027C252.083 214.188 252.372 214.348 252.771 214.499C253.172 214.33 253.462 214.172 253.773 214.014C253.774 213.706 253.767 212.888 253.769 212.569C253.77 212.229 253.753 211.453 253.775 211.123C253.476 210.962 253.177 210.802 252.768 210.651Z" fill="#292D33"/>
<path d="M247.863 209.892C247.443 209.986 247.143 210.081 246.843 210.186C246.852 210.409 246.809 210.972 246.808 211.216C246.807 211.44 246.765 212.024 246.764 212.247C247.063 212.376 247.353 212.505 247.742 212.645C248.152 212.551 248.452 212.456 248.752 212.351C248.763 212.139 248.785 211.544 248.796 211.321C248.807 211.076 248.82 210.524 248.851 210.29C248.562 210.161 248.272 210.032 247.853 209.892L247.863 209.892Z" fill="#292D33"/>
<path d="M243.755 208.031C243.305 208.007 242.955 208.091 242.615 208.217C242.452 208.875 242.379 209.555 242.476 210.236C242.544 210.683 242.583 210.927 242.563 210.959C242.573 210.906 242.573 210.906 242.614 210.853C242.863 211.013 243.101 211.355 242.889 211.779C243.007 212.247 243.586 212.409 244.046 212.326C244.307 212.029 244.458 211.69 244.53 211.297C244.635 210.213 244.326 210.021 244.449 209.192C244.641 208.63 244.232 208.681 243.745 208.031L243.755 208.031Z" fill="#292D33"/>
<path d="M237.857 206.239C237.226 206.693 236.766 206.713 236.942 207.542C236.98 208.148 237.064 209.382 237.112 209.998C237.141 210.232 237.11 210.381 237.151 210.158C237.331 210.116 237.551 210.053 237.68 210.235C237.79 210.352 237.838 210.629 237.618 210.723C237.536 211.307 238.464 211.46 238.816 211.079C239.276 210.826 239.071 209.9 239.101 209.858C239.063 209.252 238.979 208.019 238.931 207.402C238.995 206.552 238.535 206.603 237.857 206.25L237.857 206.239Z" fill="#292D33"/>
<path d="M232.509 204.478C232.089 204.583 231.779 204.699 231.479 204.814C231.478 205.08 231.425 205.749 231.414 206.026C231.402 206.291 231.35 206.982 231.338 207.237C231.638 207.398 231.917 207.548 232.306 207.709C232.716 207.604 233.016 207.489 233.326 207.373C233.347 207.118 233.39 206.427 233.401 206.162C233.423 205.875 233.445 205.216 233.486 204.95C233.197 204.79 232.908 204.64 232.509 204.468L232.509 204.478Z" fill="#292D33"/>
<path d="M226.913 202.205C226.502 202.427 226.202 202.638 225.911 202.86C225.939 203.285 225.925 204.348 225.933 204.794L225.938 206.049C225.947 206.187 225.877 206.176 226.028 205.964C226.397 205.997 226.615 206.572 226.214 206.773C226.142 207.399 226.98 207.658 227.49 207.405C227.922 206.865 227.904 206.397 227.926 206.11C227.928 205.462 227.914 204.144 227.907 203.496C228.03 202.635 227.571 202.623 226.903 202.216L226.913 202.205Z" fill="#292D33"/>
<path d="M217.543 199.421C217.152 199.653 216.881 199.865 216.601 200.076C216.659 200.427 216.745 201.299 216.794 201.661C216.832 202.012 216.938 202.905 216.977 203.245C217.296 203.385 217.615 203.524 218.034 203.643C218.415 203.411 218.686 203.199 218.966 202.988C218.928 202.658 218.822 201.744 218.783 201.404C218.745 201.031 218.629 200.181 218.61 199.819C218.291 199.68 217.982 199.54 217.553 199.421L217.543 199.421Z" fill="#292D33"/>
<path d="M221.843 200.94C221.412 201.066 221.112 201.203 220.802 201.34C220.8 201.659 220.727 202.456 220.706 202.785C220.684 203.104 220.621 203.922 220.6 204.23C220.889 204.412 221.168 204.604 221.556 204.797C221.967 204.672 222.277 204.535 222.587 204.398C222.609 204.09 222.672 203.261 222.693 202.953C222.725 202.613 222.768 201.827 222.809 201.508C222.52 201.326 222.242 201.133 221.843 200.94Z" fill="#292D33"/>
<path d="M212.843 197.901C212.442 198.08 212.152 198.259 211.871 198.428C211.91 198.726 211.947 199.47 211.975 199.778C212.004 200.076 212.051 200.841 212.069 201.128C212.379 201.257 212.688 201.386 213.097 201.505C213.487 201.326 213.768 201.146 214.058 200.977C214.04 200.69 213.983 199.914 213.964 199.627C213.946 199.308 213.879 198.575 213.88 198.277C213.571 198.148 213.272 198.019 212.842 197.911L212.843 197.901Z" fill="#292D33"/>
<path d="M207.881 196.78C207.481 196.98 207.2 197.17 206.92 197.36C206.968 197.679 207.025 198.477 207.054 198.806C207.082 199.125 207.149 199.944 207.177 200.252C207.496 200.381 207.806 200.51 208.215 200.64C208.595 200.439 208.876 200.249 209.166 200.059C209.138 199.751 209.061 198.932 209.043 198.613C209.014 198.273 208.938 197.497 208.929 197.167C208.62 197.038 208.311 196.899 207.881 196.78Z" fill="#292D33"/>
<path d="M203.3 195.497C202.9 195.708 202.629 195.898 202.348 196.089C202.407 196.397 202.474 197.163 202.512 197.492C202.551 197.801 202.638 198.598 202.666 198.896C202.985 199.014 203.295 199.132 203.714 199.24C204.094 199.029 204.365 198.839 204.656 198.649C204.627 198.352 204.53 197.554 204.502 197.246C204.473 196.916 204.367 196.161 204.358 195.842C204.049 195.724 203.739 195.606 203.3 195.497Z" fill="#292D33"/>
<path d="M197.756 193.002C197.336 193.149 197.035 193.297 196.735 193.444C196.744 193.763 196.7 194.56 196.689 194.89C196.688 195.208 196.644 196.027 196.633 196.335C196.932 196.506 197.221 196.677 197.61 196.86C198.02 196.713 198.32 196.565 198.631 196.418C198.642 196.11 198.666 195.281 198.687 194.972C198.698 194.632 198.712 193.846 198.753 193.527C198.464 193.356 198.175 193.185 197.766 193.002L197.756 193.002Z" fill="#292D33"/>
<path d="M191.73 190.842C191.349 191.106 191.078 191.36 190.817 191.603C190.895 192.007 191.011 193.007 191.079 193.422C191.137 193.826 191.273 194.857 191.331 195.24C191.66 195.401 191.979 195.551 192.398 195.691C192.769 195.427 193.03 195.184 193.301 194.93C193.253 194.547 193.107 193.505 193.049 193.111C192.991 192.686 192.845 191.697 192.807 191.293C192.488 191.132 192.169 190.982 191.73 190.842Z" fill="#292D33"/>
<path d="M187.25 189.347C186.83 189.483 186.529 189.62 186.219 189.767C186.218 190.076 186.174 190.841 186.163 191.17C186.162 191.478 186.108 192.275 186.097 192.573C186.396 192.744 186.685 192.916 187.074 193.087C187.484 192.951 187.785 192.814 188.095 192.666C188.106 192.369 188.14 191.572 188.161 191.264C188.182 190.934 188.196 190.18 188.237 189.861C187.948 189.69 187.659 189.519 187.25 189.347Z" fill="#292D33"/>
<path d="M182.009 188.097L181.097 188.731C181.214 189.379 181.171 190.07 181.029 190.707C180.767 191.259 181.375 191.41 181.723 191.869C182.153 191.881 182.483 191.819 182.833 191.746C183.167 190.674 183.232 189.526 183.097 188.399C182.778 188.259 182.449 188.141 182.009 188.086L182.009 188.097Z" fill="#292D33"/>
<path d="M164.485 183.029C164.055 183.155 163.755 183.291 163.444 183.418C163.443 183.726 163.38 184.502 163.358 184.82C163.337 185.128 163.284 185.925 163.263 186.223C163.552 186.405 163.841 186.576 164.229 186.769C164.64 186.643 164.94 186.506 165.26 186.38C165.282 186.083 165.335 185.286 165.356 184.978C165.378 184.648 165.421 183.894 165.462 183.575C165.173 183.393 164.894 183.222 164.485 183.029Z" fill="#292D33"/>
<path d="M160.916 181.146C160.506 181.347 160.215 181.547 159.914 181.748C159.943 182.131 159.949 183.077 159.957 183.47C159.965 183.853 159.981 184.831 159.99 185.192C160.299 185.374 160.597 185.556 160.996 185.738C161.397 185.538 161.688 185.337 161.988 185.137C161.99 184.775 161.954 183.787 161.956 183.415C161.957 183.011 161.911 182.075 161.933 181.693C161.634 181.511 161.335 181.329 160.916 181.146Z" fill="#292D33"/>
<path d="M151.804 178.616C151.494 178.785 151.224 178.954 150.993 179.123C150.883 179.207 150.693 179.292 150.792 179.377C150.791 179.537 150.787 180.493 150.787 180.674L150.768 182.746L151.631 181.708C151.541 181.719 151.301 181.76 151.202 181.77C151.142 181.717 151.112 181.791 151.071 181.876C150.92 182.194 150.769 182.523 150.627 182.926C150.865 183.278 151.094 183.545 151.323 183.812C151.382 183.886 151.432 183.95 151.472 183.876C151.562 183.876 151.802 183.824 151.892 183.814C152.392 183.742 152.754 183.286 152.756 182.776C152.76 181.947 152.777 180.225 152.79 179.418C152.891 179.333 152.701 179.247 152.602 179.162C152.382 178.991 152.103 178.809 151.804 178.637L151.804 178.616Z" fill="#292D33"/>
<path d="M147.431 177.865L146.589 178.594C146.816 179.35 146.872 180.179 146.829 180.966L147.786 181.49C148.196 181.386 148.506 181.249 148.827 181.102C148.891 180.071 148.765 179.029 148.53 178.018C148.201 177.942 147.871 177.866 147.431 177.865Z" fill="#292D33"/>
<path d="M144.36 176.336C143.94 176.451 143.64 176.577 143.34 176.693C143.348 176.959 143.306 177.628 143.304 177.904C143.303 178.17 143.26 178.861 143.259 179.116C143.558 179.266 143.847 179.416 144.247 179.566C144.657 179.451 144.957 179.325 145.257 179.209C145.268 178.954 145.291 178.264 145.302 177.998C145.314 177.711 145.326 177.052 145.357 176.787C145.068 176.636 144.779 176.486 144.36 176.336Z" fill="#292D33"/>
<path d="M140.584 175.82C140.174 175.967 139.884 176.114 139.593 176.262C139.622 176.528 139.629 177.197 139.638 177.474C139.647 177.739 139.664 178.43 139.673 178.685C139.982 178.814 140.281 178.932 140.681 179.051C141.081 178.904 141.371 178.756 141.662 178.609C141.663 178.354 141.626 177.663 141.627 177.397C141.628 177.11 141.581 176.461 141.602 176.185C141.303 176.056 141.004 175.938 140.584 175.82Z" fill="#292D33"/>
<path d="M137.552 174.822C137.151 175.033 136.871 175.223 136.59 175.413C136.639 175.743 136.695 176.561 136.724 176.901C136.752 177.231 136.819 178.082 136.847 178.401C137.166 178.54 137.476 178.68 137.885 178.798C138.265 178.598 138.546 178.397 138.837 178.207C138.808 177.888 138.732 177.038 138.713 176.708C138.685 176.357 138.608 175.549 138.599 175.209C138.29 175.069 137.981 174.93 137.552 174.811L137.552 174.822Z" fill="#292D33"/>
<path d="M255.768 125.157C253.28 120.523 248.354 118.227 244.359 115.415C220.696 96.9689 193.869 110.842 179.757 134.951C163.365 162.049 160.356 195.218 160.332 226.626C160.333 247.543 160.684 268.377 161.444 289.265C162.772 268.428 163.501 247.535 164.229 226.717C165.418 196.143 168.252 164.142 183.743 137.626C196.6 114.722 220.468 101.219 243.644 116.666C247.93 119.203 252.779 120.797 255.768 125.157Z" fill="#292D33"/>
<path d="M173.875 293.834C172.757 251.198 177.125 208.67 187.671 167.603C189.429 160.723 191.027 153.907 193.632 147.679C196.087 141.174 200.694 136.315 204.923 131.21C213.269 121.084 226.985 117.221 239.172 120.281C243.813 121.363 248.181 123.497 252.096 126.33C256.14 129.121 259.465 132.218 261.492 137.009C273.637 159.477 276.056 199.164 304.737 205.281C308.092 205.816 311.55 205.629 314.742 204.548C301.189 207.806 289.025 196.913 283.272 184.697C275.515 168.955 272.914 150.897 265.218 134.985C263.764 131.535 261.53 128.167 258.772 125.806C248.124 115.78 232.994 111.454 219.207 115.827C214.074 117.442 209.187 120.068 205.055 123.685C201.072 127.356 197.996 131.712 194.541 135.842C188.109 144.658 185.613 155.988 183.11 166.34C173.102 207.813 169.679 251.334 173.884 293.856L173.875 293.834Z" fill="#292D33"/>
<path d="M294.232 206.215L296.607 207.012C296.796 207.076 296.918 206.768 296.728 206.683C289.081 202.664 282.602 196.685 277.467 189.52C267.047 175.053 261.525 157.705 253.53 141.674C249.528 133.58 244.755 125.747 238.627 119.333C257.055 144.474 260.198 180.689 285.093 200.628C288.629 203.332 292.507 205.496 296.567 207.001L296.668 206.661L294.212 206.215L294.232 206.215Z" fill="#292D33"/>
<path d="M350.076 213.634C332.08 209.072 314.389 203.193 297.214 195.903L297.316 197.647L305.289 193.142C307.993 191.655 309.752 189.133 312.89 189.083C326.259 189.182 339.552 192.916 351.981 197.986C356.161 199.598 359.985 202.612 364.317 203.64C364.537 203.641 364.807 203.599 365.028 203.324L364.151 202.629C363.145 204.262 360.937 204.327 359.622 205.629C358.477 206.92 356.733 208.39 355.469 209.522C353.011 211.808 349.058 215.575 346.055 212.246C349.693 216.651 354.925 210.508 358.062 208.258C359.576 207 360.601 205.686 362.562 205.173C363.452 204.837 364.424 204.225 365.028 203.324L364.151 202.629C364.342 202.386 364.402 202.503 364.332 202.471C361.617 201.662 359.176 199.994 356.654 198.654C348.58 194.156 339.759 191.344 330.885 189.276C324.875 188.082 318.865 186.749 312.699 186.977C309.422 186.985 306.922 189.823 304.387 191.364L296.444 195.953C296.003 196.206 295.831 196.79 296.079 197.259C296.188 197.461 296.357 197.622 296.547 197.697C300.875 199.48 305.235 201.188 309.635 202.748C322.854 207.375 336.347 211.131 350.066 213.634L350.076 213.634Z" fill="#292D33"/>
<path d="M346.72 206.206C347.943 205.457 349.407 206.568 348.952 207.842C348.355 209.604 344.144 210.574 343.224 208.445C342.7 207.167 344.054 205.887 345.229 206.901C344.993 206.039 343.865 205.588 342.924 206.031C341.963 206.537 341.518 207.736 341.693 208.821C342.053 211.086 344.487 212.064 346.327 211.7C348.097 211.42 350.2 210.345 350.469 208.167C350.644 207.084 350.049 205.87 349.092 205.462C348.164 205.043 347.113 205.453 346.721 206.196L346.72 206.206Z" fill="#292D33"/>
<path d="M353.367 200.846C354.256 200.786 354.712 201.744 354.16 202.348C353.708 202.888 353.048 202.885 352.359 202.797C351.68 202.677 351.062 202.462 350.755 201.834C350.408 201.173 350.921 200.399 351.699 200.552C351.55 200.391 351.968 200.787 351.968 200.765L351.91 200.361C351.523 199.775 350.654 199.676 350.023 200.087C348.6 201.006 349.04 203.304 350.265 204.159C350.833 204.608 351.471 204.813 352.091 204.9C352.7 204.977 353.379 204.959 354.03 204.675C355.411 204.192 356.339 202.017 355.095 200.864C354.568 200.394 353.729 200.348 353.367 200.856L353.367 200.846Z" fill="#292D33"/>
<path d="M314.499 191.369C315.02 191.116 315.762 190.63 316.27 190.866C316.619 191.027 316.777 191.453 316.586 191.793C316.365 192.11 316.215 192.195 315.555 192.235C314.855 192.285 314.195 192.367 313.666 192.29C312.617 192.211 311.801 191.464 311.596 190.39C311.508 189.89 311.611 189.231 311.912 188.914C312.123 188.553 312.932 188.663 313.289 189.387C313.383 188.431 312.367 187.576 311.436 188.008C309.583 189.021 309.712 191.742 310.995 193.161C312.148 194.601 314.296 194.599 315.806 194.234C317.405 194.113 318.863 192.164 317.74 190.575C316.637 189.157 315.115 190.054 314.489 191.39L314.499 191.369Z" fill="#292D33"/>
<path d="M306.722 194.463C307.332 194.285 307.76 194.67 307.968 195.064C308.523 196.225 306.96 197.292 306.001 197.213C305.391 197.147 305.343 196.892 305.705 196.351C306.407 195.589 307.434 196.114 308.231 196.659C307.751 194.521 304.926 193.871 303.898 195.993C303.062 197.509 304.313 199.332 305.872 199.338C308.228 199.678 310.871 196.182 308.641 194.312C308.083 193.885 307.104 193.806 306.722 194.474L306.722 194.463Z" fill="#292D33"/>
<path d="M539.403 270.229C542.597 252.174 545.761 234.15 548.626 216.03C551.381 197.909 553.378 179.392 551.849 160.796C549.548 123.873 527.138 83.4627 489.352 80.464C472.611 78.9685 455.231 84.6871 442.571 96.4841C414.641 122.735 418.773 168.413 394.441 197.081C386.065 207.164 373.556 213.828 360.722 212.583C356.467 212.246 352.276 210.889 348.508 208.662C359.707 216.331 374.781 214.748 385.903 207.589C397.325 200.346 405.26 188.221 410.789 175.66C422.361 149.488 425.507 116.935 448.079 98.1869C467.812 82.1047 497.613 80.8393 517.457 97.2919C525.782 103.938 532.449 112.895 537.293 122.673C551.58 151.144 549.99 184.426 546.21 215.648C544.004 233.824 541.528 252.01 539.403 270.218L539.403 270.229Z" fill="#292D33"/>
<path d="M547.392 261.787C550.13 245.228 552.669 228.637 555.317 212.068C560.753 179.28 564.893 143.161 549.306 112.59C541.796 97.4865 528.951 84.7943 513.273 80.1466C505.58 77.7011 497.622 76.3599 489.681 75.7203C481.621 74.825 473.295 75.5123 465.787 78.9559C450.52 85.6401 441.339 101.703 435.437 117.334C426.606 140.435 424.773 167.35 408.365 186.401C405.753 189.536 402.933 192.468 400.083 195.379L395.808 199.74C394.383 201.126 392.709 202.5 390.68 202.524C392.718 202.586 394.473 201.264 395.957 199.921L400.391 195.731C406.271 190.091 412.061 184.185 416.368 177.039C418.522 173.467 420.386 169.712 422.021 165.85C428.412 150.423 431.421 133.707 437.572 118.247C445.097 99.1579 457.055 80.8638 477.908 78.6143C481.757 78.1098 485.593 78.4131 489.458 78.7378C497.259 79.4088 504.977 80.7809 512.421 83.1721C535.474 89.8494 550.132 113.306 555.037 137.145C560.628 161.732 557.302 187.046 553.87 211.817C551.71 228.474 549.451 245.109 547.382 261.766L547.392 261.787Z" fill="#292D33"/>
<path d="M394.634 196.155C384.026 202.445 372.31 205.966 360.178 206.52C372.247 209.005 385.564 204.981 394.634 196.155Z" fill="#292D33"/>
</svg>
