<svg width="700" height="500" viewBox="0 0 700 500" fill="none" xmlns="http://www.w3.org/2000/svg">
<path d="M91 425C262.861 407.453 437.616 406.878 609.586 423.379C437.072 414.593 263.455 415.104 91 425Z" fill="white"/>
<path d="M253.07 376.117C254.438 383.571 253.935 392.298 261.558 396.547C301.305 399.707 340.349 397.895 380.059 398.565C400.193 396.404 420.399 399.225 440.524 396.442C444.925 395.755 448.678 393.833 450.514 390.069C452.02 386.977 450.374 379.116 450.336 375.604C450.28 370.46 450.237 365.316 450.181 360.166C450.077 349.904 449.966 339.641 449.76 329.38C449.554 319.088 449.253 308.797 448.789 298.515C448.567 293.636 449.638 290.12 443.656 290.007C434.283 289.832 423.834 300.64 416.578 305.634C407.119 312.143 397.666 318.658 388.207 325.166C377.008 332.877 364.515 340.949 350.929 339.646C341.968 338.785 333.982 333.912 326.364 329.165C304.8 315.738 283.237 302.306 261.673 288.873C259.466 287.504 256.906 286.071 254.402 286.786C250.122 288.007 253.489 296.372 253.545 299.417C253.677 306.309 253.266 313.204 253.379 320.103C253.542 329.58 253.805 339.061 253.836 348.54C253.865 357.085 251.538 367.819 253.064 376.117L253.07 376.117Z" fill="white"/>
<path d="M330.423 336.287C314.534 352.393 297.185 367.833 279.972 382.457C274.172 387.348 268.309 392.169 262.286 396.792L259.692 393.627C270.611 383.383 282.592 373.387 294.172 363.876C299.394 359.68 306.762 353.736 312.011 349.739C318.018 345.1 324.089 340.532 330.32 336.169L330.416 336.288L330.423 336.287Z" fill="#292D33"/>
<path d="M384.723 333.224C398.664 350.149 413.792 365.896 430.597 379.987C436.136 384.716 441.784 389.372 447.286 394.236L444.75 397.403C429.765 386.675 415.532 374.595 403.6 360.489C396.448 352.033 389.949 342.979 384.598 333.305L384.722 333.216L384.723 333.224Z" fill="#292D33"/>
<path d="M313.576 295.987C321.198 297.26 330.242 300.049 337.054 295.078C337.362 294.842 337.762 294.82 338.084 294.992C341.976 297.071 347.034 296.854 350.741 294.496C351.027 294.316 351.362 294.271 351.667 294.355C357.671 295.995 364.289 295.259 369.796 292.364C370.327 292.06 371.001 292.258 371.289 292.79C371.747 296.295 376.725 298.247 379.386 295.928C379.78 295.579 380.422 295.697 380.66 296.166C382.059 298.873 386.317 299.716 388.711 297.745C388.9 297.558 389.22 297.57 389.383 297.783C389.456 297.87 389.49 297.982 389.483 298.086C389.41 300.735 392.33 303.084 394.992 302.478C392.169 303.519 388.696 301.137 388.548 298.099L389.329 298.44C387.949 299.788 385.909 300.297 384.019 300.037C382.08 299.777 380.194 298.732 379.177 296.995L380.484 297.208C376.911 300.572 370.154 298.334 369.244 293.508L370.847 294.276C367.889 295.967 364.57 296.999 361.186 297.4C357.802 297.817 354.336 297.548 351.052 296.603L351.993 296.47C347.556 299.246 341.689 299.339 337.166 296.741L338.236 296.669C330.746 301.73 321.384 298.466 313.584 295.971L313.576 295.987Z" fill="#292D33"/>
<path d="M261.39 286.206C269.619 289.871 277.341 294.668 284.936 299.42C292.087 304.792 299.22 309.984 306.788 314.524C314.348 319.103 322.211 323.222 330.199 327.158C334.192 329.13 338.217 331.046 342.25 332.97C348.173 335.693 353.699 338.886 360.111 338.596C366.503 338.126 371.619 334.362 377.096 330.86L399.548 316.207L421.999 301.554C429.883 297.27 437.751 292.97 445.757 288.873C438.797 294.545 431.699 300.013 424.61 305.498L402.158 320.15L379.707 334.803C375.983 337.21 372.167 339.861 367.633 341.65C357.797 345.813 348.812 341.451 340.194 337.233C336.154 335.309 332.105 333.377 328.079 331.398C313.943 324.514 300.079 316.675 287.475 307.212C278.325 300.767 270.525 292.729 261.39 286.213L261.39 286.206Z" fill="#292D33"/>
<path d="M296.55 198.424H444.848C446.924 202.438 441.892 223.579 439.246 246.869C437.214 264.752 437.607 283.901 437.508 297.54V305.051L351.5 353.516L267.54 305.051C267.635 289.959 272.413 267.771 273.497 246.869C274.995 217.983 270.534 193.158 276.201 193.158C285.269 193.158 295.639 193.419 296.55 198.424Z" fill="#FEDC00"/>
<path d="M146.765 276.386C151.76 268.353 201.827 240.502 201.827 240.502L273.871 320.041L217.388 364.996C217.388 364.996 141.771 284.42 146.765 276.386Z" fill="white"/>
<path d="M235.385 351.72C233.217 353.93 228.831 358.35 226.641 360.532C224.744 362.454 222.303 364.428 219.379 364.208C216.461 363.96 214.229 361.764 212.417 359.725C210.354 357.413 208.43 354.951 206.346 352.704C193.338 338.455 178.02 320.972 165.163 306.353C162.523 303.3 155.553 295.267 152.992 292.297C145.799 284.451 140.912 277.165 150.751 268.706C153.636 266.161 158.267 263.98 161.528 262.023C163.303 260.993 165.063 259.942 166.831 258.884C177.449 252.5 187.739 245.428 198.974 240.103C191.935 244.462 185.234 249.269 178.519 254.097C173.456 257.693 168.38 261.323 163.115 264.645C158.21 267.913 149.992 271.546 149.044 277.925C148.948 280.586 150.387 282.815 152.081 284.997C156.578 290.251 163.738 298.261 168.362 303.556C179.093 315.885 190.137 328.783 200.531 341.336C203.166 344.524 205.829 347.682 208.443 350.891C211.069 354.001 213.328 357.625 216.1 360.492C219.361 363.918 222.686 362.484 225.857 359.673C229.002 356.99 232.197 354.355 235.392 351.72L235.385 351.72Z" fill="#292D33"/>
<path d="M202.426 238.019C211.959 246.2 220.549 255.264 228.916 264.579C237.206 273.959 245.223 283.541 252.234 293.965C242.695 285.791 234.105 276.72 225.745 267.404C217.461 258.017 209.444 248.436 202.426 238.019Z" fill="#292D33"/>
<path d="M195.362 253.799C199.177 267.783 201.512 282.108 203.465 296.452C203.902 298.305 204.061 302.038 204.963 304.281L204.522 303.629C204.566 303.678 204.573 303.699 204.708 303.754C205.731 304.043 206.811 303.887 208.169 304.362C210.969 305.722 212.75 307.529 215.625 308.223C220.223 309.713 224.042 312.593 228.538 314.269C224.784 313.955 221.147 312.444 217.588 311.448C215.74 310.867 213.822 310.816 211.994 310.093C210.059 309.35 208.432 308.347 206.852 307.684L207.086 307.78C206.22 307.552 204.794 307.77 203.629 307.433C202.905 307.267 202.091 306.762 201.538 306.162C200.131 303.261 199.921 299.947 199.298 296.985C197.233 282.664 195.548 268.281 195.362 253.784L195.362 253.799Z" fill="#292D33"/>
<path d="M268.08 272.015C260.659 277.611 254.381 284.371 255.403 294.248L255.559 296.754C255.877 301.766 256.394 311.776 256.697 316.789C257.197 323.418 257.16 339.971 257.347 346.856C257.459 353.491 257.73 370.511 257.839 376.926C258.021 382.412 257.279 390.263 261.502 394.149C262.016 394.605 262.623 394.942 263.268 395.177C313.983 394.929 385.617 395.132 436.136 394.965C440.301 394.85 444.992 393.901 446.898 389.902L446.66 390.96L446.351 363.12C446.284 349.203 445.758 335.308 446.158 321.4C446.277 312.112 446.349 302.856 446.301 293.562C446.564 288.793 442.839 285.34 440.22 281.746C443.343 285.144 447.542 288.504 447.726 293.518C448.628 302.752 449.397 312.035 449.991 321.305C451.115 330.584 451.247 380.608 451.42 390.898C451.425 391.276 451.336 391.639 451.182 391.955C450.297 393.785 448.888 395.456 447.202 396.645C442.474 399.961 436.577 399.716 431.175 399.716L410.976 399.734C373.922 399.776 305.586 399.792 268.326 399.829C265.996 399.761 263.471 400.442 261.167 399.422C256.283 397.441 254.161 392.046 253.498 387.322C253.033 384.191 253.195 380.115 253.087 377.011C252.979 370.667 252.699 353.505 252.595 346.941C252.558 339.99 251.98 323.62 252.254 316.869C252.404 311.889 252.59 301.79 252.732 296.811C252.415 284.25 257.835 278.423 268.08 272.023L268.08 272.015Z" fill="#292D33"/>
<path d="M267.911 286.813C268.364 277.227 269.838 267.698 270.655 258.155C270.588 255.713 270.426 252.12 270.969 249.303C271.15 244.901 270.79 239.138 270.388 234.251C269.473 224.009 268.098 213.646 269.512 203.307C269.946 200.555 270.171 197.545 271.931 195.212C273.75 192.656 276.696 190.942 279.772 190.547C282.646 190.41 286.053 190.504 288.706 192.049C295.984 195.364 304.124 195.541 312.141 195.91C323.121 196.275 334.093 196.649 345.078 196.816C369.482 197.274 394.762 197.01 419.207 196.425C421.671 196.373 429.047 196.099 431.487 196.032C436.552 195.497 443.074 193.072 446.745 198.301C448.68 200.986 449.324 204.477 448.564 207.695C448.306 208.924 447.639 212.529 447.373 213.822C445.347 223.892 442.182 240.463 440.115 250.493C438.079 259.935 438.9 269.661 438.723 279.275C438.716 282.051 438.685 284.821 438.575 287.599C438.516 288.992 438.457 290.353 438.359 291.763C438.275 292.496 437.818 293.131 437.255 293.537C436.692 293.959 436.048 294.215 435.436 294.526C436.032 294.176 436.659 293.872 437.174 293.435C437.698 293.006 438.06 292.396 438.098 291.735C438.11 290.374 438.089 288.966 438.054 287.591C437.862 279.271 437.141 271.007 437.005 262.672C436.897 258.528 437.063 254.182 437.817 250.073L438.485 245.974L441.178 229.577C441.681 226.626 444.151 211.745 444.611 209.105C444.73 208.084 445.179 206.32 445.164 205.286C445.171 203.105 444.156 200.662 442.609 199.65C440.616 198.47 438.366 199.131 436.08 199.482C434.749 199.732 433.362 200.039 431.8 200.173L427.631 200.376C400.139 201.674 372.484 202.139 344.98 201.504C333.962 201.25 322.951 200.932 311.945 200.344C303.626 199.852 294.724 199.464 286.934 195.71C284.758 194.421 282.404 194.432 279.821 194.453L280.097 194.433C278.031 194.726 276.119 195.788 274.902 197.413C274.298 198.233 273.868 199.13 273.662 200.167C273.442 201.316 273.176 202.617 272.972 203.829C270.576 218.949 274.157 234.308 272.917 249.545C272.311 252.434 272.242 255.363 272.23 258.331C270.978 267.873 268.981 277.258 267.903 286.813L267.911 286.813Z" fill="#292D33"/>
<path d="M312.634 230.87C317.175 226.805 323.672 225.747 329.21 227.729C331.093 228.395 332.909 229.396 334.518 230.768L334.334 230.645C336.897 231.815 339.746 232.088 342.449 231.554C345.153 231.046 347.734 229.721 349.768 227.701C350.227 227.244 350.924 227.297 351.327 227.823C351.455 227.983 351.529 228.171 351.572 228.377C351.749 229.167 352.203 229.908 352.795 230.44C354.568 232.234 357.514 231.029 358.118 228.535C358.37 227.351 359.91 227.239 360.313 228.35C360.313 228.359 361.577 231.538 361.577 231.556L360.159 230.811C364.242 229.455 369.983 227.516 374.027 226.214C374.302 226.129 374.588 226.17 374.827 226.32C377.682 228.107 381.052 228.796 384.31 228.389C387.932 228.516 395.264 228.842 398.886 229.033C403.103 229.278 409.288 229.621 413.459 229.974C406.753 230.297 398.338 230.446 391.581 230.535L384.286 230.578C381.403 231.196 376.878 230.442 373.8 228.541L374.631 228.637C372.343 229.454 370.039 230.235 367.742 231.025L360.845 233.394C360.271 233.592 359.665 233.258 359.427 232.65L358.179 229.452L360.382 229.285C358.679 235.569 350.851 235.386 349.422 228.967L351.226 229.634C346.345 234.253 339.185 235.357 333.52 232.269C327.712 226.922 319.019 226.418 312.649 230.878L312.634 230.87Z" fill="#292D33"/>
<path d="M315.128 253.478C315.076 250.478 317.131 247.446 320.208 246.347C320.342 246.299 320.486 246.32 320.598 246.403C324.335 249.141 329.839 249.364 333.747 246.949C334.432 246.497 335.349 247.229 335.066 247.962C334.823 248.78 335.067 249.707 335.635 250.474C337.693 253.197 341.192 252.681 344.469 252.231L358.592 250.374C368.028 249.19 377.472 248.091 386.942 247.116C387.379 247.071 387.773 247.383 387.819 247.809L388.107 250.713L387.161 250.13C390.098 249.273 393.051 248.439 396.004 247.621C398.675 248.14 401.326 248.94 403.983 249.599C401.704 249.229 397.714 248.767 396.23 248.385C393.367 249.435 390.497 250.469 387.618 251.481C387.246 251.61 386.838 251.422 386.705 251.059C386.689 251.005 386.672 250.951 386.663 250.889L386.2 248.011L387.116 248.704C377.732 250.135 368.323 251.442 358.904 252.665L344.771 254.413C342.302 254.697 339.667 254.991 337.213 254.065C334.583 253.064 332.444 250.288 333.365 247.428L334.683 248.44C330.117 251.012 324.004 250.457 320.068 247.101L320.49 247.181C317.727 247.942 315.442 250.503 315.136 253.486L315.128 253.478Z" fill="#292D33"/>
<path d="M315.703 281.028C314.391 276.419 320.037 271.831 324.256 273.922C324.464 274.024 324.586 274.24 324.581 274.466C324.641 275.843 325.295 277.172 326.269 278.133C329.331 281.386 334.607 279.27 335.125 275.014C335.177 274.199 336.178 273.765 336.788 274.272C340.947 277.155 346.388 276.487 351.297 276.368C353.906 276.257 356.515 276.211 359.124 276.133C361.741 276.063 364.358 275.977 366.976 275.939C367.238 275.935 367.477 276.028 367.662 276.179C369.033 277.223 371.173 277.619 372.937 277.803C374.756 277.946 376.883 277.964 378.497 277.166C378.945 276.886 379.551 277.094 379.733 277.592L381.119 281.223L380.231 280.761C386.101 279.563 391.979 278.398 397.882 277.385C392.148 279.137 386.372 280.728 380.587 282.287C380.215 282.389 379.831 282.177 379.699 281.824L378.133 278.268L379.368 278.693C377.275 279.844 375.055 279.925 372.8 279.845C370.505 279.644 368.342 279.345 366.315 277.931L367.024 278.171C364.416 278.306 361.807 278.392 359.198 278.486C356.589 278.572 353.981 278.699 351.372 278.761C346.09 278.87 340.164 279.456 335.544 275.983L337.207 275.242C336.45 281.065 329.024 283.745 325.181 279.173C324.044 277.9 323.329 276.201 323.367 274.459L323.692 275.003C320.069 272.967 314.969 276.895 315.703 281.02L315.703 281.028Z" fill="#292D33"/>
<path d="M388.716 149.984C396.707 146.807 404.699 143.63 412.682 140.449C436.636 130.919 460.598 121.393 484.556 111.855C489.466 109.907 494.891 108.019 498.13 111.24C500.246 113.345 501.008 117.294 501.695 121.079C503.976 133.579 506.253 146.087 508.526 158.583C509.001 161.18 509.352 164.4 507.775 167.245C506.412 169.684 504.248 170.664 502.36 171.387C468.893 184.132 435.419 196.875 401.944 209.617C398.439 210.956 394.757 212.289 391.884 211.079C386.624 208.859 386.084 199.286 386.165 190.758C386.301 176.433 386.735 161.936 387.482 147.321" fill="white"/>
<path d="M388.716 149.984C420.06 136.185 451.766 123 483.428 109.948C486.159 108.831 489.124 107.631 492.204 107.303C499.414 106.415 502.44 112.017 503.563 118.126C505.076 125.611 508.464 144.12 509.922 151.877C510.914 157.866 513.506 165.397 508.548 170.591C506.789 172.497 504.403 173.442 502.673 174.078C477.457 183.545 442.049 197.03 417.08 206.057L406.35 209.977C403.005 211.088 398.607 213.171 394.88 213.28C389.817 213.618 386.675 209.174 385.817 204.768C384.909 200.806 384.839 196.904 384.87 193.054C385.308 177.742 386.133 162.524 387.482 147.322C387.299 162.567 387.164 177.832 387.46 193.018C387.574 196.767 387.806 200.555 388.747 203.999C390.49 210.487 393.991 210.836 399.734 208.499L405.02 206.421C433.886 194.915 471.477 180.383 500.824 169.16C506.45 167.544 506.986 163.617 505.891 158.43L504.882 152.804L500.866 130.297L499.889 124.664C499.235 121.235 498.855 117.281 497.437 114.259C495.96 111.221 493.21 111.532 490.202 112.26C456.364 124.644 422.729 138.051 388.716 149.984Z" fill="#292D33"/>
<path d="M396.976 153.956C414.119 157.116 430.949 161.638 447.674 166.505L445.005 167.239C448.49 163.395 451.995 159.568 455.563 155.796C466.283 144.468 477.23 133.346 488.992 123.073C482.867 131.517 476.282 139.563 469.551 147.502C462.468 155.836 455.162 163.975 447.714 171.979L446.167 171.504C429.541 166.327 413.015 160.791 396.976 153.956Z" fill="#292D33"/>
<path d="M227.463 91.0875C232.218 94.1943 236.973 97.3012 241.727 100.402C255.983 109.713 270.24 119.029 284.502 128.338C287.421 130.249 290.51 132.464 290.105 135.497C289.84 137.479 288.094 139.448 286.404 141.311C280.825 147.473 275.242 153.636 269.662 159.791C268.504 161.072 256.354 172.562 254.269 172.821C252.477 173.037 251.127 172.243 250.018 171.498C230.395 158.267 210.77 145.029 191.145 131.792C189.088 130.408 186.964 128.925 186.472 126.883C185.573 123.142 200.934 109.05 205.378 105.738C212.841 100.176 220.509 94.7096 228.36 89.3673" fill="white"/>
<path d="M227.464 91.0817C246.806 102.741 265.971 114.84 285.049 126.967C286.691 128.017 288.466 129.161 289.835 130.711C293.101 134.293 291.382 138.146 288.658 141.162C285.375 144.932 265.526 164.601 262.081 168.448C259.368 171.345 256.482 175.722 251.865 175.062C250.194 174.853 248.776 173.924 247.774 173.231C233.059 163.208 212.297 149.208 197.906 139.147L191.701 134.839C189.823 133.453 187.034 131.875 185.526 129.885C183.38 127.258 184.456 123.796 186.401 121.595C188.097 119.542 201.682 107.428 203.686 105.93C211.777 100.144 219.971 94.6071 228.361 89.3615C220.403 95.2596 212.454 101.192 204.713 107.328C202.818 108.865 189.355 121.022 187.94 122.89C185.262 126.393 186.445 128.439 189.889 130.651L193.022 132.715C210.213 143.926 232.367 158.703 249.598 170.288C252.624 172.719 254.865 171.467 257.122 168.829L271.234 155.525L281.313 144.481L283.846 141.731C285.366 140.026 287.262 138.263 288.274 136.301C289.27 134.301 288.038 132.923 286.491 131.57C266.91 117.994 246.879 104.931 227.464 91.0817Z" fill="#292D33"/>
<path d="M228.622 97.1451C233.662 107.735 237.876 118.689 241.869 129.723L240.451 128.557C243.796 128.944 247.14 129.35 250.481 129.811C260.515 131.198 270.53 132.791 280.424 135.162C273.671 135.145 266.945 134.72 260.217 134.174C253.148 133.591 246.094 132.81 239.053 131.898L238.696 130.868C234.902 119.767 231.331 108.579 228.622 97.1451Z" fill="#292D33"/>
</svg>
