<svg width="503" height="314" viewBox="0 0 503 314" fill="none" xmlns="http://www.w3.org/2000/svg">
<path d="M47.6542 249.766C48.8852 247.596 51.6585 247.108 54.0392 247.326C56.4111 247.543 58.8429 248.241 61.1477 247.573C63.4525 246.904 65.6965 243.881 64.5196 241.672C64.5476 241.315 64.903 241.024 65.2302 241.101C65.5576 241.168 65.786 241.584 65.6783 241.922L67.4121 242.288C64.9401 240.629 62.5271 237.605 64.2106 235.21C65.7071 233.07 68.9614 233.988 71.1889 232.754C73.8779 231.268 74.1602 227.37 74.0942 224.149C73.8269 212.083 73.5683 200.028 73.3009 187.962C81.4608 192.885 90.2929 197.97 99.6374 197.049C107.14 196.309 113.773 191.779 120.078 187.38C127.04 182.521 134.162 177.485 139.423 170.698C109.951 159.808 80.5419 148.796 51.2403 137.407C48.438 130.144 49.6418 121.917 50.8788 114.181C51.8702 107.988 52.8705 101.805 53.8619 95.6125C54.2712 93.062 54.8143 90.2672 56.7334 88.6931C57.7818 87.8312 59.0228 87.4974 60.3333 87.4465C61.9361 87.3874 63.6432 87.7714 65.2086 88.1736C69.5775 89.3129 73.9552 90.4523 78.3241 91.5916L78.5214 88.9178C104.569 97.1563 130.77 104.915 156.881 112.909C167.014 116.013 177.147 119.117 187.271 122.212C192.814 120.05 197.946 116.672 202.232 112.349C205.068 109.488 207.24 106.87 210.464 104.435C214.141 101.663 217.81 98.9005 221.487 96.1285C223.352 94.7238 225.333 93.2724 227.6 93.009C229.469 92.8003 231.335 93.4204 233.121 94.0402C235.685 94.927 238.078 96.3593 240.713 97.0203C244.048 97.8633 244.92 96.6804 247.4 94.4495C251.737 90.5407 256.286 86.8871 261.002 83.5167C263.977 81.3821 267.031 79.3703 270.138 77.4623C272.987 75.7133 275.282 73.2179 277.7 70.8643C278.429 70.1611 282.63 65.1027 283.391 65.2849C288.706 66.5225 294.013 67.76 299.329 68.9881C301.885 69.5829 304.496 69.7729 307.016 70.5653C307.803 70.8136 309.767 71.2269 310.161 72.1609C310.74 73.5667 308.194 76.6826 307.507 77.9605C306.713 79.4168 305.919 80.8921 305.372 82.4719C304.556 84.8229 304.883 87.16 302.999 88.7624C300.324 91.0395 297.279 92.9572 294.455 95.0266C292.546 96.4217 290.636 97.8262 288.973 99.5521C287.675 100.903 286.534 102.584 285.007 103.67C284.243 104.213 283.065 104.311 282.39 104.883C281.492 105.632 280.874 107.353 280.276 108.387C278.778 110.989 277.288 113.582 275.79 116.184L287.25 121.658C289.98 122.96 289.842 124.08 289.928 126.802C290.021 129.91 290.993 132.476 289.679 135.541C289.008 137.101 287.913 138.406 286.837 139.682L281.996 145.416C280.697 146.955 279.389 148.503 278.089 150.042C294.562 155.085 311.035 160.128 327.499 165.17C339.392 170.872 351.859 174.918 364.424 178.626C378.369 182.744 391.967 187.049 405.4 192.833C407.027 193.537 408.278 192.817 408.938 191.614C410.133 191.676 411.337 191.681 412.533 191.61C408.768 194.156 404.843 196.889 402.789 201.09C401.378 203.995 401 207.317 400.641 210.556C399.647 219.621 398.395 228.704 397.657 237.798C396.956 246.45 394.147 255.253 392.261 263.722C392.265 262.714 376.119 257.785 374.413 257.157C338.364 243.903 302.306 230.64 266.257 217.386C266.262 216.256 248.012 210.678 246.094 209.973C239.075 207.391 232.065 204.818 225.046 202.236L203.998 194.499C199.136 192.708 189.405 186.761 184.442 187.917C181.783 188.537 178.001 193.117 175.815 194.897C172.874 197.295 169.933 199.694 166.993 202.092L149.348 216.492C137.345 226.292 125.333 236.092 113.33 245.892C113.96 258.053 114.59 270.215 115.211 282.376C103.357 277.908 91.5032 273.431 79.6494 268.964C82.0186 261.496 81.8947 253.161 79.2966 245.785C78.9681 245.981 78.6486 246.178 78.3202 246.374C77.6596 247.633 76.7961 248.741 75.5198 249.065C74.9614 249.204 74.4037 249.173 73.8465 249.058L72.5505 249.834C72.7025 249.477 72.7837 249.129 72.8118 248.771C71.9984 248.504 71.1764 248.161 70.3447 248.035C66.9206 247.503 63.9776 250.438 61.6198 253.131C62.816 255.001 62.3793 257.74 60.8674 259.344C59.3554 260.948 57.0247 261.465 54.946 261.014C52.8673 260.562 51.0137 259.236 49.5243 257.619C47.6031 255.529 46.1916 252.255 47.6099 249.756L47.6542 249.766Z" fill="white"/>
<path d="M130.469 294.073C132.562 299.629 134.654 305.175 136.738 310.731C132.04 307.745 127.664 304.204 123.706 300.184C122.48 298.945 121.291 297.641 120.447 296.083C119.604 294.526 119.134 292.678 119.469 290.908C122.854 290.151 130.499 287.028 130.469 294.082L130.469 294.073Z" fill="white"/>
<path d="M172.93 53.3238C177.737 59.5977 180.786 67.1827 183.161 74.8683C185.65 82.8936 187.492 91.1985 190.966 98.7947C194.44 106.391 199.872 113.421 207.297 116.429L205.917 120.331C200.733 119.113 196.482 115.243 192.79 111.187C184.48 102.063 177.753 91.3172 173.039 79.6472C170.314 72.9018 168.263 65.8579 165.477 59.1405C162.69 52.4232 159.079 45.9189 153.822 41.1593C161.37 42.1709 168.122 47.0498 172.93 53.3238Z" fill="white"/>
<path d="M84.8567 191.808C84.5429 157.384 84.2661 122.584 91.5008 89.0308C94.129 76.8647 97.8106 64.7596 104.353 54.3901C110.896 44.0301 120.61 35.5012 132.06 32.7528C143.511 30.0139 156.633 33.9029 163.656 43.8875L161.263 42.3987C147.088 36.1131 129.345 40.4828 119.208 52.7582C113.049 60.2097 109.768 69.8208 107.116 79.3404C97.1268 115.142 96.1655 151.68 95.2199 188.688C95.1246 192.36 95.0293 196.023 94.934 199.696C91.3208 195.753 86.5158 193.058 81.4024 192.123C82.5538 192.024 83.7052 191.916 84.8566 191.817L84.8567 191.808Z" fill="white"/>
<path d="M304.949 92.5535C307.515 86.5276 308.747 79.9686 310.289 73.5522C313.236 61.3027 317.421 49.3786 322.729 38.0621C324.534 34.2085 326.752 28.9533 330.453 26.7559C335.592 23.6982 332.457 30.1831 331.569 32.9482C327.989 44.0366 324.418 55.1157 320.838 66.2041C316.935 78.3083 312.872 90.7037 305.224 100.579C303.221 103.16 300.998 105.533 298.624 107.718C293.683 112.245 288.071 115.932 282.048 118.591C279.908 118.092 277.759 117.593 275.618 117.094C288.316 114.53 299.618 105.075 304.957 92.5536L304.949 92.5535Z" fill="white"/>
<path d="M355.326 7.29382C360.505 5.44172 366.057 5.07923 371.52 5.07424C387.616 5.04861 404.548 8.34162 416.879 19.3471C428.38 29.6051 434.466 45.453 436.426 61.2834C438.386 77.1137 436.653 93.1732 434.913 109.044C432.564 130.469 430.092 147.402 427.743 168.827L428.336 168.829C427.212 172.997 423.991 176.628 420.056 177.769C422.256 160.007 424.465 142.245 426.666 124.483C428.683 108.246 430.701 91.82 428.946 75.5478C426.612 53.9427 416.929 32.6171 400.222 20.0673C383.524 7.52692 359.487 5.39971 342.638 17.7407C345.29 12.6569 350.13 9.14585 355.308 7.29375L355.326 7.29382Z" fill="white"/>
<path d="M22.3522 82.9805C22.389 80.5885 22.5673 78.2066 22.7014 75.8244C25.162 78.0763 29.742 79.5462 32.4294 80.5088C35.9478 81.7764 39.6097 82.6019 43.309 82.9567C41.7347 82.5733 40.1606 82.1428 38.6044 81.6747C35.6334 80.7768 32.7072 79.7189 29.8349 78.5106C27.6696 77.6067 24.7681 77.0199 22.7291 75.5702C22.7767 74.7982 22.7976 74.0354 22.8274 73.2633C27.323 69.6095 32.146 65.9853 37.7442 65.3593C42.4832 64.8332 47.1596 66.5295 51.6501 68.2062C55.0269 69.4637 58.4036 70.7213 61.7715 71.9882C64.1051 72.8646 69.6613 73.7829 71.1668 75.7953C69.4318 77.794 65.0528 79.0279 62.6484 80.2137C59.7471 81.6423 56.8284 83.0331 53.8396 84.2165C52.6068 84.7104 51.3765 84.6298 50.1291 84.4079C50.1821 84.4458 50.235 84.4837 50.288 84.5216C52.4314 86.4143 52.2394 89.9075 51.9082 92.8444C50.261 107.501 49.9677 122.324 51.0028 137.039C50.3748 136.895 49.7372 136.939 49.152 137.144C46.7663 136.013 44.4343 134.75 41.9502 133.845C40.0762 133.159 38.4049 132.672 36.8079 131.375C35.4756 130.295 34.4357 129.17 32.9162 128.373C31.5558 127.66 30.253 127.966 29.2934 128.743C29.0108 128.591 28.7281 128.449 28.4542 128.297C28.0306 119.668 24.5587 111.658 24.0109 103.076C24.0206 96.6341 23.4283 90.1897 22.26 83.8654C22.3231 83.5831 22.3687 83.2819 22.37 82.9617L22.3522 82.9805Z" fill="#FEDC00"/>
<path d="M53.1718 91.4201C53.2371 90.6199 53.3025 89.8196 53.3679 89.0194C59.3219 85.9274 65.276 82.8261 71.23 79.7341C72.206 79.2297 73.3769 78.7167 74.3307 79.2764C75.2227 79.7982 75.4832 81.0048 75.6557 82.0698C76.1214 84.9913 76.5959 87.9034 77.0616 90.8249C76.9291 90.7585 76.7966 90.692 76.6552 90.6348C74.3393 89.7303 71.9308 89.7954 69.5411 89.6251C64.1349 86.739 56.3172 84.6244 53.1806 91.4202L53.1718 91.4201Z" fill="#FEDC00"/>
<path d="M391.758 261.126C393.15 254.408 394.852 247.776 396.155 241.038C396.798 237.688 402.905 200.768 401.95 200.632C403.109 200.806 404.268 200.981 405.427 201.155L403.834 198.897C414.832 192.38 422.185 180.78 429.121 169.603C429.834 168.447 441.059 170.897 442.599 171.148C447.279 171.893 451.932 172.864 456.531 174.042C465.941 176.455 475.161 179.753 484.024 183.888C488.036 185.76 492.525 187.597 496.18 190.193C497.945 191.444 498.595 192.718 498.73 194.197L499.748 192.29L498.747 194.508C498.82 195.959 498.459 197.615 498.176 199.638C496.668 210.726 495.169 221.814 493.661 232.902C492.683 240.112 491.696 247.35 489.691 254.32C485.549 268.702 477.234 281.306 472.013 295.278L470.007 292.444C469.843 293.461 469.679 294.468 469.516 295.484C455.135 289.801 440.763 284.117 426.382 278.443C419.364 275.672 412.346 272.892 405.328 270.122C402.261 268.913 399.185 267.694 396.118 266.485C392.441 265.038 390.881 265.427 391.767 261.136L391.758 261.126Z" fill="#FEDC00"/>
<path d="M391.758 261.132C393.988 251.149 396.429 241.205 397.96 231.068C399.57 221.092 401.577 211.155 402.523 201.073C402.525 200.696 402.474 200.225 402.023 200.129L401.886 201.136L405.354 201.725C405.832 201.822 406.153 201.192 405.862 200.814L404.305 198.528L404.124 199.451C415.263 193.075 422.783 181.796 429.771 170.958L430.02 170.573L430.145 170.375C430.198 170.281 430.091 170.488 430.029 170.535C429.976 170.582 429.923 170.619 429.869 170.666C429.843 170.685 429.816 170.694 429.789 170.703L429.807 170.704C434.455 170.676 439.23 172.26 443.848 173.005C456.446 175.413 468.78 179.364 480.541 184.717C484.11 186.531 489.785 188.796 493.114 190.901C494.614 191.925 496.391 192.639 496.56 194.476C496.772 196.681 499.629 197.258 500.611 195.35L501.638 193.443L497.769 191.288L496.759 193.507C495.735 201.074 494.216 212.614 493.192 220.361C491.313 233.255 490.61 246.503 486.361 258.813C482.094 271.217 475.424 282.387 470.979 294.856L472.875 294.581L470.824 291.785C470.314 290.973 469.082 291.344 468.972 292.267L468.534 295.316L469.848 294.512C450.118 287.082 428.425 279.116 408.908 271.461L398.788 267.51C396.72 266.597 394.5 266.032 392.468 265.043C391.161 264.266 391.496 262.449 391.749 261.141L391.758 261.132ZM391.758 261.132C391.487 262.449 391.152 264.266 392.459 265.062C394.491 266.069 396.693 266.644 398.761 267.575L408.855 271.612C422.298 277.009 435.714 282.519 449.086 288.113L469.166 296.477C469.723 296.715 470.362 296.341 470.48 295.711L470.48 295.673L471.024 292.643L469.172 293.125L471.125 295.996C471.6 296.723 472.752 296.577 473.021 295.721C476.198 287.683 480.392 280.119 484.268 272.262C487.188 266.36 489.923 260.203 491.783 253.779C494.724 243.064 495.798 231.984 497.439 221.019C498.033 216.727 499.594 205.564 500.17 201.404C500.419 198.909 500.985 197.094 500.934 194.4L500.726 195.53C500.726 195.52 501.727 193.302 501.727 193.292C502.245 192.136 501.782 190.75 500.695 190.199C499.653 189.677 498.412 190.105 497.858 191.157L496.841 193.074L500.901 193.986C500.694 190.576 497.817 188.35 495.247 186.927C493.074 185.627 490.865 184.582 488.674 183.584C474.607 176.931 459.621 172.036 444.331 169.824C439.526 169.191 434.981 167.938 430.067 167.983C429.367 167.989 428.445 168.249 428.062 168.926C428.017 169.01 427.759 169.423 427.705 169.517C423.639 176.319 419.457 183.148 414.297 189.049C411.121 192.662 407.539 195.877 403.527 198.384C403.225 198.571 403.152 199.004 403.363 199.287L405.001 201.517L405.509 200.605L402.023 200.148L401.886 201.155C401.762 201.173 401.585 200.994 401.577 200.947C401.568 200.937 401.559 200.918 401.559 200.909C401.559 200.871 401.559 200.937 401.559 200.937C401.467 205.928 400.56 210.887 399.946 215.839C398.451 225.966 397.168 236.16 395.036 246.162C393.961 251.168 392.771 256.135 391.749 261.151L391.758 261.132Z" fill="#292D33"/>
<path d="M253.62 180.622C298.448 196.898 349.373 216.13 394.283 231.71L392.958 228.823C389.033 240.032 387.264 252.079 387.682 264.032L390.932 261.927C388.177 260.183 385.238 258.023 381.841 257.311C375.389 256.625 367.544 254.849 362.035 253.064C358.606 251.59 355.206 249.748 351.521 248.132C327.638 238.603 299.846 228.379 275.597 219.639C250.226 210.509 214.113 197.839 188.378 188.754C202.625 194.767 216.961 200.516 231.324 206.191C268.5 220.843 312.734 237.475 349.909 252.401C353.355 253.913 356.844 255.849 360.565 257.437C367.267 259.623 374.175 261.187 381.175 261.933C382.838 262.175 386.512 264.47 388.781 265.968C390.202 266.897 392.155 265.615 392.03 263.862C391.565 252.493 393.269 241.039 396.892 230.337C397.286 229.161 396.681 227.859 395.558 227.487C383.746 223.556 371.962 219.541 360.168 215.507C325.847 203.89 288.124 190.865 253.62 180.631L253.62 180.622Z" fill="#292D33"/>
<path d="M98.8067 127.982C106.512 131.424 114.425 134.208 122.373 136.907C130.338 139.597 138.278 142.145 146.541 143.687C139.104 139.521 131.147 136.756 123.119 134.283C115.099 131.819 107.025 129.628 98.8067 127.982Z" fill="#292D33"/>
<path d="M80.1736 147.996C70.9642 142.117 59.4247 140.787 51.045 133.434L51.7216 134.633C51.2065 130.835 50.7887 127.067 50.7515 123.346C50.7142 119.626 51.0751 115.955 51.8695 112.37L47.7767 112.917C47.8645 113.087 47.9786 113.342 47.8734 113.087C47.8297 112.955 47.8125 112.833 47.8126 112.823C47.8127 112.805 47.8124 112.861 47.8122 112.918L51.8992 111.626L51.9519 111.739L51.9 111.438L48.8876 114.015C52.1481 115.564 55.3993 115.116 57.6899 117.782L59.8481 114.108C56.7168 113.436 53.2552 113.393 51.4252 110.673L49.0918 113.884C50.0821 114.199 50.7982 114.447 51.1511 114.75L52.2291 111.091C52.0251 111.165 51.4946 111.012 51.3888 110.908L49.1898 113.743C60.0133 116.906 71.2705 120.1 82.2298 122.539C74.356 119.049 66.3479 115.916 58.3039 112.896L50.2509 109.914C49.2873 109.562 48.2403 110.104 47.9084 111.119C46.9548 114.656 54.3184 117.381 54.39 113.021C54.3163 111.636 52.8409 110.877 51.8956 110.402C51.3212 110.135 50.7996 109.954 50.3488 109.783C49.2969 109.392 48.1522 109.981 47.7845 111.1C47.5691 111.768 47.6725 112.456 48.0154 113.003C50.2117 117.025 55.2633 117.95 58.9877 118.644C60.1553 118.903 61.3097 118.108 61.554 116.866C61.6897 116.179 61.5244 115.5 61.1459 114.98C58.8062 111.373 53.8146 110.937 50.5529 109.671C48.5644 108.833 46.9442 110.899 47.6792 112.955C48.338 116.254 52.5637 115.688 52.1619 112.305C52.1899 111.966 51.752 110.853 51.655 110.758C51.1818 109.607 49.918 109.075 48.8269 109.579C48.126 109.905 47.6894 110.563 47.5623 111.306C45.7843 119.228 46.5101 127.613 48.1148 135.418C48.2014 135.871 48.4477 136.248 48.7742 136.495C58.0136 143.654 69.7257 143.967 80.1471 147.977L80.1736 147.996Z" fill="#292D33"/>
<path d="M134.759 168.42C123.055 161.957 110.53 157.223 97.5974 154.437C109.292 160.91 121.836 165.615 134.759 168.42Z" fill="#292D33"/>
<path d="M280.15 150.549C290.809 154.823 301.317 159.351 312.236 162.91C317.691 164.657 323.183 166.121 328.433 168.206C336.06 171.469 344.921 174.03 352.888 176.353C371.942 182.33 391.05 188.212 410.347 193.267C404.991 191.229 399.589 189.369 394.214 187.416C378.46 182.018 361.283 175.852 345.411 171.217C340.034 169.659 334.509 167.789 329.285 165.695C321.117 162.684 312.81 161.104 304.65 158.329C296.781 155.752 288.046 152.918 280.158 150.549L280.15 150.549Z" fill="#292D33"/>
<path d="M103.345 95.6255C115.329 100.847 128.201 105.187 140.633 109.129C153.109 112.94 166.135 116.631 178.855 119.256C166.72 114.449 153.802 110.353 141.379 106.42C128.912 102.609 115.975 98.693 103.345 95.6255Z" fill="#292D33"/>
<path d="M426.113 279.193C440.539 284.736 454.992 290.203 469.399 295.821C469.594 295.897 469.816 295.766 469.843 295.55C470.472 295.477 470.375 295.279 470.42 295.1L470.511 294.554C470.638 293.961 470.947 291.957 471.074 291.308C474.73 270.557 478.708 247.198 482.055 226.305C482.191 225.486 481.628 224.712 480.849 224.633C474.149 224.171 467.759 221.564 461.61 218.439C455.452 215.324 449.465 211.597 442.997 208.593C430.096 202.624 416.065 200.087 402.242 198.437L401.666 202.814C400.922 202.763 400.129 202.007 399.999 201.234C399.489 208.879 397.98 217.998 396.865 226.093C396.236 230.385 395.589 234.677 394.916 238.949C393.907 245.039 392.338 251.879 391.063 258.004C390.483 261.166 388.916 265.35 392.877 266.676C394.309 267.2 395.839 267.659 397.244 268.24C400.912 269.611 421.977 277.621 426.122 279.184L426.113 279.193ZM426.642 277.688C422.426 275.956 401.816 267.468 398.05 265.926C397.246 265.574 395.956 265.07 395.134 264.765C394.418 264.526 393.365 264.173 392.916 263.748C392.836 263.653 392.784 263.512 392.786 263.107C392.871 261.666 393.347 260.124 393.655 258.656L395.16 252.343C397.303 243.97 398.854 235.293 400.307 226.72C401.671 218.325 403.335 209.969 404.115 201.468C404.144 200.846 404.112 200.074 403.743 199.47C403.462 198.96 402.782 198.496 402.242 198.437L401.666 202.814C415.131 205.216 428.821 206.857 441.449 212.467C454.121 217.993 466.346 226.963 480.66 227.486C480.678 227.486 479.401 225.813 479.401 225.813C476.22 245.135 472.876 267.337 470.005 286.632C469.659 288.796 469.121 292.627 468.784 294.782C468.774 294.971 468.614 295.121 469.188 295.415L469.632 295.144C455.278 289.394 440.978 283.494 426.642 277.679L426.642 277.688Z" fill="#292D33"/>
<path d="M472.005 295.28C479.594 278.247 490.967 262.586 493.837 243.518C495.412 235.472 496.817 223.744 498.127 215.546C498.272 214.68 500.3 200.054 500.345 199.818C501.505 193.645 501.359 190.414 495.671 187.094C492.228 184.904 487.031 182.81 483.355 181.08C479.219 179.226 475.021 177.532 470.751 176.063C461.671 172.973 452.367 170.654 442.917 169.38C441.802 169.197 439.165 168.752 438.024 168.559C435.148 168.198 432.185 167.451 429.182 167.937C428.756 168.03 428.188 168.385 427.947 168.798C427.502 169.531 426.021 172.087 425.557 172.866C419.681 182.702 413.291 192.535 403.835 198.899C405.805 197.824 407.74 196.636 409.561 195.26C415.041 191.111 419.588 185.734 423.694 180.101C425.885 177.077 428.121 173.697 430.18 170.569L430.242 170.475L430.269 170.428C430.296 170.391 430.224 170.503 430.207 170.532C430.126 170.682 429.984 170.738 429.887 170.813C429.789 170.85 429.86 170.831 429.851 170.841C429.922 170.841 430.143 170.814 430.374 170.824C434.826 171.107 439.574 172.474 444.033 173.246C456.967 175.75 469.593 179.788 481.655 185.311C486.214 187.496 490.757 189.277 494.756 192.016C495.674 192.65 496.459 193.322 496.552 194.444C496.62 195.169 496.491 196.214 496.318 197.362C496.164 198.237 495.953 200.016 495.825 200.901C494.875 207.866 493.115 221.939 492.253 228.923C491.071 238.185 490.235 247.496 487.541 256.384C483.517 269.797 476.276 281.887 472.014 295.28L472.005 295.28Z" fill="#292D33"/>
<path d="M499.748 192.291C495.512 197.406 492.442 203.203 489.654 209.238C486.83 215.262 485.468 221.312 481.408 226.644C487.712 224.373 490.913 217.088 493.647 211.27C496.329 205.179 498.657 199.001 499.748 192.291Z" fill="#292D33"/>
<path d="M105.467 256.366C93.1176 237.298 80.7594 218.231 68.41 199.164C69.4215 200.722 59.1558 205.868 58.2771 206.382C54.5759 208.551 56.9615 211.782 58.924 214.578C64.8993 223.099 70.9547 231.553 76.9567 240.055C80.4946 245.061 84.0324 250.077 87.5703 255.084C96.7405 268.073 105.955 281.118 116.832 292.532C117.678 293.42 118.648 294.348 119.834 294.409C121.542 294.492 122.78 292.802 123.911 291.422C125.041 290.043 126.923 288.779 128.335 289.802C126.663 287.441 124.982 285.089 123.31 282.727C120.846 279.26 118.382 275.793 115.971 272.27C112.381 267.037 108.933 261.702 105.476 256.366" fill="#FEDC00"/>
<path d="M105.467 256.363C95.2155 239.452 80.0097 215.437 69.3246 198.496L67.495 199.835C67.2838 199.533 67.3737 199.213 67.3915 199.204C64.804 201.811 61.2652 203.256 58.1234 205.041C52.0362 208.208 56.7055 213.662 59.3719 217.469C72.8118 236.201 89.3695 260.853 103.494 278.825C106.973 283.22 110.647 287.445 114.481 291.502C116.068 292.996 117.545 295.376 119.98 295.368C121.707 295.337 122.925 294.005 123.922 292.794C124.742 291.63 126.654 289.595 127.899 290.485C128.243 290.75 128.73 290.668 128.98 290.301C129.184 289.991 129.168 289.586 128.957 289.303L117.039 272.988C113.695 268.246 108.882 261.199 105.485 256.372C112.246 267.42 120.286 279.735 127.731 290.306L128.781 289.123C128.013 288.546 126.96 288.475 126.179 288.754C124.034 289.376 122.945 291.594 121.328 292.934C119.071 294.657 117.482 291.543 115.886 290.048C112.185 285.954 108.688 281.645 105.272 277.26C90.1992 257.277 76.1498 236.169 61.424 215.857C60.3428 214.035 56.4373 210.101 57.9414 208.271C59.2482 207.014 61.2609 206.326 62.8057 205.325C64.9539 204.025 67.2254 202.857 68.9956 200.915C69.4855 200.22 69.8868 199.544 69.3334 198.506L67.5038 199.845C78.6412 216.618 94.2213 240.069 105.476 256.372L105.467 256.363Z" fill="#292D33"/>
<path d="M120.884 295.46C123.11 300.932 128.231 304.174 132.332 307.921L136.646 311.49C137.343 312.105 138.392 311.196 137.979 310.347C136.497 307.007 134.997 303.676 133.409 300.392C131.82 297.107 130.196 293.832 128.413 290.642C129.549 294.15 130.827 297.593 132.176 300.998C133.507 304.413 134.936 307.782 136.382 311.141L137.715 309.997C135.139 307.914 131.53 305.017 128.926 303.066C125.97 300.812 122.942 298.699 120.875 295.45L120.884 295.46Z" fill="#292D33"/>
<path d="M128.411 297.123C128.826 297.36 128.54 298.047 128.063 297.941C127.294 297.599 127.218 296.638 127.716 296.113C128.704 294.855 129.954 296.706 129.099 297.72C128.823 298.095 128.061 298.384 127.708 297.949C127.444 297.59 127.766 296.951 128.19 297.179C128.305 297.151 128.42 297.048 128.483 296.916C128.725 296.249 128.161 295.521 127.471 295.481C126.807 295.44 126.141 295.889 125.829 296.462C124.947 297.805 125.947 299.806 127.221 300.17C128.343 300.626 129.948 299.993 130.352 298.685C130.595 297.971 130.466 296.934 129.689 296.432C129.124 296.109 128.255 296.426 128.402 297.123L128.411 297.123Z" fill="#292D33"/>
<path d="M129.146 299.018C130.342 303.007 132.727 306.559 135.903 309.04C134.716 305.041 132.323 301.509 129.146 299.018Z" fill="#292D33"/>
<path d="M59.3043 204.471C57.4926 205.782 55.4946 207.158 53.3086 206.96C50.5739 206.713 48.6193 204.143 47.0092 201.773C42.5131 195.161 38.0703 188.512 33.6897 181.816C29.1947 174.95 24.7529 168.047 20.3645 161.096C18.1747 157.621 15.9939 154.137 13.8396 150.643C12.758 148.896 11.6853 147.149 10.6038 145.393C9.67177 143.873 8.6054 142.71 8.11719 140.928C8.01251 140.56 7.93449 140.173 8.03345 139.807C8.1324 139.44 8.41693 139.149 8.7276 138.962C9.06488 138.766 9.4633 138.767 9.79157 138.609C10.1198 138.45 10.3779 138.14 10.6445 137.906C12.271 136.444 13.9063 134.972 15.5328 133.51C16.7504 132.413 18.4383 131.064 20.1631 131.467C20.9503 131.649 21.249 132.197 21.6713 132.829C22.2079 133.642 22.8244 134.407 23.3876 135.201C24.5933 136.91 25.8079 138.62 27.0136 140.33C29.4338 143.75 31.854 147.16 34.2742 150.579C35.6031 152.459 36.932 154.339 38.2698 156.219C38.2652 157.302 41.0332 160.12 41.6757 161.027L45.3192 166.175C47.7482 169.604 50.1772 173.033 52.6063 176.462C55.0353 179.891 57.4643 183.32 59.8933 186.749C61.1078 188.469 62.3223 190.178 63.5368 191.898C64.5401 193.324 66.2241 194.989 66.7657 196.696C67.8403 200.081 61.4713 202.908 59.3043 204.481L59.3043 204.471Z" fill="#FEDC00"/>
<path d="M59.3048 204.474C53.2371 209.308 49.9025 206.459 46.3246 200.464C43.2814 195.723 40.256 190.963 37.2927 186.167C29.9327 174.297 22.8144 161.807 15.6498 149.797C14.9729 148.645 13.0919 145.454 12.4326 144.33C11.6506 142.924 10.5843 141.761 10.1833 140.29C10.1047 140.035 10.1845 140.017 10.1297 140.393C10.0306 140.807 9.84401 140.948 9.80847 140.976L9.79072 140.994L9.71081 141.041C9.66647 141.06 9.64873 141.069 9.66647 141.06C10.0473 141.043 10.8899 140.688 11.2719 140.389C11.7072 140.042 11.885 139.864 12.2228 139.554L12.6138 139.208L15.7155 136.443C16.7993 135.59 18.3922 133.676 19.6934 133.747C19.6226 133.737 19.4728 133.586 19.5521 133.671C19.7106 133.888 20.4498 134.928 20.6875 135.239C26.0657 142.627 31.5149 149.959 37.0441 157.224L36.7297 156.225C36.7376 156.451 36.7807 156.724 36.833 156.913C37.6642 159.224 39.7301 160.607 41.0679 162.487C41.1293 162.61 46.0162 168.922 46.2891 169.3C51.6953 176.349 57.1189 183.454 62.3917 190.625C63.7373 192.749 65.8817 194.407 66.7301 196.84C67.4318 200.478 61.5698 202.751 59.3136 204.493L59.3048 204.474ZM59.3048 204.474C61.6141 202.742 67.5293 200.45 66.8543 196.784C66.4968 195.502 65.6689 194.472 64.9207 193.451C61.9275 189.436 59.1045 184.979 56.2979 180.813C51.9343 174.259 47.2285 167.006 42.8918 160.385C41.6426 158.515 39.8963 156.926 39.514 155.22C34.0687 146.965 28.5614 138.729 22.8852 130.643C20.6841 127.733 16.516 129.354 14.4265 131.427C13.4311 132.317 10.7914 134.707 9.76928 135.636C9.4671 135.907 9.07602 136.254 8.78261 136.545C8.78261 136.545 9.00445 136.433 8.96895 136.451C7.53315 136.803 6.37898 137.552 5.91094 139.349C5.51672 142.521 7.53594 144.46 8.95173 146.726C9.65536 147.822 11.652 150.919 12.3908 152.062C20.0875 163.877 28.2283 175.363 36.3513 186.85C39.6343 191.413 42.8552 196.023 46.0671 200.642C49.8585 206.421 53.1835 209.412 59.2959 204.465L59.3048 204.474Z" fill="#292D33"/>
<path d="M10.6236 148.938C10.8946 145.596 6.58195 143.723 4.20082 145.681C-0.595177 149.201 1.71177 156.35 5.53168 159.578C10.9662 164.131 16.6428 167.969 21.4278 173.264C30.965 183.24 37.3082 196.885 35.3335 211.503C36.0225 209.801 36.5613 208.014 36.9145 206.16C40.1497 188.695 29.4009 172.139 16.3821 162.647C13.6731 160.526 10.405 158.694 7.73072 156.724C5.42745 154.953 3.27036 152.119 4.16891 149.024C4.54685 147.594 5.67665 146.327 7.09378 146.202C8.63486 146.076 10.339 147.167 10.6147 148.938L10.6236 148.938Z" fill="white"/>
<path d="M49.968 136.735C44.536 133.67 39.0235 130.803 33.4662 128.067C32.0525 127.382 30.8158 126.727 30.2881 125.887C29.7073 125.046 29.4918 123.699 29.401 122.154C29.211 118.941 28.9593 115.663 28.7075 112.431C27.6737 99.4586 26.3654 86.5129 24.747 73.6035L21.9494 75.6541C26.9322 78.1617 32.1385 80.1522 37.4802 81.5499C42.7865 82.957 48.2368 83.7901 53.6902 83.8981C51.0458 83.2276 48.4282 82.5101 45.8464 81.6892C40.7003 80.0945 35.6888 78.0954 30.8203 75.7673C28.3905 74.6079 26.032 73.3171 23.7004 71.9792C22.773 71.4479 21.6115 71.8196 21.1115 72.8064C20.9151 73.2011 20.8513 73.6152 20.8938 74.0298C21.8479 87.0117 23.1119 99.9666 24.6506 112.876C25.0441 116.108 25.4288 119.321 25.8931 122.572C26.1597 124.428 26.5584 126.436 27.8178 127.995C29.0595 129.564 30.81 130.155 32.4366 130.746C38.2178 132.89 44.0526 134.911 49.9592 136.726L49.968 136.735Z" fill="#292D33"/>
<path d="M23.1554 73.0753C36.0416 65.8878 39.1985 64.724 53.0679 69.897C59.469 71.9962 65.8625 73.8316 72.5605 74.8114C68.6843 72.3274 64.6646 70.2854 60.6 68.3845C45.1721 61.1707 35.4209 57.7952 23.1466 73.0752L23.1554 73.0753Z" fill="#292D33"/>
<path d="M78.5768 92.6508C78.6973 89.2985 78.5963 85.983 78.389 82.6859C78.3128 81.8756 78.3167 80.9621 78.1786 80.1233C78.0279 78.0696 76.3013 76.0374 74.211 76.2262C72.7145 76.2858 71.3654 77.0617 70.2033 77.5842C64.5434 80.2253 59.0151 83.159 53.6359 86.4041C53.0237 86.7029 52.5872 87.332 52.5843 88.0289C52.4818 93.3684 52.5386 98.7463 53.1446 104.061C54.6184 98.9341 55.544 93.6546 56.3279 88.3745L55.2762 89.9993C60.9887 87.4808 66.561 84.6415 72.0016 81.5191C72.9067 81.0332 73.6706 80.4526 74.433 80.2204C74.5482 80.1926 74.5306 80.1737 74.5396 80.1361C74.5398 80.1078 74.593 80.0892 74.6986 80.2309C75.1737 80.9393 75.3449 82.315 75.6244 83.2015C76.4609 86.3789 77.4036 89.5379 78.5679 92.6601L78.5768 92.6508Z" fill="#292D33"/>
<path d="M53.3077 250.747C55.4536 252.065 57.2425 254.023 57.8871 256.502C58.218 257.822 58.07 259.3 56.8812 259.879C54.8769 260.661 53.1831 259.223 51.6678 257.455C50.5223 256.16 49.4476 254.893 48.9132 253.544C47.6598 250.582 49.8948 247.587 52.7369 249.662C53.9815 250.543 54.7268 252.251 55.2772 253.976C55.4307 251.199 54.0118 247.586 50.9326 247.139C47.1989 246.54 45.319 251.372 46.5718 254.495C47.7806 257.552 49.5788 259.433 51.8548 261.364C53.5225 262.681 55.9816 263.218 57.9609 262.059C61.2093 260.18 60.052 255.428 57.9446 253.413C56.6578 252.033 55.024 251.065 53.3166 250.738L53.3077 250.747Z" fill="#292D33"/>
<path d="M50.3627 247.836C52.7586 246.575 54.9693 247.206 56.5369 249.172L58.2107 251.147C60.2986 253.595 62.3591 256.241 62.2474 259.603L62.9059 258.824C61.185 259.608 59.4993 260.429 57.8835 261.468C59.7696 261.391 61.6036 261.097 63.4467 260.747C63.8277 260.674 64.0416 260.336 64.1052 259.959C65.1674 255.857 62.6789 251.835 60.0427 249.253C58.6671 247.938 57.3897 246.435 55.4618 245.909C53.4542 245.391 51.3434 246.249 50.3627 247.836Z" fill="#292D33"/>
<path d="M67.4928 241.948C66.4543 242.547 65.765 242.252 64.7282 242.473C61.7771 243.139 59.5568 244.749 58.0038 247.672C61.0249 249.286 64.4294 248.179 66.5298 245.627C67.2507 244.754 68.1694 243.157 67.4928 241.939L67.4928 241.948Z" fill="#292D33"/>
<path d="M70.6953 246.937C67.1442 245.019 62.8909 247.94 63.1119 252.178C66.8015 252.74 69.6697 250.737 70.6953 246.937Z" fill="#292D33"/>
<path d="M80.8699 246.58C78.5821 247.418 76.4881 248.492 74.4719 249.981C73.7969 250.487 73.2013 251.059 72.5183 251.348C72.4207 251.394 72.3943 251.366 72.3677 251.375C72.4121 251.347 72.4828 251.357 72.5447 251.385C72.7392 251.452 72.6857 251.546 72.669 251.311C72.3949 249.134 74.0728 248.077 74.2344 245.469C74.2849 239.856 68.2355 238.314 64.3824 240.793L65.8152 241.148C64.9875 240.071 64.1066 239.04 63.2433 238.001C62.9 237.547 62.2717 237.479 61.8539 237.863C60.8575 238.979 62.3134 240.153 63.3073 239.611C65.8729 237.993 67.4168 235.137 69.1008 232.62C67.9014 233.604 66.7725 234.653 65.6173 235.637C64.7822 236.321 63.4491 237.502 62.7487 237.735C62.8106 237.735 63.1026 237.783 63.2345 238.001L61.724 239.256C62.4717 240.399 63.1928 241.56 63.9671 242.675C64.3015 243.157 64.9119 243.291 65.3999 243.03C67.9376 241.731 71.4502 242.274 71.6586 245.316C71.4829 247.067 69.7007 249.753 70.5501 251.97C70.7504 252.753 71.3582 253.481 72.1547 253.559C73.6065 253.622 74.6483 252.233 75.5376 251.295C77.1471 249.672 79.0042 248.088 80.8699 246.589L80.8699 246.58Z" fill="#292D33"/>
<path d="M75.3627 205.156C75.2125 200.926 74.9489 196.282 74.6571 192.043C74.557 190.592 74.4747 189.132 74.3569 187.681L72.7843 188.984C85.6573 195.282 98.6914 201.186 111.851 206.78L110.462 204.467C109.875 215.361 109.97 226.305 110.88 237.168C111.648 248.039 113.648 258.727 115.728 269.369C115.526 258.556 114.447 247.778 114.369 236.966C114.185 226.21 114.302 215.465 114.879 204.731C114.936 203.695 114.347 202.779 113.49 202.417C103.618 198.241 93.6921 194.224 83.677 190.433C80.3182 189.119 76.9235 187.918 73.5467 186.67C72.76 186.356 71.9068 187.134 72.0713 188.011C72.3042 189.443 72.5903 190.876 72.841 192.308C73.62 196.493 74.4506 201.036 75.3626 205.165L75.3627 205.156Z" fill="#292D33"/>
<path d="M101.89 277.336C100.505 276.134 98.621 275.73 97.3146 274.802C96.635 274.3 95.7343 273.731 94.9302 273.379C92.3489 272.445 90.1472 271.748 87.718 270.447C85.5618 269.478 83.4487 268.809 81.595 267.483C81.1983 267.076 81.1575 266.276 81.0995 265.343C81.0206 263.082 81.5354 260.692 81.1026 258.364C80.6911 255.217 80.1653 251.862 79.4435 248.779C79.1842 251.462 79.1539 254.429 79.1247 257.132L79.1485 259.844C79.0124 262.706 77.8831 265.923 79.2169 268.735C80.8622 271.162 84.4007 271.855 86.7688 272.977C89.0568 274.154 91.8698 274.75 94.3557 275.213C95.2137 275.414 95.8678 275.652 96.7072 276.061C98.5191 276.775 100.219 276.698 101.881 277.326L101.89 277.336Z" fill="#292D33"/>
<path d="M204.107 156.576C189.66 166.46 176.022 177.487 162.578 188.816C155.887 194.494 149.275 200.287 142.805 206.258C136.325 212.183 129.987 218.127 122.346 222.389C130.696 219.966 138.068 214.516 144.953 209.13C165.58 192.812 185.619 175.635 204.098 156.567L204.107 156.576Z" fill="#292D33"/>
<path d="M205.586 168.787C191.262 178.784 177.652 189.708 164.059 200.735C150.536 211.865 137.119 223.053 124.362 235.214C139.205 226.076 153.159 215.521 166.761 204.466C180.292 193.317 193.472 181.685 205.595 168.787L205.586 168.787Z" fill="#292D33"/>
<path d="M174.289 147.781C160.977 155.193 148.395 163.813 135.979 172.745C123.625 181.78 111.5 191.099 100.167 201.599C113.488 194.197 126.07 185.577 138.477 176.635C150.822 167.59 162.956 158.271 174.289 147.781Z" fill="#292D33"/>
<path d="M198.127 180.358C202.933 180.802 206.959 183.447 211.021 185.998C218.404 190.371 227.05 195.474 235.791 192.733C241.892 190.565 245.987 185.177 250.504 180.751C262.35 168.341 274.408 156.102 285.249 142.671C286.745 140.606 288.082 138.37 288.987 135.935C289.103 135.634 288.884 135.275 288.574 135.283C287.405 135.259 286.228 135.245 285.059 135.24C284.961 135.239 284.881 135.324 284.881 135.427L284.836 137.697L285.27 135.476L285.057 135.664C286.198 135.885 287.339 136.097 288.49 136.29L288.103 135.564C285.721 139.839 282.183 143.092 278.645 146.429C266.227 158.073 254.143 170.303 242.368 182.684C237.262 188.285 232.435 190.883 225.05 188.986C220.61 187.866 216.155 186.048 211.959 184.033C207.664 182.009 202.928 179.785 198.118 180.358L198.127 180.358Z" fill="#292D33"/>
<path d="M151.045 163.108C150.177 161.24 150.155 160.194 150.612 158.784C151.526 156.33 153.356 154.896 154.748 152.322C150.062 150.71 144.56 155.876 147.062 160.963C147.887 162.539 149.547 163.526 151.037 163.099L151.045 163.108Z" fill="#292D33"/>
<path d="M280.479 121.234C281.405 124.148 284.994 123.278 287.178 123.975C290.07 124.835 289.697 127.112 287.299 128.797C275.243 138.541 263.319 148.473 251.457 158.481L239.665 168.507C236.041 171.412 232.15 174.343 227.522 173.909C224.601 173.557 221.669 171.897 221.027 168.842C220.595 166.317 221.298 163.344 220.142 160.504C218.426 155.91 213.441 153.883 209.657 152.661L211.162 154.843C211.101 152.413 208.314 152.043 206.643 151.396C204.495 150.68 199.419 149.274 197.181 148.643C190.966 146.648 178.392 142.724 172.15 140.823C167.888 139.581 163.762 137.482 159.185 137.265C157.105 137.312 158.004 140.292 157.839 141.685C157.979 143.956 157.513 145.319 157.273 147.644C157.119 148.491 157.61 149.577 157.465 150.339C157.438 150.423 157.438 150.414 157.447 150.424C157.181 150.526 156.74 150.232 156.227 150.042L153.576 148.91L148.255 146.664L148.455 147.55C150.647 144.414 153.624 141.837 157.075 140.204C153.484 141.441 150.163 143.725 147.617 146.831C147.386 147.113 147.481 147.584 147.817 147.717L152.95 150.404L155.52 151.734C156.739 152.492 158.472 152.952 159.259 151.147C159.778 149.925 159.277 148.981 159.424 147.823C159.516 147.014 159.83 146.073 160.038 144.963C160.375 142.798 160.312 140.839 160.472 138.749L159.05 140.08C163.067 140.521 166.891 142.732 171.188 144.153L183.583 148.529L196.022 152.81C199.328 153.86 204.723 155.362 207.745 156.609C207.216 156.267 206.856 155.465 206.894 154.825L208.399 157.007C210.715 157.78 212.934 158.684 214.486 160.009C217.548 162.471 215.939 166.09 216.729 169.822C217.699 174.922 222.67 178.098 227.104 178.475C232.767 179.111 238.139 175.555 242.245 171.947L253.87 161.57C265.807 150.555 278.141 139.928 289.612 128.374C291.233 126.13 290.004 123.563 287.376 123.175C285.156 122.629 281.715 124.018 280.496 121.225L280.479 121.234Z" fill="#292D33"/>
<path d="M257.76 127.571C250.678 131.43 244.512 136.593 238.538 142.086C233.189 146.782 225.635 153.418 220.453 158.17L220.611 158.397C226.215 154.296 234.227 148.171 239.832 143.881C246.351 139.134 252.606 134.103 257.918 127.797L257.76 127.571Z" fill="#292D33"/>
<path d="M222.667 93.5223C213.521 99.605 200.637 108.525 191.438 114.758C181.057 121.947 170.676 129.174 161.158 137.713C172.575 132.346 183.342 125.856 193.838 118.715C204.245 111.489 214.346 103.451 222.667 93.5223Z" fill="#292D33"/>
<path d="M277.555 111.312C278.906 112.09 280.59 109.762 279.444 108.599C271.218 104.618 262.722 101.624 254.118 99.0353C245.497 96.5122 236.821 94.3563 227.864 93.4611C235.903 97.7522 244.328 100.811 252.895 103.541C261.428 106.186 270.077 108.427 278.987 109.699L278.67 109.443C279.26 110.142 278.458 111.439 277.546 111.312L277.555 111.312Z" fill="#292D33"/>
<path d="M270.209 104.556C272.846 102.769 275.368 100.811 277.997 99.033C283.28 95.3731 289.01 92.8924 294.338 89.2233C299.675 85.573 304.501 81.1578 309.204 76.7043C312.989 73.5466 310.775 69.6099 306.589 68.9705C299.337 67.3009 292.048 65.7065 284.759 64.1969C284.202 64.0815 283.652 64.2204 283.217 64.5294C279.86 66.9354 276.529 69.3888 273.243 71.8987C266.687 76.9565 260.255 82.1748 254.034 87.6861C250.915 90.4228 247.857 93.2446 244.861 96.1419C250.765 92.221 259.308 86.3052 265.239 82.2149C271.047 78.124 279.598 72.3873 285.538 68.3158L283.943 68.6386C291.355 70.3748 298.812 72.0359 306.26 73.6027C306.508 73.632 306.958 73.8129 307.082 73.9076C306.923 73.7562 306.775 73.1528 306.927 72.871C304.962 74.7085 301.903 77.9258 299.547 80.129C294.969 84.6112 290.119 88.3577 284.818 91.8857C279.464 95.4134 274.708 99.9137 270.209 104.556Z" fill="#292D33"/>
<path d="M302.406 88.907C294.275 93.8638 286.943 100.256 280.555 107.537C288.502 102.268 295.753 95.9138 302.406 88.907Z" fill="#292D33"/>
<path d="M399.651 210.173C355.917 192.827 310.801 177.689 265.603 165.282C309.328 182.646 354.462 197.747 399.651 210.173Z" fill="#292D33"/>
<path d="M84.7437 106.127C76.8263 102.486 68.6418 99.1835 60.0409 98.0261C67.7612 102.222 76.2781 104.396 84.7437 106.127Z" fill="#292D33"/>
<path d="M165.652 132.403C155.498 127.933 144.624 124.195 134.111 120.722C123.563 117.381 112.581 114.048 101.807 111.704C111.943 116.211 122.826 119.959 133.338 123.422C143.887 126.763 154.869 130.097 165.652 132.403Z" fill="#292D33"/>
<path d="M404.304 196.767C396.188 193.916 388.126 190.953 380.109 187.839C377.263 186.8 374.571 186.892 371.84 185.656C339.778 174.04 306.553 162.889 273.671 154.291C279.046 156.311 284.474 158.161 289.858 160.133C316.821 169.572 346.172 179.689 373.298 188.413C375.359 188.958 377.626 188.949 379.553 189.588C382.276 190.485 385.008 191.363 387.749 192.204C393.249 193.828 398.741 195.453 404.304 196.767Z" fill="#292D33"/>
<path d="M85.5096 94.6536C78.2023 91.1944 70.6103 88.0636 62.6107 87.0783C69.7209 91.0924 77.6453 93.0944 85.5096 94.6536Z" fill="#292D33"/>
<path d="M175.671 122.769C176.535 123.724 177.381 124.688 178.262 125.624L178.53 125.126C153.993 115.388 128.955 107.031 103.466 100.603C121.752 108.281 140.504 114.52 159.373 120.345C165.678 122.228 171.991 124.053 178.368 125.691C178.642 125.805 178.883 125.392 178.636 125.193C177.665 124.369 176.668 123.583 175.68 122.779L175.671 122.769Z" fill="#292D33"/>
<path d="M398.792 197.881C398.49 198.172 398.268 198.378 398.037 198.556C398.123 198.942 398.095 199.347 398.014 199.733C397.933 200.119 397.78 200.486 397.558 200.814C397.698 201.088 397.821 201.38 397.961 201.767C398.332 201.901 398.651 201.93 398.996 201.913C399.593 201.03 399.89 199.948 399.85 198.874C399.924 198.093 399.464 197.997 398.792 197.89L398.792 197.881Z" fill="#292D33"/>
<path d="M394.181 195.246C393.782 195.348 393.481 195.478 393.188 195.609C393.125 195.995 392.899 196.945 392.818 197.34C392.737 197.716 392.52 198.704 392.439 199.071C392.659 199.327 392.87 199.582 393.17 199.866C393.56 199.764 393.853 199.633 394.154 199.502C394.236 199.136 394.452 198.148 394.534 197.771C394.624 197.367 394.814 196.426 394.922 196.04C394.71 195.785 394.499 195.53 394.181 195.246Z" fill="#292D33"/>
<path d="M388.539 195.915C388.149 195.942 387.866 195.997 387.582 196.062C387.537 196.325 387.366 196.956 387.302 197.228C387.239 197.482 387.077 198.141 387.014 198.386C387.244 198.584 387.464 198.783 387.773 199.01C388.145 198.974 388.429 198.919 388.721 198.864C388.784 198.619 388.946 197.961 389.009 197.707C389.081 197.434 389.226 196.803 389.306 196.549C389.086 196.351 388.865 196.152 388.539 195.915Z" fill="#292D33"/>
<path d="M383.161 192.794C382.77 192.924 382.495 193.064 382.211 193.213C382.192 193.571 382.073 194.447 382.036 194.823C381.999 195.172 381.889 196.085 381.852 196.423C382.099 196.641 382.338 196.849 382.664 197.077C383.037 196.946 383.321 196.797 383.604 196.657C383.65 196.318 383.751 195.405 383.788 195.057C383.834 194.68 383.926 193.814 383.981 193.456C383.743 193.248 383.505 193.031 383.16 192.803L383.161 192.794Z" fill="#292D33"/>
<path d="M377.46 190.206C377.079 190.403 376.812 190.599 376.537 190.805C376.535 191.238 376.469 192.293 376.458 192.736C376.438 193.159 376.381 194.252 376.361 194.666C376.617 194.893 376.873 195.12 377.217 195.357C377.581 195.161 377.856 194.964 378.131 194.758C378.151 194.353 378.2 193.252 378.219 192.828C378.248 192.376 378.279 191.331 378.325 190.898C378.069 190.671 377.822 190.443 377.46 190.206Z" fill="#292D33"/>
<path d="M371.671 187.961C371.281 188.12 370.988 188.297 370.704 188.475C370.667 188.908 370.512 189.962 370.465 190.414C370.411 190.838 370.264 191.939 370.218 192.344C370.456 192.599 370.685 192.854 371.012 193.119C371.393 192.951 371.677 192.783 371.97 192.605C372.025 192.201 372.163 191.09 372.217 190.676C372.281 190.224 372.401 189.179 372.474 188.746C372.236 188.491 372.006 188.236 371.671 187.97L371.671 187.961Z" fill="#292D33"/>
<path d="M363.766 185.527C363.393 185.742 363.126 185.967 362.851 186.182C362.849 186.644 362.809 187.764 362.798 188.235C362.796 188.687 362.747 189.855 362.736 190.288C363.001 190.524 363.257 190.761 363.601 190.998C363.965 190.783 364.231 190.558 364.507 190.342C364.517 189.909 364.549 188.732 364.569 188.29C364.588 187.809 364.602 186.698 364.639 186.237C364.384 186 364.128 185.764 363.766 185.527Z" fill="#292D33"/>
<path d="M358.527 185.013C358.269 185.36 358.064 185.604 357.851 185.829C357.982 186.273 357.971 186.753 357.88 187.214C357.79 187.675 357.611 188.107 357.344 188.483C357.466 188.776 357.554 189.087 357.658 189.511C358.038 189.644 358.383 189.655 358.746 189.638C359.174 189.037 359.478 188.332 359.614 187.598C359.768 186.864 359.727 186.101 359.579 185.356C359.261 185.186 358.934 185.043 358.527 185.022L358.527 185.013Z" fill="#292D33"/>
<path d="M350.723 181.701C350.341 181.888 350.066 182.085 349.791 182.281C349.789 182.714 349.696 183.769 349.676 184.211C349.648 184.635 349.573 185.727 349.553 186.141C349.809 186.378 350.056 186.605 350.391 186.851C350.755 186.665 351.03 186.468 351.314 186.271C351.343 185.867 351.409 184.765 351.438 184.341C351.466 183.889 351.524 182.844 351.57 182.411C351.323 182.175 351.076 181.948 350.723 181.701Z" fill="#292D33"/>
<path d="M346.045 180.474C345.672 180.652 345.414 180.83 345.148 181.007C345.164 181.365 345.143 182.241 345.15 182.608C345.149 182.957 345.145 183.87 345.143 184.209C345.408 184.39 345.673 184.57 346.026 184.75C346.381 184.573 346.648 184.395 346.914 184.217C346.915 183.878 346.919 182.964 346.921 182.616C346.922 182.239 346.917 181.373 346.928 181.015C346.663 180.835 346.407 180.655 346.036 180.474L346.045 180.474Z" fill="#292D33"/>
<path d="M336.825 177.021C336.453 177.207 336.186 177.395 335.92 177.582C335.936 177.968 335.914 178.919 335.912 179.315C335.911 179.691 335.889 180.68 335.887 181.048C336.152 181.246 336.417 181.436 336.761 181.635C337.116 181.448 337.383 181.261 337.658 181.074C337.66 180.707 337.673 179.718 337.683 179.341C337.685 178.936 337.689 177.994 337.717 177.608C337.452 177.41 337.196 177.22 336.834 177.021L336.825 177.021Z" fill="#292D33"/>
<path d="M331.417 174.593C331.044 174.808 330.786 175.033 330.52 175.248C330.535 175.691 330.513 176.783 330.52 177.235C330.518 177.668 330.513 178.799 330.512 179.222C330.776 179.44 331.041 179.667 331.394 179.885C331.749 179.67 332.016 179.445 332.282 179.23C332.284 178.816 332.289 177.676 332.291 177.243C332.293 176.781 332.288 175.698 332.299 175.256C332.034 175.038 331.779 174.811 331.408 174.593L331.417 174.593Z" fill="#292D33"/>
<path d="M323.957 173.837C323.567 173.939 323.292 174.06 323.008 174.181C322.989 174.492 322.87 175.264 322.834 175.584C322.797 175.894 322.687 176.694 322.651 176.986C322.898 177.185 323.136 177.374 323.471 177.583C323.844 177.481 324.119 177.36 324.411 177.239C324.448 176.947 324.549 176.137 324.594 175.836C324.64 175.507 324.723 174.744 324.786 174.434C324.548 174.244 324.31 174.045 323.957 173.837Z" fill="#292D33"/>
<path d="M314.916 169.927C314.543 170.142 314.286 170.348 314.019 170.564C314.035 170.988 314.013 172.043 314.02 172.485C314.018 172.909 314.013 174.001 314.012 174.406C314.276 174.624 314.541 174.832 314.894 175.051C315.249 174.835 315.516 174.629 315.782 174.414C315.784 174.009 315.789 172.907 315.791 172.493C315.792 172.05 315.788 171.005 315.799 170.572C315.534 170.354 315.278 170.146 314.907 169.927L314.916 169.927Z" fill="#292D33"/>
<path d="M309.728 167.785C309.338 167.982 309.063 168.197 308.778 168.403C308.759 168.874 308.647 170.022 308.61 170.512C308.573 170.973 308.47 172.169 308.433 172.621C308.68 172.876 308.926 173.141 309.253 173.406C309.626 173.2 309.901 172.994 310.194 172.788C310.231 172.346 310.325 171.141 310.371 170.679C310.417 170.19 310.493 169.041 310.557 168.571C310.31 168.315 310.072 168.051 309.728 167.785Z" fill="#292D33"/>
<path d="M302.229 165.625C301.865 165.859 301.607 166.093 301.349 166.328C301.374 166.789 301.378 167.91 301.393 168.39C301.4 168.842 301.422 170.01 301.429 170.453C301.702 170.68 301.967 170.898 302.329 171.125C302.684 170.892 302.942 170.657 303.2 170.423C303.202 169.99 303.171 168.812 303.164 168.36C303.166 167.88 303.127 166.768 303.138 166.298C302.873 166.07 302.608 165.853 302.229 165.625Z" fill="#292D33"/>
<path d="M296.261 163.976C295.888 164.181 295.63 164.387 295.364 164.593C295.38 165.008 295.358 166.034 295.356 166.468C295.354 166.882 295.35 167.946 295.348 168.342C295.613 168.55 295.877 168.758 296.231 168.967C296.586 168.761 296.852 168.555 297.119 168.349C297.12 167.954 297.125 166.88 297.127 166.475C297.128 166.042 297.124 165.025 297.143 164.601C296.879 164.393 296.623 164.184 296.252 163.976L296.261 163.976Z" fill="#292D33"/>
<path d="M286.8 160.556C286.454 160.809 286.214 161.043 285.974 161.278C286.034 161.692 286.118 162.71 286.17 163.143C286.212 163.548 286.314 164.613 286.356 165.009C286.648 165.189 286.922 165.36 287.302 165.531C287.63 165.287 287.87 165.044 288.119 164.809C288.085 164.413 287.975 163.349 287.932 162.944C287.89 162.51 287.779 161.502 287.754 161.078C287.472 160.898 287.189 160.718 286.8 160.556Z" fill="#292D33"/>
<path d="M280.982 158.93C280.671 159.221 280.449 159.465 280.226 159.69C280.339 160.227 280.372 160.773 280.388 161.32C280.394 161.866 280.356 162.421 280.274 162.958C280.512 163.185 280.733 163.421 281.041 163.696C281.432 163.575 281.724 163.426 282.017 163.248C282.109 162.598 282.156 161.939 282.15 161.29C282.152 160.63 282.067 159.98 281.972 159.33C281.672 159.168 281.38 159.017 280.973 158.921L280.982 158.93Z" fill="#292D33"/>
<path d="M274.631 157.634C274.267 157.858 274.01 158.083 273.743 158.308C273.768 158.742 273.772 159.825 273.779 160.277C273.786 160.71 273.799 161.821 273.806 162.245C274.079 162.463 274.344 162.671 274.697 162.889C275.052 162.665 275.31 162.44 275.577 162.215C275.579 161.801 275.557 160.68 275.55 160.247C275.552 159.785 275.521 158.721 275.532 158.278C275.267 158.061 275.002 157.852 274.631 157.634Z" fill="#292D33"/>
<path d="M172.749 125.105C172.385 125.235 172.128 125.366 171.87 125.497C171.896 125.733 171.902 126.326 171.91 126.571C171.918 126.806 171.933 127.418 171.941 127.645C172.215 127.759 172.48 127.863 172.834 127.969C173.188 127.838 173.446 127.707 173.703 127.577C173.704 127.351 173.671 126.738 173.672 126.503C173.673 126.249 173.632 125.674 173.65 125.429C173.385 125.315 173.12 125.21 172.749 125.105Z" fill="#292D33"/>
<path d="M170.136 123.12L169.292 123.681C169.377 124.539 169.232 125.414 168.954 126.223L169.606 127.007C170.19 126.991 170.73 127.04 170.786 126.334C171.047 125.431 171.113 124.48 171.081 123.538C170.807 123.367 170.525 123.216 170.136 123.11L170.136 123.12Z" fill="#292D33"/>
<path d="M165.828 122.429C165.455 122.578 165.198 122.719 164.932 122.859C164.948 123.141 164.945 123.848 164.944 124.14C164.943 124.422 164.94 125.147 164.947 125.42C165.221 125.563 165.478 125.705 165.831 125.839C166.186 125.689 166.443 125.549 166.718 125.409C166.719 125.136 166.714 124.411 166.715 124.128C166.716 123.827 166.701 123.139 166.72 122.847C166.455 122.705 166.19 122.563 165.828 122.429Z" fill="#292D33"/>
<path d="M161.482 121.757C161.11 121.84 160.844 121.924 160.578 122.017C160.586 122.214 160.549 122.713 160.548 122.93C160.547 123.128 160.509 123.646 160.508 123.843C160.773 123.958 161.03 124.072 161.374 124.196C161.738 124.112 162.004 124.029 162.27 123.936C162.279 123.747 162.299 123.22 162.309 123.022C162.319 122.806 162.33 122.316 162.357 122.109C162.101 121.995 161.845 121.881 161.473 121.757L161.482 121.757Z" fill="#292D33"/>
<path d="M157.842 120.107C157.443 120.087 157.133 120.161 156.832 120.272C156.688 120.856 156.623 121.458 156.709 122.061C156.769 122.457 156.804 122.674 156.786 122.702C156.795 122.655 156.795 122.655 156.831 122.608C157.051 122.75 157.263 123.053 157.075 123.428C157.18 123.843 157.692 123.987 158.1 123.913C158.331 123.65 158.465 123.35 158.529 123.001C158.622 122.041 158.348 121.87 158.457 121.136C158.628 120.638 158.264 120.683 157.833 120.107L157.842 120.107Z" fill="#292D33"/>
<path d="M152.616 118.52C152.057 118.922 151.649 118.939 151.805 119.675C151.839 120.212 151.914 121.304 151.956 121.851C151.981 122.058 151.954 122.19 151.99 121.992C152.15 121.955 152.345 121.899 152.459 122.06C152.556 122.164 152.599 122.409 152.404 122.493C152.331 123.011 153.154 123.146 153.465 122.808C153.874 122.584 153.691 121.764 153.718 121.726C153.685 121.189 153.61 120.097 153.568 119.55C153.624 118.797 153.217 118.842 152.616 118.529L152.616 118.52Z" fill="#292D33"/>
<path d="M147.877 116.96C147.505 117.052 147.23 117.155 146.964 117.257C146.963 117.493 146.916 118.086 146.906 118.331C146.897 118.566 146.85 119.178 146.84 119.404C147.105 119.546 147.352 119.679 147.697 119.822C148.06 119.729 148.326 119.627 148.601 119.524C148.62 119.298 148.658 118.686 148.668 118.451C148.687 118.197 148.707 117.613 148.743 117.378C148.487 117.235 148.231 117.102 147.877 116.95L147.877 116.96Z" fill="#292D33"/>
<path d="M142.919 114.945C142.555 115.142 142.288 115.329 142.031 115.526C142.056 115.902 142.043 116.844 142.05 117.24L142.054 118.351C142.062 118.473 142 118.464 142.134 118.276C142.462 118.306 142.654 118.815 142.299 118.992C142.235 119.548 142.978 119.777 143.43 119.553C143.813 119.074 143.797 118.66 143.816 118.406C143.818 117.831 143.805 116.663 143.799 116.089C143.909 115.326 143.501 115.315 142.91 114.955L142.919 114.945Z" fill="#292D33"/>
<path d="M134.616 112.479C134.27 112.684 134.03 112.872 133.781 113.059C133.833 113.37 133.909 114.143 133.952 114.463C133.986 114.774 134.08 115.565 134.114 115.867C134.397 115.991 134.68 116.114 135.051 116.219C135.389 116.014 135.629 115.826 135.877 115.639C135.843 115.347 135.749 114.537 135.715 114.235C135.681 113.905 135.578 113.151 135.562 112.831C135.279 112.708 135.005 112.584 134.625 112.479L134.616 112.479Z" fill="#292D33"/>
<path d="M138.426 113.825C138.045 113.936 137.779 114.057 137.504 114.179C137.502 114.461 137.437 115.167 137.418 115.459C137.4 115.742 137.343 116.466 137.324 116.74C137.581 116.901 137.828 117.071 138.172 117.242C138.536 117.131 138.811 117.01 139.086 116.888C139.105 116.615 139.161 115.881 139.18 115.608C139.208 115.307 139.246 114.61 139.283 114.327C139.026 114.166 138.779 113.996 138.426 113.825Z" fill="#292D33"/>
<path d="M130.451 111.131C130.096 111.29 129.839 111.449 129.59 111.598C129.625 111.862 129.657 112.522 129.683 112.795C129.708 113.059 129.749 113.737 129.766 113.991C130.04 114.105 130.314 114.22 130.676 114.325C131.022 114.166 131.271 114.007 131.528 113.857C131.512 113.603 131.462 112.915 131.445 112.661C131.429 112.378 131.369 111.728 131.37 111.465C131.096 111.35 130.831 111.236 130.451 111.141L130.451 111.131Z" fill="#292D33"/>
<path d="M126.055 110.138C125.7 110.316 125.452 110.484 125.203 110.652C125.246 110.935 125.296 111.642 125.321 111.934C125.347 112.216 125.406 112.942 125.431 113.215C125.714 113.329 125.988 113.443 126.35 113.558C126.688 113.381 126.936 113.212 127.194 113.044C127.168 112.77 127.101 112.045 127.084 111.762C127.059 111.461 126.991 110.773 126.983 110.481C126.709 110.367 126.435 110.243 126.055 110.138Z" fill="#292D33"/>
<path d="M121.996 109.002C121.641 109.189 121.401 109.357 121.153 109.526C121.205 109.799 121.264 110.477 121.298 110.769C121.332 111.043 121.409 111.749 121.434 112.013C121.717 112.118 121.991 112.223 122.362 112.318C122.7 112.131 122.939 111.963 123.197 111.795C123.172 111.531 123.086 110.824 123.061 110.551C123.035 110.259 122.941 109.59 122.933 109.307C122.659 109.202 122.385 109.098 121.996 109.002Z" fill="#292D33"/>
<path d="M117.083 106.791C116.711 106.921 116.445 107.052 116.179 107.182C116.186 107.465 116.148 108.171 116.138 108.463C116.137 108.746 116.098 109.471 116.088 109.744C116.353 109.896 116.609 110.047 116.954 110.209C117.317 110.079 117.583 109.948 117.858 109.817C117.868 109.544 117.889 108.81 117.908 108.537C117.918 108.235 117.93 107.538 117.967 107.256C117.711 107.104 117.455 106.952 117.092 106.791L117.083 106.791Z" fill="#292D33"/>
<path d="M111.743 104.876C111.406 105.11 111.166 105.335 110.935 105.551C111.004 105.909 111.106 106.795 111.167 107.163C111.218 107.521 111.338 108.435 111.39 108.774C111.682 108.916 111.964 109.05 112.336 109.174C112.664 108.94 112.895 108.724 113.135 108.499C113.093 108.16 112.964 107.236 112.912 106.887C112.861 106.511 112.732 105.634 112.698 105.276C112.415 105.134 112.132 105.001 111.743 104.876Z" fill="#292D33"/>
<path d="M107.774 103.552C107.402 103.673 107.135 103.794 106.86 103.925C106.859 104.198 106.821 104.876 106.811 105.167C106.81 105.441 106.762 106.147 106.752 106.41C107.017 106.562 107.273 106.714 107.618 106.866C107.982 106.745 108.248 106.624 108.523 106.493C108.533 106.23 108.562 105.523 108.581 105.25C108.6 104.959 108.612 104.29 108.648 104.008C108.392 103.856 108.136 103.704 107.774 103.552Z" fill="#292D33"/>
<path d="M103.13 102.444L102.322 103.006C102.426 103.581 102.388 104.193 102.261 104.757C102.029 105.246 102.569 105.38 102.877 105.786C103.257 105.797 103.55 105.742 103.86 105.678C104.156 104.728 104.214 103.711 104.094 102.712C103.811 102.588 103.519 102.484 103.13 102.435L103.13 102.444Z" fill="#292D33"/>
<path d="M87.6024 97.9536C87.2212 98.0649 86.9551 98.1862 86.6801 98.2981C86.679 98.5712 86.6229 99.2585 86.604 99.5409C86.5851 99.814 86.5378 100.52 86.519 100.784C86.7751 100.945 87.0312 101.097 87.3758 101.268C87.7392 101.156 88.0054 101.035 88.2892 100.923C88.308 100.659 88.3553 99.9533 88.3742 99.6803C88.3931 99.3884 88.4314 98.7199 88.468 98.4375C88.2119 98.2764 87.9647 98.1246 87.6024 97.9536Z" fill="#292D33"/>
<path d="M84.44 96.2855C84.0762 96.4629 83.8187 96.6408 83.5523 96.8186C83.5774 97.1577 83.5827 97.9959 83.5901 98.3444C83.5975 98.6835 83.6115 99.55 83.619 99.8702C83.8928 100.032 84.1577 100.193 84.5112 100.354C84.8661 100.177 85.1236 99.9991 85.3899 99.8213C85.3913 99.5011 85.3596 98.6251 85.361 98.2955C85.3626 97.9376 85.3218 97.1086 85.341 96.7697C85.0761 96.6085 84.8111 96.4472 84.44 96.2855Z" fill="#292D33"/>
<path d="M76.3664 94.0436C76.0913 94.1931 75.8516 94.3428 75.6473 94.4926C75.5496 94.5675 75.3811 94.6421 75.4693 94.7179C75.4687 94.8591 75.4651 95.7067 75.4644 95.8668L75.4477 97.7032L76.2131 96.7835C76.1333 96.7926 75.9207 96.8294 75.8321 96.8384C75.7792 96.7911 75.7524 96.8569 75.7166 96.9321C75.5826 97.2141 75.4486 97.5055 75.3231 97.8628C75.5343 98.1745 75.7369 98.4108 75.9395 98.6471C75.9923 98.7133 76.0364 98.7699 76.0721 98.7042C76.1517 98.7045 76.3644 98.6583 76.4442 98.6493C76.8871 98.5852 77.2075 98.1816 77.2095 97.7296C77.2126 96.995 77.228 95.4694 77.2399 94.7536C77.3287 94.6787 77.1608 94.6026 77.0726 94.5269C76.8785 94.3754 76.6312 94.2142 76.3663 94.0624L76.3664 94.0436Z" fill="#292D33"/>
<path d="M72.4914 93.3776L71.7449 94.0242C71.9457 94.6937 71.9957 95.4285 71.9573 96.1253L72.8053 96.5904C73.1686 96.4978 73.4436 96.3765 73.7275 96.2459C73.7845 95.3326 73.6733 94.4091 73.4647 93.5136C73.1728 93.4464 72.8809 93.3792 72.4914 93.3776Z" fill="#292D33"/>
<path d="M69.7701 92.023C69.3978 92.125 69.1318 92.2369 68.8657 92.3393C68.8736 92.5748 68.8356 93.168 68.8346 93.4129C68.8336 93.6483 68.7956 94.2603 68.7946 94.4863C69.0596 94.6193 69.3158 94.7522 69.6694 94.8856C70.0328 94.7835 70.2989 94.6717 70.565 94.5692C70.5748 94.3432 70.5951 93.7311 70.605 93.4957C70.6149 93.2415 70.6262 92.6576 70.6538 92.4223C70.3976 92.2894 70.1414 92.1564 69.7701 92.023Z" fill="#292D33"/>
<path d="M66.4244 91.5655C66.0609 91.6958 65.8036 91.8266 65.5462 91.9573C65.5718 92.1929 65.5781 92.7862 65.5859 93.0311C65.5938 93.2666 65.6089 93.8788 65.6168 94.1049C65.8908 94.2191 66.1559 94.3238 66.5096 94.4289C66.8643 94.2986 67.1216 94.1678 67.3789 94.037C67.3799 93.811 67.3471 93.1987 67.3481 92.9633C67.3492 92.709 67.3074 92.1343 67.3261 91.8896C67.061 91.7754 66.7958 91.6707 66.4244 91.5655Z" fill="#292D33"/>
<path d="M63.7374 90.6813C63.3824 90.8682 63.1338 91.0366 62.8852 91.2051C62.9282 91.4972 62.9783 92.2226 63.0035 92.5241C63.0289 92.8162 63.0876 93.5699 63.113 93.8525C63.3958 93.9761 63.6697 94.0997 64.0322 94.2049C64.3694 94.0274 64.6181 93.8495 64.8756 93.6811C64.8502 93.3984 64.7826 92.6447 64.7661 92.3527C64.7409 92.0418 64.6731 91.3257 64.6656 91.0243C64.3916 90.9007 64.1177 90.7771 63.7374 90.6719L63.7374 90.6813Z" fill="#292D33"/>
<path d="M168.486 46.6741C166.282 42.5679 161.917 40.5339 158.377 38.0419C137.41 21.6974 113.639 33.9901 101.135 55.3531C86.6098 79.3633 83.9437 108.755 83.9226 136.584C83.9233 155.119 84.2343 173.579 84.908 192.088C86.0845 173.624 86.73 155.112 87.3752 136.665C88.429 109.574 90.9403 81.2182 104.666 57.7226C116.059 37.4285 137.208 25.4637 157.744 39.1505C161.541 41.3987 165.838 42.8109 168.486 46.6741Z" fill="#292D33"/>
<path d="M95.9223 196.136C94.9322 158.357 98.8024 120.674 108.147 84.2852C109.705 78.1891 111.121 72.1488 113.429 66.6304C115.605 60.8665 119.687 56.5611 123.434 52.0376C130.829 43.0656 142.982 39.6422 153.781 42.3534C157.894 43.3127 161.764 45.2034 165.233 47.7139C168.817 50.1872 171.762 52.9309 173.559 57.1766C184.32 77.0847 186.463 112.251 211.877 117.671C214.85 118.145 217.914 117.979 220.742 117.021C208.733 119.908 197.955 110.256 192.857 99.432C185.984 85.4831 183.68 69.4818 176.86 55.3824C175.572 52.3256 173.592 49.3411 171.149 47.2493C161.713 38.3658 148.307 34.5321 136.09 38.4073C131.542 39.8383 127.212 42.1649 123.55 45.3703C120.022 48.6232 117.296 52.4824 114.235 56.1423C108.535 63.9537 106.323 73.9931 104.106 83.1661C95.2376 119.915 92.2048 158.477 95.9311 196.155L95.9223 196.136Z" fill="#292D33"/>
<path d="M202.569 118.498L204.673 119.204C204.841 119.262 204.949 118.989 204.781 118.913C198.005 115.352 192.264 110.054 187.714 103.706C178.481 90.8862 173.588 75.5143 166.504 61.3102C162.957 54.1375 158.728 47.1974 153.298 41.5141C169.627 63.791 172.412 95.8801 194.471 113.548C197.604 115.944 201.04 117.861 204.638 119.195L204.728 118.894L202.551 118.498L202.569 118.498Z" fill="#292D33"/>
<path d="M252.051 125.072C236.105 121.03 220.429 115.821 205.211 109.361L205.302 110.906L212.366 106.915C214.762 105.597 216.321 103.362 219.101 103.318C230.947 103.406 242.726 106.715 253.739 111.207C257.443 112.635 260.831 115.305 264.67 116.217C264.864 116.217 265.104 116.181 265.299 115.937L264.523 115.321C263.631 116.768 261.675 116.825 260.51 117.979C259.496 119.123 257.95 120.426 256.83 121.429C254.652 123.454 251.149 126.792 248.488 123.842C251.712 127.745 256.348 122.303 259.128 120.309C260.469 119.194 261.377 118.03 263.114 117.575C263.904 117.277 264.765 116.735 265.299 115.937L264.523 115.321C264.692 115.105 264.745 115.209 264.683 115.181C262.278 114.464 260.115 112.986 257.88 111.799C250.725 107.813 242.909 105.322 235.046 103.489C229.721 102.431 224.396 101.25 218.932 101.452C216.028 101.459 213.813 103.973 211.567 105.339L204.529 109.406C204.138 109.63 203.986 110.147 204.205 110.563C204.302 110.742 204.452 110.884 204.62 110.95C208.455 112.53 212.318 114.044 216.217 115.426C227.93 119.526 239.886 122.854 252.042 125.072L252.051 125.072Z" fill="#292D33"/>
<path d="M249.078 118.491C250.161 117.827 251.458 118.812 251.055 119.94C250.526 121.501 246.795 122.361 245.979 120.474C245.515 119.342 246.715 118.207 247.756 119.107C247.547 118.343 246.548 117.943 245.714 118.335C244.862 118.784 244.468 119.846 244.623 120.807C244.942 122.815 247.099 123.681 248.73 123.358C250.298 123.111 252.161 122.158 252.399 120.228C252.554 119.268 252.027 118.192 251.179 117.831C250.357 117.46 249.426 117.823 249.078 118.481L249.078 118.491Z" fill="#292D33"/>
<path d="M254.967 113.741C255.755 113.688 256.159 114.537 255.67 115.072C255.269 115.55 254.685 115.548 254.074 115.47C253.473 115.364 252.925 115.173 252.653 114.616C252.345 114.031 252.8 113.345 253.49 113.48C253.357 113.338 253.728 113.688 253.728 113.669L253.676 113.311C253.333 112.792 252.563 112.704 252.004 113.069C250.743 113.883 251.133 115.919 252.219 116.677C252.722 117.074 253.288 117.256 253.836 117.333C254.376 117.402 254.978 117.385 255.555 117.134C256.778 116.706 257.601 114.778 256.499 113.757C256.031 113.34 255.288 113.299 254.967 113.75L254.967 113.741Z" fill="#292D33"/>
<path d="M220.527 105.344C220.989 105.12 221.646 104.689 222.096 104.898C222.406 105.041 222.546 105.418 222.376 105.719C222.18 106.001 222.047 106.075 221.463 106.111C220.843 106.155 220.258 106.228 219.789 106.16C218.86 106.09 218.137 105.428 217.955 104.476C217.877 104.033 217.968 103.449 218.235 103.168C218.422 102.848 219.139 102.946 219.455 103.587C219.538 102.74 218.638 101.983 217.813 102.366C216.171 103.263 216.285 105.674 217.422 106.932C218.443 108.207 220.347 108.206 221.685 107.882C223.102 107.775 224.394 106.048 223.399 104.64C222.422 103.383 221.073 104.178 220.519 105.363L220.527 105.344Z" fill="#292D33"/>
<path d="M213.636 108.086C214.177 107.928 214.556 108.268 214.74 108.618C215.232 109.646 213.846 110.592 212.997 110.522C212.457 110.463 212.414 110.237 212.734 109.758C213.357 109.083 214.267 109.548 214.973 110.031C214.548 108.137 212.044 107.561 211.133 109.441C210.393 110.784 211.501 112.399 212.883 112.405C214.971 112.706 217.312 109.608 215.336 107.952C214.842 107.573 213.975 107.503 213.636 108.095L213.636 108.086Z" fill="#292D33"/>
<path d="M419.81 175.22C422.641 159.222 425.444 143.251 427.983 127.195C430.424 111.139 432.194 94.731 430.839 78.2534C428.8 45.5364 408.943 9.72988 375.461 7.07272C360.628 5.74756 345.227 10.8147 334.009 21.2679C309.261 44.5282 312.923 85.003 291.362 110.405C283.94 119.34 272.857 125.244 261.484 124.141C257.714 123.843 254 122.64 250.662 120.667C260.585 127.462 273.942 126.059 283.797 119.716C293.917 113.298 300.949 102.554 305.848 91.4241C316.102 68.2339 318.89 39.3894 338.89 22.7767C356.375 8.52656 382.781 7.40527 400.365 21.9837C407.741 27.873 413.648 35.8092 417.941 44.473C430.601 69.7009 429.191 99.1917 425.842 126.857C423.887 142.962 421.694 159.076 419.81 175.21L419.81 175.22Z" fill="#292D33"/>
<path d="M426.889 167.74C429.316 153.067 431.565 138.366 433.912 123.684C438.728 94.632 442.397 62.6269 428.586 35.5388C421.931 22.1559 410.549 10.9096 396.658 6.79131C389.841 4.62443 382.789 3.436 375.753 2.86922C368.611 2.07596 361.234 2.68496 354.58 5.73627C341.053 11.659 332.918 25.8924 327.688 39.7427C319.863 60.2121 318.239 84.0606 303.7 100.941C301.386 103.719 298.887 106.317 296.362 108.897L292.574 112.761C291.311 113.989 289.827 115.207 288.03 115.228C289.836 115.282 291.39 114.112 292.706 112.921L296.635 109.208C301.844 104.211 306.975 98.9776 310.792 92.6462C312.7 89.4805 314.352 86.1536 315.801 82.7317C321.463 69.0622 324.129 54.2499 329.58 40.5513C336.248 23.6369 346.844 7.42679 365.321 5.43355C368.732 4.9866 372.13 5.25535 375.556 5.54306C382.468 6.13756 389.307 7.35334 395.902 9.47219C416.329 15.3888 429.318 36.1729 433.663 57.2968C438.617 79.0826 435.671 101.513 432.629 123.462C430.716 138.221 428.714 152.961 426.88 167.721L426.889 167.74Z" fill="#292D33"/>
<path d="M291.533 109.584C282.134 115.157 271.753 118.278 261.002 118.769C271.697 120.971 283.496 117.405 291.533 109.584Z" fill="#292D33"/>
</svg>
