<svg width="428" height="384" viewBox="0 0 428 384" fill="none" xmlns="http://www.w3.org/2000/svg">
<path d="M237.593 348.077C233.699 349.827 229.232 350.595 227.005 349.878C230.904 348.119 235.36 347.369 237.593 348.077Z" fill="white"/>
<path d="M242.198 337.761C235.381 340.091 228.848 341.881 222.368 343.542C215.913 345.159 209.554 346.629 203.522 347.548C210.34 345.214 216.878 343.423 223.352 341.767C229.807 340.153 236.163 338.683 242.2 337.761L242.198 337.761Z" fill="white"/>
<path d="M233.6 327.621C211.256 336.303 189.79 341.639 171.546 343.025C191.576 339.079 212.223 333.962 233.6 327.621Z" fill="white"/>
<path d="M219.74 319.637C204.288 325.239 189.095 329.763 174.451 333.577C159.886 337.282 145.422 340.393 132.072 342.199C146.383 338.924 160.825 335.582 175.421 331.805C189.991 328.075 204.906 323.866 219.743 319.634L219.74 319.637Z" fill="white"/>
<path d="M209.407 308.632C175.467 319.352 141.633 329.027 108.889 337.354C142.833 326.625 176.657 316.967 209.407 308.632Z" fill="white"/>
<path d="M185.108 302.172C163.695 309.277 142.723 314.883 122.636 319.38C102.656 323.744 82.9631 327.133 64.8938 328.754C84.0147 325.646 103.738 322.014 123.722 317.581C143.722 313.171 164.377 307.884 185.108 302.172Z" fill="white"/>
<path d="M167.666 296.888C125.624 307.085 83.7636 316.184 43.2271 323.91C85.2759 313.701 127.125 304.623 167.666 296.888Z" fill="white"/>
<path d="M144.381 287.734C96.0158 300.782 47.691 312.782 0.694316 323.39C49.0669 310.331 97.3806 298.352 144.381 287.734Z" fill="white"/>
<g clip-path="url(#clip0_1_406)">
<path d="M167.317 26.0615C165.212 26.3563 163.471 27.9725 162.519 29.8835C161.568 31.7944 161.315 33.9697 161.234 36.0942C160.849 45.6186 164.847 53.8216 167.145 62.8784C169.473 72.0369 171.427 81.3073 174.16 90.3539C180.648 111.893 187.136 133.422 193.624 154.962C208.362 203.885 223.1 252.798 237.838 301.721C242.899 316.958 246.694 332.612 251.735 347.849C254.073 354.934 258.183 361.124 261.199 367.782C264.064 374.084 270.421 378.201 276.99 379.706C284.47 381.423 292.274 380.326 299.835 379.035C336.376 372.814 371.267 361.307 406.279 349.465C411.411 347.727 416.685 345.735 420.44 341.811C424.195 337.887 425.936 331.494 423.031 326.909C402.048 293.823 402.655 249.586 391.015 212.139C385.66 194.919 380.316 177.71 374.961 160.491C368.767 140.568 362.582 120.655 356.387 100.732C350.648 82.2831 344.858 63.6916 335.647 46.7062C329.432 35.2403 321.152 24.1505 309.289 18.814C299.694 14.4939 288.802 14.3923 278.285 14.6159C238.769 15.4494 199.333 19.8203 160.586 27.637C160.252 29.3956 167.641 24.2928 167.307 26.0513L167.317 26.0615Z" fill="white"/>
<path d="M167.287 26.153C161.477 27.5252 161.173 34.4983 161.497 39.4079C162.064 47.4686 165.485 54.9499 167.53 62.7057C174.362 91.4416 184.069 119.385 192.602 147.643C205.71 190.528 237.089 290.794 249.508 332.429C251.037 337.542 252.616 342.695 254.326 347.666C256.017 352.454 258.649 357.008 261.169 361.815C262.374 363.991 263.467 366.735 264.732 368.728C266.007 370.638 267.698 372.306 269.672 373.637C278.275 379.421 288.934 378.049 298.793 376.341C303.439 375.518 309.887 374.288 314.431 373.302C345.709 366.583 376.115 356.499 406.411 346.172C410.986 344.617 415.703 342.655 418.77 339.087C421.128 336.231 422.454 331.89 420.501 328.566C401.441 297.828 399.912 260.493 391.906 226.44C385.276 200.835 373.99 167.312 366.449 141.778L357.076 110.948C349.11 85.4647 342.54 59.1988 327.499 37.0802C317.458 22.7579 305.504 16.4964 288.043 16.1305C245.51 15.5104 202.147 20.2371 160.697 27.6574C160.677 27.7997 160.697 27.881 160.819 27.9013C162.55 27.7184 164.068 26.5799 165.698 26.0208C166.143 25.8582 166.609 25.6447 167.094 25.6854C167.327 25.6956 167.358 25.9904 167.277 26.153H167.287ZM167.317 25.9802C167.317 25.848 167.246 25.7057 167.094 25.6956C166.619 25.6752 166.153 25.8989 165.718 26.0717C164.23 26.6917 162.853 27.5761 161.295 28.0538C161.052 28.1046 160.677 28.2063 160.505 27.9217C160.434 27.7794 160.475 27.6777 160.475 27.5456L160.556 27.5252C191.944 20.7046 223.9 16.3643 255.956 14.2398C261.301 13.9044 266.655 13.6096 272.01 13.386C282.8 13.0099 293.792 12.278 304.4 15.2766C330.809 22.8189 342.935 55.3463 351.579 78.8474C357.804 96.463 365.396 122.282 371.328 140.253C379.101 165.96 390.59 199.28 397.453 225.119C405.743 259.527 407.16 296.222 426.26 326.574C428.811 331.992 427.07 338.579 423.426 342.97C419.468 347.686 413.85 350.024 408.405 351.925C377.907 362.192 347.217 372.387 315.616 378.902C311.04 379.909 304.4 381.037 299.724 381.871C294.41 382.745 288.883 383.527 283.185 383.253C273.052 383.029 262.161 377.632 258.304 367.762C255.42 361.643 251.897 356.062 249.579 349.333C247.858 344.129 246.36 338.985 244.862 333.791C233.09 292.654 202.744 190.803 190.406 148.304C182.338 119.923 173.066 91.7669 166.7 62.909C164.777 55.1024 161.467 47.5703 161.031 39.4282C160.707 34.4475 161.335 27.0272 167.307 25.97L167.317 25.9802Z" fill="#292D33"/>
<path d="M297.629 1.72696C303.975 2.10306 310.605 2.70279 315.99 6.108C320.575 9.01514 323.622 13.5995 325.717 18.5294C327.873 23.5915 330.181 28.928 331.872 34.1121C338.269 53.7911 344.676 73.4804 351.073 93.1595C353.867 101.759 356.124 110.267 359.039 118.876C364.94 136.319 371.064 153.244 376.237 170.971C382.067 190.945 387.907 210.909 393.738 230.883C402.048 259.344 414.518 286.118 420.298 315.383C421.553 321.715 421.999 327.377 418.021 332.46C415.227 336.027 411.158 338.06 407.069 339.758C403.931 341.059 401.258 343.021 397.999 343.946C394.345 344.983 390.6 345.755 386.905 346.66C375.599 349.425 364.293 352.189 352.986 354.954C347.743 357.587 340.06 358.115 334.341 359.508C327.681 361.134 321.021 362.761 314.371 364.387C303.499 367.04 293.479 368.331 282.344 365.902C274.034 364.092 267.546 358.105 265.127 350.014C262.019 339.626 259.276 329.085 255.865 318.798C249.306 296.69 242.747 274.581 236.178 252.483C234.244 245.957 231.613 239.289 230.276 232.611C226.248 212.464 217.867 193.11 213.474 172.882C209.212 153.264 203.301 133.92 195.649 115.37C192.055 106.648 190.638 97.0627 187.642 88.0669C184.849 79.7012 181.103 71.7727 178.765 63.2749C176.133 53.6692 173.492 44.0634 170.86 34.4678C169.686 30.1986 168.512 25.6549 169.746 21.406C170.921 17.3604 174.16 14.1687 177.844 12.1561C185.264 8.09014 194.313 6.73822 202.552 5.57943C213.039 4.10553 223.576 2.97724 234.133 2.19455C255.258 0.63933 276.484 0.486857 297.629 1.74729V1.72696Z" fill="white"/>
<path d="M297.659 1.21874C310.423 1.68632 320.12 4.59345 325.728 17.147C328.471 23.3882 331.153 29.6599 333.177 36.1654C339.21 54.6653 352.865 95.7515 358.149 113.733C363.837 130.901 370.214 147.897 375.548 165.208C381.642 185.243 388.879 210.177 394.922 230.313C402.645 256.345 413.972 281.249 420.339 307.81C423.527 320.679 426.078 332.083 412.049 339.433C410.065 340.53 407.838 341.303 405.884 342.299C403.951 343.275 401.947 344.495 399.588 345.338C393.009 347.31 386.349 348.571 379.719 350.319L353.442 356.794L353.847 356.642C348.148 359.406 342.004 359.772 336.093 361.084C325.677 363.432 311.597 367.711 300.999 368.829C284.591 370.435 267.556 367.284 262.789 349.038C259.954 339.148 257.07 328.678 253.922 318.961C251.432 310.422 242.615 280.69 239.963 271.623L234.892 254.414C232.868 247.319 230.023 240.163 228.566 232.753C225.367 216.642 219.547 201.262 215.134 185.446C213.535 180.394 212.148 173.136 210.923 167.942C208.281 156.324 205.032 144.848 201.206 133.565C199.283 127.923 197.208 122.343 194.981 116.813C190.345 105.652 189.09 93.6372 184.565 82.4763C182.48 76.8958 180.182 71.3458 178.462 65.5417C176.832 59.7376 175.324 53.9843 173.755 48.2107L171.417 39.5503C170.01 33.6953 167.459 27.7692 168.927 21.5992C173.107 7.11433 196.023 6.00637 208.382 4.09538C237.969 0.354729 267.9 -0.600764 297.659 1.21874ZM297.598 2.22505C267.9 0.507201 238.05 1.57451 208.544 5.40664C196.793 7.2668 174.251 8.46625 170.354 21.9651C169.028 27.7082 171.609 33.5327 172.985 39.1132L175.395 47.7533C177.014 53.4964 178.593 59.3005 180.243 65.0029C181.974 70.6647 184.302 76.1537 186.448 81.7546C191.053 92.7732 192.491 104.981 197.147 115.918C199.434 121.468 201.58 127.069 203.564 132.731C207.522 144.065 210.903 155.602 213.666 167.281C214.85 172.506 216.49 179.571 217.998 184.612C221.318 196.099 225.377 207.351 228.647 218.878C230.378 224.601 231.481 230.506 232.939 236.311C235.965 246.069 240.581 260.493 243.455 270.556C246.198 279.653 254.944 309.08 257.566 317.802C260.774 327.55 263.679 338.06 266.564 347.91C270.714 364.123 286.201 366.085 300.594 364.834C314.249 363.371 330.485 357.628 344.089 355.656C347.115 355.076 349.96 354.273 352.531 353.074C364.87 349.953 386.288 345.105 398.364 341.892C400.277 341.222 402.159 340.114 404.255 339.056C408.172 337.227 412.403 335.743 415.45 332.653C420.308 328.109 419.883 321.227 418.517 315.159C417.201 308.542 415.581 301.996 413.698 295.521C407.443 273.88 398.687 252.818 392.442 231.045C386.571 210.848 379.557 185.873 373.666 165.787C368.493 148.436 362.278 131.44 356.731 114.18C351.579 96.2598 337.874 54.7568 332.034 36.5313C330.05 30.0563 327.388 23.805 324.705 17.6146C319.351 5.49812 310.059 2.71297 297.598 2.21489V2.22505Z" fill="#292D33"/>
<path d="M193.068 57.4911C193.301 57.9994 193.301 58.6906 193.473 59.2191C194.505 61.9941 195.203 64.5963 195.892 67.3713C202.967 90.9537 209.354 113.489 216.085 137.234C232.999 196.18 249.235 251.659 265.977 310.768C267.88 317.7 270.633 327.58 279.439 326.889C289.966 324.114 300.331 322.386 311.374 320.13C336.578 314.925 359.019 310.077 384.223 305.045C387.158 304.527 390.094 304.354 392.857 303.49C394.062 302.971 394.932 302.28 395.965 301.579C398.212 299.668 399.76 296.903 399.416 293.955C399.072 292.044 398.384 290.489 397.868 288.751C397.695 287.887 397.523 287.196 397.351 286.321C396.663 284.41 396.319 282.51 395.803 280.599C393.738 273.707 391.885 266.713 389.578 259.903C388.039 255.37 383.616 249.83 383.616 244.961C371.55 205.318 359.475 165.675 347.409 126.043C340.88 104.605 334.352 83.1674 327.823 61.7299C325.282 53.3947 324.321 44.6021 320.758 36.5821C316.294 26.5494 310.423 24.4555 299.947 25.2178C268.75 27.5049 237.554 29.7107 206.358 32.0588C201.388 32.4349 196.074 32.9431 192.238 36.1247C188.401 39.3063 187.298 46.2082 191.398 49.0442" fill="#FEDC00"/>
<path d="M193.068 57.4912C216.895 136.543 243.587 227.457 266.605 306.621C268.68 313.634 270.886 325.568 278.984 325.151C305.109 319.001 337.763 312.994 364.1 307.22C366.59 306.702 379.587 303.988 381.824 303.52C385.174 302.687 389.173 302.544 392.26 301.579L392.068 301.65C392.918 301.294 393.738 300.674 394.851 299.912L394.669 300.054C396.157 298.794 397.22 297.066 397.412 295.378C397.574 293.162 396.43 291.394 395.884 289.168L395.367 286.738L395.448 287.033C392.918 278.2 390.651 269.397 387.766 260.747C386.622 257.433 384.537 254.394 383.13 251.029C382.371 249.25 381.703 247.258 381.672 244.991L381.753 245.561L355.142 157.604C348.482 135.73 335.242 91.5026 328.714 69.5873C326.396 62.3601 324.533 54.706 322.904 47.2959C321.082 40.4143 318.986 32.3333 312.812 28.3487C309.816 26.5393 306.071 26.1429 302.376 26.2445C299.117 26.3157 294.329 26.7833 291.009 26.9561C276.393 27.8912 237.574 30.4426 222.493 31.3879L211.075 32.1198C202.603 32.5976 188.827 32.5772 188.908 44.1549C188.958 46.0558 189.849 47.9363 191.418 49.0645C189.829 47.9769 188.877 46.0964 188.776 44.1651C188.442 32.3943 202.41 31.947 211.024 31.3574C218.019 30.9204 260.045 27.2407 268.052 26.6918C272.384 26.3564 292.73 24.6893 296.566 24.4047C304.35 23.5915 313.48 23.2561 318.581 30.4324C322.165 35.1896 323.946 41.0343 325.434 46.6657C327.185 54.2079 329.007 61.4148 331.447 68.764C347.186 119.964 371.611 197.664 386.723 249.515C388.14 252.859 390.266 255.898 391.511 259.507C393.282 264.711 394.79 270.037 396.319 275.282L397.868 280.589C398.353 282.489 398.708 284.217 399.305 285.803L399.345 285.976L399.872 288.405L399.821 288.222C400.125 289.249 400.56 290.347 400.935 291.577C401.36 292.857 401.653 294.524 401.461 295.876C400.813 300.42 397.706 303.561 393.576 305.431C389.74 306.61 386.268 306.6 382.593 307.474C371.601 309.731 347.763 314.62 336.518 316.928C319.988 320.526 296.07 324.683 279.925 328.688C270.34 329.857 266.372 319.55 264.489 311.927C241.107 229.439 215.842 140.04 193.098 57.542L193.068 57.4912Z" fill="#292D33"/>
<path d="M341.336 322.803C335.647 325.619 332.428 331.941 333.916 337.359C335.404 342.777 341.478 346.772 347.885 346.538C354.282 346.314 360.406 341.892 361.975 336.373C362.653 333.964 362.521 331.392 361.519 329.146C359.272 324.155 352.399 321.309 346.387 322.905C346.265 323.311 346.134 323.708 346.012 324.114" fill="#FEDC00"/>
<path d="M341.336 322.803C332.327 328.516 331.892 340.48 342.601 344.261C350.749 347.412 362.461 340.845 360.973 331.392C359.839 325.161 352.369 321.99 346.417 323.006L346.498 322.925L346.012 324.104L346.275 322.864C349.332 321.573 353.138 321.827 356.357 323.128C363.888 325.974 365.892 335.163 361.013 341.344C356.58 347.117 348.401 349.658 341.609 346.944C336.639 345.074 332.236 340.205 332.58 334.594C332.783 329.359 336.619 324.561 341.326 322.803H341.336Z" fill="#292D33"/>
</g>
<defs>
<clipPath id="clip0_1_406">
<rect width="267" height="383" fill="white" transform="translate(160.475 0.324219)"/>
</clipPath>
</defs>
</svg>
