<svg width="700" height="500" viewBox="0 0 700 500" fill="none" xmlns="http://www.w3.org/2000/svg">
<path d="M368.561 372.392C365.51 373.762 362.011 374.363 360.267 373.802C363.321 372.424 366.811 371.836 368.561 372.392Z" fill="white"/>
<path d="M372.167 364.311C366.828 366.136 361.711 367.538 356.635 368.839C351.579 370.106 346.598 371.257 341.873 371.977C347.213 370.149 352.334 368.745 357.406 367.449C362.462 366.184 367.44 365.033 372.169 364.311L372.167 364.311Z" fill="white"/>
<path d="M365.432 356.368C347.93 363.168 331.117 367.349 316.826 368.434C332.516 365.343 348.689 361.335 365.432 356.368Z" fill="white"/>
<path d="M354.577 350.114C342.473 354.503 330.572 358.046 319.102 361.033C307.693 363.935 296.364 366.373 285.907 367.787C297.117 365.222 308.429 362.604 319.861 359.646C331.274 356.724 342.957 353.427 354.579 350.112L354.577 350.114Z" fill="white"/>
<path d="M346.482 341.494C319.898 349.891 293.396 357.469 267.748 363.992C294.336 355.588 320.83 348.023 346.482 341.494Z" fill="white"/>
<path d="M327.45 336.434C310.677 342 294.25 346.39 278.516 349.913C262.866 353.332 247.44 355.986 233.287 357.255C248.264 354.821 263.713 351.976 279.366 348.504C295.033 345.05 311.211 340.908 327.45 336.434Z" fill="white"/>
<path d="M313.787 332.295C280.856 340.283 248.067 347.41 216.316 353.462C249.252 345.465 282.032 338.354 313.787 332.295Z" fill="white"/>
<path d="M295.549 325.125C257.664 335.345 219.812 344.745 183 353.054C220.89 342.825 258.733 333.442 295.549 325.125Z" fill="white"/>
<g clip-path="url(#clip0_211_509)">
<path d="M313.514 120.16C311.865 120.391 310.501 121.657 309.756 123.154C309.011 124.65 308.812 126.354 308.749 128.018C308.448 135.479 311.579 141.904 313.379 148.998C315.203 156.172 316.733 163.433 318.874 170.519C323.956 187.391 329.038 204.254 334.12 221.126C345.664 259.447 357.208 297.76 368.752 336.081C372.716 348.016 375.689 360.278 379.638 372.213C381.469 377.762 384.688 382.611 387.051 387.826C389.295 392.763 394.274 395.987 399.419 397.166C405.279 398.511 411.392 397.651 417.314 396.64C445.936 391.767 473.266 382.754 500.69 373.479C504.71 372.117 508.841 370.557 511.782 367.483C514.724 364.41 516.088 359.402 513.812 355.811C497.376 329.895 497.852 295.244 488.734 265.912C484.54 252.424 480.354 238.945 476.16 225.457C471.307 209.852 466.463 194.254 461.611 178.649C457.115 164.198 452.58 149.635 445.365 136.331C440.497 127.349 434.012 118.663 424.719 114.483C417.203 111.099 408.672 111.019 400.434 111.195C369.481 111.847 338.592 115.271 308.242 121.394C307.98 122.771 313.768 118.774 313.506 120.152L313.514 120.16Z" fill="white"/>
<path d="M313.49 120.231C308.939 121.306 308.701 126.768 308.955 130.614C309.399 136.928 312.079 142.788 313.68 148.863C319.032 171.371 326.636 193.259 333.319 215.393C343.587 248.985 368.165 327.522 377.894 360.134C379.091 364.139 380.328 368.176 381.667 372.069C382.992 375.819 385.053 379.386 387.027 383.152C387.971 384.856 388.827 387.006 389.818 388.567C390.817 390.063 392.141 391.369 393.687 392.412C400.426 396.943 408.775 395.868 416.497 394.53C420.137 393.885 425.187 392.922 428.747 392.149C453.246 386.887 477.063 378.988 500.793 370.899C504.377 369.681 508.072 368.144 510.474 365.349C512.321 363.112 513.36 359.712 511.83 357.109C496.901 333.032 495.703 303.787 489.432 277.115C484.239 257.058 475.398 230.8 469.492 210.799L462.15 186.65C455.91 166.69 450.764 146.116 438.983 128.791C431.118 117.572 421.754 112.668 408.077 112.381C374.762 111.895 340.796 115.598 308.329 121.41C308.313 121.521 308.329 121.585 308.424 121.601C309.78 121.458 310.969 120.566 312.245 120.128C312.594 120.001 312.959 119.833 313.34 119.865C313.522 119.873 313.546 120.104 313.482 120.231H313.49ZM313.514 120.096C313.514 119.993 313.458 119.881 313.34 119.873C312.967 119.857 312.602 120.032 312.261 120.168C311.096 120.653 310.017 121.346 308.796 121.72C308.606 121.76 308.313 121.84 308.178 121.617C308.123 121.505 308.154 121.426 308.154 121.322L308.218 121.306C332.804 115.964 357.834 112.564 382.944 110.9C387.13 110.637 391.324 110.406 395.519 110.231C403.97 109.937 412.581 109.363 420.89 111.712C441.575 117.62 451.074 143.098 457.845 161.506C462.721 175.305 468.667 195.528 473.313 209.605C479.402 229.741 488.401 255.84 493.777 276.08C500.27 303.031 501.38 331.774 516.341 355.548C518.339 359.792 516.976 364.951 514.121 368.391C511.021 372.085 506.621 373.917 502.355 375.405C478.467 383.447 454.427 391.433 429.675 396.537C426.091 397.325 420.89 398.209 417.227 398.861C413.064 399.546 408.735 400.159 404.272 399.944C396.335 399.769 387.804 395.541 384.783 387.81C382.524 383.017 379.765 378.646 377.949 373.375C376.601 369.299 375.428 365.27 374.254 361.201C365.033 328.979 341.264 249.2 331.599 215.911C325.28 193.681 318.017 171.626 313.03 149.022C311.524 142.907 308.931 137.007 308.59 130.63C308.337 126.728 308.828 120.916 313.506 120.088L313.514 120.096Z" fill="#292D33"/>
<path d="M415.586 101.099C420.557 101.393 425.75 101.863 429.968 104.53C433.56 106.808 435.946 110.398 437.587 114.26C439.276 118.225 441.084 122.405 442.408 126.466C447.419 141.88 452.437 157.303 457.448 172.717C459.636 179.453 461.405 186.117 463.688 192.861C468.31 206.524 473.107 219.78 477.159 233.666C481.725 249.311 486.3 264.949 490.867 280.594C497.376 302.888 507.144 323.86 511.671 346.782C512.654 351.742 513.003 356.177 509.887 360.158C507.699 362.953 504.512 364.545 501.309 365.875C498.851 366.894 496.758 368.431 494.205 369.155C491.343 369.967 488.409 370.573 485.515 371.281C476.659 373.447 467.803 375.612 458.947 377.778C454.84 379.84 448.822 380.254 444.342 381.345C439.125 382.619 433.908 383.893 428.699 385.167C420.184 387.245 412.335 388.256 403.614 386.353C397.104 384.936 392.022 380.246 390.127 373.909C387.693 365.771 385.545 357.515 382.873 349.457C377.735 332.14 372.597 314.823 367.452 297.513C365.937 292.402 363.876 287.179 362.829 281.948C359.674 266.167 353.109 251.007 349.668 235.163C346.33 219.796 341.7 204.645 335.706 190.114C332.891 183.283 331.781 175.774 329.434 168.728C327.246 162.175 324.313 155.965 322.481 149.309C320.42 141.785 318.35 134.261 316.289 126.744C315.369 123.4 314.45 119.841 315.417 116.513C316.336 113.344 318.874 110.844 321.76 109.268C327.571 106.083 334.659 105.024 341.113 104.116C349.327 102.962 357.581 102.078 365.85 101.465C382.397 100.247 399.023 100.127 415.586 101.115V101.099Z" fill="white"/>
<path d="M415.609 100.701C425.607 101.067 433.203 103.344 437.595 113.177C439.744 118.066 441.845 122.978 443.431 128.074C448.156 142.565 458.852 174.747 462.99 188.832C467.446 202.28 472.441 215.592 476.619 229.152C481.392 244.845 487.061 264.375 491.795 280.148C497.844 300.539 506.716 320.046 511.703 340.85C514.201 350.93 516.199 359.864 505.21 365.62C503.656 366.48 501.911 367.085 500.381 367.865C498.867 368.63 497.297 369.585 495.45 370.246C490.296 371.791 485.079 372.778 479.886 374.147L459.304 379.219L459.621 379.1C455.157 381.265 450.344 381.552 445.714 382.579C437.556 384.418 426.527 387.77 418.226 388.646C405.374 389.904 392.03 387.436 388.296 373.144C386.076 365.397 383.816 357.196 381.35 349.585C379.4 342.897 372.494 319.608 370.417 312.506L366.445 299.026C364.859 293.469 362.631 287.863 361.489 282.059C358.984 269.439 354.425 257.393 350.968 245.004C349.716 241.047 348.629 235.362 347.67 231.293C345.601 222.193 343.056 213.204 340.059 204.366C338.552 199.947 336.927 195.576 335.183 191.244C331.551 182.502 330.568 173.091 327.024 164.349C325.391 159.978 323.591 155.63 322.243 151.084C320.967 146.538 319.785 142.031 318.557 137.509L316.725 130.725C315.623 126.139 313.625 121.497 314.775 116.664C318.049 105.319 335.999 104.451 345.68 102.954C368.855 100.024 392.3 99.2755 415.609 100.701ZM415.562 101.489C392.3 100.143 368.918 100.979 345.807 103.981C336.602 105.438 318.945 106.378 315.893 116.951C314.854 121.45 316.876 126.012 317.954 130.383L319.841 137.151C321.11 141.649 322.346 146.196 323.639 150.662C324.994 155.097 326.818 159.397 328.499 163.784C332.106 172.414 333.232 181.977 336.879 190.544C338.671 194.891 340.352 199.278 341.906 203.713C345.006 212.591 347.654 221.627 349.819 230.776C350.746 234.868 352.031 240.402 353.212 244.351C355.813 253.348 358.992 262.162 361.553 271.191C362.909 275.673 363.773 280.299 364.915 284.846C367.285 292.489 370.901 303.787 373.152 311.67C375.301 318.796 382.151 341.846 384.205 348.677C386.718 356.313 388.993 364.545 391.253 372.26C394.504 384.96 406.634 386.497 417.909 385.517C428.604 384.371 441.322 379.872 451.978 378.328C454.348 377.874 456.576 377.245 458.59 376.305C468.255 373.861 485.032 370.063 494.49 367.547C495.989 367.021 497.463 366.154 499.105 365.326C502.173 363.892 505.487 362.73 507.874 360.31C511.679 356.751 511.346 351.36 510.276 346.607C509.245 341.424 507.977 336.296 506.502 331.224C501.602 314.273 494.744 297.776 489.852 280.721C485.254 264.901 479.759 245.338 475.145 229.605C471.093 216.014 466.225 202.702 461.88 189.182C457.845 175.145 447.109 142.637 442.535 128.361C440.981 123.289 438.896 118.392 436.794 113.543C432.6 104.053 425.322 101.871 415.562 101.481V101.489Z" fill="#292D33"/>
<path d="M333.684 144.778C333.867 145.176 333.867 145.718 334.001 146.132C334.81 148.305 335.357 150.344 335.896 152.517C341.438 170.989 346.441 188.641 351.714 207.24C364.962 253.412 377.679 296.868 390.793 343.167C392.284 348.597 394.44 356.336 401.338 355.795C409.584 353.621 417.703 352.268 426.353 350.5C446.095 346.424 463.672 342.626 483.414 338.685C485.713 338.279 488.013 338.143 490.177 337.466C491.121 337.06 491.803 336.519 492.611 335.97C494.371 334.473 495.584 332.307 495.315 329.998C495.045 328.501 494.506 327.283 494.102 325.922C493.967 325.245 493.832 324.703 493.697 324.019C493.158 322.522 492.889 321.033 492.484 319.536C490.867 314.138 489.416 308.66 487.608 303.325C486.403 299.774 482.938 295.435 482.938 291.621C473.488 260.57 464.029 229.518 454.578 198.474C449.464 181.682 444.35 164.89 439.236 148.098C437.246 141.57 436.493 134.682 433.702 128.4C430.206 120.542 425.607 118.902 417.401 119.499C392.966 121.29 368.53 123.018 344.094 124.857C340.201 125.152 336.039 125.55 333.034 128.042C330.029 130.534 329.165 135.94 332.376 138.162" fill="#FEDC00"/>
<path d="M333.684 144.778C352.348 206.699 373.255 277.911 391.285 339.919C392.91 345.413 394.639 354.76 400.981 354.433C421.445 349.616 447.022 344.911 467.652 340.389C469.603 339.982 479.783 337.857 481.535 337.49C484.159 336.837 487.291 336.726 489.709 335.97L489.559 336.025C490.225 335.747 490.867 335.261 491.739 334.664L491.596 334.775C492.762 333.788 493.594 332.434 493.745 331.113C493.872 329.377 492.976 327.992 492.548 326.248L492.143 324.345L492.207 324.576C490.225 317.657 488.449 310.762 486.189 303.986C485.293 301.391 483.66 299.01 482.558 296.375C481.963 294.981 481.44 293.421 481.416 291.645L481.48 292.091L460.636 223.196C455.419 206.062 445.048 171.419 439.934 154.253C438.119 148.592 436.66 142.597 435.383 136.792C433.956 131.402 432.315 125.072 427.479 121.951C425.132 120.534 422.198 120.223 419.304 120.303C416.751 120.359 413.001 120.725 410.4 120.86C398.952 121.593 368.546 123.591 356.732 124.332L347.789 124.905C341.153 125.279 330.362 125.263 330.426 134.332C330.465 135.821 331.163 137.294 332.392 138.178C331.147 137.326 330.402 135.853 330.322 134.34C330.061 125.12 341.002 124.77 347.749 124.308C353.228 123.966 386.147 121.083 392.419 120.653C395.812 120.391 411.748 119.085 414.753 118.862C420.85 118.225 428.002 117.962 431.998 123.583C434.804 127.31 436.2 131.888 437.365 136.299C438.737 142.207 440.164 147.852 442.075 153.608C454.404 193.713 473.535 254.574 485.373 295.188C486.483 297.808 488.148 300.188 489.123 303.015C490.51 307.091 491.692 311.264 492.889 315.372L494.102 319.528C494.482 321.017 494.76 322.371 495.228 323.613L495.259 323.748L495.672 325.651L495.632 325.508C495.87 326.312 496.211 327.172 496.504 328.135C496.837 329.138 497.067 330.444 496.916 331.503C496.409 335.062 493.975 337.522 490.74 338.987C487.735 339.911 485.016 339.903 482.138 340.588C473.527 342.355 454.856 346.185 446.047 347.992C433.1 350.811 414.365 354.067 401.719 357.204C394.21 358.12 391.102 350.046 389.628 344.075C371.313 279.463 351.523 209.438 333.708 144.818L333.684 144.778Z" fill="#292D33"/>
<path d="M449.821 352.594C445.365 354.8 442.844 359.752 444.009 363.996C445.175 368.24 449.932 371.369 454.951 371.185C459.962 371.01 464.758 367.547 465.987 363.224C466.518 361.337 466.415 359.322 465.63 357.563C463.87 353.653 458.487 351.424 453.777 352.674C453.682 352.992 453.579 353.303 453.484 353.621" fill="#FEDC00"/>
<path d="M449.821 352.594C442.765 357.069 442.424 366.44 450.812 369.402C457.194 371.87 466.368 366.727 465.202 359.322C464.314 354.441 458.463 351.957 453.801 352.753L453.865 352.69L453.484 353.613L453.69 352.642C456.085 351.631 459.066 351.83 461.587 352.849C467.486 355.078 469.056 362.276 465.234 367.117C461.761 371.639 455.355 373.63 450.035 371.504C446.142 370.039 442.693 366.225 442.963 361.83C443.121 357.73 446.126 353.972 449.813 352.594H449.821Z" fill="#292D33"/>
</g>
<defs>
<clipPath id="clip0_211_509">
<rect width="209.138" height="300" fill="white" transform="translate(308.154 100)"/>
</clipPath>
</defs>
</svg>
