<svg width="493" height="333" viewBox="0 0 493 333" fill="none" xmlns="http://www.w3.org/2000/svg">
<path d="M195.059 117.124H335.788C337.758 120.934 332.983 140.996 330.472 163.098C328.543 180.067 328.917 198.239 328.823 211.182V218.31L247.204 264.301L167.529 218.31C167.62 203.988 172.154 182.932 173.182 163.098C174.604 135.685 170.37 112.128 175.749 112.128C184.354 112.127 194.195 112.375 195.059 117.124Z" fill="#FEDC00"/>
<path d="M0 332.137C163.09 315.485 328.925 314.939 492.118 330.598C328.409 322.261 163.653 322.746 0 332.137Z" fill="white"/>
<path d="M52.9191 191.108C57.6584 183.485 105.171 157.055 105.171 157.055L173.537 232.534L119.938 275.195C119.938 275.195 48.1798 198.731 52.9191 191.108Z" fill="white"/>
<path d="M137.016 262.597C134.958 264.694 130.796 268.888 128.718 270.959C126.918 272.783 124.602 274.656 121.826 274.447C119.057 274.212 116.94 272.128 115.22 270.193C113.262 267.999 111.437 265.663 109.459 263.53C97.1151 250.009 82.5788 233.418 70.3774 219.545C67.8722 216.648 61.2582 209.024 58.828 206.207C52.0017 198.761 47.3647 191.847 56.7014 183.82C59.4392 181.404 63.8333 179.334 66.9282 177.478C68.6125 176.5 70.2832 175.503 71.9604 174.499C82.0369 168.441 91.802 161.73 102.463 156.677C95.783 160.813 89.4241 165.375 83.0521 169.957C78.2476 173.368 73.4302 176.814 68.434 179.966C63.7794 183.067 55.9814 186.515 55.0814 192.568C54.99 195.093 56.3562 197.208 57.9634 199.279C62.2304 204.265 69.0254 211.866 73.4138 216.891C83.5972 228.591 94.0769 240.83 103.941 252.743C106.441 255.768 108.968 258.765 111.448 261.81C113.941 264.761 116.085 268.2 118.715 270.921C121.809 274.172 124.965 272.811 127.974 270.144C130.959 267.597 133.99 265.097 137.022 262.597L137.016 262.597Z" fill="#292D33"/>
<path d="M105.739 154.699C114.785 162.462 122.937 171.064 130.877 179.903C138.744 188.804 146.352 197.897 153.005 207.789C143.953 200.033 135.801 191.424 127.868 182.584C120.007 173.676 112.399 164.584 105.739 154.699Z" fill="#292D33"/>
<path d="M99.0353 169.673C102.656 182.944 104.871 196.537 106.725 210.149C107.139 211.908 107.291 215.45 108.147 217.579L107.728 216.961C107.769 217.007 107.776 217.027 107.905 217.079C108.875 217.353 109.9 217.205 111.189 217.656C113.846 218.947 115.536 220.661 118.264 221.32C122.628 222.734 126.252 225.467 130.518 227.057C126.955 226.759 123.504 225.325 120.127 224.38C118.374 223.828 116.554 223.781 114.818 223.094C112.982 222.389 111.438 221.438 109.939 220.808L110.161 220.899C109.339 220.683 107.986 220.89 106.88 220.57C106.193 220.412 105.421 219.933 104.896 219.364C103.561 216.611 103.362 213.466 102.771 210.655C100.811 197.065 99.212 183.416 99.0352 169.66L99.0353 169.673Z" fill="#292D33"/>
<path d="M168.042 186.96C161 192.27 155.042 198.685 156.013 208.058L156.16 210.436C156.462 215.192 156.953 224.692 157.24 229.448C157.715 235.739 157.679 251.447 157.857 257.981C157.963 264.278 158.22 280.429 158.323 286.516C158.497 291.722 157.793 299.172 161.8 302.86C162.288 303.293 162.864 303.613 163.476 303.835C211.603 303.6 279.58 303.793 327.521 303.635C331.473 303.525 335.925 302.625 337.734 298.83L337.508 299.833L337.215 273.415C337.151 260.208 336.652 247.023 337.031 233.825C337.144 225.01 337.212 216.227 337.167 207.407C337.417 202.882 333.882 199.605 331.397 196.194C334.36 199.419 338.345 202.607 338.519 207.365C339.376 216.128 340.105 224.938 340.668 233.734C341.736 242.539 341.86 290.01 342.025 299.775C342.03 300.133 341.945 300.478 341.799 300.779C340.959 302.514 339.622 304.101 338.022 305.228C333.535 308.375 327.939 308.143 322.813 308.143L303.645 308.16C268.482 308.2 203.634 308.215 168.275 308.25C166.064 308.186 163.668 308.832 161.482 307.864C156.847 305.984 154.833 300.864 154.204 296.381C153.763 293.41 153.917 289.543 153.814 286.597C153.712 280.576 153.446 264.291 153.348 258.062C153.312 251.466 152.764 235.93 153.024 229.524C153.166 224.799 153.343 215.215 153.477 210.49C153.176 198.57 158.32 193.041 168.042 186.967L168.042 186.96Z" fill="#292D33"/>
<path d="M153.798 285.749C155.097 292.822 154.619 301.103 161.853 305.136C199.571 308.135 236.622 306.415 274.306 307.051C293.412 305 312.587 307.677 331.685 305.036C335.862 304.385 339.423 302.56 341.165 298.988C342.594 296.054 341.032 288.594 340.996 285.261C340.943 280.38 340.902 275.499 340.849 270.612C340.75 260.873 340.645 251.135 340.449 241.397C340.254 231.63 339.969 221.865 339.528 212.107C339.318 207.477 340.334 204.14 334.657 204.034C325.762 203.867 315.847 214.124 308.961 218.863C299.984 225.039 291.014 231.222 282.038 237.398C271.41 244.716 259.555 252.376 246.662 251.138C238.159 250.322 230.581 245.698 223.351 241.193C202.888 228.452 182.425 215.704 161.962 202.957C159.868 201.658 157.438 200.298 155.062 200.977C151.001 202.135 154.195 210.074 154.249 212.963C154.374 219.504 153.985 226.046 154.092 232.593C154.246 241.586 154.496 250.584 154.525 259.579C154.553 267.688 152.344 277.874 153.792 285.749L153.798 285.749Z" fill="white"/>
<path d="M227.204 247.952C212.125 263.235 195.661 277.887 179.328 291.765C173.824 296.406 168.259 300.981 162.544 305.368L160.083 302.365C170.444 292.644 181.813 283.158 192.803 274.132C197.758 270.15 204.75 264.509 209.731 260.716C215.431 256.314 221.193 251.979 227.105 247.839L227.196 247.952L227.204 247.952Z" fill="#292D33"/>
<path d="M278.731 245.045C291.961 261.106 306.318 276.049 322.265 289.42C327.521 293.908 332.881 298.327 338.102 302.942L335.695 305.948C321.475 295.768 307.969 284.304 296.645 270.918C289.858 262.894 283.691 254.302 278.613 245.121L278.731 245.038L278.731 245.045Z" fill="#292D33"/>
<path d="M167.882 201.002C168.312 191.906 169.71 182.863 170.486 173.807C170.423 171.49 170.268 168.08 170.784 165.407C170.956 161.229 170.614 155.761 170.232 151.123C169.364 141.404 168.059 131.57 169.401 121.758C169.813 119.147 170.027 116.29 171.697 114.077C173.423 111.651 176.219 110.025 179.138 109.65C181.865 109.52 185.098 109.609 187.616 111.075C194.522 114.221 202.247 114.388 209.855 114.739C220.274 115.086 230.686 115.441 241.11 115.599C264.269 116.033 288.258 115.783 311.456 115.228C313.794 115.179 320.793 114.919 323.109 114.855C327.915 114.347 334.105 112.045 337.589 117.008C339.425 119.556 340.035 122.869 339.315 125.922C339.069 127.088 338.437 130.51 338.185 131.737C336.261 141.293 333.258 157.018 331.297 166.537C329.365 175.496 330.143 184.726 329.976 193.849C329.969 196.484 329.94 199.112 329.836 201.748C329.78 203.07 329.724 204.362 329.63 205.7C329.551 206.396 329.117 206.998 328.583 207.384C328.049 207.784 327.437 208.027 326.857 208.322C327.422 207.989 328.017 207.701 328.506 207.286C329.003 206.879 329.347 206.3 329.383 205.673C329.394 204.382 329.375 203.046 329.341 201.74C329.159 193.846 328.475 186.004 328.345 178.093C328.243 174.161 328.401 170.036 329.117 166.138L329.75 162.248L332.306 146.688C332.783 143.888 335.127 129.765 335.563 127.26C335.676 126.292 336.102 124.617 336.088 123.636C336.095 121.567 335.132 119.248 333.663 118.288C331.773 117.168 329.637 117.795 327.468 118.129C326.204 118.366 324.889 118.657 323.406 118.784L319.45 118.977C293.361 120.209 267.118 120.65 241.017 120.047C230.562 119.806 220.113 119.505 209.668 118.947C201.774 118.48 193.326 118.112 185.934 114.55C183.869 113.326 181.635 113.336 179.184 113.356L179.446 113.338C177.486 113.615 175.671 114.623 174.516 116.165C173.942 116.943 173.535 117.795 173.339 118.779C173.13 119.869 172.878 121.104 172.685 122.254C170.411 136.602 173.809 151.177 172.632 165.637C172.057 168.378 171.992 171.158 171.981 173.974C170.792 183.029 168.897 191.935 167.874 201.002L167.882 201.002Z" fill="#292D33"/>
<path d="M210.322 147.914C214.631 144.057 220.797 143.053 226.052 144.934C227.839 145.566 229.563 146.516 231.089 147.818L230.915 147.701C233.346 148.811 236.05 149.071 238.616 148.564C241.181 148.082 243.631 146.824 245.561 144.908C245.997 144.474 246.658 144.524 247.04 145.023C247.162 145.175 247.232 145.353 247.273 145.549C247.441 146.299 247.871 147.002 248.434 147.507C250.116 149.209 252.912 148.066 253.485 145.698C253.724 144.575 255.185 144.469 255.568 145.523C255.568 145.532 256.767 148.548 256.767 148.565L255.422 147.858C259.296 146.571 264.744 144.732 268.582 143.497C268.843 143.416 269.114 143.455 269.341 143.597C272.051 145.292 275.248 145.947 278.34 145.56C281.777 145.681 288.734 145.991 292.172 146.171C296.173 146.404 302.044 146.729 306.001 147.065C299.638 147.371 291.652 147.512 285.24 147.597L278.318 147.637C275.581 148.224 271.288 147.508 268.366 145.705L269.155 145.796C266.984 146.571 264.797 147.312 262.618 148.062L256.072 150.31C255.527 150.498 254.953 150.181 254.727 149.603L253.543 146.569L255.633 146.411C254.017 152.374 246.589 152.2 245.233 146.109L246.945 146.742C242.313 151.125 235.518 152.172 230.142 149.242C224.631 144.168 216.381 143.69 210.337 147.923L210.322 147.914Z" fill="#292D33"/>
<path d="M212.689 169.369C212.64 166.522 214.59 163.645 217.509 162.602C217.637 162.556 217.773 162.576 217.88 162.655C221.425 165.253 226.649 165.465 230.358 163.173C231.008 162.744 231.878 163.438 231.609 164.134C231.379 164.91 231.61 165.79 232.149 166.518C234.103 169.103 237.422 168.613 240.532 168.185L253.935 166.423C262.889 165.3 271.851 164.257 280.838 163.332C281.252 163.289 281.626 163.585 281.669 163.989L281.943 166.745L281.045 166.192C283.832 165.378 286.635 164.587 289.437 163.81C291.972 164.304 294.487 165.062 297.009 165.688C294.846 165.336 291.06 164.898 289.652 164.536C286.935 165.532 284.211 166.514 281.479 167.473C281.126 167.596 280.738 167.418 280.613 167.074C280.597 167.022 280.581 166.971 280.573 166.912L280.133 164.181L281.003 164.838C272.098 166.196 263.169 167.437 254.23 168.597L240.818 170.256C238.476 170.526 235.976 170.805 233.647 169.926C231.151 168.976 229.121 166.341 229.995 163.628L231.246 164.588C226.913 167.028 221.112 166.502 217.376 163.318L217.777 163.393C215.155 164.115 212.987 166.546 212.696 169.376L212.689 169.369Z" fill="#292D33"/>
<path d="M213.235 195.512C211.989 191.139 217.347 186.785 221.351 188.77C221.548 188.866 221.664 189.071 221.66 189.285C221.716 190.593 222.337 191.854 223.261 192.766C226.167 195.853 231.174 193.844 231.665 189.806C231.714 189.032 232.664 188.621 233.243 189.102C237.191 191.837 242.354 191.204 247.012 191.09C249.488 190.985 251.964 190.942 254.44 190.868C256.923 190.801 259.407 190.719 261.89 190.683C262.139 190.679 262.366 190.768 262.541 190.911C263.843 191.902 265.874 192.278 267.548 192.452C269.274 192.588 271.292 192.605 272.824 191.848C273.249 191.582 273.824 191.78 273.997 192.252L275.312 195.698L274.47 195.259C280.039 194.122 285.617 193.016 291.22 192.055C285.778 193.718 280.296 195.228 274.807 196.708C274.454 196.805 274.09 196.603 273.965 196.268L272.478 192.893L273.651 193.297C271.664 194.389 269.557 194.466 267.418 194.39C265.239 194.199 263.187 193.916 261.263 192.574L261.936 192.802C259.461 192.929 256.985 193.011 254.51 193.1C252.034 193.182 249.559 193.302 247.083 193.361C242.07 193.465 236.447 194.02 232.062 190.726L233.641 190.022C232.923 195.548 225.875 198.091 222.229 193.752C221.15 192.544 220.471 190.932 220.508 189.279L220.816 189.795C217.378 187.863 212.538 191.59 213.235 195.505L213.235 195.512Z" fill="#292D33"/>
<path d="M211.216 209.708C218.449 210.917 227.031 213.563 233.496 208.846C233.788 208.622 234.167 208.601 234.473 208.763C238.166 210.737 242.966 210.531 246.485 208.293C246.755 208.122 247.073 208.08 247.363 208.159C253.061 209.716 259.34 209.018 264.566 206.27C265.07 205.982 265.71 206.17 265.983 206.674C266.419 210.001 271.142 211.853 273.667 209.652C274.042 209.321 274.65 209.433 274.877 209.878C276.204 212.447 280.244 213.246 282.516 211.376C282.696 211.199 282.999 211.21 283.154 211.413C283.223 211.495 283.255 211.601 283.249 211.7C283.179 214.214 285.951 216.443 288.477 215.867C285.797 216.855 282.502 214.595 282.362 211.713L283.102 212.036C281.793 213.315 279.858 213.799 278.063 213.551C276.224 213.305 274.434 212.313 273.469 210.665L274.709 210.867C271.318 214.059 264.906 211.935 264.043 207.355L265.564 208.085C262.757 209.689 259.607 210.669 256.396 211.049C253.184 211.445 249.895 211.189 246.779 210.293L247.673 210.166C243.462 212.801 237.894 212.889 233.602 210.423L234.618 210.356C227.51 215.158 218.625 212.06 211.224 209.693L211.216 209.708Z" fill="#292D33"/>
<path d="M161.693 200.426C169.502 203.904 176.83 208.456 184.037 212.966C190.824 218.064 197.593 222.991 204.775 227.299C211.949 231.645 219.411 235.553 226.99 239.288C230.78 241.16 234.599 242.978 238.426 244.804C244.048 247.388 249.292 250.418 255.376 250.143C261.442 249.696 266.297 246.124 271.494 242.801L292.8 228.896L314.106 214.991C321.587 210.926 329.053 206.846 336.65 202.958C330.046 208.339 323.311 213.529 316.583 218.733L295.277 232.638L273.971 246.543C270.437 248.827 266.817 251.343 262.514 253.041C253.18 256.991 244.654 252.852 236.476 248.849C232.641 247.023 228.799 245.19 224.979 243.312C211.564 236.779 198.408 229.34 186.447 220.36C177.765 214.244 170.362 206.617 161.693 200.433L161.693 200.426Z" fill="#292D33"/>
<path d="M282.521 71.1567C290.104 68.1418 297.688 65.1269 305.263 62.1087C327.995 53.0653 350.734 44.025 373.469 34.9738C378.129 33.1253 383.277 31.3337 386.35 34.3904C388.359 36.3877 389.082 40.1349 389.733 43.727C391.898 55.589 394.059 67.4587 396.216 79.3175C396.667 81.7819 397 84.8376 395.504 87.5368C394.21 89.8512 392.157 90.7811 390.365 91.4673C358.606 103.562 326.84 115.654 295.074 127.746C291.748 129.017 288.253 130.282 285.527 129.134C280.536 127.027 280.023 117.943 280.1 109.849C280.229 96.2557 280.641 82.4989 281.35 68.6303" fill="white"/>
<path d="M282.521 71.1568C312.265 58.0619 342.353 45.5499 372.399 33.1643C374.991 32.1047 377.804 30.9652 380.727 30.6539C387.569 29.8114 390.441 35.1273 391.506 40.9251C392.942 48.0284 396.157 65.5922 397.54 72.9532C398.482 78.6371 400.942 85.7834 396.237 90.7121C394.568 92.5206 392.303 93.4176 390.662 94.0217C366.733 103.005 333.132 115.801 309.437 124.368L299.255 128.088C296.081 129.143 291.907 131.119 288.37 131.222C283.566 131.543 280.584 127.326 279.77 123.145C278.909 119.385 278.841 115.683 278.871 112.029C279.286 97.4985 280.07 83.0568 281.35 68.6304C281.176 83.0976 281.048 97.5837 281.329 111.995C281.438 115.552 281.657 119.147 282.55 122.415C284.204 128.572 287.527 128.903 292.976 126.686L297.993 124.713C325.386 113.795 361.058 100.004 388.907 89.3544C394.246 87.8212 394.755 84.0941 393.716 79.1717L392.758 73.8326L388.947 52.4746L388.019 47.1296C387.4 43.875 387.038 40.1231 385.693 37.2549C384.291 34.3723 381.681 34.6677 378.827 35.3585C346.716 47.1102 314.798 59.8334 282.521 71.1568Z" fill="#292D33"/>
<path d="M290.359 74.9262C306.628 77.9251 322.598 82.2157 338.47 86.8348L335.937 87.5315C339.244 83.8833 342.57 80.2522 345.957 76.6728C356.129 65.9221 366.517 55.3683 377.679 45.6192C371.867 53.6326 365.618 61.2678 359.23 68.8013C352.509 76.7107 345.576 84.4342 338.507 92.0297L337.04 91.579C321.262 86.6654 305.579 81.4124 290.359 74.9262Z" fill="#292D33"/>
<path d="M129.498 15.2664C134.011 18.2147 138.523 21.1629 143.034 24.1058C156.562 32.941 170.092 41.7817 183.626 50.6157C186.396 52.4289 189.328 54.531 188.943 57.4091C188.692 59.29 187.035 61.1583 185.43 62.9269C180.137 68.7739 174.838 74.6222 169.543 80.4638C168.444 81.6791 156.915 92.5822 154.936 92.8282C153.235 93.0336 151.954 92.2797 150.902 91.5729C132.28 79.0167 113.657 66.4551 95.0337 53.8935C93.0812 52.5802 91.0663 51.1729 90.599 49.2347C89.7457 45.6845 104.323 32.3117 108.54 29.1693C115.622 23.8915 122.899 18.7036 130.349 13.634" fill="white"/>
<path d="M129.499 15.2609C147.853 26.3254 166.04 37.8069 184.145 49.3146C185.703 50.311 187.388 51.3967 188.687 52.8675C191.786 56.2665 190.155 59.9236 187.57 62.7854C184.455 66.3628 165.618 85.0283 162.349 88.6787C159.775 91.4281 157.036 95.581 152.655 94.955C151.069 94.7564 149.724 93.8746 148.772 93.2175C134.809 83.7059 115.106 70.421 101.45 60.8731L95.5609 56.7853C93.7796 55.4697 91.1323 53.972 89.7016 52.0839C87.6652 49.591 88.6857 46.3059 90.5318 44.2173C92.1411 42.2685 105.033 30.7727 106.935 29.3512C114.613 23.8611 122.389 18.6064 130.35 13.6285C122.798 19.2256 115.255 24.8552 107.909 30.6779C106.111 32.137 93.3346 43.6732 91.9918 45.4457C89.4507 48.77 90.5733 50.7119 93.842 52.8105L96.8151 54.7694C113.128 65.4085 134.151 79.4314 150.503 90.4245C153.375 92.7319 155.501 91.543 157.643 89.04L171.035 76.415L180.599 65.9344L183.003 63.3255C184.445 61.7071 186.245 60.034 187.206 58.1723C188.151 56.2739 186.982 54.967 185.513 53.6829C166.932 40.7993 147.923 28.4032 129.499 15.2609Z" fill="#292D33"/>
<path d="M130.598 21.0148C135.381 31.0643 139.379 41.4596 143.169 51.9301L141.823 50.8233C144.997 51.1908 148.171 51.5758 151.341 52.0137C160.863 53.33 170.367 54.8413 179.756 57.0913C173.348 57.0753 166.965 56.6721 160.581 56.1536C153.872 55.6008 147.178 54.8598 140.496 53.9943L140.158 53.0168C136.557 42.4817 133.169 31.8648 130.598 21.0148Z" fill="#292D33"/>
</svg>
