<svg width="700" height="500" viewBox="0 0 700 500" fill="none" xmlns="http://www.w3.org/2000/svg">
<path d="M416.833 182.236C442.656 173.578 466.531 160.465 493.984 155.703H504.725C530.986 160.474 556.054 166.426 581.131 175.968C582.323 175.968 583.516 178.348 583.516 178.348C550.092 249.855 513.081 313.019 466.522 380.954C464.137 384.525 461.743 388.106 458.166 390.486C452.195 394.057 446.223 395.257 440.261 394.057C403.251 383.335 369.827 367.841 334.018 355.919C329.239 354.729 324.469 357.109 319.69 358.3C310.142 363.071 299.392 364.261 288.651 367.832C281.487 371.403 273.131 374.984 265.968 377.364C248.063 382.135 231.351 388.087 214.639 394.048C212.254 394.048 208.668 395.239 207.475 394.048C184.792 373.784 160.916 360.68 138.233 340.416V336.845C141.81 329.693 147.781 323.732 152.56 316.581C177.628 274.871 207.475 240.304 239.707 204.555C242.092 200.984 245.678 197.404 248.063 193.833C252.842 190.261 256.419 184.3 263.583 186.681C276.718 192.642 288.651 202.174 299.299 211.251" fill="white"/>
<path opacity="0.15" d="M321.55 356.188L207.531 395.917L338.183 198.424L475.622 163.578L321.55 356.188Z" fill="#292D33"/>
<path d="M416.833 182.236C442.6 173.066 466.783 159.405 493.984 154.457L504.725 154.308C511.33 155.359 517.916 156.596 524.492 157.889C543.04 161.441 566.03 167.905 581.131 174.098C582.063 174.117 582.631 174.498 583.041 174.777C583.786 175.317 584.168 175.902 584.643 176.572C585.118 177.27 585.677 178.255 585.22 179.102C557.106 239.392 524.204 297.395 487.575 352.924C481.492 362.187 475.297 371.385 469.065 380.526C466.717 383.958 464.361 387.836 461.035 390.644C457.57 393.472 453.266 395.201 448.841 396.01C445.841 396.513 442.721 396.475 439.749 395.843C421.584 390.579 403.866 384.023 386.287 377.271C368.709 370.52 351.233 363.601 333.431 357.686C332.182 357.193 329.267 357.518 327.208 358.049C324.963 358.616 322.662 359.471 320.147 360.104L320.529 359.964C310.589 364.903 299.531 366.149 289.247 369.599C284.664 371.915 277.109 375.318 271.315 377.448C268.529 378.601 264.738 379.661 261.794 380.442C246.06 384.841 230.69 390.3 215.272 395.806C214.173 396.057 213.251 395.927 211.956 396.206C210.298 396.457 207.596 396.838 206.124 395.341C205.258 394.615 203.675 393.183 202.827 392.467C181.811 374.37 157.74 360.42 137.003 341.811C136.593 341.448 136.388 340.937 136.379 340.425V336.854C136.379 336.557 136.454 336.268 136.575 336.027C140.562 328.252 146.375 322.533 150.958 315.651C164.661 292.848 180.451 271.337 197.2 250.692C210.466 234.538 224.709 219.184 238.869 203.82C241.058 200.733 244.886 196.688 247.281 193.33C249.647 191.47 251.808 189.22 254.519 187.341C257.155 185.453 260.825 184.886 263.872 186.076C270.495 189.192 276.652 193.135 282.484 197.459C288.325 201.784 293.858 206.48 299.299 211.27C293.709 206.657 288.027 202.147 282.074 198.036C276.121 193.935 269.899 190.215 263.303 187.323C260.946 186.551 257.649 186.876 255.441 188.68C253.084 190.336 251.128 192.67 248.631 194.604L248.846 194.372C246.247 198.315 242.995 201.598 240.573 205.308C227.206 220.346 212.943 237.439 200.144 253.091C183.339 273.523 167.763 294.996 154.097 317.65C149.551 324.504 143.44 330.679 139.9 337.701L140.096 336.873V340.444L139.472 339.058C160.767 358.16 186.059 372.631 207.531 391.658L208.668 392.653L208.742 392.718C208.742 392.709 208.724 392.7 208.705 392.7C208.686 392.7 208.696 392.681 208.677 392.69C208.696 392.69 208.733 392.69 208.761 392.709C209.422 392.867 210.41 392.662 211.425 392.551C212.394 392.421 213.409 392.244 214.639 392.225L214.015 392.337C230.95 386.283 248.063 380.247 265.492 375.607C273.196 373.012 280.751 369.683 288.073 366.112C293.337 364.363 298.684 363.154 303.891 361.824C309.099 360.494 314.203 359.006 318.871 356.681C322.457 355.705 326.314 354.115 330.254 353.817C331.67 353.724 333.179 353.808 334.614 354.198C370.339 366.093 404.648 381.875 440.792 392.309C444.91 393.183 451.179 392.402 455.511 389.873C460.075 387.743 462.861 383.093 465.991 378.48C472.232 369.329 478.408 360.16 484.473 350.916C520.999 295.535 553.808 237.709 581.839 177.595L581.858 179.213C581.681 178.888 581.392 178.404 581.14 178.116C581.019 177.958 580.889 177.855 580.833 177.809C580.777 177.753 580.796 177.837 581.14 177.855C568.583 173.401 555.914 169.132 542.937 165.933C530.697 162.567 516.258 159.47 504.734 157.126L493.993 156.977L494.208 156.959C467.276 161.199 442.683 174.098 416.842 182.273L416.833 182.236Z" fill="#292D33"/>
<path d="M332.092 348.691C353.12 317.031 376.976 285.16 399.533 254.633C418.487 229.705 437.86 204.812 459.813 182.403L465.006 177.341C468.423 173.934 472.031 170.716 475.563 167.417C449.132 195.503 424.027 224.773 401.024 255.739C378.105 285.968 355.77 318.982 332.092 348.682L332.092 348.691Z" fill="#292D33"/>
<path d="M192.663 324.588C188.881 323.89 185.341 328.01 185.956 331.805C186.571 335.599 190.409 338.333 194.256 338.491C197.927 338.649 201.737 336.613 203.218 333.255C204.708 329.898 203.423 325.425 200.172 323.723C196.921 322.021 192.207 323.853 191.331 327.415" fill="#FEDC00"/>
<path d="M192.664 324.588C188.407 324.588 185.37 330.196 187.643 333.73C190.987 339.468 200.684 338.51 202.641 332.111C203.87 328.28 200.871 323.221 196.502 324.114C194.49 324.16 192.282 325.257 191.322 327.434C191.555 324.923 193.772 322.914 196.194 322.272C200.275 321.417 204.113 324.82 204.625 328.773C205.417 332.66 202.957 336.668 199.492 338.277C193.847 341.411 185.109 337.831 184.95 330.902C184.792 326.997 188.835 323.323 192.645 324.597L192.664 324.588Z" fill="#292D33"/>
<path d="M401.574 332.93C397.792 332.232 394.252 336.352 394.867 340.146C395.482 343.941 399.32 346.675 403.167 346.833C406.837 346.991 410.647 344.954 412.129 341.597C413.619 338.24 412.334 333.767 409.082 332.065C405.822 330.363 401.118 332.195 400.242 335.757" fill="#FEDC00"/>
<path d="M401.574 332.93C397.317 332.93 394.28 338.538 396.553 342.071C399.897 347.809 409.595 346.852 411.551 340.453C412.781 336.622 409.781 331.563 405.412 332.455C403.4 332.502 401.192 333.599 400.233 335.775C400.466 333.265 402.683 331.256 405.105 330.614C409.185 329.758 413.023 333.162 413.535 337.115C414.327 341.002 411.868 345.01 408.402 346.619C402.757 349.753 394.019 346.173 393.861 339.244C393.702 335.338 397.745 331.665 401.555 332.939L401.574 332.93Z" fill="#292D33"/>
<path d="M327.394 279.456C326.072 278.089 323.929 277.596 322.14 278.238C320.352 278.879 319.01 280.618 318.852 282.515C318.628 285.194 320.724 287.695 323.277 288.56C325.829 289.425 328.671 288.914 331.149 287.844C333.878 286.663 336.375 284.729 337.669 282.06C338.955 279.391 338.815 275.931 336.85 273.709C334.884 271.486 331.027 271.04 328.913 273.123" fill="#FEDC00"/>
<path d="M327.394 279.456C323.827 276.768 318.573 280.228 320.016 284.301C322.774 290.69 331.978 287.863 335.536 283.604C338.2 280.786 338.489 275.215 334.791 273.281C333.235 272.174 330.813 271.793 328.913 273.113C330.441 271.095 333.338 270.733 335.648 271.625C339.234 273.42 340.203 278.126 338.852 281.641C337.567 285.11 334.39 287.547 331.083 288.877C328.885 289.751 326.388 290.234 323.91 289.695C320.166 288.997 316.803 284.896 318.237 281C319.588 276.75 325.065 276.145 327.394 279.456Z" fill="#292D33"/>
<path d="M498.977 201.84C495.195 199.784 489.997 202.965 489.355 207.215C488.712 211.465 491.87 215.687 495.913 217.175C499.956 218.663 504.557 217.826 508.414 215.901C511.758 214.227 514.907 211.39 515.317 207.68C515.736 203.886 512.988 200.212 509.448 198.78C505.908 197.348 501.819 197.859 498.288 199.329C494.758 200.798 491.693 203.151 488.665 205.476" fill="#FEDC00"/>
<path d="M498.977 201.84C495.745 200.566 492.196 202.639 490.892 205.587C488.591 209.977 492.447 215.287 496.835 216.496C503.44 218.654 516.155 213.362 514.171 205.122C513.286 202.091 510.529 199.738 507.417 199.124C500.626 197.831 494.329 202.063 488.665 205.476C491.199 203.049 493.845 200.696 497.012 198.873C500.291 197.339 504.092 196.52 507.809 197.311C516.5 199.291 519.434 209.131 511.954 214.738C507.576 218.068 501.698 219.835 496.285 218.272C491.73 216.924 487.929 212.441 488.376 207.54C488.6 202.714 494.916 199.133 498.968 201.83L498.977 201.84Z" fill="#292D33"/>
<path d="M242.101 230.195C257.323 239.969 275.367 251.705 290.467 261.665L289.75 261.554C335.704 247.595 390.628 231.506 436.796 218.263C437.066 218.179 437.346 218.198 437.588 218.291L462.926 227.693C487.147 236.788 514.776 247.065 538.764 256.42C505.889 245.251 469.54 232.371 436.721 220.662C394.988 233.803 335.163 250.394 290.235 263.2C289.983 263.274 289.713 263.228 289.517 263.088L277.621 254.932C267.085 247.613 252.6 237.597 242.111 230.204L242.101 230.195Z" fill="#292D33"/>
<path d="M187.782 292.159C206.367 304.872 224.83 317.762 243.247 330.716L242.474 330.568C285.456 320.059 334.819 307.597 378.071 298.121C411.868 311.782 449.167 326.894 482.647 341.03C457.458 331.656 428.673 320.542 403.446 310.787L377.121 300.511L377.894 300.566L344.19 308.694C327.394 312.721 293.523 320.719 276.709 324.644C265.455 327.294 254.184 329.833 242.921 332.418C242.642 332.483 242.353 332.418 242.148 332.27C223.955 318.999 205.808 305.672 187.792 292.169L187.782 292.159Z" fill="#292D33"/>
<path d="M210.91 382.969C246.388 327.951 283.903 273.284 322.535 220.427C287.077 275.454 249.533 330.103 210.91 382.969Z" fill="#292D33"/>
<path d="M389.948 124.912C385.244 115.575 376.916 108.116 367.116 104.452C357.316 100.788 346.128 100.955 336.44 104.917L340.054 104.108C326.565 108.209 312.9 115.11 306.025 127.404C300.612 137.076 300.193 148.914 302.559 159.739C304.925 170.564 309.863 180.636 314.753 190.587C323.761 208.907 332.77 227.228 341.778 245.549C343.548 249.157 346.277 253.333 350.283 252.998C352.407 252.821 354.167 251.352 355.723 249.901C378.369 228.781 389.548 197.859 393.861 167.216C395.864 152.969 396.404 137.773 389.93 124.921L389.948 124.912ZM367.246 147.51C366.781 152.932 364.247 158.056 360.698 162.185C356.869 166.64 351.317 170.183 345.457 169.672C339.458 169.151 334.465 164.399 332.08 158.874C329.537 152.978 329.518 146.031 332.043 140.126C334.567 134.221 339.589 129.422 345.616 127.171L346.892 129.292C351.95 127.264 358.08 128.808 362.002 132.593C365.924 136.378 367.694 142.079 367.228 147.501L367.246 147.51Z" fill="#FEDC00"/>
<path d="M389.948 124.912C383.027 110.869 367.153 102.601 351.764 103.643C346.771 103.913 341.768 104.694 337.148 106.637L336.039 103.104L339.654 102.294C341.982 101.839 342.839 105.159 340.604 105.893C321.125 111.678 303.77 123.219 303.109 145.278C302.503 158.577 307.534 171.28 313.225 183.166C320.324 197.943 334.968 227.275 342.262 242.275C343.976 245.502 346.128 251.538 350.441 251.11C352.639 250.775 355.071 247.864 357.409 245.632C369.1 233.766 377.493 218.961 383.148 203.346C385.43 197.078 387.321 190.652 388.84 184.142C389.492 181.25 390.311 177.177 390.805 174.303C394.028 158.149 397.652 140.386 389.948 124.921V124.912ZM389.948 124.912C398.779 143.111 396.907 165.766 392.473 184.979C389.343 198.278 384.778 211.288 378.285 223.359C373.348 232.371 367.302 240.899 360.064 248.227C357.251 250.803 355.257 253.844 351.074 254.765C344.544 255.741 341.2 248.748 338.908 243.912L336.673 239.364L318.777 202.984C312.918 190.698 306.192 178.841 302.186 165.71C298.153 152.532 297.724 137.057 305.316 124.995C312.918 112.906 326.37 106.377 339.504 102.341L340.455 105.94L336.84 106.749C334.632 107.233 333.654 104.08 335.732 103.215C340.799 101.188 346.24 99.8951 351.708 100.007C367.954 100.118 382.831 110.674 389.948 124.902V124.912Z" fill="#292D33"/>
<path d="M367.256 147.51C366.641 153.192 365.569 159.432 361.703 163.924C357.521 168.416 351.727 172.071 345.317 171.532C332.192 170.053 325.839 154.466 329.174 142.832C331.232 134.9 337.343 128.315 344.982 125.442C345.83 125.125 346.78 125.47 347.227 126.223L348.503 128.343L346.212 127.581C352.099 125.237 358.825 127.051 363.352 131.254C367.367 135.737 367.637 141.977 367.246 147.519L367.256 147.51ZM367.256 147.51C367.833 142.219 364.647 137.029 360.707 133.97C357.446 130.65 351.931 129.273 347.6 131.022C346.743 131.366 345.774 131.022 345.308 130.259L344.032 128.139L346.277 128.92C336.272 132.528 330.096 143.762 332.518 154.113C335.769 168.109 348.95 172.815 358.862 161.376C362.607 157.48 366.874 153.248 367.246 147.501L367.256 147.51Z" fill="#292D33"/>
<path d="M313.738 126.353C316.784 123.665 320.259 121.694 323.938 120.029C327.534 118.281 331.177 116.616 334.847 115.054C338.527 113.482 342.243 112.004 345.988 110.627C349.733 109.121 353.581 108.014 357.623 107.642C354.121 109.641 350.45 111.101 346.64 112.366C342.914 113.743 339.235 115.203 335.583 116.765C331.931 118.318 328.326 119.964 324.758 121.703C321.2 123.563 317.622 125.237 313.738 126.362V126.353Z" fill="#292D33"/>
<path d="M326.183 188.029C328.326 186.56 330.515 185.184 332.714 183.817L339.654 180.459L353.534 173.726C358.108 171.513 369.929 165.775 374.354 163.627C376.795 162.762 379.226 161.878 381.704 161.097C379.552 162.557 377.363 163.924 375.174 165.301C370.805 167.421 358.881 173.205 354.354 175.4L340.473 182.133L333.533 185.509C331.102 186.383 328.661 187.257 326.183 188.029Z" fill="#292D33"/>
<path d="M330.72 202.174C334.223 199.989 337.958 198.436 341.824 197.06C345.606 195.59 349.37 194.065 353.105 192.484C356.841 190.903 360.558 189.266 364.247 187.574L369.761 184.998C371.718 184.375 373.665 183.733 375.649 183.166C373.991 184.402 372.277 185.537 370.563 186.672L365.02 189.266C361.312 190.968 357.586 192.614 353.823 194.195C350.059 195.776 346.286 197.32 342.486 198.789L336.766 200.965C334.754 201.412 332.751 201.849 330.701 202.165L330.72 202.174Z" fill="#292D33"/>
<path d="M340.269 217.882C341.265 216.952 342.309 216.133 343.343 215.306L346.845 213.576L353.841 210.098L360.837 206.62L364.331 204.881C365.625 204.555 366.911 204.22 368.243 203.979C367.246 204.89 366.203 205.718 365.16 206.545L361.666 208.284L354.67 211.763L347.674 215.241L344.181 216.989C342.896 217.324 341.601 217.659 340.269 217.891V217.882Z" fill="#292D33"/>
<path d="M343.985 230.604C345.802 229.972 347.507 229.879 349.379 229.999C353.785 229.981 358.192 229.218 362.356 227.777C363.278 227.749 364.209 227.684 365.188 227.684C363.883 229.144 362.225 229.953 360.325 230.353C356.766 231.329 353.077 231.831 349.388 231.859C347.46 231.98 345.634 231.683 343.985 230.604Z" fill="#292D33"/>
<path d="M307.068 142.851C311.716 139.103 316.821 136.071 322.131 133.365C327.366 130.575 332.658 127.888 338.005 125.311C343.352 122.735 348.746 120.262 354.186 117.89C359.608 115.407 365.169 113.333 370.991 111.994C368.364 113.417 365.728 114.765 363.101 116.151C349.435 121.768 336.058 128.064 323.025 135.011C317.837 137.913 312.62 140.647 307.087 142.851H307.068Z" fill="#292D33"/>
<path d="M366.948 135.839C368.066 134.342 369.491 133.43 371.187 132.733L375.835 130.464L380.484 128.194L382.813 127.06C383.716 126.939 384.611 126.799 385.551 126.762C384.937 127.478 384.284 128.101 383.632 128.734L381.303 129.868L376.655 132.137L372.007 134.407C370.414 135.318 368.821 135.885 366.948 135.839Z" fill="#292D33"/>
<path d="M308.614 164.306C309.807 162.762 311.306 161.823 313.076 161.097L317.939 158.726L322.811 156.354L325.242 155.164C326.174 155.024 327.105 154.876 328.084 154.81C327.441 155.545 326.742 156.187 326.062 156.838L323.631 158.028L318.759 160.4L313.887 162.771C312.229 163.71 310.561 164.315 308.614 164.315V164.306Z" fill="#292D33"/>
<path d="M368.103 152.327C369.296 150.784 370.805 149.844 372.566 149.11L377.438 146.729L382.31 144.348L384.75 143.158C385.691 143.018 386.623 142.86 387.601 142.804C386.949 143.539 386.259 144.181 385.57 144.832L383.129 146.022L378.257 148.403L373.385 150.784C371.727 151.723 370.05 152.337 368.103 152.327Z" fill="#292D33"/>
<path d="M317.129 177.232C318.256 175.726 319.7 174.805 321.405 174.108L326.09 171.82L330.776 169.532L333.114 168.388C334.018 168.258 334.921 168.128 335.862 168.081C335.247 168.797 334.586 169.43 333.925 170.062L331.586 171.206L326.901 173.494L322.215 175.782C320.613 176.693 319.001 177.27 317.119 177.232H317.129Z" fill="#292D33"/>
<path d="M202.501 329.47C203.982 328.326 205.445 327.155 206.935 326.029C208.416 324.895 209.907 323.751 211.407 322.644C211.863 322.309 212.497 322.402 212.832 322.858C213.167 323.314 213.074 323.946 212.618 324.281C212.58 324.309 212.534 324.337 212.487 324.365C210.838 325.239 209.171 326.094 207.513 326.95C205.855 327.815 204.168 328.633 202.501 329.48V329.47Z" fill="#292D33"/>
<path d="M215.897 319.296C216.679 318.794 217.499 318.348 218.272 317.836L220.629 316.339L225.352 313.354C226.004 312.944 226.87 313.13 227.28 313.781C227.69 314.432 227.504 315.297 226.852 315.707L222.129 318.692L219.772 320.189C218.98 320.673 218.225 321.221 217.434 321.714C216.763 322.133 215.878 321.928 215.459 321.259C215.04 320.598 215.244 319.724 215.897 319.296Z" fill="#292D33"/>
<path d="M230.084 310.368L239.53 304.398C240.182 303.989 241.049 304.175 241.458 304.826C241.868 305.477 241.682 306.342 241.03 306.751L231.584 312.721C230.932 313.13 230.066 312.944 229.656 312.293C229.246 311.642 229.432 310.778 230.084 310.368Z" fill="#292D33"/>
<path d="M244.244 301.413L253.69 295.442C254.342 295.033 255.208 295.219 255.618 295.87C256.028 296.521 255.842 297.386 255.19 297.795L245.744 303.766C245.091 304.175 244.225 303.989 243.815 303.338C243.405 302.687 243.592 301.822 244.244 301.413Z" fill="#292D33"/>
<path d="M258.413 292.448L267.859 286.477C268.511 286.068 269.377 286.254 269.787 286.905C270.197 287.556 270.011 288.421 269.359 288.83L259.913 294.801C259.261 295.21 258.394 295.024 257.984 294.373C257.574 293.722 257.761 292.857 258.413 292.448Z" fill="#292D33"/>
<path d="M272.572 283.492L274.976 281.976C275.199 281.837 275.46 281.762 275.702 281.762L284.04 281.641C284.813 281.632 285.446 282.246 285.456 283.018C285.465 283.79 284.85 284.422 284.077 284.431L275.74 284.552L276.466 284.338L274.063 285.854C273.411 286.263 272.544 286.077 272.135 285.426C271.725 284.775 271.911 283.91 272.563 283.501L272.572 283.492Z" fill="#292D33"/>
<path d="M289.629 281.548L295.219 281.465C297.082 281.427 298.945 281.418 300.808 281.372C301.59 281.353 302.233 281.958 302.261 282.739C302.28 283.52 301.674 284.162 300.892 284.19C300.882 284.19 300.864 284.19 300.854 284.19C298.991 284.19 297.128 284.236 295.265 284.255L289.676 284.338C288.903 284.348 288.269 283.734 288.26 282.962C288.251 282.19 288.865 281.558 289.639 281.548H289.629Z" fill="#292D33"/>
<path d="M306.397 281.595C310.123 281.827 313.859 282.088 317.585 282.404C317.65 282.404 317.706 282.469 317.697 282.534C317.697 282.59 317.641 282.636 317.585 282.646C313.868 283.073 310.142 283.445 306.425 283.79C305.82 283.845 305.279 283.399 305.223 282.794C305.168 282.19 305.615 281.651 306.22 281.595C306.276 281.595 306.341 281.595 306.388 281.595H306.397Z" fill="#292D33"/>
<path d="M340.594 283.818C341.396 285.529 342.159 287.24 342.905 288.97L343.995 291.564C344.33 292.438 344.786 293.275 344.991 294.177C345.168 294.949 344.684 295.712 343.92 295.889C343.194 296.056 342.476 295.638 342.243 294.949C341.945 294.066 341.899 293.117 341.731 292.197L341.312 289.416C341.051 287.556 340.799 285.696 340.594 283.818Z" fill="#292D33"/>
<path d="M346.472 299.553L349.5 310.294C349.705 311.038 349.276 311.81 348.531 312.014C347.786 312.219 347.013 311.791 346.808 311.047L343.78 300.306C343.575 299.562 344.004 298.79 344.749 298.586C345.494 298.381 346.268 298.809 346.472 299.553Z" fill="#292D33"/>
<path d="M351.019 315.669L352.686 321.575L351.81 320.635L356.552 322.309C357.279 322.57 357.661 323.36 357.409 324.086C357.148 324.811 356.356 325.192 355.63 324.941L350.888 323.267C350.45 323.109 350.134 322.746 350.012 322.328L348.345 316.423C348.14 315.679 348.569 314.907 349.314 314.702C350.059 314.498 350.832 314.925 351.037 315.669H351.019Z" fill="#292D33"/>
<path d="M361.815 324.169L372.361 327.88C373.087 328.14 373.469 328.931 373.218 329.656C372.957 330.382 372.165 330.763 371.438 330.512L360.893 326.801C360.166 326.541 359.785 325.75 360.036 325.025C360.297 324.3 361.089 323.918 361.815 324.169Z" fill="#292D33"/>
<path d="M377.624 329.74L380.26 330.67C380.698 330.828 381.136 330.986 381.583 331.116C382.03 331.237 382.468 331.405 382.887 331.628C384.564 332.474 386.25 333.283 387.918 334.148C388.244 334.315 388.365 334.715 388.197 335.041C388.057 335.311 387.759 335.441 387.48 335.385C385.635 335.022 383.809 334.594 381.974 334.195C381.508 334.111 381.071 333.962 380.642 333.776C380.214 333.599 379.766 333.451 379.329 333.302L376.692 332.372C375.966 332.111 375.584 331.321 375.835 330.596C376.096 329.87 376.888 329.489 377.615 329.74H377.624Z" fill="#292D33"/>
<path d="M409.082 332.074C411.085 328.922 413.125 325.788 415.193 322.681C415.482 322.244 416.069 322.123 416.507 322.412C416.945 322.7 417.066 323.286 416.777 323.723C416.749 323.76 416.721 323.797 416.693 323.835C414.187 326.606 411.653 329.349 409.092 332.065L409.082 332.074Z" fill="#292D33"/>
<path d="M418.305 318.022C418.808 317.232 419.367 316.497 419.963 315.781C420.559 315.065 421.127 314.33 421.696 313.595L425.124 309.187C425.599 308.583 426.474 308.471 427.08 308.946C427.686 309.42 427.797 310.294 427.322 310.899L423.894 315.307C423.326 316.041 422.748 316.776 422.199 317.52C421.649 318.273 421.071 318.999 420.429 319.678C419.916 320.226 419.059 320.254 418.51 319.743C418.025 319.287 417.941 318.562 418.295 318.022H418.305Z" fill="#292D33"/>
<path d="M428.552 304.779L435.408 295.963C435.883 295.359 436.759 295.247 437.364 295.721C437.97 296.196 438.082 297.07 437.607 297.674L430.75 306.49C430.275 307.095 429.4 307.207 428.794 306.732C428.189 306.258 428.077 305.384 428.552 304.779Z" fill="#292D33"/>
<path d="M438.845 291.555L445.702 282.739C446.177 282.134 447.052 282.023 447.658 282.497C448.263 282.971 448.375 283.845 447.9 284.45L441.044 293.266C440.569 293.871 439.693 293.982 439.088 293.508C438.482 293.034 438.37 292.159 438.845 291.555Z" fill="#292D33"/>
<path d="M449.13 278.34L455.986 269.524C456.461 268.919 457.337 268.808 457.942 269.282C458.548 269.756 458.66 270.63 458.185 271.235L451.328 280.051C450.853 280.656 449.978 280.767 449.372 280.293C448.767 279.819 448.655 278.944 449.13 278.34Z" fill="#292D33"/>
<path d="M459.414 265.116L466.27 256.299C466.746 255.695 467.621 255.583 468.227 256.058C468.832 256.532 468.944 257.406 468.469 258.01L461.613 266.827C461.138 267.431 460.262 267.543 459.656 267.068C459.051 266.594 458.939 265.72 459.414 265.116Z" fill="#292D33"/>
<path d="M469.699 251.901L476.555 243.084C477.03 242.48 477.906 242.368 478.511 242.843C479.117 243.317 479.228 244.191 478.753 244.796L471.897 253.612C471.422 254.216 470.546 254.328 469.941 253.854C469.335 253.379 469.224 252.505 469.699 251.901Z" fill="#292D33"/>
<path d="M479.992 238.676L481.706 236.472C482.293 235.747 482.815 234.975 483.402 234.249C483.989 233.533 484.65 232.864 485.265 232.157L487.147 230.083C487.529 229.665 488.181 229.627 488.6 230.009C488.982 230.353 489.047 230.92 488.768 231.339L487.221 233.673C486.7 234.445 486.206 235.245 485.656 235.989C485.097 236.733 484.482 237.43 483.914 238.174L482.2 240.378C481.725 240.983 480.849 241.094 480.244 240.62C479.638 240.146 479.527 239.271 480.002 238.667L479.992 238.676Z" fill="#292D33"/>
<path d="M490.901 225.945C492.503 224.159 494.143 222.411 495.782 220.653C494.487 222.671 493.192 224.699 491.86 226.679C491.674 226.958 491.301 227.033 491.022 226.847C490.742 226.661 490.668 226.289 490.854 226.01C490.873 225.991 490.891 225.963 490.91 225.945H490.901Z" fill="#292D33"/>
<path d="M115 394.002C120.813 379.094 130.492 365.572 142.742 355.259C132.355 367.367 123.105 380.266 115 394.002Z" fill="#292D33"/>
<path d="M127.231 392.867C134.59 384.107 142.853 374.732 150.623 366.344C144.651 376.574 136.621 385.65 127.231 392.867Z" fill="#292D33"/>
<path d="M145.844 394.522C149.896 386.525 155.085 379.113 161.233 372.584C157.19 380.582 151.983 387.985 145.844 394.522Z" fill="#292D33"/>
<path d="M160.581 394.773C164.456 388.98 169.384 383.921 175.095 379.922C171.229 385.715 166.282 390.765 160.581 394.773Z" fill="#292D33"/>
<path d="M175.709 399.042C178.532 394.141 182.463 389.9 187.158 386.739C184.345 391.649 180.405 395.871 175.709 399.042Z" fill="#292D33"/>
<path d="M190.158 398.577C191.723 395.425 194.443 392.923 197.731 391.658C196.176 394.811 193.437 397.303 190.158 398.577Z" fill="#292D33"/>
<path d="M227.811 399.516C230.289 396.113 233.801 393.509 237.797 392.17C235.329 395.583 231.798 398.168 227.811 399.516Z" fill="#292D33"/>
<path d="M244.691 398.707C247.802 394.206 251.966 390.458 256.783 387.864C253.681 392.374 249.507 396.103 244.691 398.707Z" fill="#292D33"/>
<path d="M259.065 398.986C263.769 392.746 269.489 387.278 275.963 382.888C271.268 389.138 265.53 394.588 259.065 398.986Z" fill="#292D33"/>
<path d="M280.183 395.108C286.08 387.166 292.992 379.996 300.724 373.83C294.837 381.782 287.915 388.943 280.183 395.108Z" fill="#292D33"/>
<path d="M300.938 392.904C306.723 383.948 313.579 375.681 321.339 368.362C315.564 377.327 308.689 385.576 300.938 392.904Z" fill="#292D33"/>
<path d="M319.765 392.718C324.702 384.33 330.729 376.592 337.688 369.776C332.76 378.173 326.714 385.892 319.765 392.718Z" fill="#292D33"/>
<path d="M337.604 391.77C340.893 385.706 345.308 380.266 350.59 375.82C347.311 381.893 342.877 387.315 337.604 391.77Z" fill="#292D33"/>
<path d="M355.602 392.532C357.129 388.431 360.846 385.706 364.153 383.112C365.253 382.256 366.324 381.4 367.423 380.433C366.473 383.195 364.209 385.288 362.076 387.148C360.194 388.729 357.474 390.914 355.592 392.532H355.602Z" fill="#292D33"/>
<path d="M373.301 394.792C375.053 390.626 377.996 386.99 381.732 384.441C379.99 388.617 377.027 392.235 373.301 394.792Z" fill="#292D33"/>
<path d="M386.446 397.74C387.74 393.983 390.265 390.71 393.591 388.515C392.305 392.272 389.762 395.545 386.446 397.74Z" fill="#292D33"/>
<path d="M397.065 399.098C397 399.07 396.627 399.135 396.665 398.986C397.037 397.35 397.876 395.945 398.938 394.764C400.009 393.583 401.257 392.597 402.822 392.104C402.524 392.895 402.114 393.555 401.704 394.197C400.372 396.103 398.947 397.703 396.926 399.033L396.879 398.828L397.075 399.089L397.065 399.098Z" fill="#292D33"/>
<path d="M409.539 398.819C410.144 396.466 412.045 394.606 414.42 394.067C413.815 396.429 411.914 398.27 409.539 398.819Z" fill="#292D33"/>
<path d="M425.999 400C426.232 398.047 427.797 396.522 429.772 396.382C429.549 398.345 427.965 399.851 425.999 400Z" fill="#292D33"/>
</svg>
