<svg width="1440" height="148" viewBox="0 0 1440 148" fill="none" xmlns="http://www.w3.org/2000/svg">
<path fill-rule="evenodd" clip-rule="evenodd" d="M0 0V148H1440V103.517C1438.76 105.468 1436.03 107.147 1430.14 108.57C1413.97 112.468 1392.17 109.067 1379.01 104.249C1372.57 101.887 1366.79 99.1446 1361.04 96.4094C1351.48 91.8684 1341.97 87.3483 1329.48 84.6296C1299.09 78.0092 1262.83 84.2596 1232.88 91.2544C1231.87 91.4892 1230.86 91.7253 1229.85 91.9621C1200.73 98.7769 1169.07 106.186 1137.13 102.984C1104.94 99.7588 1085.52 87.4267 1065.89 74.9527C1048.17 63.6981 1030.27 52.328 1002.65 47.4267C968.774 41.4186 929.639 47.158 899.279 56.0997C885.047 60.2926 871.92 65.1586 858.798 70.0229C843.936 75.5321 829.08 81.0391 812.631 85.5634C781.661 94.0823 741.244 98.7337 708.793 91.3513C677.612 84.262 663.083 68.5944 649.77 54.2378C649.501 53.9476 649.232 53.6578 648.964 53.3687C635.425 38.7801 616.502 22.9405 582.17 18.4652C543.714 13.4526 505.019 24.9931 474.409 36.4015C443.798 47.8099 408.755 60.5706 368.969 58.3594C334.125 56.4232 310.416 44.0458 286.624 31.625C263.434 19.5188 240.166 7.37152 206.432 4.81039C178.093 2.66085 149.945 8.1096 123.757 13.3425C97.5702 18.5754 69.1315 23.8523 40.9429 21.3503C12.0028 18.7793 3.0042 10.0719 0 0Z" fill="#FEDC00"/>
<path fill-rule="evenodd" clip-rule="evenodd" d="M37.9511 32.1008C19.3349 31.0277 6.89348 25.6267 0 20.484V15.2785C5.11436 20.1285 17.316 26.8945 38.1284 28.1044C64.7312 28.2187 94.5489 25.3246 120.632 20.0962C146.833 14.8443 175.292 9.30527 203.995 11.4893L203.996 11.4893C238.202 14.0944 261.823 26.4649 285.032 38.6196L286.009 39.1313C309.523 51.443 332.779 63.4017 366.775 65.2967C406.16 67.4924 440.897 54.8293 471.587 43.3553C502.3 31.8729 541.457 20.1172 580.496 25.2218C615.503 29.7993 634.857 46.0495 648.615 60.9204L649.4 61.7695C662.694 76.1496 676.896 91.5105 707.525 98.4964L707.08 100.446L707.525 98.4964C739.59 105.814 779.717 101.215 810.568 92.7022C825.988 88.4475 840.014 83.3197 854.036 78.1111C854.893 77.7925 855.751 77.4736 856.609 77.1546L856.662 77.1348C869.796 72.2508 883.006 67.3385 897.331 63.1049L897.898 65.0229L897.331 63.1049C927.911 54.0704 967.449 48.227 1001.8 54.3385C1029.87 59.3345 1048.09 70.95 1065.83 82.2561C1066.81 82.8772 1067.78 83.4973 1068.75 84.1154C1087.41 95.9612 1106.17 107.111 1136.36 110.146C1168.02 113.329 1199.44 105.953 1228.7 99.0875L1230.07 98.7664L1231.62 98.4016C1261.63 91.3714 1298.35 84.9798 1329.28 91.7379C1339.5 93.9716 1347.76 97.39 1355.57 101.009C1357.54 101.919 1359.46 102.837 1361.38 103.751L1361.38 103.752L1361.38 103.752L1361.38 103.753C1367.13 106.491 1372.8 109.192 1379.16 111.529C1385.44 113.837 1398.18 115.652 1410.66 115.955C1416.86 116.107 1422.91 115.881 1427.95 115.18C1433.1 114.466 1436.85 113.3 1438.78 111.818L1440 110.887V115.807C1437.15 117.481 1433.03 118.513 1428.5 119.142C1423.17 119.882 1416.9 120.109 1410.56 119.954C1397.95 119.647 1384.68 117.819 1377.78 115.284C1371.23 112.876 1365.33 110.064 1359.54 107.306C1357.65 106.406 1355.77 105.511 1353.89 104.638C1346.2 101.072 1338.24 97.7896 1328.42 95.6457C1298.46 89.0985 1262.53 95.2686 1232.54 102.296C1231.54 102.529 1230.55 102.763 1229.55 102.998L1229.4 103.032C1200.3 109.863 1168.3 117.377 1135.96 114.126C1104.81 110.995 1085.39 99.423 1066.61 87.4919C1065.66 86.8885 1064.71 86.2843 1063.76 85.6804C1046.01 74.3666 1028.37 63.1311 1001.1 58.2767C967.581 52.3133 928.711 58.0048 898.465 66.9409C884.278 71.1337 871.189 76.0005 858.033 80.8924L858.031 80.8931C857.164 81.2156 856.297 81.5382 855.428 81.8607C841.407 87.0693 827.236 92.2525 811.632 96.5582C780.434 105.166 739.587 109.916 706.636 102.396C674.795 95.1342 659.888 79.0075 646.508 64.5335C646.231 64.2339 645.955 63.9349 645.679 63.6368C632.311 49.1881 613.754 33.6047 579.977 29.188C541.971 24.2185 503.602 35.6563 472.988 47.102C442.351 58.5561 406.88 71.5387 366.553 69.2905C331.624 67.3435 307.701 55.0041 284.153 42.6749L283.321 42.2392C260.069 30.0626 237.072 18.0199 203.692 15.4777C175.619 13.3417 147.684 18.7533 121.418 24.0182C95.053 29.3031 64.9436 32.2237 38.0573 32.1041L38.0042 32.1039L37.9511 32.1008Z" fill="#171A2A"/>
</svg>
