<svg width="1440" height="2069" viewBox="0 0 1440 2069" fill="none" xmlns="http://www.w3.org/2000/svg">
<path fill-rule="evenodd" clip-rule="evenodd" d="M0 0V2068.36H1440V103.695C1438.76 105.65 1436.03 107.332 1430.14 108.757C1413.97 112.662 1392.17 109.255 1379.01 104.428C1372.57 102.063 1366.79 99.3156 1361.04 96.5757C1351.48 92.0269 1341.97 87.4989 1329.48 84.7755C1299.09 78.1437 1262.83 84.4049 1232.88 91.4117C1231.87 91.6471 1230.86 91.8835 1229.85 92.1208C1200.73 98.9472 1169.07 106.369 1137.13 103.162C1104.94 99.9308 1085.52 87.5775 1065.89 75.082C1048.17 63.808 1030.27 52.4183 1002.65 47.5085C968.774 41.49 929.639 47.2394 899.279 56.1965C885.047 60.3966 871.92 65.271 858.798 70.1436C843.936 75.6624 829.08 81.1789 812.631 85.711C781.661 94.2445 741.244 98.904 708.793 91.5088C677.612 84.4073 663.083 68.7127 649.77 54.3314C649.501 54.0406 649.232 53.7504 648.964 53.4608C635.425 38.847 616.502 22.9801 582.17 18.4971C543.714 13.4758 505.019 25.0362 474.409 36.4643C443.798 47.8924 408.755 60.6751 368.969 58.4601C334.125 56.5205 310.416 44.1217 286.624 31.6795C263.434 19.5525 240.166 7.38424 206.432 4.81869C178.093 2.66544 149.945 8.12359 123.757 13.3655C97.5702 18.6074 69.1315 23.8934 40.9429 21.3872C12.0028 18.8117 3.0042 10.0893 0 0Z" fill="#FEDC00"/>
</svg>
