<svg width="263" height="255" viewBox="0 0 263 255" fill="none" xmlns="http://www.w3.org/2000/svg">
<g clip-path="url(#clip0_204_6)">
<path d="M17.6076 189.184C-7.64832 146.636 -4.07315 89.7553 25.9848 50.4622C80.1058 -21.5016 190.783 -14.9053 235.847 63.1831C280.954 141.257 231.332 240.412 141.937 251.297C92.8825 257.669 41.8351 232.325 17.6154 189.179L17.6076 189.184ZM17.6076 189.184C41.7937 232.108 93.0318 257.112 141.709 249.597C227.91 237.458 274.738 141.151 231.144 65.898C187.777 -9.50626 80.9461 -17.1091 27.3341 51.494C-3.4957 89.9033 -7.47342 146.775 17.6154 189.179L17.6076 189.184Z" fill="#292D33"/>
<path d="M26.4946 231.703C36.5374 224.377 46.5837 217.05 56.6264 209.724C61.6357 206.07 66.5849 202.117 71.6922 198.733C76.0086 195.874 79.6717 191.077 84.0112 188.019C88.1116 185.129 92.0505 184.262 96.6761 185.44C103.454 187.173 110.194 188.948 116.931 191.025C127.8 194.373 138.764 196.982 149.773 198.839C155.277 199.768 160.794 200.512 166.313 201.063C169.075 201.34 171.834 201.567 174.598 201.753C176.036 201.846 177.47 201.929 178.906 202.001C179.727 202.041 181.866 202.693 182.552 202.152C168.62 213.164 154.689 224.181 140.757 235.192C133.864 240.641 126.46 244.389 119.171 248.836C117.387 249.922 115.599 251.013 113.72 251.741C107.815 254.023 101.552 252.522 95.6589 250.28C90.6718 248.384 85.716 248.354 80.6028 247.142C61.6349 242.646 42.6634 238.151 23.6955 233.656C24.9419 231.36 27.0882 230.14 29.1443 230.547" fill="white"/>
<path d="M26.4985 231.704C36.2487 224.157 48.218 215.025 57.9918 207.604C62.3811 204.227 67.0756 200.413 71.5591 197.379C76.0292 194.208 79.9036 188.87 84.6112 185.892C88.6685 183.153 93.4222 182.672 97.8837 184.015C105.502 185.843 113.358 187.935 120.944 190.218C138.739 195.266 156.798 198.324 174.836 199.51L177.412 199.654L178.702 199.723L179.075 199.747C179.99 199.827 181.014 200.169 181.881 200.063C181.836 200.08 181.783 200.108 181.742 200.151L183.365 204.153C176.218 209.674 144.218 235.292 137.624 239.942C133.043 243.108 127.84 245.95 123.118 248.689C119.794 250.518 116.684 252.847 113.109 253.953C111.294 254.52 109.438 254.737 107.601 254.733C103.912 254.722 100.3 253.748 96.81 252.473C95.1218 251.826 93.4522 251.192 91.7253 250.791C88.2589 249.949 84.7236 249.635 81.2184 248.804C77.791 247.955 69.0197 245.695 65.5086 244.814C51.5585 241.238 37.6134 237.617 23.6801 233.862C23.5757 233.846 23.5167 233.65 23.5865 233.535C24.9074 231.226 27.0929 230.081 29.1484 230.554C27.0811 230.214 24.9882 231.508 23.8124 233.785L23.7188 233.457C41.0964 237.02 58.8508 240.852 76.2332 244.679L81.4683 245.819C84.9634 246.507 88.4921 246.755 92.0193 247.519C93.7981 247.882 95.5707 248.5 97.3187 249.13C104.102 251.526 110.868 252.137 117.162 247.898C119.917 246.238 123.965 243.749 126.793 242.121C131.603 239.266 136.281 236.351 140.774 232.674C142.798 231.103 178.808 202.442 181.743 200.161L183.366 204.163C182.084 205.068 180.564 204.499 179.226 204.32C178.881 204.259 177.763 204.218 177.397 204.189C165.29 203.463 153.078 201.951 141.057 199.369C126.432 196.441 112.059 191.192 97.5309 187.408C93.4847 186.082 89.2832 186.364 85.5391 188.758C80.8178 191.594 77.1366 196.545 72.3841 199.714C67.8753 202.586 63.0966 206.199 58.6581 209.359C48.7323 216.348 36.4919 224.865 26.499 231.714L26.4985 231.704Z" fill="#292D33"/>
<path d="M69.9295 219.159C69.3784 222.447 68.7835 225.717 68.1813 228.982L67.804 228.388C72.3623 226.905 77.3876 225.392 81.9923 224.066C82.4536 223.912 82.8956 224.591 82.7638 225.229C82.399 227.504 84.4696 229.567 85.954 229.428C87.8505 229.311 89.4356 227.536 90.9251 225.939C91.2278 225.599 91.675 225.685 91.9204 226.128C91.9982 226.267 92.0448 226.428 92.0665 226.591C92.6066 230.921 96.2997 232.971 98.659 230.299C98.9534 229.933 99.4431 230.09 99.6168 230.607C100.106 232.012 101.137 233.057 102.273 233.449C103.407 233.851 104.658 233.6 105.542 232.606C105.738 232.363 106.044 232.405 106.211 232.703C106.273 232.813 106.308 232.944 106.314 233.071L106.519 236.646L106.007 236.15C107.568 235.584 109.201 235.479 110.793 235.738C112.389 236.012 113.946 236.686 115.366 237.733C112.429 236.123 109.164 235.929 106.246 237.235C106.042 237.326 105.824 237.162 105.754 236.87C105.745 236.829 105.735 236.779 105.733 236.738L105.382 233.175L106.157 233.639C103.931 236.407 99.9302 235.217 98.5081 231.381L99.4659 231.69C96.3316 235.401 91.4477 232.712 90.6716 226.889L91.8094 227.54C90.1631 229.385 88.3169 231.315 86.0407 231.413C83.6153 231.533 80.8656 228.375 81.5033 224.71L82.2747 225.873C80.501 226.331 76.902 227.214 75.1193 227.632C72.7255 228.21 70.3229 228.752 67.9196 229.28C67.6934 229.336 67.4845 228.988 67.5672 228.684C68.3339 225.498 69.1112 222.311 69.929 219.148L69.9295 219.159Z" fill="#292D33"/>
<path d="M88.8916 206.978C88.0522 207.623 88.3598 209.434 89.0084 210.175C90.7006 211.699 92.3302 209.565 94.0338 209.059C95.0036 208.688 96.1846 209.032 96.9758 210.001C98.4254 211.613 99.1044 214.437 100.706 215.461C102.096 216.31 103.986 215.582 104.699 213.724C104.998 212.92 105.899 213.246 105.937 214.157C106.037 216.35 107.286 218.511 108.798 219.039C110.285 219.589 112.032 218.54 112.766 216.687C112.951 216.209 113.38 216.047 113.722 216.332C115.474 219.092 118.834 219.628 120.776 217.22C121.126 216.735 121.775 217.093 121.828 217.789C121.99 219.377 122.151 220.971 122.299 222.56L121.591 221.858C124.335 221.112 128.281 220.08 131.003 219.416C131.169 219.358 131.344 219.513 131.376 219.756C131.378 219.782 131.379 219.812 131.38 219.838L131.392 221.744L131.143 221.388C132.611 221.602 134.836 221.934 136.295 222.184C134.837 222.199 132.618 222.142 131.13 222.113C130.99 222.109 130.883 221.946 130.881 221.757L130.766 219.855L131.146 220.277C128.496 221.259 124.572 222.544 121.861 223.468C121.562 223.568 121.249 223.302 121.169 222.867C120.956 221.25 120.771 219.632 120.573 218.009L121.624 218.578C119.252 221.664 115.136 221.316 112.866 217.87L113.992 217.712C113.463 219.056 112.612 220.074 111.641 220.644C108.524 222.621 104.776 219.115 104.611 214.233L105.851 214.691C104.724 217.343 102.246 218.277 100.252 216.96C98.458 215.787 97.7289 212.725 96.4088 210.975C95.7889 210.157 95.0112 209.876 94.1914 210.087C92.9244 210.369 91.5753 211.516 90.1713 211.3C89.6848 211.215 89.1886 210.992 88.8075 210.474C88.1288 209.542 87.9313 207.557 88.8842 206.973L88.8916 206.978Z" fill="#292D33"/>
<path d="M48.2142 185.526C48.6896 184.483 49.9878 184.111 51.1307 184.078C52.2735 184.046 53.4696 184.229 54.5335 183.801C55.5975 183.373 56.5102 181.895 55.8343 180.969C55.8279 180.806 55.9814 180.66 56.1464 180.671C56.3057 180.682 56.4359 180.855 56.4012 181.017L57.2455 181.088C55.9789 180.478 54.6733 179.252 55.3515 178.088C55.9559 177.049 57.5546 177.276 58.5505 176.603C59.7533 175.791 59.692 174.023 59.4914 172.581C58.7415 167.182 57.9915 161.783 57.241 156.378C61.39 158.138 65.8653 159.939 70.2731 159.017C73.8116 158.274 76.7398 155.876 79.5191 153.56C82.5867 150.994 85.7269 148.345 87.8849 145.013C73.2613 141.736 58.673 138.408 44.1053 134.897C42.3924 131.789 42.5378 128.03 42.7305 124.489C42.8847 121.655 43.0388 118.82 43.1935 115.992C43.2573 114.825 43.3726 113.542 44.2068 112.729C44.6608 112.286 45.2387 112.064 45.8602 111.972C46.6197 111.858 47.4531 111.936 48.2242 112.032C50.3659 112.304 52.5135 112.576 54.6553 112.849L54.6145 111.635C67.4656 113.908 80.3618 115.953 93.2304 118.118L108.208 120.63C110.74 119.354 113.01 117.562 114.834 115.386C116.037 113.947 116.935 112.652 118.35 111.383C119.957 109.94 121.57 108.496 123.176 107.047C123.995 106.312 124.859 105.555 125.932 105.313C126.817 105.116 127.731 105.295 128.617 105.473C129.885 105.73 131.1 106.24 132.392 106.396C134.028 106.59 134.38 106.012 135.447 104.875C137.314 102.881 139.293 100.993 141.366 99.2173C142.675 98.1 144.024 97.0252 145.408 95.9993C146.678 95.0563 147.64 93.8135 148.673 92.6215C148.984 92.2649 150.725 89.7645 151.098 89.8052C153.695 90.0682 156.292 90.3311 158.895 90.5935C160.143 90.7188 161.4 90.6616 162.647 90.8808C163.035 90.9492 163.991 91.0249 164.228 91.4261C164.581 92.0255 163.523 93.5658 163.263 94.1745C162.961 94.8757 162.658 95.5769 162.477 96.3173C162.212 97.4126 162.49 98.4477 161.669 99.2708C160.512 100.441 159.157 101.464 157.92 102.55C157.083 103.281 156.24 104.019 155.54 104.881C154.989 105.557 154.53 106.381 153.862 106.947C153.525 107.23 152.97 107.344 152.675 107.635C152.285 108.024 152.081 108.825 151.85 109.325C151.269 110.573 150.694 111.825 150.112 113.073C152.028 113.68 153.944 114.294 155.86 114.902C157.23 115.336 157.222 115.846 157.404 117.062C157.61 118.451 158.206 119.55 157.74 120.996C157.5 121.737 157.045 122.379 156.6 123.014C155.927 123.961 155.26 124.908 154.587 125.855C154.046 126.618 153.504 127.38 152.963 128.149C161.081 129.511 169.199 130.873 177.316 132.235C183.284 134.145 189.44 135.279 195.619 136.252C202.484 137.337 209.19 138.527 215.895 140.385C216.703 140.612 217.269 140.221 217.52 139.643C218.095 139.603 218.667 139.539 219.235 139.441C217.571 140.791 215.841 142.23 215.08 144.23C214.555 145.612 214.547 147.124 214.546 148.6C214.541 152.723 214.415 156.867 214.532 160.989C214.645 164.912 213.76 169.016 213.297 172.921C213.247 172.47 205.291 171.143 204.445 170.949C186.562 166.973 168.684 162.991 150.801 159.014C150.745 158.505 141.751 157 140.798 156.789L130.363 154.466L119.927 152.142C117.517 151.607 112.565 149.467 110.261 150.261C109.027 150.685 107.458 152.943 106.507 153.869C105.229 155.105 103.951 156.348 102.672 157.585L95.0018 165.017C89.7828 170.076 84.5631 175.129 79.3441 180.187C80.2725 185.613 81.2009 191.039 82.1287 196.46C76.2402 195.103 70.3575 193.745 64.469 192.388C65.2127 188.909 64.723 185.174 63.0968 182.004C62.9504 182.108 62.8047 182.218 62.6583 182.322C62.409 182.923 62.0538 183.466 61.4638 183.684C61.205 183.777 60.9373 183.789 60.6663 183.772L60.0871 184.194C60.1385 184.024 60.1616 183.863 60.1559 183.706C59.7553 183.627 59.3463 183.526 58.9412 183.512C57.2803 183.462 56.028 184.936 55.0421 186.281C55.7129 187.056 55.6413 188.311 55.0042 189.108C54.3671 189.905 53.2846 190.271 52.2625 190.179C51.2403 190.087 50.2967 189.594 49.5 188.95C48.4781 188.121 47.6335 186.726 48.1795 185.53L48.2142 185.526Z" fill="#FEDC00"/>
<path d="M90.006 200.884C91.2928 203.26 92.5744 205.642 93.8611 208.018C91.4659 206.936 89.1928 205.583 87.0982 203.994C86.453 203.503 85.8162 202.982 85.3291 202.333C84.8471 201.678 84.5243 200.876 84.5925 200.066C86.1663 199.54 89.6556 197.719 90.006 200.884Z" fill="white"/>
<path d="M97.7893 90.4844C100.406 93.0368 102.25 96.2777 103.789 99.5994C105.39 103.066 106.699 106.695 108.752 109.918C110.806 113.142 113.754 115.998 117.454 116.942L117.002 118.767C114.465 118.503 112.239 116.997 110.271 115.381C105.832 111.741 102.069 107.282 99.2175 102.295C97.5703 99.4133 96.226 96.3631 94.5461 93.5023C92.8713 90.6351 90.8096 87.916 88.0548 86.0644C91.7078 86.1062 95.1788 87.9314 97.7951 90.4838L97.7893 90.4844Z" fill="#FEDC00"/>
<path d="M62.974 157.478C61.038 142.039 59.1007 126.431 60.8095 110.964C61.4267 105.36 62.5541 99.7176 65.1376 94.7108C67.7204 89.6981 71.9075 85.3401 77.2199 83.4821C82.5322 81.6242 88.9897 82.6566 92.859 86.7574L91.6416 86.2182C84.5571 84.1713 76.3297 87.1011 72.1331 93.1648C69.5841 96.8499 68.5221 101.343 67.7494 105.757C64.8478 122.381 66.2828 138.835 67.7531 155.503C67.9015 157.156 68.0442 158.81 68.1926 160.463C66.2642 158.889 63.832 157.939 61.3493 157.798C61.8928 157.691 62.4356 157.578 62.9791 157.471L62.974 157.478Z" fill="#FEDC00"/>
<path d="M162.791 100.869C163.702 98.0208 163.947 95.0119 164.348 92.0443C165.117 86.3824 166.491 80.8001 168.438 75.4298C169.1 73.5992 169.883 71.1225 171.534 69.9325C173.83 68.2789 172.67 71.3654 172.386 72.6505C171.253 77.8254 170.126 82.9938 168.993 88.1687C167.761 93.8174 166.468 99.6017 163.335 104.458C162.517 105.726 161.579 106.914 160.557 108.028C158.439 110.33 155.95 112.292 153.219 113.818C152.172 113.711 151.126 113.604 150.079 113.497C156.001 111.654 160.899 106.79 162.791 100.875L162.791 100.869Z" fill="#FEDC00"/>
<path d="M182.398 59.813C184.77 58.6957 187.397 58.2357 190.005 57.93C197.677 57.0417 205.917 57.596 212.366 61.8631C218.379 65.8444 222.101 72.6212 223.861 79.6264C225.621 86.6258 225.625 93.9362 225.62 101.154C225.615 110.902 225.31 118.639 225.305 128.388L225.588 128.357C225.265 130.29 223.922 132.096 222.103 132.825C222.233 124.726 222.363 116.633 222.487 108.536C222.607 101.135 222.717 93.6482 221.034 86.4411C218.802 76.8637 213.074 67.8188 204.464 63.0991C195.855 58.3794 184.284 58.7377 176.893 65.2012C177.891 62.7711 180.015 60.9373 182.393 59.8194L182.398 59.813Z" fill="#FEDC00"/>
<path d="M27.5137 112.036C27.4058 110.958 27.3677 109.879 27.3124 108.801C28.6025 109.678 30.8636 110.084 32.1941 110.377C33.9372 110.753 35.722 110.925 37.5062 110.88C36.7367 110.795 35.9646 110.687 35.1963 110.561C33.7311 110.318 32.2813 110.004 30.8532 109.623C29.7744 109.332 28.3599 109.23 27.3118 108.69C27.2905 108.341 27.2642 107.998 27.2372 107.65C29.1912 105.764 31.3024 103.873 33.9388 103.289C36.1696 102.791 38.4891 103.302 40.7148 103.812C42.3887 104.195 44.0619 104.573 45.7357 104.956C46.8935 105.221 49.5897 105.333 50.4112 106.15C49.6855 107.144 47.6627 107.936 46.5782 108.595C45.2697 109.396 43.9528 110.174 42.5865 110.875C42.0218 111.16 41.4352 111.196 40.8236 111.164C40.8486 111.179 40.8794 111.193 40.9045 111.207C42.0264 111.939 42.1139 113.517 42.1108 114.859C42.0854 121.528 42.7152 128.202 43.9745 134.753C43.6671 134.722 43.3693 134.779 43.0966 134.903C41.8971 134.525 40.7193 134.081 39.4909 133.813C38.5622 133.611 37.7407 133.479 36.9083 132.985C36.2196 132.575 35.6611 132.127 34.8935 131.848C34.2055 131.602 33.6029 131.809 33.1858 132.213C33.0459 132.164 32.9053 132.109 32.7596 132.061C32.1097 128.207 30.0356 124.798 29.3311 120.98C29.0041 118.087 28.3824 115.227 27.4951 112.448C27.5099 112.318 27.5182 112.182 27.5022 112.037L27.5137 112.036Z" fill="#FEDC00"/>
<path d="M42.6504 114.139C42.6395 113.776 42.6285 113.414 42.6175 113.052C45.2988 111.338 47.9742 109.624 50.6548 107.904C51.0913 107.621 51.6267 107.334 52.1107 107.532C52.564 107.716 52.7515 108.247 52.8851 108.712C53.2614 109.995 53.6384 111.284 54.009 112.568C53.9422 112.546 53.8754 112.524 53.8029 112.502C52.655 112.225 51.5034 112.387 50.3569 112.438C47.6259 111.438 43.7895 110.913 42.6504 114.139Z" fill="#FEDC00"/>
<path d="M212.933 171.785C213.25 168.692 213.716 165.623 213.986 162.523C214.119 160.985 215.113 144.073 214.655 144.059C215.218 144.073 215.775 144.088 216.338 144.102L215.457 143.174C220.364 139.65 223.267 134.039 225.994 128.64C226.277 128.082 231.752 128.573 232.497 128.596C234.77 128.679 237.035 128.856 239.293 129.134C243.906 129.703 248.47 130.681 252.914 132.053C254.924 132.675 257.158 133.254 259.037 134.218C259.942 134.687 260.317 135.219 260.461 135.877L260.85 134.961L260.488 136.015C260.595 136.665 260.51 137.425 260.484 138.353C260.338 143.413 260.198 148.473 260.059 153.539C259.968 156.83 259.874 160.139 259.28 163.374C258.052 170.059 254.742 176.172 252.974 182.73L251.874 181.568C251.85 182.034 251.825 182.494 251.8 182.959C244.652 181.194 237.497 179.424 230.349 177.659C226.856 176.797 223.369 175.935 219.876 175.072C218.349 174.696 216.822 174.32 215.294 173.938C213.467 173.489 212.741 173.745 212.943 171.772L212.933 171.785Z" fill="#FEDC00"/>
<path d="M212.933 171.785C214.112 163.183 214.693 154.46 215.039 145.78C215.043 145.493 215.058 144.735 215.039 144.456C215.014 144.184 215.024 143.796 214.657 143.754L214.643 144.371L216.325 144.455C216.632 144.479 216.798 144.08 216.582 143.876L215.723 142.928L215.667 143.485C220.429 140.187 223.462 135.06 226.164 130.063L226.567 129.316L226.669 129.128L226.717 129.035C226.746 128.979 226.68 129.121 226.637 129.161C226.585 129.214 226.533 129.272 226.46 129.304C226.449 129.305 226.46 129.304 226.449 129.311C226.438 129.312 226.443 129.312 226.461 129.31C228.631 129.111 230.966 129.55 233.164 129.647L234.834 129.779C241.488 130.357 248.07 131.868 254.397 133.975C255.85 134.424 257.475 134.948 258.686 135.687C258.985 135.912 258.988 135.987 259.065 136.26C259.385 137.561 261.274 137.668 261.758 136.449L262.148 135.539L259.472 134.504L259.103 135.553C259.072 135.638 259.058 135.728 259.057 135.816L259.047 136.256L258.787 147.92C258.567 153.792 258.954 159.754 257.598 165.493C256.23 171.292 253.676 176.677 252.258 182.546L253.475 182.235L252.343 181.101C251.953 180.64 251.175 180.955 251.174 181.529L251.136 182.921L251.93 182.336C242.116 180.156 231.354 177.812 221.639 175.464L216.61 174.25C215.775 174.049 214.933 173.837 214.085 173.679C213.683 173.589 213.198 173.484 213.017 173.065C212.855 172.661 212.887 172.212 212.927 171.786L212.933 171.785ZM212.933 171.785C212.893 172.211 212.854 172.655 213.011 173.065C213.193 173.496 213.685 173.606 214.087 173.702C214.936 173.866 215.768 174.091 216.603 174.297L221.621 175.565C228.312 177.269 234.982 179.046 241.638 180.854L251.625 183.588C251.957 183.68 252.303 183.484 252.395 183.146C252.413 183.103 252.412 183.044 252.419 182.997L252.534 181.607L251.365 182.035L252.439 183.229C252.796 183.652 253.541 183.464 253.656 182.919C254.782 179.162 256.423 175.559 257.885 171.824C259.375 168.068 260.628 164.08 260.995 160.021C261.551 154.23 261.563 147.86 261.811 142.032L261.912 139.045C261.91 137.979 262.071 136.953 261.901 135.783L261.845 136.492C261.844 136.481 262.207 135.439 262.206 135.427C262.462 134.678 262.061 133.861 261.308 133.605C260.591 133.361 259.812 133.723 259.526 134.411L259.143 135.326L261.855 135.583C261.761 135.16 261.574 134.688 261.291 134.292C259.844 132.477 257.249 132.014 255.216 131.295C248.688 129.269 241.82 127.93 234.979 127.666C232.716 127.617 230.42 127.472 228.152 127.482C227.346 127.536 226.256 127.416 225.496 127.946C225.346 128.062 225.245 128.26 225.193 128.372C224.569 129.7 223.917 131.049 223.255 132.353C221.226 136.303 218.813 140.167 215.237 142.87C215.052 142.996 215.024 143.269 215.182 143.427L216.078 144.336L216.335 143.756L214.65 143.749L214.637 144.366C214.557 144.386 214.429 144.289 214.42 144.255C214.413 144.244 214.406 144.233 214.399 144.222C214.45 144.369 214.451 144.75 214.469 144.912C214.588 149.246 214.335 153.603 214.184 157.932C214.068 162.573 213.414 167.168 212.927 171.78L212.933 171.785Z" fill="#292D33"/>
<path d="M142.868 143.209C163.022 147.836 192.545 154.717 212.529 158.806L211.46 157.132C210.146 162.426 209.924 167.979 210.744 173.376L212.715 171.84C211.474 171.304 209.924 170.404 208.021 170.234C204.979 170.278 200.952 169.892 198.427 169.428C196.737 168.959 195.023 168.323 193.151 167.793C181.258 164.822 167.462 161.787 155.429 159.242C142.849 156.565 124.936 153.002 112.169 150.439C119.258 152.436 126.382 154.283 133.52 156.093C149.972 160.251 170.552 165.076 187.095 169.201L192.407 170.534C194.111 171.019 195.902 171.717 197.789 172.222C201.121 172.843 204.515 173.17 207.919 173.115L207.778 173.107C209.119 173.228 210.264 173.904 211.602 174.47C212.595 174.934 213.779 174.001 213.573 172.934C213.172 170.425 213.025 167.876 213.117 165.33C213.209 162.783 213.567 160.255 214.129 157.774C214.314 157.015 213.825 156.249 213.06 156.1C192.405 152.179 163.392 146.208 142.867 143.203L142.868 143.209Z" fill="#292D33"/>
<path d="M66.3001 128.054C70.1154 129.336 74.0297 130.191 77.9562 130.998C81.8918 131.781 85.8479 132.485 89.8786 132.489C86.2001 130.806 82.2248 129.981 78.2622 129.324C74.2965 128.692 70.3269 128.182 66.3001 128.054Z" fill="#292D33"/>
<path d="M58.4527 138.06C53.8536 135.776 48.2788 135.72 43.9765 132.84L44.5029 133.526C43.6555 130.258 43.0713 126.99 43.4984 123.662L40.8672 124.305C40.9218 124.375 40.9949 124.508 40.8929 124.326C40.848 124.237 40.8261 124.146 40.8184 124.129C40.8159 124.106 40.8178 124.123 40.8197 124.141L43.3946 123.041C43.4536 123.099 43.5184 123.315 43.4459 123.083L41.6632 124.891C43.3125 125.417 44.6673 125.027 45.8856 125.993L47.0335 123.576C45.5562 123.44 44.0461 123.643 43.0878 122.648L41.7929 124.794C42.2937 124.879 42.5993 124.945 42.7001 125.01L43.1442 122.683C43.1442 122.683 43.0531 122.704 43.0235 122.702C42.9889 122.706 43.0306 122.713 43.0813 122.801L41.8475 124.706C47.1904 125.468 52.7419 126.212 58.1221 126.518C56.8163 126.083 55.5047 125.701 54.1925 125.313C51.5603 124.574 48.9198 123.865 46.2632 123.222L42.2744 122.275C41.1907 121.997 40.3602 123.319 41.0406 124.181C41.8621 125.577 44.9213 125.789 44.6971 123.711C44.5785 122.957 43.7061 122.579 43.1238 122.392C42.815 122.297 42.5453 122.239 42.329 122.187C41.6202 122.02 40.9145 122.461 40.7474 123.171C40.6484 123.597 40.7716 124.023 41.0341 124.334C42.3236 126.1 44.945 126.319 46.8049 126.424C47.5856 126.501 48.2772 125.933 48.3545 125.151C48.3995 124.713 48.2372 124.303 47.9528 124.007C46.6351 122.46 44.0842 122.456 42.4529 122.091C41.3827 121.724 40.2955 122.84 40.6702 123.9C40.7324 124.144 40.9166 124.593 41.1175 124.822C42.025 125.993 43.9186 125.133 43.6718 123.696C43.6378 123.495 43.6045 123.299 43.4838 123.055C43.3137 122.734 43.2855 122.743 43.2553 122.682C42.8818 122.003 42.0299 121.758 41.3576 122.131C40.8998 122.381 40.6525 122.841 40.6299 123.324C40.4214 125.192 40.498 127.099 40.8006 128.934C41.1071 130.803 41.637 132.578 42.2312 134.298C42.3184 134.558 42.5052 134.766 42.7292 134.888C47.5837 137.577 53.1991 136.996 58.4514 138.049L58.4527 138.06Z" fill="#292D33"/>
<path d="M85.547 144.239C79.7352 141.673 73.4494 140.214 67.1022 139.997C72.8973 142.571 79.2166 144.015 85.547 144.239Z" fill="#292D33"/>
<path d="M153.963 128.259C159.253 129.706 164.483 131.194 169.88 132.23C172.574 132.735 175.264 133.098 177.858 133.754C183.127 135.221 188.617 135.778 193.979 136.772C202.046 138.145 210.134 139.405 218.277 140.307C207.649 137.771 196.975 135.509 186.202 133.732C183.56 133.328 180.834 132.798 178.241 132.148C174.165 131.252 170.138 131.019 166.087 130.255C162.191 129.562 157.872 128.804 153.974 128.252L153.963 128.259Z" fill="#292D33"/>
<path d="M66.7931 113.281C72.7624 115.05 79.1254 116.308 85.2521 117.439C91.4007 118.504 97.7977 119.488 104.034 119.758C98.0304 118.103 91.681 116.862 85.5536 115.725C79.4012 114.678 73.0202 113.681 66.7938 113.287L66.7931 113.281Z" fill="#292D33"/>
<path d="M230.207 178.144C237.383 179.821 244.564 181.445 251.727 183.165C251.859 183.197 251.995 183.1 251.997 182.965C252.181 182.933 252.277 182.899 252.313 182.86C252.421 181.828 252.52 180.078 252.607 179.014C253.277 170.219 253.942 160.066 254.419 151.221C254.455 150.696 254.002 150.249 253.474 150.29C250.312 150.417 247.178 149.587 244.117 148.514C241.039 147.444 237.998 146.076 234.733 145.067C228.247 143.068 221.384 142.627 214.684 142.707C214.684 142.707 214.618 145.438 214.612 145.438C214.286 145.451 213.829 145.238 213.623 144.962C213.555 144.876 213.568 144.886 213.534 144.843C213.478 144.762 213.408 144.605 213.388 144.531C213.368 144.452 213.374 144.457 213.374 144.457C213.385 144.555 213.413 144.704 213.416 144.833C213.485 146.096 213.428 148.592 213.42 149.887C213.273 155.532 213.174 161.827 212.511 167.459L212.211 170.397C212.07 171.924 211.619 174.035 213.697 174.414C217.106 175.097 226.68 177.358 230.218 178.137L230.207 178.144ZM230.445 177.181C228.349 176.628 218.085 173.899 216.217 173.403C215.812 173.29 215.168 173.127 214.76 173.032C214.438 172.979 213.933 172.854 213.751 172.739C213.663 172.105 213.848 171.294 213.923 170.6L214.327 167.691C214.862 164.335 215.281 159.357 215.506 155.894C215.743 152.535 216.013 148.903 216.107 145.525C216.103 144.91 216.159 144.307 215.978 143.676C215.828 143.16 215.238 142.698 214.689 142.706L214.623 145.437C217.935 145.656 221.223 145.714 224.469 145.975C227.714 146.225 230.917 146.684 234.009 147.56C237.113 148.435 240.201 149.645 243.429 150.646C246.646 151.643 250.107 152.367 253.599 152.056L252.66 151.124C252.064 161.222 251.641 172.351 251.265 182.425L251.257 182.672C251.23 182.851 251.33 182.857 251.568 182.942L251.838 182.742C244.695 180.933 237.582 179.032 230.451 177.18L230.445 177.181Z" fill="#292D33"/>
<path d="M252.959 182.73C255.09 176.666 258.322 171.049 259.956 164.777C261.488 158.697 261.267 151.74 261.66 145.512C261.77 143.122 261.826 140.726 261.918 138.332C262.117 136.008 262.041 134.055 259.594 132.879C257.546 131.811 254.759 131.154 252.571 130.47C245.84 128.475 238.82 127.518 231.819 127.474C230.206 127.43 228.555 127.314 226.905 127.461C226.344 127.523 225.631 127.585 225.253 128.13C225.177 128.238 225.161 128.299 225.108 128.404C222.619 133.764 220.083 139.286 215.456 143.19C217.272 142.052 218.915 140.616 220.326 138.996C222.903 136.063 224.851 132.632 226.732 129.232L226.781 129.144L226.805 129.101C226.839 129.038 226.802 129.119 226.777 129.157C226.737 129.225 226.663 129.298 226.626 129.326C226.492 129.44 226.425 129.412 226.697 129.388C228.805 129.301 231.144 129.663 233.292 129.782C239.561 130.242 245.752 131.378 251.768 133.201C254.221 134.013 256.647 134.529 258.759 135.742C258.978 135.928 259.012 135.971 259.079 136.204C259.161 138.895 258.92 142.582 258.925 145.434C258.709 151.772 259.186 158.138 258.115 164.366C256.952 170.609 254.19 176.461 252.972 182.734L252.959 182.73Z" fill="#292D33"/>
<path d="M260.861 134.976C258.835 137.379 257.588 140.123 256.557 143.008C255.504 145.918 255.308 148.581 253.895 151.403C258.624 149.842 261.068 139.486 260.861 134.976Z" fill="#292D33"/>
<path d="M76.1271 185.326C69.2465 177.439 62.3717 169.551 55.4912 161.664C56.0535 162.305 51.4257 165.177 51.0355 165.454C49.383 166.633 50.6867 167.947 51.7677 169.099C55.0561 172.597 58.3824 176.067 61.6875 179.557C63.6351 181.615 65.5819 183.667 67.5237 185.725C72.5709 191.056 77.6387 196.413 83.4156 200.942C83.8643 201.297 84.3726 201.663 84.947 201.623C85.7653 201.568 86.2697 200.738 86.7323 200.061C87.195 199.383 88.0325 198.71 88.7584 199.087C87.838 198.116 86.9181 197.152 85.9919 196.182C84.6355 194.762 83.2786 193.336 81.9485 191.889C79.967 189.735 78.0439 187.528 76.1207 185.321" fill="white"/>
<path d="M76.1272 185.325C69.6478 177.312 62.7055 169.027 56.0399 161.18L54.9419 162.139C54.7621 161.943 54.8006 161.71 54.8199 161.673C53.7687 162.843 52.1457 163.761 50.7742 164.68C47.9043 166.531 50.3666 168.855 51.9662 170.518C56.3735 175.192 60.8552 179.958 65.2875 184.595C70.8483 190.443 76.4463 196.415 82.8985 201.339C84.3819 202.639 85.8895 202.526 86.9502 200.756C87.2974 200.249 87.8614 199.273 88.5719 199.564C89.0687 199.773 89.5384 199.105 89.1328 198.717C86.7642 196.342 81.5147 191.087 79.3432 188.696C78.2815 187.56 77.1928 186.444 76.1202 185.314C79.9223 190.015 84.2526 194.997 88.3768 199.439L88.9986 198.614C88.5621 198.37 87.9871 198.404 87.6091 198.58C86.595 198.979 86.1626 200.035 85.4567 200.734C84.5679 201.523 83.7417 200.244 82.9528 199.722C77.018 194.77 71.8449 189.044 66.5255 183.421C62.1464 178.738 57.6114 174.019 53.1836 169.37C52.5147 168.612 51.3009 167.633 51.0588 166.769C51.0434 166.63 51.0479 166.565 51.1435 166.426C52.6638 165.057 54.731 164.19 56.0234 162.506C56.264 162.093 56.4372 161.705 56.0444 161.168L54.9463 162.127C58.4428 166.024 61.9386 169.914 65.4614 173.784C68.5997 177.193 72.9858 181.993 76.1311 185.307L76.1272 185.325Z" fill="#292D33"/>
<path d="M85.5003 202.033C86.7659 204.429 89.3877 205.655 91.5279 207.128L93.7683 208.503C94.0385 208.672 94.3974 208.585 94.5599 208.31C94.6788 208.115 94.6705 207.882 94.5569 207.701C92.7862 204.863 90.9615 202.066 88.8363 199.461C90.1774 202.54 91.8435 205.436 93.5654 208.308L94.354 207.507C93.0149 206.718 91.1436 205.613 89.7846 204.908C88.242 204.078 86.698 203.341 85.4887 202.034L85.5003 202.033Z" fill="#292D33"/>
<path d="M89.1806 202.366C89.4669 202.522 89.2453 202.951 88.9288 202.892C88.1944 202.651 88.3076 201.719 88.8714 201.422C89.378 201.085 89.9731 201.652 89.9717 202.22C89.9979 202.721 89.3474 203.291 88.8781 202.962C88.7266 202.809 88.7132 202.582 88.8615 202.443C88.9206 202.395 88.9944 202.375 89.0734 202.402C89.2442 202.359 89.3084 202.147 89.2661 201.976C89.1783 201.5 88.5453 201.33 88.151 201.572C86.9425 202.227 87.5161 203.974 88.6846 204.172C89.3946 204.351 90.3109 203.858 90.4652 203.085C90.5642 202.658 90.4044 202.061 89.8883 201.837C89.5153 201.691 89.0087 201.975 89.1858 202.36L89.1806 202.366Z" fill="#292D33"/>
<path d="M89.6279 203.175C90.2233 205.013 91.5969 206.536 93.3662 207.3C92.7766 205.462 91.3914 203.94 89.6279 203.175Z" fill="#292D33"/>
<path d="M51.4269 164.567C50.6324 165.259 49.7481 165.983 48.6987 166.011C47.3817 166.051 46.3181 165.003 45.4265 164.029C42.9372 161.304 40.4748 158.559 38.0394 155.794C35.5379 152.959 33.0627 150.098 30.6144 147.216C29.3903 145.776 28.1713 144.329 26.9581 142.881C26.3514 142.157 25.75 141.426 25.1427 140.697C24.6221 140.063 24.0502 139.599 23.7247 138.826C23.6605 138.669 23.6002 138.494 23.6284 138.327C23.656 138.154 23.774 138.007 23.9152 137.909C24.0667 137.798 24.2515 137.778 24.4055 137.691C24.5596 137.603 24.6654 137.451 24.7745 137.328C25.4753 136.583 26.1754 135.831 26.8762 135.086C27.3992 134.53 28.134 133.828 28.9799 133.916C29.3644 133.956 29.5358 134.183 29.7694 134.444C30.0699 134.78 30.4024 135.089 30.7079 135.419C31.3761 136.118 32.0386 136.818 32.7074 137.524C34.0381 138.923 35.3694 140.329 36.7001 141.729C37.4344 142.497 38.1636 143.272 38.898 144.04C38.9519 144.526 40.4148 145.642 40.7717 146.013C41.4405 146.718 42.1087 147.417 42.7776 148.123C44.1147 149.528 45.4524 150.938 46.7837 152.344C48.1208 153.749 49.4586 155.159 50.7899 156.565C51.4587 157.27 52.1269 157.97 52.7958 158.675C53.3517 159.258 54.2375 159.916 54.5822 160.651C55.2711 162.116 52.3806 163.73 51.4314 164.555L51.4269 164.567Z" fill="white"/>
<path d="M51.4266 164.567C48.8147 167.058 47.0264 165.961 45.0467 163.455C43.3656 161.479 41.6895 159.497 40.0507 157.481C35.7736 152.241 31.0516 145.943 26.8329 140.65C26.3302 139.915 25.3308 138.971 25.0201 138.278C24.9745 138.184 25.0432 138.223 25.0291 138.518C24.9887 138.838 24.836 138.99 24.7724 139.05C24.7294 139.084 24.6646 139.132 24.6088 139.156C24.5972 139.157 24.6826 139.136 24.8449 139.071C25.3359 138.911 25.7254 138.417 26.0502 138.077L27.3901 136.663C27.7662 136.311 28.3713 135.495 28.8295 135.356C28.8295 135.356 28.8295 135.356 28.7698 135.345C28.6691 135.333 28.5041 135.216 28.5221 135.22C28.5208 135.209 28.6556 135.369 28.7737 135.485C31.8523 138.619 34.9732 141.714 38.1519 144.749L37.8758 144.158C38.1064 145.287 39.2964 145.894 40.075 146.587C40.2425 146.727 40.5198 147.012 40.6887 147.164C44.9688 151.167 49.2214 155.343 53.4213 159.414C56.3201 161.613 53.1465 163.1 51.415 164.568L51.4266 164.567ZM51.4266 164.567C52.4579 163.639 55.1277 162.354 54.6397 160.697C54.4021 160.137 53.9579 159.718 53.5484 159.294C52.841 158.611 51.8403 157.444 51.1612 156.699C48.0704 153.244 44.9404 149.541 41.9163 146.003C41.7109 145.785 41.5241 145.525 41.3123 145.302C40.8905 144.874 40.0914 144.154 39.8667 143.763C39.8821 143.796 39.9078 143.869 39.9084 143.928L39.6324 143.337C37.9294 141.375 36.2321 139.413 34.4868 137.491C33.6196 136.526 32.7626 135.549 31.8742 134.604L30.4935 133.122C30.0538 132.637 29.0628 132.348 28.3844 132.505C26.9551 132.745 26.16 133.747 25.275 134.676L23.9537 136.1L23.7862 136.276L23.5937 136.491C23.5469 136.543 23.5315 136.562 23.5578 136.536C23.5725 136.511 23.7433 136.416 23.7497 136.421C22.4982 136.788 21.818 138.193 22.424 139.385C22.9498 140.593 24.0096 141.395 24.7895 142.364C27.7725 145.796 30.9133 149.122 34.0702 152.382C37.6514 156.146 41.3443 159.81 44.8991 163.6C46.9796 165.96 48.823 167.133 51.4279 164.578L51.4266 164.567Z" fill="#292D33"/>
<path d="M25.3342 142.289C25.3748 141.336 24.4042 140.6 23.4643 140.564C21.77 140.529 20.68 142.36 20.8697 143.914C21.0157 145.444 22.1287 146.779 23.29 147.6C26.0978 149.397 28.9514 150.815 31.5011 152.922C36.5299 156.869 40.2107 162.377 40.3555 169.02C41.528 165.769 41.0962 162.027 39.7563 158.855C37.0587 152.295 30.7625 148.313 24.5231 145.688C23.6141 145.192 22.8496 144.573 22.5217 143.62C22.2304 142.785 22.5973 141.609 23.5181 141.366C24.2128 141.195 25.0756 141.539 25.3342 142.289Z" fill="#292D33"/>
<path d="M43.4648 134.658C40.7422 133.472 37.9868 132.413 35.2115 131.437C34.4944 131.194 33.923 130.947 33.7157 130.66C33.4802 130.381 33.3269 129.842 33.2108 129.164C32.9646 127.733 32.6914 126.269 32.415 124.83C31.2954 119.05 29.9991 113.313 28.4974 107.623L26.8175 109.091C31.8443 110.749 37.2476 111.421 42.506 110.733C38.679 110.138 34.9078 109.308 31.2588 108.049C30.0557 107.643 28.8706 107.189 27.706 106.709C26.8259 106.314 25.8074 107.153 26.0043 108.086C27.0758 113.906 28.3528 119.68 29.8069 125.417C30.1758 126.847 30.5427 128.258 30.9417 129.696C31.1573 130.428 31.4274 131.388 32.249 132.152C32.9788 132.826 33.8808 132.996 34.7302 133.166C37.6154 133.76 40.5212 134.276 43.4648 134.658Z" fill="#292D33"/>
<path d="M27.3831 107.546C35.5767 102.462 35.7849 104.132 44.5678 105.321C46.6896 105.572 48.8314 105.739 51.0407 105.617C47.1357 103.578 43.1123 102.266 38.8121 101.413C33.6825 100.411 29.7448 103.255 27.3831 107.546Z" fill="#292D33"/>
<path d="M54.8279 113.3C54.8264 111.754 54.6778 110.254 54.4611 108.773C54.3905 108.4 54.3695 107.998 54.2617 107.606C54.0809 106.554 52.9601 105.624 51.8378 105.842C51.0718 105.95 50.4072 106.393 49.8607 106.687C47.2126 108.181 44.6717 109.851 42.2572 111.711C41.9611 111.943 41.8198 112.304 41.864 112.651C42.0024 113.848 42.1755 115.041 42.407 116.234C42.6398 117.438 42.9124 118.632 43.2999 119.807C43.4669 119.203 43.5872 118.598 43.708 117.999C44.0365 116.212 44.227 114.392 44.3365 112.582L43.7655 113.659C46.6839 112.123 49.4702 110.344 52.1184 108.376C52.313 108.232 52.3264 108.3 52.1383 108.187C52.0748 108.141 52.0562 108.078 52.0934 108.098C52.2532 108.221 52.3617 108.513 52.4714 108.765C53.158 110.317 53.8928 111.829 54.8331 113.294L54.8279 113.3Z" fill="#292D33"/>
<path d="M50.9603 185.666C52.0208 186.21 52.9208 186.995 53.3083 188.065C53.4764 188.579 53.4917 189.14 53.0223 189.391C52.1844 189.747 51.4866 189.256 50.681 188.584C50.0744 188.072 49.5108 187.578 49.213 187.054C48.5365 185.964 49.2527 184.666 50.5745 185.299C51.1953 185.57 51.6767 186.272 52.0733 187.001C52.0884 185.711 51.1989 184.07 49.6432 184.019C47.7043 183.889 46.9236 186.4 47.7477 187.82C48.2149 188.764 48.9313 189.37 49.5591 189.915C50.2157 190.457 51.0656 191.107 52.2457 191.146C53.402 191.235 54.7396 190.319 54.7482 189.077C54.7134 186.966 52.7689 185.729 50.9712 185.659L50.9603 185.666Z" fill="#292D33"/>
<path d="M49.4053 184.511C50.5675 183.914 51.4939 184.145 52.3008 184.935L53.1738 185.74C54.2535 186.722 55.3088 187.694 55.5145 189.13L55.889 188.602C55.1171 189.08 54.3729 189.596 53.6935 190.222C54.6167 190.16 55.497 189.975 56.3786 189.749C56.629 189.686 56.7311 189.446 56.7524 189.215C57.1137 187.248 55.6823 185.468 54.2354 184.445C53.4811 183.92 52.7667 183.331 51.7709 183.213C50.718 183.107 49.7304 183.697 49.4053 184.511Z" fill="#292D33"/>
<path d="M57.2696 180.937C56.9203 181.111 56.6783 181.091 56.4426 181.076C54.6398 180.959 53.4376 182.252 53.0436 184.029C54.5997 184.929 56.3751 184.375 57.1928 182.885C57.4818 182.378 57.8062 181.452 57.2754 180.937L57.2696 180.937Z" fill="#292D33"/>
<path d="M59.0536 182.999C57.088 181.834 54.9213 183.608 55.7048 185.771C57.8176 186.204 59.0698 185.152 59.0536 182.999Z" fill="#292D33"/>
<path d="M63.8873 182.282C62.564 182.798 61.358 183.634 60.2984 184.578C60.2285 184.632 60.0371 184.753 60.0332 184.718C60.0551 184.704 60.0782 184.701 60.1019 184.705C60.1308 184.702 60.1886 184.695 60.2265 184.72C60.4075 184.77 60.4075 184.876 60.3973 184.783C60.3402 184.532 60.3698 184.324 60.4642 184.014C60.5805 183.586 60.9132 182.998 60.9 182.139C60.8002 180.393 59.0477 179.357 57.4753 179.631C56.7619 179.739 56.1404 180.042 55.608 180.411L56.5736 180.521C56.1115 180.098 55.6384 179.682 55.1544 179.273C54.8918 179.015 54.4604 179.027 54.2228 179.311C53.7989 179.815 54.3522 180.48 54.8838 180.369C55.1888 180.323 55.3654 180.175 55.5407 180.015C56.4507 179.041 57.0153 177.854 57.5491 176.653C56.688 177.381 55.4254 178.762 54.7698 179.128C54.827 179.116 55.0395 179.133 55.1537 179.267L54.2521 180.157C54.6513 180.646 55.0557 181.129 55.4704 181.598C55.6982 181.86 56.0725 181.912 56.3589 181.751C57.1706 181.263 58.1792 181.128 58.7095 181.532C59.8399 182.286 58.5511 183.535 58.8737 184.759C58.9788 185.602 59.7574 186.506 60.7155 185.861C61.1451 185.567 61.4148 185.151 61.6839 184.781C62.33 183.96 63.1013 183.107 63.8809 182.277L63.8873 182.282Z" fill="#292D33"/>
<path d="M59.1178 163.987C58.814 161.403 58.3761 158.716 57.9279 156.148L56.9942 157.065C58.605 157.613 60.2131 158.191 61.8374 158.702C66.6876 160.297 71.5803 161.746 76.4973 163.099L75.4274 161.783C75.9304 171.661 78.12 181.398 81.6844 190.609C80.8225 183.354 79.4573 176.149 78.8837 168.856C78.6519 166.445 78.4669 164.035 78.3224 161.621C78.2865 160.98 77.8372 160.462 77.2524 160.304C75.6121 159.859 73.9673 159.426 72.318 159.006C67.345 157.729 62.3354 156.597 57.2989 155.591C56.9034 155.506 56.5168 155.765 56.4378 156.161C56.4414 156.933 56.8958 157.656 57.0838 158.402C57.7132 160.23 58.3946 162.211 59.1126 163.994L59.1178 163.987Z" fill="#292D33"/>
<path d="M75.5077 194.937C74.8016 194.423 73.8649 194.31 73.2332 193.941C72.9013 193.744 72.4134 193.511 72.0135 193.385C70.7378 193.064 69.6913 192.857 68.4536 192.403C67.3872 192.07 66.3748 191.907 65.451 191.435C65.1602 191.081 65.1438 190.087 65.0912 189.507C65.0618 188.925 65.0043 188.14 64.7906 187.531C64.3858 186.147 63.9194 184.682 63.3277 183.353C63.2709 184.584 63.3605 185.921 63.4559 187.152L63.5725 188.363C63.6197 189.688 63.2469 191.234 64.0736 192.466C65.0287 193.538 66.7744 193.666 68.0205 194.038C69.3796 194.532 70.9416 194.482 72.3496 194.625C73.3864 194.955 74.5293 194.817 75.5141 194.942L75.5077 194.937Z" fill="#292D33"/>
<path d="M118.008 135.124C111.42 140.123 105.435 145.77 99.5934 151.594C96.6933 154.51 93.8651 157.494 91.1222 160.562C88.3851 163.63 85.7617 166.667 82.4212 169.146C86.3553 167.749 89.6811 164.927 92.7398 162.175C95.7907 159.407 98.7576 156.566 101.651 153.645C107.435 147.768 113.045 141.747 118.002 135.119L118.008 135.124Z" fill="#292D33"/>
<path d="M119.349 140.524C112.824 145.569 106.845 151.162 100.925 156.861C95.0508 162.607 89.2833 168.417 84.0467 174.795C90.8521 170.117 97.0157 164.661 102.946 158.95C108.83 153.186 114.466 147.191 119.349 140.524Z" fill="#292D33"/>
<path d="M103.332 132.809C97.1737 136.618 91.5721 141.128 86.0964 145.822C80.6675 150.57 75.4138 155.474 70.7648 161.032C76.9235 157.222 82.5257 152.719 88.0008 148.018C93.4233 143.265 98.6827 138.361 103.332 132.809Z" fill="#292D33"/>
<path d="M116.384 146.132C118.702 146.15 120.703 147.159 122.758 148.126C126.541 149.804 131.007 151.676 135.137 149.941C138.004 148.628 139.726 145.954 141.686 143.687C146.707 137.468 151.781 131.266 156.126 124.541C156.719 123.503 157.233 122.392 157.506 121.214C157.555 121.021 157.388 120.829 157.192 120.856C156.637 120.918 156.084 120.996 155.532 121.081C155.457 121.089 155.397 121.131 155.406 121.212L155.537 122.234L155.664 121.213L155.538 121.344C156.094 121.399 156.649 121.449 157.209 121.487L156.905 121.069C155.94 123.08 154.397 124.674 152.857 126.344C151.285 128 149.791 129.717 148.258 131.41C145.245 134.83 142.314 138.317 139.448 141.856C135.112 147.332 133.975 149.432 126.489 147.695C123.174 147.078 119.809 145.266 116.384 146.132Z" fill="#292D33"/>
<path d="M93.0399 140.96C92.547 139.838 92.7429 139.494 93.1283 138.748C93.2356 138.502 93.3358 138.193 93.5433 137.742C93.7386 137.287 94.0514 136.731 94.2481 135.919C92.6604 135.421 91.1065 136.073 90.4333 137.653C89.6259 139.341 91.127 141.858 93.0399 140.96Z" fill="#292D33"/>
<path d="M152.603 115.078C153.171 116.344 154.859 115.8 155.935 116.003C156.411 116.079 156.922 116.31 156.942 116.811C156.962 117.201 156.577 117.631 156.163 118.01C154.399 119.676 152.616 121.32 150.872 123.006C147.359 126.353 143.904 129.752 140.449 133.151L135.324 138.269C133.782 139.711 132.194 141.17 130.061 141.236C128.785 141.225 127.485 140.736 127.075 139.575C126.755 138.48 126.922 137.08 126.191 135.819C125.089 133.733 122.437 133.025 120.516 132.688L121.652 133.915C121.621 133.584 121.399 133.164 121.124 132.954C120.873 132.748 120.557 132.636 120.28 132.561C119.496 132.35 118.235 132.161 117.435 132.021C115.456 131.789 110.214 130.882 108.185 130.521L101.996 129.514C99.8731 129.198 97.7597 128.495 95.5221 128.679C95.0695 128.711 94.7323 129.1 94.765 129.553C94.7662 129.565 94.7682 129.582 94.7694 129.594L94.9309 130.946L95.0117 131.623C95.138 132.341 94.9626 132.817 95.0105 133.673C94.9925 134.038 95.2306 134.498 95.2658 134.816C95.2671 134.827 95.2915 134.784 95.33 134.762C95.3628 134.741 95.4103 134.747 95.382 134.756C94.8838 134.694 94.0274 134.408 93.542 134.304L90.8758 133.627L91.069 134.156C91.9181 132.633 93.1729 131.287 94.7166 130.332C93.0536 131.055 91.5529 132.24 90.4649 133.772C90.3531 133.925 90.3942 134.137 90.547 134.249C90.5675 134.276 90.6272 134.287 90.658 134.301L93.2337 135.269C93.8519 135.464 94.6999 135.886 95.3407 135.967C95.7991 136.039 96.3905 135.623 96.4869 135.173C96.6874 134.553 96.4043 134.163 96.4141 133.617C96.4341 133.111 96.6545 132.196 96.584 131.56C96.5584 131.118 96.5215 129.939 96.494 129.479L95.6604 130.403C97.5384 130.406 99.4508 131.196 101.598 131.62L107.723 132.95L113.877 134.219C115.423 134.499 118.018 134.903 119.52 135.264L119.605 135.289C119.623 135.293 119.568 135.276 119.556 135.271C119.18 135.096 118.87 134.627 118.843 134.22L119.979 135.447C121.479 135.79 122.919 136.012 123.652 137.19C124.087 138.102 123.873 139.291 124.317 140.501C125.092 142.899 127.817 144.161 130.089 144.073C132.912 144.054 135.421 142.101 137.222 140.191C143.796 133.214 150.528 125.862 156.806 118.648C157.992 117.468 158.052 115.634 155.973 115.501C154.878 115.388 153.335 116.244 152.585 115.068L152.603 115.078Z" fill="#292D33"/>
<path d="M142.076 119.152C138.728 121.081 136.063 123.742 133.543 126.604C131.262 129.036 128.045 132.473 125.861 134.934L125.98 135.062C128.485 132.963 132.032 129.817 134.514 127.61C137.443 125.171 140.169 122.579 142.196 119.28L142.076 119.152Z" fill="#292D33"/>
<path d="M123.593 105.803C118.723 109.312 114.181 112.977 109.55 116.747C104.964 120.552 100.439 124.427 96.5478 129.01C106.336 123.744 117.559 115.221 123.593 105.803Z" fill="#292D33"/>
<path d="M150.695 110.784C151.388 111.076 152.063 110.088 151.632 109.474C151.594 109.396 151.475 109.374 151.407 109.341C147.339 107.788 143.164 106.851 138.947 106.17C134.682 105.523 130.419 105.111 126.073 105.487C130.06 107.259 134.229 108.25 138.473 109.022C142.684 109.75 146.929 110.217 151.282 110.069L151.057 109.936C151.394 110.121 151.091 110.77 150.694 110.773L150.695 110.784Z" fill="#292D33"/>
<path d="M146.841 108.153C149.195 106.27 151.483 104.43 154.02 102.778C155.133 102.005 156.727 101.026 157.749 100.163C160.221 98.1908 162.374 95.8732 164.474 93.5439C165.984 91.9183 164.672 89.9434 162.677 89.8363C159.031 89.4552 155.363 89.1351 151.707 88.8664C151.341 88.8367 150.992 88.9631 150.736 89.1848C149.262 90.4549 147.809 91.7521 146.382 93.0756C143.542 95.7388 140.774 98.4759 138.15 101.349C136.828 102.778 135.552 104.249 134.316 105.762C137.447 103.448 140.451 101.001 143.495 98.5904L152.518 91.3302L151.5 91.6479C155.147 92.0407 158.87 92.3781 162.535 92.6751C162.738 92.717 162.658 92.7317 162.545 92.6037C162.326 92.423 162.252 91.863 162.427 91.6446C162.432 91.6439 162.412 91.6696 162.366 91.7274L162.19 91.9401C160.057 94.4899 157.985 97.0679 155.535 99.2954C152.37 101.93 149.278 104.803 146.841 108.153Z" fill="#292D33"/>
<path d="M161.387 99.3701C157.702 101.957 154.477 105.213 151.928 108.928C155.624 106.334 158.827 103.086 161.387 99.3701Z" fill="#292D33"/>
<path d="M214.048 148.48C203.361 145.464 192.043 143.098 181.14 140.932C170.208 138.874 158.84 136.847 147.789 135.669C158.472 138.692 169.789 141.058 180.697 143.218C191.629 145.276 203.002 147.296 214.048 148.48Z" fill="#292D33"/>
<path d="M58.4671 119.012C54.5497 117.653 50.4454 116.509 46.2638 116.726C50.0861 118.44 54.3209 118.862 58.4671 119.012Z" fill="#292D33"/>
<path d="M98.4143 126.379C93.3785 124.747 88.0081 123.631 82.8085 122.631C77.5953 121.721 72.1825 120.856 66.8934 120.581C71.9253 122.232 77.2964 123.353 82.4954 124.347C87.7085 125.257 93.1265 126.116 98.4143 126.379Z" fill="#292D33"/>
<path d="M215.57 142.209C212.898 141.591 210.235 140.99 207.578 140.347C206.114 140.017 202.899 139.079 201.46 139.138C200.767 139.11 200.233 138.987 199.548 138.823C196.876 138.199 194.206 137.646 191.532 137.063L183.495 135.423C172.875 133.389 161.803 131.435 151.071 130.293C166.886 134.029 183.282 137.251 199.28 140.153C200.562 140.485 202.111 140.314 203.365 140.491C207.411 141.215 211.476 141.842 215.575 142.208L215.57 142.209Z" fill="#292D33"/>
<path d="M58.2372 113.824C54.6235 112.514 50.8049 111.414 46.9263 111.674C50.4449 113.34 54.394 113.717 58.2372 113.824Z" fill="#292D33"/>
<path d="M102.695 121.507C103.148 121.902 103.591 122.304 104.048 122.686L104.188 122.361C92.0386 119.085 79.6414 116.686 67.1103 115.508C70.1322 116.438 73.1881 117.201 76.2505 117.916C85.4504 120.019 94.7352 121.726 104.122 122.713C104.308 122.763 104.436 122.491 104.261 122.388C103.747 122.081 103.219 121.8 102.7 121.5L102.695 121.507Z" fill="#292D33"/>
<path d="M212.996 143.006C212.81 143.179 212.665 143.294 212.518 143.393C212.575 143.539 212.576 143.703 212.57 143.861C212.553 144.021 212.505 144.173 212.427 144.31C212.553 144.443 212.669 144.588 212.808 144.79C213.039 144.87 213.239 144.883 213.444 144.878C213.594 144.603 213.695 144.299 213.725 143.986C213.766 143.671 213.72 143.36 213.644 143.052C213.446 143.003 213.25 142.972 213.001 143L212.996 143.006Z" fill="#292D33"/>
<path d="M210.665 142.083C210.415 142.146 210.235 142.213 210.049 142.28C210.04 142.457 209.983 142.896 209.963 143.08C209.947 143.258 209.892 143.709 209.87 143.875C210.034 143.986 210.198 144.091 210.415 144.207C210.66 144.145 210.84 144.078 211.025 144.005C211.047 143.839 211.096 143.382 211.118 143.21C211.138 143.026 211.184 142.594 211.217 142.415C211.052 142.304 210.894 142.198 210.665 142.083Z" fill="#292D33"/>
<path d="M208.006 142.69C207.612 142.769 207.361 142.674 207.382 142.964L207.328 143.322C207.312 143.44 207.264 143.745 207.253 143.857C207.42 143.944 207.581 144.026 207.802 144.118C208.039 144.092 208.223 144.06 208.406 144.022C208.423 143.909 208.464 143.6 208.481 143.487L208.535 143.13C208.634 142.861 208.372 142.872 208.012 142.69L208.006 142.69Z" fill="#292D33"/>
<path d="M205.281 141.58C205.038 141.659 204.865 141.737 204.693 141.82C204.705 141.983 204.691 142.383 204.692 142.553C204.692 142.711 204.686 143.127 204.686 143.285C204.865 143.365 205.032 143.452 205.263 143.532C205.494 143.454 205.667 143.376 205.845 143.292C205.846 143.14 205.851 142.717 205.851 142.559C205.856 142.389 205.847 141.992 205.864 141.826C205.691 141.745 205.518 141.659 205.28 141.574L205.281 141.58Z" fill="#292D33"/>
<path d="M202.426 140.729C202.192 140.843 202.023 140.95 201.859 141.056C201.88 141.246 201.904 141.724 201.921 141.927C201.936 142.119 201.962 142.614 201.977 142.8C202.162 142.885 202.335 142.971 202.578 143.055C202.806 142.942 202.969 142.836 203.139 142.73C203.131 142.549 203.093 142.05 203.083 141.857C203.072 141.654 203.032 141.184 203.033 140.984C202.854 140.899 202.675 140.813 202.426 140.729Z" fill="#292D33"/>
<path d="M199.547 140.04C199.3 140.131 199.129 140.226 198.953 140.322C198.963 140.52 198.941 141.003 198.939 141.202C198.937 141.395 198.923 141.895 198.92 142.083C199.095 142.186 199.264 142.285 199.492 142.388C199.728 142.298 199.899 142.203 200.081 142.107C200.084 141.925 200.098 141.414 200.1 141.226C200.107 141.02 200.106 140.54 200.125 140.345C199.956 140.24 199.787 140.142 199.547 140.04Z" fill="#292D33"/>
<path d="M195.654 139.377C195.422 139.502 195.26 139.619 195.097 139.737C195.126 139.939 195.159 140.45 195.183 140.664C195.205 140.867 195.247 141.395 195.263 141.593C195.448 141.683 195.627 141.769 195.871 141.853C196.097 141.729 196.259 141.611 196.422 141.494C196.406 141.302 196.359 140.769 196.342 140.566C196.324 140.351 196.274 139.847 196.268 139.637C196.089 139.551 195.909 139.46 195.654 139.377Z" fill="#292D33"/>
<path d="M193.129 139.439C192.964 139.639 192.839 139.782 192.7 139.897C192.777 140.064 192.793 140.261 192.778 140.445C192.764 140.633 192.702 140.816 192.609 140.973C192.73 141.118 192.83 141.276 192.948 141.498C193.185 141.577 193.391 141.589 193.606 141.577C193.793 141.264 193.906 140.911 193.936 140.551C193.972 140.19 193.908 139.822 193.794 139.477C193.589 139.424 193.382 139.4 193.129 139.439Z" fill="#292D33"/>
<path d="M189.232 138.375C188.993 138.483 188.829 138.589 188.659 138.69C188.68 138.881 188.692 139.36 188.703 139.563C188.713 139.756 188.733 140.251 188.742 140.438C188.921 140.529 189.1 140.615 189.338 140.7C189.566 140.593 189.735 140.486 189.906 140.385C189.897 140.205 189.871 139.704 189.867 139.511C189.862 139.306 189.827 138.836 189.834 138.636C189.654 138.545 189.481 138.458 189.232 138.375Z" fill="#292D33"/>
<path d="M186.942 138.087C186.709 138.195 186.55 138.294 186.386 138.394C186.415 138.555 186.447 138.95 186.472 139.117C186.489 139.273 186.535 139.684 186.552 139.84C186.734 139.902 186.917 139.964 187.157 140.019C187.379 139.913 187.543 139.813 187.708 139.713C187.691 139.562 187.645 139.146 187.627 138.989C187.609 138.822 187.559 138.429 187.547 138.266C187.365 138.204 187.188 138.142 186.936 138.088L186.942 138.087Z" fill="#292D33"/>
<path d="M182.363 137.034C182.13 137.148 181.971 137.248 181.808 137.353C181.838 137.526 181.874 137.955 181.894 138.135C181.914 138.308 181.957 138.748 181.975 138.916C182.158 138.984 182.341 139.052 182.583 139.119C182.804 139.006 182.969 138.906 183.132 138.8C183.114 138.638 183.065 138.193 183.051 138.018C183.031 137.839 182.985 137.417 182.976 137.236C182.793 137.168 182.616 137.1 182.363 137.034Z" fill="#292D33"/>
<path d="M179.66 136.246C179.428 136.372 179.272 136.488 179.11 136.612C179.143 136.807 179.186 137.3 179.21 137.509C179.231 137.705 179.288 138.214 179.309 138.405C179.493 138.485 179.678 138.564 179.92 138.642C180.141 138.519 180.303 138.401 180.465 138.278C180.444 138.093 180.387 137.578 180.365 137.381C180.342 137.173 180.282 136.687 180.272 136.483C180.087 136.404 179.909 136.324 179.654 136.247L179.66 136.246Z" fill="#292D33"/>
<path d="M176.058 136.309C175.814 136.377 175.64 136.443 175.466 136.509C175.476 136.649 175.457 137.002 175.461 137.148C175.459 137.289 175.447 137.653 175.45 137.788C175.628 137.862 175.795 137.937 176.025 138.011C176.257 137.945 176.431 137.878 176.611 137.812C176.614 137.677 176.62 137.313 176.622 137.172C176.629 137.025 176.625 136.674 176.639 136.532C176.467 136.457 176.295 136.383 176.058 136.303L176.058 136.309Z" fill="#292D33"/>
<path d="M171.544 135.051C171.312 135.176 171.155 135.287 170.993 135.404C171.025 135.594 171.067 136.07 171.094 136.266C171.115 136.457 171.169 136.943 171.19 137.128C171.374 137.207 171.558 137.281 171.8 137.353C172.02 137.23 172.183 137.118 172.346 137C172.326 136.821 172.271 136.323 172.25 136.138C172.227 135.936 172.17 135.468 172.154 135.276C171.97 135.197 171.792 135.123 171.538 135.051L171.544 135.051Z" fill="#292D33"/>
<path d="M168.959 134.373C168.72 134.488 168.551 134.594 168.382 134.706C168.399 134.915 168.405 135.442 168.412 135.664C168.418 135.874 168.431 136.417 168.437 136.621C168.618 136.724 168.792 136.822 169.026 136.925C169.253 136.812 169.422 136.7 169.597 136.593C169.593 136.394 169.573 135.846 169.573 135.635C169.566 135.413 169.543 134.894 169.554 134.677C169.379 134.573 169.204 134.475 168.959 134.373Z" fill="#292D33"/>
<path d="M165.271 133.816C165.046 133.952 164.89 134.074 164.729 134.204C164.769 134.404 164.826 134.913 164.861 135.126C164.889 135.328 164.959 135.853 164.987 136.049C165.177 136.128 165.361 136.207 165.603 136.28C165.822 136.144 165.978 136.022 166.139 135.893C166.118 135.696 166.042 135.171 166.013 134.969C165.99 134.755 165.911 134.255 165.893 134.046C165.709 133.966 165.525 133.887 165.271 133.816Z" fill="#292D33"/>
<path d="M162.341 133.401C162.109 133.52 161.952 133.631 161.788 133.743C161.821 133.927 161.86 134.391 161.882 134.582C161.902 134.767 161.955 135.247 161.975 135.421C162.158 135.494 162.342 135.568 162.583 135.635C162.804 135.516 162.967 135.405 163.13 135.293C163.111 135.114 163.057 134.633 163.037 134.454C163.016 134.257 162.959 133.801 162.944 133.615C162.761 133.542 162.583 133.468 162.33 133.402L162.341 133.401Z" fill="#292D33"/>
<path d="M157.654 132.387C157.436 132.534 157.293 132.661 157.143 132.789C157.198 132.97 157.289 133.422 157.334 133.617C157.378 133.799 157.477 134.269 157.52 134.445C157.713 134.5 157.901 134.556 158.151 134.592C158.357 134.447 158.506 134.319 158.656 134.191C158.619 134.019 158.508 133.546 158.47 133.362C158.431 133.167 158.317 132.723 158.29 132.533C158.103 132.478 157.91 132.423 157.654 132.387Z" fill="#292D33"/>
<path d="M154.789 131.97L154.316 132.403C154.445 132.775 154.496 133.18 154.511 133.576L154.508 133.817L155.068 134.112C155.405 133.993 155.759 133.96 155.673 133.559C155.669 133.05 155.572 132.545 155.442 132.056C155.243 132.008 155.052 131.97 154.795 131.97L154.789 131.97Z" fill="#292D33"/>
<path d="M151.699 131.737C151.474 131.868 151.311 131.985 151.155 132.108C151.195 132.303 151.248 132.783 151.277 132.991C151.298 133.182 151.365 133.684 151.392 133.874C151.582 133.947 151.766 134.026 152.008 134.093C152.227 133.963 152.384 133.846 152.546 133.723C152.525 133.538 152.452 133.037 152.43 132.84C152.407 132.632 152.337 132.159 152.32 131.956C152.137 131.882 151.952 131.803 151.699 131.737Z" fill="#292D33"/>
<path d="M101.419 122.716C101.076 122.889 100.8 122.879 100.891 123.12L100.939 123.443C100.956 123.547 100.992 123.824 101.009 123.921C101.193 123.948 101.372 123.975 101.608 123.996C101.832 123.907 101.993 123.83 102.16 123.747C102.148 123.643 102.101 123.373 102.089 123.269L102.042 122.946C102.059 122.681 101.8 122.774 101.419 122.711L101.419 122.716Z" fill="#292D33"/>
<path d="M100.072 121.964L99.5467 122.292C99.6206 122.588 99.609 122.906 99.5602 123.204C99.446 123.492 99.8184 123.527 100.023 123.739C100.269 123.741 100.458 123.702 100.652 123.663C100.788 123.145 100.786 122.6 100.704 122.076C100.517 122.021 100.331 121.977 100.078 121.964L100.072 121.964Z" fill="#292D33"/>
<path d="M97.9817 121.892C97.7461 121.982 97.5862 122.07 97.4199 122.153C97.4456 122.279 97.4752 122.598 97.4951 122.724C97.5092 122.852 97.5452 123.176 97.5593 123.303C97.7397 123.347 97.9202 123.392 98.1577 123.424C98.3818 123.335 98.5417 123.247 98.7138 123.164C98.7003 123.042 98.6637 122.712 98.6438 122.586C98.629 122.453 98.5827 122.141 98.5795 122.007C98.3991 121.963 98.2187 121.918 97.9753 121.886L97.9817 121.892Z" fill="#292D33"/>
<path d="M95.8742 121.825C95.5423 121.944 95.2411 121.918 95.3124 122.139L95.3311 122.412C95.3407 122.499 95.3497 122.738 95.3593 122.825C95.5385 122.858 95.7118 122.891 95.9494 122.924C96.1767 122.863 96.3456 122.804 96.5209 122.749C96.5112 122.662 96.4971 122.43 96.4926 122.336L96.4739 122.063C96.5189 121.836 96.2222 121.904 95.8742 121.825Z" fill="#292D33"/>
<path d="M94.0537 121.284C93.8014 121.276 93.6126 121.315 93.4213 121.383C93.3488 121.678 93.44 122.289 93.5273 122.496C93.5331 122.442 93.5414 122.412 93.5774 122.367C93.7469 122.419 93.9337 122.574 93.8612 122.816C93.9357 123.065 94.2529 123.13 94.5039 123.073C94.7781 122.803 94.6824 122.151 94.5861 121.969C94.561 121.848 94.5405 121.716 94.5796 121.595C94.414 121.525 94.2631 121.43 94.0544 121.289L94.0537 121.284Z" fill="#292D33"/>
<path d="M91.4803 120.856C91.122 121.107 90.8748 121.093 91.0019 121.448C91.0463 121.689 91.1413 122.176 91.1856 122.418C91.2139 122.514 91.1901 122.563 91.2145 122.414C91.3204 122.368 91.4476 122.301 91.5503 122.383C91.6319 122.433 91.7006 122.577 91.5921 122.654C91.5561 122.962 92.0698 123.005 92.2393 122.793C92.2772 122.766 92.3086 122.733 92.3407 122.706C92.3991 122.389 92.3279 122.274 92.3266 122.21C92.2823 121.968 92.1872 121.481 92.1429 121.24C92.1307 120.867 91.9079 120.967 91.4809 120.862L91.4803 120.856Z" fill="#292D33"/>
<path d="M89.1382 120.419C88.7786 120.552 88.5051 120.512 88.5744 120.768L88.5873 121.095C88.5989 121.199 88.6066 121.479 88.6124 121.584C88.7928 121.628 88.9674 121.673 89.2005 121.718C89.4329 121.651 89.6018 121.592 89.7764 121.531C89.7707 121.427 89.7578 121.153 89.7514 121.042L89.7385 120.716C89.7854 120.453 89.5176 120.517 89.1439 120.418L89.1382 120.419Z" fill="#292D33"/>
<path d="M86.6705 119.788C86.2988 120.023 86.0503 119.997 86.1563 120.372C86.1839 120.621 86.252 121.129 86.2796 121.378C86.2899 121.418 86.2449 121.382 86.3451 121.23C86.4664 121.216 86.5544 121.271 86.616 121.352C86.677 121.427 86.6924 121.566 86.5891 121.636C86.5493 121.963 87.0174 122.069 87.2877 121.922C87.4828 121.625 87.4469 121.407 87.4443 121.278C87.4154 121.018 87.3512 120.492 87.3165 120.232C87.3261 119.845 87.1014 119.928 86.6763 119.788L86.6705 119.788Z" fill="#292D33"/>
<path d="M82.5793 119.131C82.359 119.255 82.2075 119.366 82.056 119.476C82.1003 119.612 82.1735 119.955 82.2127 120.097C82.2454 120.234 82.3315 120.588 82.3636 120.719C82.5537 120.745 82.7328 120.778 82.98 120.791C83.1887 120.669 83.3402 120.558 83.4975 120.447C83.4654 120.316 83.3793 119.963 83.3466 119.826C83.3132 119.683 83.2233 119.347 83.2014 119.203C83.0172 119.177 82.8322 119.144 82.5793 119.131Z" fill="#292D33"/>
<path d="M84.4655 119.526C84.228 119.599 84.0546 119.671 83.887 119.742C83.9011 119.869 83.9076 120.191 83.9166 120.325C83.9249 120.452 83.932 120.78 83.9404 120.908C84.1163 120.964 84.2929 121.027 84.5272 121.083C84.759 121.01 84.9266 120.939 85.1 120.867C85.098 120.745 85.0845 120.412 85.0762 120.284C85.073 120.15 85.0556 119.836 85.0582 119.701C84.8822 119.644 84.7057 119.581 84.4655 119.526Z" fill="#292D33"/>
<path d="M80.5257 118.758C80.1796 118.96 79.9157 118.954 80.0217 119.223L80.0904 119.579C80.1148 119.693 80.1719 119.997 80.1906 120.112C80.3748 120.139 80.5533 120.166 80.7948 120.18C81.0111 120.074 81.171 119.987 81.3302 119.893C81.3116 119.778 81.2487 119.474 81.2301 119.359L81.1613 119.004C81.1645 118.716 80.918 118.814 80.5199 118.758L80.5257 118.758Z" fill="#292D33"/>
<path d="M78.3793 118.552C78.1578 118.664 77.9992 118.764 77.8464 118.863C77.8837 118.988 77.9415 119.297 77.9736 119.429C77.9993 119.555 78.0641 119.875 78.0956 120.001C78.2799 120.027 78.4642 120.054 78.7062 120.074C78.9219 119.962 79.0748 119.863 79.2333 119.764C79.2083 119.644 79.137 119.318 79.1113 119.192C79.085 119.06 79.0099 118.752 78.9951 118.619C78.8108 118.592 78.6323 118.565 78.3793 118.552Z" fill="#292D33"/>
<path d="M76.3816 118.262C76.1607 118.38 76.0079 118.479 75.8557 118.584C75.8981 118.702 75.9611 119.006 75.9925 119.131C76.0234 119.251 76.0934 119.565 76.1235 119.679C76.3072 119.699 76.4908 119.72 76.7316 119.729C76.9409 119.612 77.0937 119.513 77.2523 119.414C77.2279 119.299 77.1463 118.986 77.1213 118.866C77.095 118.734 77.0153 118.438 76.9954 118.312C76.8118 118.291 76.6281 118.27 76.3816 118.262Z" fill="#292D33"/>
<path d="M73.9266 117.536C73.6903 117.621 73.5234 117.698 73.3565 117.775C73.3764 117.902 73.3944 118.222 73.4091 118.355C73.4233 118.482 73.4419 118.808 73.456 118.936C73.6371 118.986 73.8124 119.037 74.0519 119.086C74.2766 119.003 74.4435 118.926 74.6163 118.848C74.6028 118.727 74.5777 118.396 74.5694 118.268C74.5604 118.134 74.5257 117.822 74.5282 117.687C74.353 117.636 74.1777 117.585 73.9266 117.536Z" fill="#292D33"/>
<path d="M71.2788 116.972C71.0663 117.112 70.9218 117.234 70.7722 117.361C70.8243 117.514 70.9206 117.907 70.9681 118.072C71.0086 118.226 71.1184 118.635 71.1582 118.783C71.3489 118.815 71.5344 118.853 71.7823 118.872C71.989 118.732 72.1335 118.611 72.2831 118.483C72.2433 118.335 72.1335 117.926 72.093 117.772C72.0513 117.607 71.9382 117.221 71.9087 117.06C71.7174 117.023 71.5324 116.99 71.2788 116.972Z" fill="#292D33"/>
<path d="M69.3185 116.596C69.0816 116.674 68.914 116.746 68.7471 116.823C68.7663 116.944 68.7773 117.253 68.7914 117.38C68.8049 117.502 68.8229 117.822 68.8299 117.938C69.011 117.988 69.1863 118.039 69.4252 118.083C69.6505 118.006 69.8181 117.934 69.9908 117.857C69.9837 117.74 69.96 117.421 69.9523 117.299C69.9439 117.171 69.9156 116.863 69.9195 116.74C69.7442 116.689 69.5689 116.638 69.3185 116.596Z" fill="#292D33"/>
<path d="M67.045 116.352C66.8382 116.492 66.6919 116.596 66.5384 116.689C66.6168 116.921 66.6219 117.178 66.5962 117.421L66.5712 117.564C66.7324 117.646 66.889 117.74 67.0964 117.869C67.3366 117.872 67.5202 117.84 67.7147 117.801C67.759 117.568 67.7796 117.331 67.7706 117.092C67.7674 116.852 67.7179 116.617 67.6691 116.389C67.4784 116.357 67.2948 116.336 67.0456 116.358L67.045 116.352Z" fill="#292D33"/>
<path d="M59.4062 115.185C59.1686 115.258 59.0011 115.329 58.8271 115.395C58.8406 115.517 58.8515 115.826 58.8547 115.96C58.8624 116.082 58.8746 116.403 58.8766 116.526C59.0583 116.582 59.2278 116.634 59.4679 116.689C59.6997 116.617 59.8673 116.545 60.0413 116.479C60.04 116.362 60.0214 116.036 60.0136 115.914C60.0111 115.786 59.9886 115.478 59.9982 115.354C59.8223 115.297 59.647 115.246 59.4011 115.191L59.4062 115.185Z" fill="#292D33"/>
<path d="M57.8087 114.61C57.5808 114.717 57.4222 114.816 57.2578 114.916C57.2918 115.065 57.3336 115.441 57.3574 115.602C57.3798 115.752 57.4293 116.145 57.4511 116.289C57.638 116.339 57.8197 116.395 58.0585 116.439C58.2807 116.332 58.4393 116.233 58.6037 116.132C58.5876 115.988 58.5266 115.596 58.5099 115.446C58.4919 115.284 58.4277 114.916 58.4219 114.759C58.2408 114.708 58.0591 114.652 57.8087 114.61Z" fill="#292D33"/>
<path d="M53.8385 114.045C53.667 114.134 53.5181 114.215 53.3929 114.299C53.3332 114.341 53.2272 114.387 53.2888 114.416C53.2959 114.479 53.3377 114.855 53.346 114.931L53.4372 115.752L53.8713 115.13C53.8308 115.135 53.7351 115.169 53.6947 115.173C53.6683 115.147 53.6549 115.184 53.6491 115.237C53.6099 115.411 53.5714 115.591 53.5438 115.817C53.6754 116.001 53.7962 116.14 53.9104 116.274C53.9445 116.317 53.9708 116.343 53.9843 116.307C54.3355 116.256 54.636 116.012 54.5942 115.636C54.5641 115.364 54.4921 114.664 54.4632 114.403L54.4517 114.299C54.5056 114.258 54.3919 114.235 54.3303 114.207C54.1955 114.152 54.0259 114.1 53.8449 114.05L53.8385 114.045Z" fill="#292D33"/>
<path d="M51.964 113.964L51.4927 114.355C51.6 114.584 51.6513 114.836 51.6847 115.084L51.7014 115.234L52.2857 115.387C52.5188 115.326 52.6864 115.254 52.8585 115.171L52.8347 114.957C52.8064 114.597 52.7037 114.251 52.5836 113.907C52.3961 113.904 52.2099 113.913 51.9634 113.958L51.964 113.964Z" fill="#292D33"/>
<path d="M50.5912 113.503C50.2387 113.647 49.9601 113.613 50.0352 113.869L50.0596 114.194C50.0712 114.298 50.0847 114.578 50.0962 114.682C50.276 114.721 50.4507 114.766 50.6883 114.798C50.9143 114.726 51.0825 114.661 51.2565 114.595C51.2449 114.491 51.2263 114.217 51.2199 114.107L51.1955 113.782C51.2308 113.52 50.9636 113.59 50.5912 113.503Z" fill="#292D33"/>
<path d="M48.9747 113.483C48.6312 113.656 48.3551 113.645 48.4463 113.887L48.4938 114.21C48.5111 114.313 48.5477 114.59 48.5644 114.688C48.7487 114.715 48.9272 114.742 49.1635 114.763C49.3876 114.673 49.5487 114.597 49.715 114.514C49.7035 114.41 49.656 114.14 49.6444 114.036L49.5969 113.713C49.6142 113.448 49.3496 113.541 48.974 113.477L48.9747 113.483Z" fill="#292D33"/>
<path d="M47.6482 113.229C47.4267 113.341 47.2681 113.441 47.1159 113.545C47.1531 113.67 47.2129 113.997 47.2456 114.134C47.272 114.266 47.3381 114.598 47.3696 114.724C47.5545 114.756 47.7388 114.783 47.9808 114.803C48.1966 114.691 48.3494 114.592 48.5073 114.487C48.4816 114.361 48.4097 114.029 48.3834 113.897C48.3564 113.76 48.28 113.44 48.2652 113.307C48.0803 113.275 47.9018 113.248 47.6482 113.229Z" fill="#292D33"/>
<path d="M95.3291 87.7367C94.1007 85.9927 91.9025 85.2638 90.1076 84.3205C89.2153 83.816 88.2254 83.2755 87.2386 82.9221C82.0899 80.9035 76.0122 81.8517 71.5775 85.119C64.3495 90.2594 60.9922 99.03 59.3639 107.41C57.8782 115.809 58.3411 124.374 59.3517 132.76C60.3667 141.082 61.5564 149.343 62.9972 157.6C62.7609 149.233 62.1979 140.873 61.6104 132.557C60.8068 120.387 60.5324 107.609 65.803 96.3595C70.0221 86.7613 79.4584 80.2226 89.7793 85.0538C91.7258 85.8339 93.8348 86.1802 95.3356 87.7419L95.3291 87.7367Z" fill="#292D33"/>
<path d="M68.4543 158.812C66.2683 141.87 66.2395 124.812 68.8565 107.982C69.5123 103.868 69.9197 99.7821 72.0463 96.2726C73.4277 94.3801 74.5967 92.2593 76.3049 90.6762C79.4631 87.8197 83.8075 86.4835 88.0384 86.9756C91.2248 87.3314 94.4648 88.7004 96.8482 90.8378C98.0909 92.2875 99.2269 94.1999 100.245 95.8969C104.917 103.802 108.637 116.58 119.684 117.301C121.138 117.333 122.589 117.067 123.885 116.467C121.168 117.394 118.199 116.886 115.772 115.62C107.17 110.78 105.484 98.9364 100.038 91.0176C98.8916 88.9541 96.9184 87.4565 94.8654 86.4012C88.813 82.9305 80.7964 83.4316 75.2944 87.7835C72.8215 89.5918 71.3089 92.3071 69.6037 94.7625C67.2593 98.63 66.7048 103.342 66.135 107.598C63.8479 124.608 64.4801 142.15 68.4492 158.819L68.4543 158.812Z" fill="#292D33"/>
<path d="M115.3 118.119L116.337 118.349C116.445 118.372 116.509 118.207 116.393 118.162C112.992 116.822 110.04 114.73 107.585 112.15C100.075 104.284 96.6776 92.9401 87.8184 86.2544C90.2826 88.9627 92.321 91.9466 94.1623 95.0518C97.8879 101.281 101.195 108.119 106.597 113.161C109.329 115.699 112.716 117.602 116.319 118.345L116.357 118.154L115.294 118.119L115.3 118.119Z" fill="#292D33"/>
<path d="M139.244 118.361C131.449 117.32 123.713 115.817 116.134 113.716L116.306 114.692L119.469 112.515C120.57 111.784 121.104 110.741 122.434 110.552C128.014 109.97 133.86 110.781 139.295 112.164C140.529 112.479 141.709 112.992 142.925 113.361C143.587 113.528 144.257 113.87 144.952 113.758C144.987 113.754 145.113 113.681 145.167 113.582L144.611 113.262C144.277 113.944 143.346 114.094 142.866 114.674C142.439 115.254 141.787 115.918 141.301 116.44C140.374 117.474 138.918 119.17 137.48 118.011C138.85 119.342 140.572 117.675 141.551 116.694C142.033 116.236 142.82 115.522 143.233 115.032C143.791 114.519 144.763 114.376 145.167 113.587L144.611 113.268C144.717 113.11 144.776 113.168 144.75 113.147C143.29 112.852 141.883 112.135 140.481 111.629C137.093 110.505 133.588 109.803 130.033 109.447C128.1 109.269 126.15 109.198 124.213 109.243C123.216 109.265 122.129 109.327 121.159 109.762C120.233 110.169 119.572 111.115 118.824 111.602L115.676 113.813C115.427 113.987 115.365 114.328 115.539 114.578C115.615 114.687 115.729 114.762 115.849 114.79C119.678 115.777 123.558 116.584 127.462 117.188C131.366 117.786 135.301 118.194 139.239 118.373L139.244 118.361Z" fill="#292D33"/>
<path d="M137.485 115.57C138.329 115.16 138.766 116.102 138.011 116.519C137.671 116.727 137.063 116.934 136.667 116.849C136.285 116.78 136.007 116.436 136.178 116.078C136.265 115.91 136.576 115.758 136.886 115.923C136.777 115.566 136.243 115.397 135.83 115.63C135.403 115.888 135.241 116.433 135.369 116.905C135.839 118.353 137.715 118.227 138.682 117.399C139.217 117.001 139.53 116.081 139.06 115.483C138.675 114.911 137.679 114.951 137.485 115.576L137.485 115.57Z" fill="#292D33"/>
<path d="M140.049 113.109C140.416 113.092 140.577 113.437 140.341 113.627C140.165 113.782 139.971 113.774 139.72 113.778C139.472 113.759 139.283 113.739 139.114 113.588C138.914 113.422 139.01 113.125 139.323 113.096C139.228 113.03 139.458 113.157 139.457 113.151L139.432 112.978C139.235 112.731 138.828 112.7 138.542 112.913C137.588 113.757 138.663 115.014 139.696 114.94C139.978 114.944 140.282 114.893 140.574 114.732C141.202 114.434 141.497 113.4 140.836 112.975C140.56 112.807 140.162 112.862 140.055 113.109L140.049 113.109Z" fill="#292D33"/>
<path d="M123.182 111.229C123.458 111.082 123.785 110.922 123.907 111.02C124.013 111.079 124.044 111.198 123.959 111.272C123.879 111.345 123.9 111.32 123.631 111.379C123.153 111.449 122.759 111.587 122.372 111.36C122.073 111.2 121.876 110.741 122.018 110.439C122.026 110.303 122.358 110.237 122.574 110.494C122.586 110.335 122.511 110.138 122.345 110.016C121.691 109.549 121.047 110.493 121.125 111.088C121.232 112.529 122.771 112.909 123.901 112.438C124.645 112.297 125.22 111.308 124.595 110.68C124.021 110.141 123.327 110.587 123.181 111.224L123.182 111.229Z" fill="#292D33"/>
<path d="M120.042 112.832C120.315 112.761 120.474 112.925 120.548 113.069C120.709 113.414 120.149 113.798 119.851 113.802C119.759 113.812 119.778 113.775 119.787 113.85C119.777 113.922 119.731 113.821 119.778 113.722C119.962 113.374 120.415 113.505 120.78 113.629C120.534 112.672 119.153 112.567 118.786 113.528C118.452 114.262 119.158 115.044 119.91 114.961C121.036 114.989 122.045 113.272 120.889 112.609C120.611 112.47 120.153 112.509 120.042 112.826L120.042 112.832Z" fill="#292D33"/>
<path d="M221.851 131.686C223.088 110.212 228.424 84.9287 212.564 67.3103C202.502 56.1015 186.142 55.213 174.758 64.9778C170.724 68.4233 168.091 73.3886 166.529 78.2998C163.109 88.6705 163.532 100.355 157.082 109.509C155.048 112.434 152.277 114.873 148.94 116.221C145.603 117.574 141.745 117.861 138.356 116.462C143.437 119.038 149.789 117.714 154.201 114.344C168.963 102.922 163.052 80.3834 175.626 67.9566C180.012 63.7694 186.013 61.2891 192.069 61.1457C200.953 60.6598 209.055 66.1057 213.893 73.2952C225.294 90.1014 221.287 112.391 221.844 131.681L221.851 131.686Z" fill="#292D33"/>
<path d="M224.84 127.943C225.29 121.228 225.627 114.502 226.024 107.787C226.545 97.755 227.046 87.2273 223.589 77.5596C220.843 69.4532 215.268 61.8415 207.146 58.5357C201.501 56.3143 195.303 56.2333 189.346 56.6294C178.706 57.5792 173.187 66.3256 170.722 75.8642C168.081 85.4985 168.571 96.262 162.575 104.663C161.622 106.039 160.574 107.35 159.513 108.651C158.63 109.604 157.366 111.817 155.891 111.969C157.417 111.858 158.71 109.8 159.713 108.822C166.486 101.682 168.185 95.4203 169.828 86.0137C172.07 73.1964 176.234 58.0228 191.969 58.1897C196.87 58.0746 201.913 58.342 206.498 60.1302C214.178 63.2449 219.429 70.418 222.154 78.07C225.667 87.55 225.45 97.7416 225.172 107.753C225.063 114.483 224.896 121.213 224.84 127.943Z" fill="#292D33"/>
<path d="M157.275 109.24C152.956 112.079 148.256 114.005 143.188 115.035C148.411 115.663 153.999 113.358 157.275 109.24Z" fill="#292D33"/>
</g>
<defs>
<clipPath id="clip0_204_6">
<rect width="263" height="255" fill="white"/>
</clipPath>
</defs>
</svg>
