<svg width="10" height="12" viewBox="0 0 10 12" fill="none" xmlns="http://www.w3.org/2000/svg">
  <path fill-rule="evenodd" clip-rule="evenodd" d="M4.32831 11.6009L4.33025 11.6015C4.45771 11.6571 4.52887 11.6442 4.52887 11.6442C4.52887 11.6442 4.60004 11.6571 4.72815 11.6015L4.72944 11.6009L4.73332 11.5989L4.74497 11.5937C4.80638 11.5652 4.86701 11.535 4.92677 11.5032C5.04711 11.4411 5.21532 11.3479 5.41653 11.223C5.81766 10.9746 6.35142 10.598 6.88777 10.0811C7.95917 9.04851 9.05775 7.43429 9.05775 5.17438C9.05775 4.57964 8.94061 3.99073 8.71301 3.44126C8.48541 2.89179 8.15182 2.39253 7.73127 1.97198C7.31073 1.55144 6.81147 1.21785 6.262 0.990248C5.71253 0.762651 5.12362 0.645508 4.52887 0.645508C3.93413 0.645508 3.34522 0.762651 2.79575 0.990248C2.24628 1.21785 1.74702 1.55144 1.32648 1.97198C0.905932 2.39253 0.572337 2.89179 0.34474 3.44126C0.117143 3.99073 -8.86232e-09 4.57964 0 5.17438C0 7.43364 1.09858 9.04851 2.17062 10.0811C2.61947 10.5122 3.11237 10.8949 3.64122 11.223C3.84605 11.3502 4.05676 11.4677 4.27267 11.575L4.31278 11.5937L4.32443 11.5989L4.32831 11.6009ZM4.52887 6.63009C4.91495 6.63009 5.28522 6.47672 5.55822 6.20372C5.83122 5.93073 5.98458 5.56046 5.98458 5.17438C5.98458 4.7883 5.83122 4.41804 5.55822 4.14504C5.28522 3.87204 4.91495 3.71867 4.52887 3.71867C4.1428 3.71867 3.77253 3.87204 3.49953 4.14504C3.22653 4.41804 3.07317 4.7883 3.07317 5.17438C3.07317 5.56046 3.22653 5.93073 3.49953 6.20372C3.77253 6.47672 4.1428 6.63009 4.52887 6.63009Z" fill="#264D59"/>
</svg>
